<?xml version="1.0" encoding="UTF-8"?>
<svg id="b" data-name="Layer 2" xmlns="http://www.w3.org/2000/svg" width="69.564" height="73.513" viewBox="0 0 69.564 73.513">
  <g id="c" data-name="Layer 1">
    <g>
      <g>
        <path d="m31.277,33.911c-.578-1.345-1.167-2.686-1.722-4.04-.189-.46-.572-1.081.088-1.372.559-.247.844.383,1.055.797.782,1.539,1.52,3.1,2.277,4.652.077.158.166.31.453.454,0-.271-.002-.541,0-.812.016-2.293.017-4.586.06-6.879.011-.595.114-1.197.262-1.774.05-.193.393-.462.562-.436.243.037.548.269.648.497.128.292.094.661.102.997.069,3.044.131,6.089.199,9.133.007.318.04.634.24.991.268-.685.571-1.359.796-2.058.437-1.357.842-2.724,1.236-4.094.251-.873.619-1.296,1.098-1.179.508.124.716.636.456,1.529-.513,1.765-1.093,3.51-1.653,5.261-.112.349-.257.687-.293,1.112,1.229-.822,2.318-1.78,3.202-2.96.496-.661.938-1.363,1.445-2.015.427-.548.87-.629,1.239-.29.42.385.316.806.036,1.213-1.128,1.645-2.265,3.282-3.836,4.553-.171.139-.338.283-.688.575.442-.048.681-.034.894-.103,1.785-.577,3.562-1.178,5.348-1.75.461-.148.942-.274,1.421-.308.422-.03.792-.054.937.614s-.8,1.11-.976,1.167c-2.464.79-4.919,1.612-7.399,2.351-2.999.893-5.97.52-8.85-.514-2.276-.817-4.608-1.333-6.981-1.721-.444-.073-.92-.1-1.312-.291-.283-.138-.62-.507-.63-.784-.018-.455.445-.559.842-.514,1.603.181,3.214.319,4.8.598,1.363.239,2.696.651,4.044.978.134.032.282.004.718.004-1.616-1.204-3.024-2.252-4.431-3.301-.481-.359-.977-.7-1.435-1.087-.287-.243-.575-.567-.271-.967.303-.4.687-.211,1.006-.002,1.603,1.048,3.196,2.111,4.791,3.17.302.2.597.41.895.616.052-.035-.4-1.374-.673-2.011Z" fill="#9e8f4f"/>
        <path d="m14.514,34.708c.036-2.094,1.211-3.342,3.319-3.516.524-.043,1.053-.025,1.575-.081,1.087-.117,1.51-.558,1.603-1.666.041-.486.025-.976.033-1.465.034-2.231,1.237-3.561,3.459-3.791.559-.058,1.126-.034,1.688-.066.486-.028.971-.079,1.457-.125.626-.059.941-.429.973-1.035.038-.712.055-1.425.067-2.138.035-1.986.774-3.037,2.741-3.378,1.35-.234,2.757-.14,4.139-.179.222-.006.445.074.669.087,2.065.128,2.855,1.317,3.287,3.128.13.545.179,1.111.25,1.67.138,1.075.368,1.379,1.427,1.572.772.14,1.562.205,2.347.245,2.411.122,3.541.99,4.165,3.348.21.794.342,1.621.394,2.44.053.845.431,1.325,1.232,1.51.583.134,1.162.295,1.751.396,2.147.368,3.16,1.303,3.635,3.431.13.585.22,1.181.291,1.777.03.253.041.56-.074.768-.165.297-.164.499-.687.562s-.661-.105-.861-.366c-.191-.249-.224-.627-.304-.954-.142-.583-.265-1.17-.4-1.754-.202-.881-.787-1.292-1.653-1.457-.917-.175-1.828-.407-2.722-.679-1.188-.362-1.873-1.18-2.034-2.435-.115-.893-.231-1.79-.427-2.667-.326-1.46-.722-1.771-2.186-1.944-.968-.114-1.947-.189-2.896-.394-1.764-.38-2.563-1.305-2.799-3.069-.08-.595-.151-1.193-.265-1.782-.175-.899-.656-1.521-1.643-1.564-1.309-.056-2.624-.169-3.929-.103-1.299.065-1.694.575-1.742,1.854-.024.638-.031,1.277-.051,1.916-.059,1.881-.939,2.815-2.824,2.967-.561.045-1.127.018-1.689.053-.523.033-1.053.062-1.564.168-1.075.223-1.516.793-1.545,1.895-.019.712.008,1.429-.067,2.135-.167,1.587-1.331,2.663-2.911,2.749-.637.035-1.284-.003-1.909.1-1.223.202-1.68.757-1.679,2,.001.901.093,1.801.114,2.702.01.409.036.486-.1.857-.097.264-.418.568-.684.62-.405.078-.706-.231-.753-.661-.098-.895-.225-3.233-.217-3.684Z" fill="#9e8f4f"/>
        <path d="m29.346,5.525c-.077-2.798,2.66-5.663,4.872-5.52,2.615.17,4.811,2.187,4.809,4.706-.003,3.02-2.082,5.264-4.873,5.221-2.447-.038-4.983-1.668-4.808-4.408Zm7.969-.625c.036-1.735-1.414-3.243-3.154-3.279-1.738-.037-3.261,1.659-3.341,3.72-.065,1.684,1.315,2.945,3.255,2.972,1.905.027,3.197-1.334,3.24-3.413Z" fill="#9e8f4f"/>
      </g>
      <g>
        <path d="m12.16,56.246c-.135.187-.412.265-.954.271-.186.002-.35.009-.494.016-.132.006-.249.011-.354.011-.61,0-.83-.176-1.277-1.416-.082-.341-.382-.575-.718-.56-.723-.017-1.457-.067-2.166-.117l-.217-.016c-.337-.023-.659.15-.836.451-.104.15-.192.312-.259.485-.345.873-1.003,1.246-2.014,1.142-.455-.047-.731-.17-.869-.385-.131-.204-.131-.494,0-.886.106-.317.231-.634.35-.939.063-.16.126-.321.187-.482.146-.389.293-.778.44-1.167.393-1.038.799-2.111,1.187-3.172.124-.337.235-.684.342-1.02.124-.388.252-.787.399-1.173.362-.952.606-1.12,1.628-1.122h.441l.037-.007c.083,0,.166.002.249.002.18.002.366.005.548-.004.478-.05.923.259,1.067.738l.686,1.778c.405,1.055.824,2.144,1.242,3.215.168.435.351.871.527,1.295.135.326.276.664.409.998.15.373.273.718.378,1.056.165.528.175.82.04,1.008Zm-4.168-4.958l-.018-.121q-.265-1.761-.816-1.761c-.564,0-.744.34-.959,1.82-.01.072.01.146.057.2s.113.087.184.089c.222.006.431.019.632.03.211.012.429.025.667.031.073.002.143-.029.192-.085.05-.055.072-.131.061-.206v.002Z" fill="#9e8f4f"/>
        <path d="m16.347,52.288c0-.805-.018-1.61.005-2.414.024-.853.09-1.703.132-2.555-.008-.353.228-.659.558-.729.187-.067.382-.106.58-.118.889.024,1.777.076,2.666.109.496.019.992.013,1.487.034.719.017,1.428.183,2.086.487,1.425.687,2.091,1.947,2.298,3.484.174,1.296-.092,2.614-.751,3.727-.574,1.021-1.542,1.73-2.654,1.946-.534.106-1.077.159-1.62.159-1.066.025-2.133.011-3.2.008-.198.007-.396-.007-.591-.039-.708-.145-.98-.46-.999-1.22-.021-.96-.005-1.921-.005-2.881h.008Zm3.318-3.304c-.483.062-.632.254-.648.77-.015.492.069,1.004-.03,1.476-.133.633.015,1.233.027,1.849.004.252.074.483.346.521.459.101.929.143,1.397.127.562-.096,1.114-.238,1.654-.427,1.251-.366,1.558-2.232.853-3.251-.337-.56-.897-.931-1.525-1.009-.37-.031-1.756-.095-2.074-.054h0Z" fill="#9e8f4f"/>
        <path d="m40.3,52.821c-.337,1.597-1.386,2.618-2.7,3.318-1.779.947-3.569.917-5.255-.303-.597-.424-1.077-1.005-1.392-1.685-.866-1.874-.894-3.724.041-5.586.424-.829,1.099-1.487,1.919-1.871,1.004-.51,2.129-.699,3.236-.547.516.067,1.032.079,1.516.319,1.791.885,2.655,2.396,2.753,4.429.005.644-.034,1.287-.119,1.925Zm-2.966-3.097c-.356-.647-1.028-1.032-1.741-.996-1.268,0-2.355.947-2.585,2.253-.265,1.345.292,3.039,2.188,3.005.1-.002.199,0,.298,0,1.152.019,1.866-.527,2.15-1.705.223-.861.112-1.781-.31-2.557Z" fill="#9e8f4f"/>
        <path d="m52.762,51.121c.194.133.381.277.558.435,1.414,1.412.771,3.813-.861,4.488-.545.249-1.132.384-1.727.395-1.759-.021-3.517-.008-5.276-.017-.562-.003-.738-.167-.823-.766-.152-1.021-.17-2.06-.054-3.086.121-.996.028-2.017.058-3.028.021-.722.07-1.443.143-2.162.054-.529.267-.731.768-.774.713-.063,1.428-.146,2.142-.14,1.086.011,2.175.056,3.257.152.74.066,1.504.211,1.884,1.018.424.901.682,1.837.232,2.826-.074.163-.148.324-.301.659Zm-1.895,2.643c.234-.024.417-.222.432-.467.016-.245-.141-.466-.369-.522-.112-.043-2.084-.079-3.023-.068-.099.003-.197.021-.291.053-.227.064-.363.306-.309.544.019.231.107.407.337.443.44.069,3.102.02,3.222.018Zm-.891-3.555c.139-.009.267-.078.355-.19.088-.112.127-.258.108-.402-.015-.296-.176-.492-.546-.511-.668-.033-1.339-.025-2.008-.013-.303.006-.427.216-.428.521,0,.291.079.518.392.557.707.065,1.418.078,2.126.038h0Z" fill="#9e8f4f"/>
        <path d="m61.369,48.935c-.404.01-.528.185-.506.586-.011.132.035.262.124.355s.213.141.339.13c.322.008.646-.009.966.015.517.037,1.036.067,1.546.155.753.129.997.571.788,1.336-.212.777-.408.954-1.208.991-.644.03-1.29.005-1.933.031-.383.016-.519.22-.478.612.004.132.061.257.158.342s.223.123.348.105c.57.007,1.141-.003,1.71.018.913.031,1.825.097,2.739.118.728.017,1.084.699.939,1.429-.205,1.044-.388,1.226-1.428,1.245-.545.011-1.092-.012-1.636.013-.566.025-1.132.131-1.697.126-1.012-.011-2.023-.074-3.035-.123-.359-.024-.662-.289-.75-.653-.092-.241-.145-.497-.156-.757-.014-1.062-.015-2.127.007-3.189.015-.749.088-1.495.11-2.244.02-.7-.007-1.401.01-2.101.021-.876.192-1.055,1.006-1.062,1.066-.009,2.137.063,3.196-.022,1.04-.085,2.066.106,3.099.03.461-.063.903.219,1.06.678.231.503.183,1.098-.126,1.552-.179.225-.456.336-.732.293-.719,0-3.693-.025-4.461-.008Z" fill="#9e8f4f"/>
        <path d="m11.937,71.246c-.135.187-.412.265-.954.271-.186.002-.35.009-.494.016-.132.006-.249.011-.354.011-.61,0-.83-.176-1.277-1.416-.082-.341-.382-.575-.718-.56-.723-.017-1.457-.067-2.166-.117l-.217-.016c-.337-.023-.659.15-.836.451-.104.15-.192.312-.259.485-.345.873-1.003,1.246-2.014,1.142-.455-.047-.731-.17-.869-.385-.131-.204-.131-.494,0-.886.106-.317.231-.634.35-.939.063-.16.126-.321.187-.482.146-.389.293-.778.44-1.167.393-1.039.799-2.111,1.187-3.173.124-.336.235-.683.342-1.02.124-.387.252-.787.399-1.173.362-.951.606-1.119,1.628-1.121h.441l.037-.007c.083,0,.166.002.249.002.18.002.366.005.548-.004.478-.05.923.259,1.067.737.229.594.457,1.187.686,1.779.405,1.055.824,2.144,1.242,3.215.168.435.351.871.527,1.295.135.326.276.664.409.998.15.373.273.718.378,1.056.165.528.175.82.04,1.008Zm-4.168-4.959l-.018-.12q-.265-1.761-.816-1.761c-.564,0-.744.34-.959,1.82-.01.071.01.146.057.2s.113.087.184.089c.222.006.431.019.632.03.211.012.429.025.667.031.073,0,.143-.029.192-.085.05-.055.072-.131.061-.206h0Z" fill="#9e8f4f"/>
        <path d="m25.781,69.183c-.266,1.576-1.403,2.117-2.655,2.45-1.275.354-2.622.299-3.868-.155-1.415-.568-2.442-1.557-2.908-3.163-.561-1.935-.092-3.675.884-5.25.73-1.179,1.919-1.829,3.284-1.975.56-.069,1.126-.061,1.684.024,1.586.273,2.745,1.217,3.507,2.681.313.6.226.85-.334,1.173-.313.18-.639.335-.975.464-.551.211-.851.111-1.203-.354-.146-.218-.303-.427-.47-.628-.49-.499-1.178-.724-1.853-.605-.675.118-1.255.566-1.562,1.206-.263.582-.376,1.227-.327,1.869.085,1.103.726,1.83,1.712,2.204.217.083,1.216.234,1.518-.154.062-.039.113-.094.149-.16.045-.091.04-.2-.015-.284-.123-.185-.385-.121-.489-.118-.104.003-.321.044-.426-.033-.124-.112-.21-.265-.245-.433-.16-.494-.141-1.033.053-1.515.103-.171.265-.294.453-.342.358-.098.725-.155,1.094-.171.692-.023,1.386,0,2.079,0,.924,0,1.03.387,1.106,1.12.034.722-.031,1.445-.193,2.148Z" fill="#9e8f4f"/>
        <path d="m40.317,71.246c-.135.187-.412.265-.954.271-.186.002-.35.009-.494.016-.132.006-.249.011-.354.011-.61,0-.83-.176-1.277-1.416-.083-.341-.382-.575-.718-.56-.723-.017-1.457-.067-2.166-.117l-.217-.016c-.337-.023-.659.15-.836.451-.104.15-.192.312-.259.485-.345.873-1.003,1.246-2.014,1.142-.455-.047-.731-.17-.869-.385-.131-.204-.131-.494,0-.886.106-.317.231-.634.35-.939.063-.16.126-.321.187-.482.146-.389.293-.778.44-1.167.393-1.039.799-2.111,1.187-3.173.124-.336.235-.683.342-1.02.124-.387.252-.787.399-1.173.361-.951.606-1.119,1.628-1.121h.441l.037-.007c.083,0,.166.002.249.002.18.002.366.005.548-.004.478-.05.923.259,1.067.737.229.594.457,1.187.686,1.779.405,1.055.824,2.144,1.242,3.215.168.435.351.871.527,1.295.135.326.275.664.409.998.15.373.273.718.378,1.056.165.528.175.82.04,1.008Zm-4.168-4.959l-.018-.12q-.265-1.761-.816-1.761c-.564,0-.744.34-.959,1.82-.01.071.011.146.057.2.046.055.113.087.184.089.222.006.431.019.632.03.211.012.429.025.667.031.073,0,.143-.029.192-.085.05-.055.072-.131.061-.206h0Z" fill="#9e8f4f"/>
        <path d="m54.223,62.47c-.603,1.476-1.213,2.947-1.815,4.423-.389.952-.768,1.908-1.153,2.861-.068.167-.15.328-.222.492-.375.852-.923,1.307-1.903,1.203-.582-.028-1.094-.409-1.31-.975-.722-1.759-1.372-3.549-2.054-5.324-.241-.624-.489-1.245-.743-1.863-.117-.285-.271-.555-.388-.84-.303-.733-.138-.992.631-1.004.198-.002.397-.005.595.012.662.056,1.104.312,1.342,1.067.316,1.001.816,1.94,1.233,2.907.153.354.282.72.448,1.065.079.154.167.304.265.446.048.073.131.113.215.104.085-.01.157-.067.189-.15.176-.463.318-.851.484-1.228.528-1.198,1.074-2.39,1.612-3.584.135-.288.414-.473.721-.476.469-.039.941-.038,1.41.003.543.054.666.319.443.859Z" fill="#9e8f4f"/>
        <path d="m61.593,63.935c-.403.009-.528.185-.506.586-.011.132.035.262.124.355s.213.141.339.13c.322.007.646-.009.966.015.517.037,1.036.067,1.546.154.753.13.997.571.788,1.337-.212.777-.408.954-1.208.991-.644.03-1.29.005-1.933.031-.383.016-.519.22-.478.612.004.132.061.257.158.342s.223.123.348.105c.57.007,1.141-.003,1.71.018.913.031,1.825.097,2.739.118.728.017,1.084.699.939,1.429-.205,1.044-.388,1.226-1.428,1.245-.545.011-1.092-.012-1.636.013-.566.025-1.132.131-1.697.126-1.012-.011-2.023-.074-3.035-.123-.359-.024-.662-.289-.75-.653-.092-.241-.145-.497-.156-.757-.014-1.062-.015-2.127.007-3.189.015-.749.088-1.495.11-2.244.02-.7-.007-1.401.01-2.101.021-.876.192-1.055,1.006-1.062,1.066-.01,2.137.063,3.196-.023,1.04-.085,2.066.107,3.099.031.461-.063.903.219,1.06.677.232.503.184,1.099-.126,1.553-.179.225-.456.335-.732.293-.719,0-3.693-.026-4.461-.008Z" fill="#9e8f4f"/>
      </g>
    </g>
  </g>
</svg>