<?xml version="1.0" encoding="UTF-8"?>
<svg id="b" data-name="Layer 2" xmlns="http://www.w3.org/2000/svg" width="114.387" height="99.349" viewBox="0 0 114.387 99.349">
  <g id="c" data-name="Layer 1">
    <g>
      <g>
        <path d="m9.412,65.593c.329.011,2.315,1.259,2.756,2.659.419,1.333.449,2.618-.134,3.866-.608,1.302-1.592,2.217-3.127,2.57-1.849.426-3.459-.106-4.889-1.107-1.069-.749-1.619-1.902-1.683-3.194-.035-.53.002-1.062.112-1.583.341-1.478,1.289-2.519,2.706-3.158.581-.263.811-.168,1.085.376.153.304.282.619.385.941.169.529.06.807-.396,1.113-.212.126-.417.263-.615.409-.495.436-.743,1.07-.667,1.711.076.641.466,1.21,1.051,1.533.534.278,1.133.419,1.74.406,1.042-.021,1.645-.488,1.846-1.456.154-.716.025-1.463-.362-2.096-.18-.229-.392-.433-.631-.605-.413-.372-.478-.542-.221-1.01.261-.478.715-1.388,1.044-1.376Z" fill="#9e8f4f"/>
        <path d="m14.027,51.714c.161.155.199.432.13.954-.023.179-.039.338-.053.478-.012.127-.023.24-.037.342-.083.587-.283.774-1.536,1.035-.339.033-.604.289-.636.614-.114.693-.263,1.392-.408,2.067l-.044.207c-.068.32.055.653.32.865.13.121.274.227.431.315.793.45,1.062,1.134.824,2.092-.107.432-.262.681-.488.784-.214.098-.493.059-.852-.121-.29-.146-.577-.309-.855-.465-.146-.082-.292-.165-.438-.245-.354-.194-.708-.389-1.062-.583-.945-.519-1.921-1.056-2.889-1.573-.307-.165-.625-.319-.934-.469-.355-.172-.723-.35-1.073-.544-.866-.477-.994-.735-.857-1.719l.061-.425v-.036c.01-.08.023-.159.035-.239.026-.173.054-.352.071-.527.017-.467.374-.853.854-.926.602-.139,1.203-.278,1.804-.417,1.069-.246,2.173-.501,3.26-.756.44-.104.886-.219,1.316-.33.333-.086.676-.175,1.016-.258.379-.094.728-.165,1.066-.221.531-.086.812-.057.975.1Zm-5.335,3.333h-.118q-1.729.016-1.804.546c-.077.543.226.762,1.619,1.17.068.021.142.011.2-.026.06-.037.1-.097.111-.165.036-.212.077-.411.115-.604.041-.201.083-.409.121-.638.011-.07-.009-.142-.055-.197-.046-.055-.116-.087-.19-.087h0Z" fill="#9e8f4f"/>
        <path d="m9.752,43.053c.32-.116.432-.652.59-.994.243-.522.445-1.062.652-1.6.324-.876,1.074-1.534,2.01-1.766.458-.114.946-.09,1.397.07,1.901.712,2.871,2.309,2.462,4.228-.129.604-.152,1.221-.492,1.789-.342.611-.801,1.152-1.353,1.596-.659.498-1.503.594-2.341.577-.143.004-.282-.056-.376-.162-.095-.106-.134-.247-.107-.383.09-.841.213-1.691,1.097-2.136.421-.211.756-.549.957-.964.136-.349.234-.711.293-1.081-.023-.385-.214-.745-.526-.992-.147-.124-.346-.173-.532-.13-.187.042-.338.17-.405.343-.125.287-.219.586-.282.893-.209.792-.557,1.54-1.029,2.214-1.106,1.716-3.435,1.427-4.493.343-.549-.591-.874-1.343-.917-2.126-.041-.624-.011-1.248.09-1.862.089-.499.234-.985.431-1.451.432-1.102,1.314-1.7,2.489-1.917.245-.038.498-.011.731.079.175.09.312.237.381.416.179.444-.303,1.585-.733,1.821-.765.499-1.18,1.363-1.086,2.261.122.647.419,1.185,1.094.935Z" fill="#9e8f4f"/>
        <path d="m23.52,27.257c.092.204.024.475-.233.934-.088.158-.162.3-.226.424-.059.114-.111.215-.162.304-.295.515-.55.614-1.81.39-.327-.096-.669.044-.819.334-.363.601-.761,1.194-1.146,1.768l-.118.175c-.183.272-.192.627-.024.922.076.161.17.313.283.453.568.713.564,1.447-.013,2.248-.259.36-.496.533-.744.546-.235.012-.479-.129-.746-.429-.215-.243-.421-.501-.621-.749-.105-.131-.21-.262-.316-.391-.257-.312-.514-.624-.77-.937-.685-.832-1.391-1.693-2.097-2.533-.223-.267-.461-.528-.692-.782-.266-.291-.541-.593-.794-.903-.626-.765-.649-1.052-.157-1.914l.213-.371.013-.035c.04-.069.082-.138.122-.208.089-.15.181-.307.262-.464.189-.426.664-.651,1.137-.541.61.095,1.219.189,1.829.283,1.083.17,2.203.344,3.307.511.448.068.904.126,1.345.183.341.044.693.089,1.039.138.386.055.737.118,1.072.192.524.117.775.25.868.454Zm-6.19,1.11l-.11-.043q-1.61-.629-1.877-.165c-.273.476-.074.791,1.068,1.688.056.044.127.062.196.05.069-.013.128-.054.164-.112.113-.184.224-.354.332-.518.112-.172.229-.349.349-.547.036-.061.044-.134.022-.203-.023-.068-.076-.124-.144-.151h0Z" fill="#9e8f4f"/>
        <path d="m28.396,16.9c-.394-.675-.802-1.342-1.176-2.026-.396-.727-.758-1.473-1.139-2.208-.178-.292-.131-.664.112-.884.124-.147.268-.276.429-.382.757-.415,1.527-.806,2.289-1.213.425-.227.838-.475,1.264-.699.611-.337,1.287-.545,1.988-.611,1.531-.121,2.707.61,3.632,1.799.78,1.002,1.202,2.238,1.193,3.493.018,1.137-.448,2.205-1.275,2.931-.396.35-.824.66-1.28.926-.882.543-1.784,1.052-2.68,1.571-.163.103-.335.188-.516.257-.664.225-1.047.094-1.434-.535-.488-.794-.944-1.608-1.413-2.413l.007-.005Zm1.167-4.394c-.375.289-.406.522-.167.962.228.421.549.809.696,1.253.198.596.616,1.027.927,1.537.127.21.299.369.545.268.434-.141.848-.335,1.233-.577.424-.354.819-.745,1.179-1.167.871-.919.214-2.635-.874-3.144-.557-.305-1.208-.342-1.773-.1-.325.154-1.52.779-1.766.969h0Z" fill="#9e8f4f"/>
        <path d="m43.609,6.576c-.38.097-.46.29-.352.664.018.127.089.24.194.31.104.069.232.087.349.05.307-.063.609-.148.918-.196.497-.077.995-.16,1.497-.188.741-.04,1.068.324,1.035,1.094-.033.781-.18.99-.929,1.199-.603.168-1.219.284-1.823.448-.36.098-.444.32-.32.684.032.124.113.229.223.288s.238.068.353.024c.541-.117,1.079-.249,1.623-.354.871-.168,1.749-.304,2.618-.481.693-.142,1.177.427,1.198,1.147.033,1.032-.102,1.244-1.083,1.488-.514.128-1.036.226-1.545.366-.531.146-1.044.369-1.579.487-.96.209-1.932.368-2.9.541-.345.055-.688-.129-.851-.455-.139-.209-.245-.439-.312-.682-.243-1.003-.474-2.009-.683-3.019-.148-.712-.24-1.435-.382-2.147-.133-.666-.31-1.323-.446-1.988-.169-.834-.046-1.04.723-1.224,1.007-.239,2.036-.403,3.021-.715.966-.306,1.979-.346,2.94-.642.423-.16.902.011,1.15.41.328.426.411.999.217,1.496-.121.251-.359.416-.63.436-.68.156-3.501.776-4.225.959Z" fill="#9e8f4f"/>
        <path d="m69.665,11.594c-.061.733-.302.878-.994.861-.977-.023-1.677-.543-2.242-1.289-.816-1.078-1.599-2.185-2.392-3.284-.116-.162-.146-.213-.291-.272-.061-.023-.129-.018-.185.018-.056.034-.093.094-.102.161-.019.161-.036.318-.057.476-.114.871-.216,1.744-.351,2.611-.038.273-.132.536-.273.771-.335.521-1.872.369-2.113-.201-.071-.186-.1-.387-.081-.586.113-1.506.227-3.013.368-4.517.097-1.023.25-2.043.361-3.065.109-.993.382-1.23,1.318-1.113.785.099,1.391.438,1.776,1.211.271.472.578.919.921,1.336.493.678.994,1.348,1.505,2.011.034.044.065.092.1.139l.179.186.004.002c.085.051.189.053.277.006s.147-.137.159-.239c.019-.139.036-.275.046-.414.067-.878.123-1.758.195-2.636.08-.976.475-1.297,1.385-1.136.188.039.373.093.554.161.473.167.583.304.545.822-.195,2.662-.396,5.323-.613,7.982Z" fill="#9e8f4f"/>
        <path d="m83.6,13.567c-.895,1.308-2.214,1.835-3.652,1.977-1.948.19-3.544-.499-4.604-2.218-.379-.602-.595-1.3-.626-2.026-.082-2.002.577-3.672,2.106-4.996.688-.587,1.537-.927,2.416-.968,1.09-.084,2.17.162,3.106.709.438.251.896.453,1.243.847,1.279,1.458,1.495,3.133.831,4.993-.234.579-.508,1.142-.82,1.683Zm-1.516-3.877c-.079-.713-.54-1.307-1.193-1.538-1.139-.47-2.465-.022-3.155,1.063-.736,1.108-.863,2.834.851,3.506.09.035.179.073.268.11,1.027.443,1.87.218,2.562-.733.52-.69.76-1.556.669-2.408Z" fill="#9e8f4f"/>
        <path d="m87.62,20.755c-.063.067-.15.107-.24.112-.091.005-.178-.026-.242-.087-.34-.317-.945-.89-1.233-1.188-.379-.394-.384-.627-.025-1.092.606-.799,1.315-1.515,2.108-2.128.772-.593,1.422-1.347,2.145-2.011.517-.475,1.051-.931,1.6-1.366.404-.321.688-.31,1.059.01.527.453,1.069.896,1.549,1.396.729.764,1.435,1.552,2.101,2.369.456.561.873,1.191.57,2.001-.339.906-.815,1.72-1.807,2.076-.133.048-.492.176-.492.176-1.915.595-3.151-1.102-4.648-2.488-.548.397-1.071.831-1.564,1.296-.24.253-.628.66-.878.923Zm4.374-4.381c-.203.197-.307.405-.122.649.434.537.906,1.04,1.414,1.506.101.091.235.134.373.118.139-.015.267-.086.354-.196.194-.212.223-.457-.015-.727-.43-.487-.89-.948-1.352-1.405-.209-.208-.438-.151-.652.055Z" fill="#9e8f4f"/>
        <path d="m97.566,37.072c-.22-.044-.4-.257-.624-.733-.076-.163-.148-.305-.213-.431-.058-.113-.11-.215-.152-.308-.246-.54-.179-.805.736-1.699.269-.21.354-.568.206-.859-.277-.646-.528-1.313-.77-1.961l-.074-.197c-.115-.308-.398-.521-.735-.557-.175-.032-.354-.044-.533-.034-.91.048-1.505-.384-1.82-1.318-.142-.421-.145-.714-.01-.923.127-.198.383-.314.782-.356.323-.034.652-.052.971-.069.167-.009.334-.019.501-.029.403-.027.806-.055,1.209-.081,1.075-.071,2.188-.145,3.281-.229.347-.026.698-.067,1.038-.107.393-.047.797-.095,1.197-.12.986-.064,1.233.084,1.647.986l.178.391.021.029c.033.073.065.147.099.221.07.16.144.325.225.483.236.401.144.919-.222,1.239-.432.44-.864.881-1.295,1.321-.769.783-1.562,1.592-2.34,2.392-.316.324-.629.661-.932.987-.234.251-.476.511-.717.764-.27.282-.524.53-.78.76-.4.357-.654.484-.874.44Zm2.7-5.679l.1-.064q1.448-.943,1.227-1.43c-.228-.499-.601-.521-1.994-.114-.068.02-.125.067-.154.13-.03.063-.032.136-.005.198.084.198.157.388.228.571.075.19.151.389.242.602.027.065.083.114.152.137.068.021.145.011.206-.029h0Z" fill="#9e8f4f"/>
        <path d="m100.859,48.921c-.543.101-.641.032-.788-.493-.032-.116-.055-.235-.081-.353-.382-1.713-1.493-6.136-1.518-6.582-.023-.413.332-.546.705-.626,1.23-.267,2.458-.545,3.687-.818.002.009,2.279-.488,3.481-.743.319-.07.644-.11.97-.119.552-.011.771-.178.921.682.025.212.14.722.218,1.057.041.18-.066.363-.249.425l-.327.109c-.273.072-.551.129-.831.169-.956.09-3.92.791-4.482.91-.134.028-.499.115-.942.216.146.653.289,1.308.435,1.961.226,1.011.458,2.02.673,3.032.138.65.076.73-.615.897-.416.1-.834.197-1.255.276Z" fill="#9e8f4f"/>
        <path d="m108.444,55.429c-.051-.389-.233-.491-.618-.428-.129.004-.249.061-.331.157-.081.096-.114.221-.09.341.026.312.075.622.086.934.018.503.042,1.007.01,1.508-.047.741-.448,1.022-1.209.899-.772-.124-.963-.294-1.082-1.062-.096-.618-.139-1.244-.23-1.862-.054-.369-.266-.479-.641-.397-.127.018-.241.086-.313.188-.072.103-.096.229-.065.347.052.551.12,1.101.16,1.653.064.884.095,1.771.169,2.655.059.705-.562,1.119-1.282,1.056-1.029-.089-1.225-.247-1.351-1.249-.066-.525-.102-1.055-.182-1.578-.082-.544-.243-1.079-.297-1.624-.095-.978-.138-1.961-.195-2.942-.014-.35.21-.669.554-.792.224-.114.465-.191.714-.229,1.025-.124,2.052-.235,3.081-.325.725-.063,1.453-.07,2.179-.127.678-.054,1.352-.153,2.029-.21.849-.07,1.039.076,1.13.861.119,1.027.16,2.068.354,3.082.189.995.11,2.006.29,2.994.109.439-.117.895-.544,1.094-.462.276-1.041.291-1.512.04-.235-.149-.371-.405-.358-.676-.075-.693-.357-3.567-.454-4.307Z" fill="#9e8f4f"/>
        <path d="m108.557,68.484c-.266.213-.2.756-.241,1.131-.062.572-.081,1.149-.105,1.725-.027.933-.527,1.798-1.341,2.317-.397.255-.867.388-1.346.382-2.029-.064-3.46-1.267-3.687-3.216-.07-.612-.246-1.205-.105-1.852.129-.688.391-1.349.771-1.945.465-.684,1.234-1.045,2.033-1.299.135-.05.286-.037.409.033.124.07.206.191.225.328.184.826.339,1.671-.356,2.375-.331.335-.54.763-.598,1.22-.018.374.006.749.068,1.119.145.356.441.636.815.771.179.07.383.053.546-.048.164-.1.266-.27.274-.455.026-.312.02-.625-.019-.936-.055-.817.035-1.638.267-2.428.5-1.98,2.799-2.453,4.147-1.766.71.384,1.258.991,1.551,1.72.238.577.409,1.179.511,1.792.075.501.094,1.009.056,1.514-.057,1.182-.702,2.032-1.746,2.614-.22.114-.468.17-.718.159-.194-.028-.371-.125-.494-.271-.312-.363-.221-1.599.112-1.96.564-.719.682-1.67.306-2.49-.322-.575-.776-.988-1.336-.534Z" fill="#9e8f4f"/>
      </g>
      <g>
        <path d="m22.674,93.432c-.678,0-1.358.01-2.034-.035-.951-.063-1.43-.58-1.44-1.558-.106-10.485-.039-20.965.881-31.422.53-6.029,1.265-12.021,3.095-17.819,2.551-8.084,6.754-15.007,13.798-20.039,4.65-3.321,9.809-5.206,15.414-5.731,8.139-.762,15.988.374,23.278,4.349,5.642,3.077,9.743,7.674,12.939,13.148,3.559,6.097,5.483,12.772,6.795,19.65,1.194,6.258,1.674,12.593,1.798,18.947.112,5.734.034,11.472.037,17.209,0,.37-.007.741-.034,1.11-.136,1.869-.497,2.206-2.388,2.206-12.208.002-60.301-.013-72.139-.015Zm70.573-2.774c.577,0,1.048-.451,1.087-1.027.02-.298.034-.586.032-.873-.044-6.046-.007-12.095-.179-18.137-.163-5.736-.648-11.456-1.798-17.094-1.3-6.374-3.129-12.562-6.496-18.204-3.546-5.941-8.253-10.539-14.754-13.198-3.757-1.537-7.648-2.354-11.667-2.627-8.358-.567-16.047,1.178-22.67,6.615-4.913,4.033-8.112,9.22-10.284,15.106-2.264,6.136-3.253,12.551-3.617,19.023-.54,9.605-.766,19.227-1.114,28.842-.006.175,0,.35.011.523.039.568.518,1.005,1.087,1.005h30.855c.868,0,1.378-.963.903-1.69-2.211-3.38-3.721-6.89-4.482-10.738-.065-.329-.49-.711-.834-.841-2.765-1.046-5.454-2.206-7.713-4.435-.463-.457-1.211-.415-1.621.091-.083.102-.167.198-.258.286-.392.382-.834.741-1.314,1-1.358.736-2.702.607-3.591-.277-.951-.946-1.083-2.373-.334-3.758.613-1.132,1.55-1.906,2.73-2.385.232-.094.469-.178.696-.254.44-.148.733-.564.733-1.028v-.973c0-.607-.499-1.097-1.106-1.087-.379.006-.732.005-1.083-.028-1.644-.154-2.956-.868-3.632-2.452-.688-1.613-.185-3.029.883-4.276,1.903-2.222,4.777-2.293,6.805-.197.002.003.005.005.007.008.411.426,1.073.478,1.52.089l1.159-1.009c.527-.458.492-1.289-.075-1.697-.089-.064-.177-.13-.264-.197-1.61-1.246-2.793-2.785-3.157-4.84-.449-2.535.87-3.745,3.351-3.11.099.025.365.27.393-.081s.1-1.326.207-1.989c.118-.728.234-1.469.476-2.161.433-1.243,1.232-2.142,2.648-2.247,1.195-.088,2.18.581,2.763,2.047.381.957.557,1.997.826,3.002.115-.017.244-.005.341-.055,1.21-.625,2.443-.992,3.622,0,1.247,1.051,1.613,2.449,1.298,4.015-.48,2.383-1.608,4.382-3.594,5.848-.132.098-.263.198-.396.302-.448.351-.548.991-.228,1.461,1.958,2.878,2.312,6.285,3.034,9.637.151.702.925,1.06,1.567.738,1.922-.966,3.853-1.577,6.015-1.342.623.068,1.183-.378,1.224-1.003.231-3.501.5-6.907,4.18-8.486.56-.24.786-.92.518-1.468-.371-.758-.721-1.472-1.028-2.203-.619-1.475-1.29-2.944-1.726-4.477-1.171-4.119.759-7.361,4.897-8.42,2.29-.586,4.677.58,5.763,2.68.925,1.788,1.41,3.718,1.471,5.736.11,3.662-.128,7.275-1.864,10.655.498.59.999,1.13,1.44,1.715,2.816,3.744,1.791,8.056-2.491,9.925-1.498.654-3.196.852-4.806,1.248-.506.125-1.021.217-1.534.324,1.182,5.086,1.027,7.114-.695,10.559-1.33,2.66-3.459,4.621-5.636,6.545-.44.389-1.415,1.01-.456,1.411s31.95-.072,31.95-.072Zm-36.1-1.823c.381.547,1.154.642,1.641.188,1.825-1.7,3.602-3.226,5.095-4.993,3.591-4.251,3.544-8.749.85-13.573-1.051-1.88-2.73-2.646-4.848-2.21-2.893.595-5.18,2.137-6.783,4.59-.797,1.22-1.114,2.71-.908,4.153.614,4.291,2.338,8.097,4.953,11.844Zm-8.523-14.109c.512.241,1.123.046,1.404-.445.855-1.489,1.604-2.763,2.275-4.076.282-.552.496-1.281.389-1.866-.431-2.361-.958-4.708-1.538-7.037-.22-.885-.582-1.768-1.049-2.55-.766-1.283-2.332-1.861-3.752-1.395-.698.229-1.403.568-1.982,1.016-4.787,3.705-4.576,11.035.468,14.382,1.209.802,2.557,1.394,3.784,1.971Zm18.529-4.661c1.284,1.033,4.668-.371,6.773-1.484,2.618-1.384,3.168-3.724,1.574-6.213-1.075-1.678-2.641-2.734-4.442-3.477-2.805-1.158-4.029-.778-5.523,2.629-1.493,3.406.332,7.513,1.617,8.546Zm5.552-12.702c.519.22,1.139.016,1.394-.487.866-1.708.89-3.533,1.131-5.278.377-2.729.032-5.408-1.104-7.944-.439-.98-1.056-1.812-2.244-1.985-2.74-.399-5.506,2.41-5.047,5.129.573,3.399,2.38,6.31,3.727,9.402.103.236.44.404.704.529.461.218.931.419,1.438.634Zm-30.801-8.791c-.458.216-.273,1.701.393,2.821,1.308,2.199,3.588,2.86,5.774,3.663.205.075.489.008.716-.06,2.225-.667,4.778-3.965,4.778-6.305,0-.609-.229-1.382-.643-1.761-.231-.212-1.116.129-1.612.396-1.993,1.073-2.747.674-2.998-1.559-.108-.963-.312-1.947-.675-2.839-.344-.845-1.051-.841-1.518-.064-.247.411-.425.905-.481,1.379-.121,1.035-.11,2.085-.214,3.123-.191,1.91-.975,2.344-2.685,1.544-.268-.125-.378-.556-.836-.339Zm-1.905,11.314c.006-.219-.35-.64-.67-.999-1.398-1.565-3.576-1.305-4.622.53-.788,1.382-.232,2.731,1.304,3.159,2.144.598,3.094.133,3.93-1.927.067-.166.051-.545.058-.763Zm-.186,10.22c-.119-.343-.739-.735-1.075-.687-1.123.161-2.069.776-2.506,1.868-.148.371-.258,1.129.137,1.346s1.017.028,1.301-.218c.726-.627,2.262-1.966,2.143-2.309Z" fill="#9e8f4f"/>
        <path d="m62.075,78.182c.782-.045,1.412.508,1.496,1.314.12,1.145-.876,2.602-1.825,2.669-.737.052-1.427-.556-1.508-1.328-.111-1.059.959-2.605,1.837-2.655Z" fill="#9e8f4f"/>
        <path d="m61.035,75.144c.008,1.399-.508,2.153-1.454,2.123-.833-.027-1.506-.889-1.541-1.977-.037-1.129.688-2.085,1.605-2.118.884-.032,1.382.674,1.39,1.971Z" fill="#9e8f4f"/>
        <path d="m58.119,81.89c.018.794-.123,1.588-1.029,1.718-1.039.15-1.352-.626-1.452-1.503-.007-.061-.028-.12-.038-.181-.217-1.222.157-2.126.947-2.289.796-.164,1.44.615,1.556,1.886.011.123.012.246.016.369Z" fill="#9e8f4f"/>
        <path d="m69.87,66.939c-.785-.011-1.355-.634-1.314-1.435.048-.928,1.047-1.862,1.958-1.808.815.048,1.19.535,1.192,1.316.003.968-.938,1.939-1.836,1.926Z" fill="#9e8f4f"/>
        <path d="m71.76,46.953c-.014.141-.022.386-.063.624-.125.73-.492,1.319-1.285,1.277-.812-.043-1.069-.698-1.107-1.429-.013-.241,0-.486.03-.727.13-1.077.664-1.659,1.406-1.548.662.1,1.02.697,1.02,1.802Z" fill="#9e8f4f"/>
        <path d="m46.012,62.483c.575-.532,1.413-.506,1.99.062.821.807.979,2.565.29,3.22-.536.509-1.455.479-2.008-.065-.759-.747-.918-2.62-.272-3.217Z" fill="#9e8f4f"/>
      </g>
    </g>
  </g>
</svg>