<?xml version="1.0" encoding="UTF-8"?>
<svg id="b" data-name="Layer 2" xmlns="http://www.w3.org/2000/svg" width="119.361" height="74.44" viewBox="0 0 119.361 74.44">
  <g id="c" data-name="Layer 1">
    <g>
      <path d="m76.476,59.147c-.008,1.318-1.178.668-1.733.353-1.123-.638-1.465.39-1.684,1.465-.21,1.031-.333,2.064-.565,3.098-.192.855-.212,1.609.351,2.327.659.841,1.029,1.058,1.32.046.181-.628.898-2.052,1.737-1.229.578.566-.158,2.311-.23,2.963-.115,1.038-.262,1.956-.809,2.865-.479.797-.967.889-1.879.903-.477.007-1.096.08-1.531-.133-.352-.173-.481-.559-.856-.705-.839-.328-1.627-.09-2.427-.692-.947-.712-.916-1.271-.816-2.303.081-.829.455-2.428.224-3.231-.211-.732-1.572-1.97-2.242-2.208-.928-.331-.832-.059-1.392-.939-.205-.323-.434-.464-.659-.747-.33-.415-.282-.69-.448-1.136-.174-.468-.175-.386-.49-.744-.384-.438-.537-.317-.569-.954-.023-.451.146-.736.044-1.205-.164-.758-.169-.699-.004-1.428.2-.886-.58-.986-.375-1.821.248-1.011,1.526-1.9,2.153-2.709.421-.543,1.525-1.672,1.031-2.425-.21-.32-.828-.406-1.146-.627-.489-.338-.851-.851-1.203-1.321-.234-.312-.457-.849-.74-1.098-.462-.407-.303-.152-.906-.268-.337-.065-.7-.367-1.05-.323-.646.08-.477.519-.685.94-.796,1.608-4.396,1.805-6.036,2.015-2.181.279-4.29.807-6.486,1.053-2.298.258-4.644-.63-6.496-1.953-1.696-1.211-3.688-2.229-5.611-3.011-.889-.362-1.136-.953-1.742-.006-.184.288-.26.627-.512.872-.325.317-.777.358-1.031.767-.443.713-.29,1.909-.494,2.724-.271,1.087-.561,2.116-.75,3.222-.19,1.107-.758,2.029-1.025,3.096-.248.991-.199,2.325-.025,3.332.417,2.425,1.764,4.62,2.574,6.92.466,1.323.696,1.059,1.703,1.731.795.531,1.763,1.51,2.382,2.231.64.745,1.12,1.613,1.757,2.366.547.648.993,1.356.456,2.176-.881,1.344-4.372,1.269-5.485.464-1.481-1.071-3.56-1.873-3.899-3.98-.324-2.015-1.82-4.106-2.816-5.941-1.053-1.94-2.639-3.547-3.718-5.487-.25-.449-.435-.932-.682-1.38-.229-.415-.683-.794-.783-1.251-.145-.668.922-2.607.483-3.049-.63-.635-3.651,3.472-3.963,4.037-1.088,1.975-2.131,4.309-2.367,6.572-.111,1.061-.281,2.415-.229,3.475.05,1.014.859,1.96,1.496,2.691,1.26,1.446,3.834,1.551,1.663,3.658-1.326,1.287-3.937.234-5.644.063-.888-.089-1.336-.049-1.739-.909-.482-1.03-.127-1.795-.122-2.801.004-.846-.81-1.389-1.241-2.062-.327-.511-.573-.786-.533-1.386.035-.52.213-1.201.29-1.736.327-2.276,1.194-4.53,1.762-6.756.275-1.08.57-2.185.704-3.292.128-1.059-.229-2.474.148-3.463.246-.645.816-.873,1.103-1.517.477-1.069,1.221-1.985,2.039-2.825,1.234-1.266,2.953-3.145,2.804-5.03-.152-1.914-.611-3.746-1.947-5.107-.571-.581-.668-1.363-1.21-1.997-.796-.931-1.073-1.402-1.136-2.683-.02-.399-.303-5.503-.492-5.526-1.033-.122.272,5.422.311,5.865.088.99-.164,2.265-.358,3.253-.22,1.122-.169,2.284-.471,3.386-.324,1.178-2.054,5.186-3.871,4.12-.621-.365-.072-.715-.284-1.096-.14-.251-.541-.232-.636-.413-.5-.951,1.133-1.492.984-2.313-.124-.683-1.035.472-1.598-.244-.544-.692.29-.575.406-1.042.138-.559.026-.177-.299-.409-.274-.196-.721.017-.738-.495-.003-.077.477-.571.518-.646.474-.864.835-1.886,1.285-2.787.438-.875,1.152-2.073,1.139-3.052-.017-1.21-.449-2.442-.398-3.676.041-.98.245-1.908.533-2.834.342-1.097.289-2.174.91-3.19,2.327-3.805,7.346-5.412,10.962-7.645.903-.558,1.826-1.129,2.793-1.568,1.06-.482,2.06-.461,3.172-.68,1.139-.225,2.256-.155,3.39-.342,1.052-.173,2.196-.636,3.22-.952,2.448-.757,4.947-1.307,7.392-2.067,2.422-.753,4.818-1.692,7.277-2.315,1.172-.297,2.411-.534,3.616-.616,1.377-.094,2.448-.376,3.747-.823,1.159-.399,2.382-.534,3.531-.963,1.244-.465,2.442-1.01,3.731-1.348,2.521-.661,5.067-.277,7.576-.77,1.108-.218,2.153-.54,3.294-.515,1.084.024,2.141.312,3.218.418,1.122.111,2.219.195,3.34.253.629.032,2.798.407,1.637,1.361-.544.447-2.238-.019-2.92-.016-1.376.005-2.617-.257-3.966-.412-2.253-.259-4.407.377-6.645.385-2.461.008-4.692.666-6.929,1.595-1.877.779-3.972,1.045-5.774,1.917-2.212,1.07-4.962.711-7.34,1.365-4.733,1.303-9.336,3.278-14.175,4.176-1.143.212-2.04.504-3.127.882-1.131.393-2.332.191-3.503.338-2.402.301-3.8,1.576-5.745,2.794-.908.569-1.85,1.016-2.848,1.405-.801.313-2.019.665-2.679,1.191-.883.703-.003.671.528,1.034.265.181.555.373.553.753-.004.758-.606.493-.989.776-.474.351-.208.327-.286.884-.077.549-.333,1.043-.503,1.566-.386,1.189-.651,2.449-.807,3.689-.146,1.164-.314,2.634-.13,3.797.169,1.072,1.137,2.081,1.72,2.99.515.805,1.076,1.929,1.813,2.553.327.277.759.341,1.073.644.336.324.499.869.709,1.274,1.059,2.05,2.477,4.255,3.128,6.474.155.529-.013.853.024,1.373.03.419.229.772.377,1.17.282.76.216,2.547.815,3.099.248.229.69.121.949.406.278.305.144.675.229,1.029.232.962.833,1.188.851,2.276.012.727.267,2.086-.291,2.662-.77.793-1.764.168-1.1,1.454.491.952,1.024,1.872,1.566,2.793.525.893.591,1.905,1.032,2.832.457.959,1.063,1.849,1.525,2.807.27.558.331,1.101.53,1.663.167.471.488.791.718,1.225.703,1.324,1.859,2.6,3.481,2.618.94.011,1.425.037.702-.826-.635-.758-1.206-1.841-1.991-2.441-.745-.569-1.248-.792-1.766-1.643-.613-1.007-1.128-2.097-1.562-3.191-.433-1.093-.733-2.223-1.056-3.352-.292-1.018-.829-2.041-.558-3.053.236-.885.234-1.834.487-2.747.305-1.098.733-1.938.831-3.099.09-1.077.294-2.118.432-3.186.118-.913.378-1.984.371-2.888-.008-1.056-.497-2.174-.606-3.23-.076-.735-.176-2.561.588-2.943,1.327-.663.723,1.285,1.217,1.74.431.396,1.174-1.191,1.486-1.665.617-.936,1.097-1.909,1.614-2.899.529-1.013,1.214-1.696.681-2.845-.446-.961-.94-1.784-1.227-2.843-.308-1.134-.428-2.306-.728-3.443-.192-.727-.759-1.989.265-2.369,1.036-.384.955.995,1.12,1.644.558,2.205,1.424,4.345,2.03,6.538.302,1.094.226,1.937-.264,2.933-.486.989-.713,1.88-1.002,2.952-.863,3.206,1.251-.668,2.435.143.648.444-.018,1.392-.356,1.823-.504.644-1.875.861-1.016,1.574.436.362,1.741.908,2.096.686.366-.229.411-.826.936-1.055.529-.23.502-.103.941.085.314.134.578.236.916.359.467.17.368.367.713.589.367.235.314-.018.723.086.405.103.809.44,1.161.669.854.555,1.943,1.171,1.677,2.3-.208.882-.87.956.016,1.338.343.148,2.046.403,2.299-.058.056-.101-.164-.72-.277-.793-.26-.169-.426.04-.74.051-.401.014-.573.296-.899-.124-.342-.443.052-.915.253-1.277.236-.424.467-.509.337-.961-.115-.396-.622-.672-.717-1.173-.124-.649.177-1.652,1.042-1.503.876.15.661,1.381,1.04,1.97.445.692,1.366.831,1.422,1.766.048.796-.972,1.782.231,1.867,2.093.148,1.898-3.138,3.331-4.027.277-.172.557-.187.836-.39.24-.175.297-.367.563-.512.154-.084.404.021.565-.06.78-.394,1.115-1.165,1.359-1.972.239-.788.892-.841,1.118-1.522.155-.465-.086-1.086.005-1.57.12-.635.34-.535.675-.994.458-.629.67-1.433,1.109-2.097.533-.806,1.323-1.455,1.766-2.297.101-.193.591-.842.038-.916-.364-.049-.264.342-.529.451-.268.111-.694-.011-.84.16-.2.233.114.739-.176.988-.249.214-.65-.143-.866.045-.194.169-.014.606-.079.834-.371,1.29-1.149-.265-1.44-.859-.179-.364-.641-.984-.308-1.367.195-.224.77-.083,1.029-.157.221-.064.85-.238.99-.37.346-.325.12.071.131-.499.008-.396-.213-.557.022-.944.163-.269.556-.33.737-.6.25-.374.206-.98.341-1.416.196-.632.21-.71.712-1.216.434-.438.505-.636,1.028-.635.158,0,.365.528.572.377.37-.271-.856-1.951-1-2.307-.416-1.023-.858-2.015-1.35-3.006-.228-.46-.456-1.265-.806-1.655-.43-.48-.474-.091-.961-.335-1.987-.996,1.824-4.27,2.059-2.55.055.406-.374.68-.413,1.074-.054.549.302.943.573,1.394.62,1.034,1.13,2.123,1.66,3.204.471.961.913,1.741,1.472,2.631.591.94.667,2.167.823,3.24.346,2.379.579,4.603.624,7.003.022,1.215.299,2.354.417,3.554.113,1.159.081,2.255.332,3.414.443,2.044,1.839,3.851,2.894,5.632.456.77.807,2.278,1.503,2.819.149.116.176.483.419.321.199-.132.065-1.29.068-1.543.007-.707-.474-2.223.137-2.743,1.023-.87,1.163.832,1.25,1.454.051.361.013.971.169,1.296.15.313.535.49.708.822.222.423.158.562.487.917.309.333.481.333.698.782.344.707.778,1.481.876,2.305.168,1.408.297.249,1.187.785.679.409.306,1.879.36,2.552.054.674.303,2.434,1.063,2.664l-.006-.007Zm-4.974,2.762c.013-1.252-.72-.891-1.37-1.591-.294-.317-.123-1.063-.741-1.114-.417-.035-.535.379-.741.652-.342.453-.53.5-.904.821-.425.365-.646.274-.573,1.04.115,1.194,1.222,1.404,1.795,2.264.52.781.469,2.005.326,2.892-.074.463-.395.788.068,1.036.304.163,1.172-.2,1.36-.466.667-.944-.751-1.846-.449-2.837.125-.41.595-.717.786-1.111.199-.408.481-1.128.442-1.584Zm-59.346,9.149c.53.003,1.816.124,1.859-.581.023-.368-.722-1.13-.975-1.308-.869-.613-1.398-.383-1.743.513-.459,1.195-.506,1.376.859,1.376ZM61.331,27.984c.018.622-.718.554-.881,1.073-.078.248.098,1.312.163,1.54.049.171-.121.738.319.428.223-.157.22-.847.318-1.105.303-.791.354-.87.264-1.791-.035-.363.066-1.529-.205-1.787-.233-.221-.544-.059-.595.352-.042.339.586.868.617,1.29Zm-19.062,17.762c-1.083.012-.269-1.062-.648-1.261-.533-.28-.817.878-.605,1.197.352.528,1.472,1.165,1.878.58.612-.882-.254-.509-.625-.517Z" fill="#9e8f4f"/>
      <path d="m102.254,20.821c.05.586.371.213.764.335.552.171.692.353.996.829.273.427,1.213,2.315.201,2.453-.388.053-.436-.518-.733-.511-.673.014-.458.443-.552.899-.164.803-.181,1.564-1.143,1.879-1.305.427-.866-.477-.842-1.219.019-.583.123-.327-.44-.776-.33-.263-.758-.573-1.193-.594-.611-.029-.827.379-1.445.024-.396-.228-.615-.709-.796-1.107-.192-.421-.589-3.322-.971-3.363-.902-.098-.286,3.101-.088,3.543.576,1.285.918,2.446,2.037,3.405.558.478,2.643,1.815,1.078,2.411-1.258.479-3.066-1.716-3.602-2.631-.729-1.243-1.032-2.753-1.29-4.155-.173-.945-.234-1.76-.016-2.695.046-.196.92-2.648.799-2.698-.168-.07-.703.297-.826.392-.478.37-.478.609-.629,1.136-.086.302-.073.551-.203.853-.138.322-.479.497-.59.87-.231.777-.058,1.443-.458,2.237-.481.954-1.131,3.316-2.197,3.789-.734.326-1.127-.449-1.016-1.089.091-.525.603-.76.282-1.175-.158-.204-1.219.622-.987-.49.086-.413,1.25-1.089,1.521-1.47.42-.592.176-.811.306-1.424.152-.719.842-.97,1.32-1.416.795-.743-.049-.786.11-1.661.11-.603,1.03-.976,1.503-1.228.592-.315.879-.419,1.478-.364.562.052.146.611.677.189.194-.154.323-.815.456-1.036.307-.514.595-.839,1.227-.884.343-.024,1.039.426,1.237-.009.137-.301-1.087-.901-1.319-1.117-.574-.533-1.009-1.257-1.458-1.891-.829-1.173-1.381-2.802-2.497-3.724-1.198-.99-2.416-1.981-3.654-2.934-1.35-1.038-3.009-1.38-4.653-1.825-.593-.16-2.039-.24-2.381-.778-.406-.637.204-.98.747-1.085.698-.135,2.065.373,2.75.534.863.203,1.742.4,2.585.672,1.494.481,2.16,1.566,3.433,2.318.586.346,1.259.288,1.818.696.538.392.95,1.078,1.32,1.618,1.034,1.51,1.688,3.277,2.864,4.691.435.523.896.821,1.479,1.155.432.248,1.243,1.025,1.713,1.078.558.062.397-.507.922-.744.571-.257,1.677.292,2.266.38.37.055,1.018.289,1.397.212.554-.112.791-.693,1.324-.696.321-.002.303.288.539.354.293.082.497.063.759.115.591.118,1.032.163,1.658.124.565-.035,1.336-.465,1.838-.36.304.064.525.527.807.669.244.124.509.105.751.226.312.156.878.462,1.133.676.588.493.338,1.138.665,1.812.214.443.602,1.136.914,1.522.385.476.606.313,1.079.605.7.433,1.709,2.555,1.509,3.284-.093.339-.334.711-.467,1.048-.312.792-.248.603-.002,1.26.351.938.437,1.427.442,2.488.009,2.091.056,4.182-.027,6.273-.077,1.961-.407,3.866-.599,5.811-.095.967-.475,1.885-.571,2.837-.068.672.351,1.083.35,1.681-.002.942-.724.663-1.231,1.24-.358.408-.22.904-.8,1.191-.834.414-1.413.292-2.14,1.004-.466.456-.802,1.087-1.332,1.472-.473.343-1.466.175-1.667.494-.294.468.004,2.11.003,2.665-.002.898.178,2.042-.157,2.9-.066.169-.304.708-.521.826-.688.377-.713-.393-1.193-.321-.133.02-.713,1.195-.969,1.403-.206.168-.504.378-.764.45-.209.058-.617-.086-.787.026-.492.321-.043.927-.484,1.309-.6.519-1.251-.138-1.561-.636-.324-.519-.633-1.102-.957-1.639-.291-.483-.381-1.61-.774-1.933-.338-.278-.724-.017-1.144-.29-.642-.417-.412-1.18-.884-1.634-.361-.347-.942-.162-1.313-.564-.329-.357-.395-1.174-.582-1.619-.14-.334-.474-1.35-.851-1.471-.37-.119-.582.255-.883.361-.42.148-.705.167-1.156.19-.574.029-1.158-.023-1.659.24-.576.303-.635,1.041-1.434.672-.524-.242-.221-.571-.859-.482-.172.024-.443.314-.556.395-.306.219-.434.329-.755.433-.184-.031-.369-.062-.553-.093-.242.113-.463.257-.665.432-1.173.471-1.758-.902-1.085,1.129.496,1.495,1.016,3.359.904,4.947-.042.598-.454,1.014-.474,1.575-.022.637.436,1.46.757,2.001.814,1.373,2.281,2.135,2.603,3.773.298,1.515-.326,3.248.712,4.397.86.951,1.022,2.203.12,3.163-.488.519-.819.935-1.534,1.138-.929.263-1.47-.109-2.356-.263-1.491-.258-3.012-.452-4.542-.438-1.185.011-1.727.062-2.322-1.105-.349-.684-.319-.929.361-1.259.167-.081.876-.264,1.076-.278.399-.027.54.069.924.098.511.039.614.263.585-.311-.013-.256-.477-.844-.572-1.128-.151-.456-.21-.937-.257-1.412-.064-.638.105-1.571-.259-2.108-.139-.205-.619-.306-.821-.539-.192-.222-.246-.598-.447-.842-.127-.154-.418-.152-.555-.349-.18-.26-.041-1.119-.261-1.241-.172-.095-.484.408-.618.432-.34.061-.677-.143-.922-.361-.536-.476-.413-.84-.941-.781-.048.005-.301.43-.466.494-.311.122-.61-.003-.883-.144-.626-.323-.66-1.296-1.283-1.516l.006.007c-.108-.654-.429-1.612-.384-2.268.029-.422.278-.569.364-.92.209-.86-.502-2.092-.178-3.009.366-1.037,1.155-.417,1.871-.087.521.24.586.067.73.712.122.545-.138,1.434-.659,1.701-.361.184-.868-.219-1.114.224-.237.428.377.862.524,1.245.082.212.548,3.119,1.118,2.238.258-.4-.847-1.795.683-1.501.464.089.676.646.919.994.497.71.233.61.839.194,1.113-.765,1.136-.921,2.264.094.123.111.117.365.248.472.121.099.328.013.428.091.324.251.737.51,1.003.816.465.536.368.626.436,1.362.057.605.309,1.09.425,1.664.123.607-.078.864.35,1.3.451.458,1.517.397,2.077.706.949.524.484,1.343-.566,1.352-.5.004-1.299-.494-1.783-.112-.464.366-.258.84.073,1.217.656.747,2.423.884,3.263.392.756-.443.61-2.165.751-3.026.188-1.154-.386-1.552-1.127-2.361-.819-.895-1.518-1.888-2.013-2.999-1.124-2.516-.439-5.199-.845-7.815-.193-1.246-.715-2.518-1.286-3.632-.557-1.087-.421-2.128-.814-3.205-.261-.716-.394-.6-.185-1.412.146-.569.284-1.12.385-1.705.073-.419.336-1.053.11-1.454-.242-.428-.62-.171-.618-.814.002-.677,1.1-2.936,1.755-3.21,1.729-.724.019,1.854.05,2.024.092.512.905-.665,1.435-.245.92.728-.641,2.205-.541,3.071.141,1.216.579-.408.806-.787.282-.47.628-.873.87-1.377.237-.493.373-1.228.795-1.612,1.094-.995,1.207.577.91,1.368-.226.604-.401,1.215-.613,1.819-.241.686-.706.778-1.05,1.331-.296.477-.28,2.699.357,1.937.061-.073-.164-.468-.153-.561.061-.488.306-.89.53-1.32.238-.456.529-1.27,1.064-1.448,1.131-.377.631.907,1.082,1.071.283.103.664-.303,1.014-.121.345.179.522.73.864.964.634.434,2.595,1.526,3.355,1.375.437-.087.736-.544,1.178-.617.113-.019.244.167.376.166.199-.001.629-.202.844-.291.701-.292.492.074.419-.648-.074-.736-.158-1.394.356-2.05.29-.371.811-.723,1.295-.446.572.328.377,1.092.406,1.613-.987.479-.807,1.045-.851,1.856-.013.232-.601,1.228-.42,1.407.539.531,1.111-.559,1.158-.933.098-.782-.097-1.504.107-2.337,2.244-1.107,1.006,1.705,1.478,2.436.265.41.97.463,1.416.377,1.082-.209.258-.504.703-1.369.815-1.585,2.385.521,3.062,1.197.581.581,1.138,1.361,1.98,1.557.625.146,1.69-.03,1.822-.816.101-.6-.671-1.397-.796-2.013-.204-1.011.269-.869.639-1.641.291-.607-.215-1.076.758-1.241.815-.138,1.593.536,2.47.404,1.577-.238,1.477-2.727,1.506-4.004.043-1.91.564-3.815.567-5.741.001-.746.289-2.172-.068-2.84-.355-.664-.698-.445-1.262-.476-.687-.038-1.294-.007-1.009-.995.268-.929,1.249-.998,1.864-1.488.65-.518.368-.805.198-1.474-.164-.643-.319-1.236-.51-1.897-.135-.469-.018-1.998-.351-2.321-.414-.402-1.274-.377-1.783-.82-1.053-.918-.947-2.477-2.311-3.047-.568-.238-1.022.141-1.564-.021-.369-.11-.598-.478-.998-.582-.482-.126-.719.026-1.169.135-.852.205-1.494-.146-2.397-.148-.637-.002-1.27-.098-1.871-.11-.552-.012-.743-.084-1.261-.174-.523-.091-.295-.092-.745-.02-1.02.165-1.865.53-2.793.987-.171.084-.585.137-.697.288-.5.674.323.716.571,1.024.243.302,1.185,1.625,1.031,1.971-.459,1.029-1.122-.513-1.492-.368-.429.17-.048,1.475.036,1.942.185,1.029,1.027,1.32,1.799,1.941.178.144,1.164,1.107,1.468.861.442-.357-.692-1.325-.773-1.705-.279-1.31,1.003-.544,1.573-.586l-.007-.006Zm11.07,20.78c-.642.262.005.607.406.968.225.202.645.438.767.74.056.138-.043.751.032.829.403.418.558-.939.468-1.143-.271-.616-1.017-1.274-1.674-1.393Zm-19.723,4.484c.013.515.572.443.813.098.009-.013-.089-1.858-.036-1.821-.199-.138-.747,1.604-.777,1.723Zm10.847.803c.067.122-.13.348.092.407.13.035.53-.839.488-.926-.333-.693-.58.291-.58.519Z" fill="#9e8f4f"/>
      <path d="m23.62,36.647c-.821.01-.88-.575-1.157-1.194-.312-.697-.796-1.175-1.045-1.907-.306-.902-.457-1.865-.713-2.783-.235-.841-.716-1.263-.67-2.113.04-.748-.057-1.217-.668-1.743-.208-.179-.441-.088-.622-.373-.231-.366.031-.897.132-1.267.126-.465.393-2.05.949-2.213.551-.161.456.204.768.454.083.066.638.36.682.404.511.511.167.62.311,1.201.193.782.865.676,1.239,1.207.84,1.193-1.169,3.024-.395,4.021.006.008.584.337.612.353.065.139.15.265.256.379.157-.023.309-.065.455-.125,1.002.382.586.902.324,1.91-.263,1.011-.221,1.732.111,2.682.146.418.291,1.205-.566,1.107Z" fill="#9e8f4f"/>
      <path d="m108.554,32.45c-.005,1.778-1.765,1.177-2.867,1.155-1.331-.026-4.194.241-3.358-2.002.472-1.266,1.902-1.646,3.128-1.698,1.645-.071,2.637,1.052,3.097,2.545Z" fill="#9e8f4f"/>
      <path d="m75.819,69.34c.166-.913.255-3.759,1.6-3.758,1.559.001.15,2.159.661,2.28.277.066.885-2.352,1.789-1.007.455.677-.335,3.189-.511,3.909-.105.428-.178.918-.675,1.052-.764.206-.589-.579-1.042-.739-.415-.146-.674.297-1.12.127-.533-.203-.719-1.393-.702-1.863Z" fill="#9e8f4f"/>
      <path d="m60.677,68.701c-.426.037-.816-.778-.992-.738-.244.056-.084,1-.292,1.238-.39.446-.879.371-1.253-.027-.492-.526-.567-1.543-.842-2.197-.284-.675-.76-1.218-1.098-1.858-.681-1.288.368-1.985,1.414-.942.286.285,1.553,2.647,1.648,2.617.279-.087-.281-1.342-.27-1.551.049-.892.975-1.142,1.593-.47.598.651,1.669,3.957.091,3.927Z" fill="#9e8f4f"/>
      <path d="m95.754,32.7c-.036-.23.518-1.199.35-1.314-.325-.222-1.189,1.324-1.796,1.188-1.487-.334.52-1.892.298-2.269-.179-.303-.872.311-1.048-.403-.13-.526.652-1.251,1.019-1.476.478-.293.96-.426,1.384-.009.232.227.203.529.447.688.136.089.605.165.8.266.184.095.195.401.428.5.279.118.593-.22.91.008.842.605-.169,1.242-.565,1.653-.33.342-2.276,3.448-2.227,1.169Z" fill="#9e8f4f"/>
      <path d="m26.038,25.382c-1.136.031-.379-1.088-.467-1.604-.162-.949-.851-.751-.47-1.915.148-.453.562-.902.666-1.328.1-.409-.063-.448-.064-.836-.002-.606.56-1.704,1.342-1.752.915-.056.625.487.53,1.002-.093.505-.205.267-.178.875.02.448.29.914.335,1.367.083.822-.614,4.189-1.694,4.191Z" fill="#9e8f4f"/>
      <path d="m109.837,24.111c.133.876-.535,1.353-1.273,1.297-.306-.023-.704-.151-.945-.334-.156-.119-.37-.656-.484-.656-.363.001-.36.604-.951.406-.594-.2-.755-1.044-.883-1.561-.204-.822-.377-3.142,1.073-1.903.22.188.225.649.519.759.501.186.674-.416,1.207-.059.398.266.311.828.717,1.075.167.101.459-.101.7.064.235.161.32.678.32.912Z" fill="#9e8f4f"/>
      <path d="m107.678,28.775c.078-.601-.101-1.918.869-1.886.683.022.506.673.931.941.263.167.512-.05.809.035.173.05.593.386.8.462.731.268,1.069.194.914,1.322-.042.304-.132.852-.449,1.017-.622.322-.46-.192-.844-.367-.19-.087.096-.267-.303-.188-.153.03-.2.487-.374.583-.324.177-1.464.334-1.837.131-.709-.387-.515-1.381-.515-2.05Z" fill="#9e8f4f"/>
      <path d="m38.565,70.15c-.008.582-.569,1.109-1.126.823-.477-.245-.676-1.247-.851-1.711-.411-1.091-1.631-3.362-1.403-4.526.079-.403.421-.832.884-.783.657.069.788.989.977,1.521.539,1.518,1.189,3.1,1.519,4.676Z" fill="#9e8f4f"/>
      <path d="m97.056,39.813c.063.753-.208,2.33-1.31,1.906-.998-.384-.027-2.277-.313-2.339-.111-.024-.436.551-.574.608-.512.211-.883-.102-.99-.612-.169-.802.653-2.688,1.311-3.138.416-.284,1.021-.463,1.211.221.148.532-.715,1.04-.619,1.541.111.577.447.074.823.268.597.308.461.994.461,1.544Z" fill="#9e8f4f"/>
      <path d="m85.334,29.504c-.435.029-.376-.382-.657-.408-.332-.031-.168.061-.472.18-.441.172-.733.785-1.266.141-.588-.711.991-3.614,1.843-3.491.529.076.418.782.865.744.368-.031.369-.753.973-.534,1.128.408-.409,3.406-1.286,3.368Z" fill="#9e8f4f"/>
      <path d="m108.971,69.382c0-.769-.462-3.534,1.003-3.296,1.174.191.763,2.566.745,3.358-.016.698.007,3.363-1.09,3.286-1.107-.078-.663-2.668-.663-3.348h.005Z" fill="#9e8f4f"/>
      <path d="m94.265,25.733c.009.596-1.369,3.667-2.063,2.225-.119-.247.275-.938-.136-.998-.359-.052-.584.977-1.214.815-1.5-.386.62-2.753,1.09-3.212.466-.456.886-.716,1.437-.246.291.248.842,1.077.886,1.415Z" fill="#9e8f4f"/>
      <path d="m21.029,71.214c0,1.79-1.148.923-1.572-.212-.417-1.116-1.029-2.979-.828-4.185.066-.398.294-.943.784-.936.652.009.649.695.749,1.132.317,1.373.935,2.75.867,4.202Z" fill="#9e8f4f"/>
      <path d="m73.208,44.14c0-.552-.057-1.088.667-1.037.749.053.547,1.551.962,1.598.133.015.156-1.112.619-1.247.906-.264.84,1.145.908,1.668.05.382.412,1.481-.135,1.668-.678.232-.943-.984-1.185-.901-.534.184.535,2.046-.776,1.379-.625-.318-1.132-2.493-1.061-3.128Z" fill="#9e8f4f"/>
      <path d="m23.405,71.182c.14,1.454-1.393,1.389-1.867.24-.202-.489-.244-1.06-.311-1.575-.073-.563-.29-1.283-.165-1.847.221-1,1.283-1.407,1.793-.379.235.473.147,1.138.23,1.654.097.595.441,1.299.319,1.906Z" fill="#9e8f4f"/>
      <path d="m57.655,12.383c-.032.511-.179.629.066,1.079.1.184.437.082.537.382.095.282-.123.596-.267.825-.195.31-.939,1.337-1.273,1.506-.657.332-1.086-.27-.965-.899.1-.518.47-.62.361-1.197-.031-.163-.417-.239-.455-.459-.05-.292.136-.501.212-.758.136-.464.219-1.119.683-1.326.674-.301,1.111.24,1.102.847Z" fill="#9e8f4f"/>
      <path d="m112.221,70.825c.122-1.066.33-2.419.936-3.336.522-.791,1.625-1.144,1.77.045.111.907-.941,2.589-1.388,3.345-.534.904-1.318,1.455-1.318-.053Z" fill="#9e8f4f"/>
      <path d="m105.494,68.95c0-.731-.428-2.767.65-2.87,1.163-.111.882,1.676.882,2.33,0,.821.319,2.496-.521,3.073-1.372.943-.999-1.883-.999-2.533-.004,0-.008,0-.012,0Z" fill="#9e8f4f"/>
      <path d="m40.556,37.059c.513,0,2.075.191,1.73.981-.222.508-1.498.314-1.373.815.105.419,1.139.274,1.311.783.069.206-.036.668-.026.875.02.409.544.61-.019.977-.88.573-.78-.404-.976-.771-.337-.631.207.079-.313-.392-.309-.279-.678.045-1.003-.43-.385-.563.036-.493.094-1.004.053-.464-.068-.271-.197-.73-.188-.671-.109-1.117.773-1.104Z" fill="#9e8f4f"/>
      <path d="m38.106,66.396c.008-1.129.957-1.208,1.53-.349.46.689,1.029,2.242,1.068,3.04.059,1.195-.917,1.307-1.547.48-.558-.732-1.024-2.263-1.051-3.171Z" fill="#9e8f4f"/>
      <path d="m110.479,20.366c.154-1.562.54-1.639,1.87-1.092.848.349,1.492.59,1.181,1.751-.117.436-.255.792-.765.821-.186-.14-.369-.283-.55-.428-.202-.051-.361.017-.475.205-.438.062-.646.596-1.138.051-.248-.275-.123-.975-.123-1.308Z" fill="#9e8f4f"/>
      <path d="m66.943,38.249c-.114.455-.381,1.046-.106,1.477.243.381.836.078,1,.695.073.275-.183,1.609-.259,1.862-.195.652-.625,1.09-1.162.398-.427-.55-.037-1.035-.129-1.602-.11-.673-.727-1.103-.776-1.827-.018-.274.057-1.277.26-1.555.489-.669,1.182-.178,1.172.552Z" fill="#9e8f4f"/>
      <path d="m114.179,71.478c.005-.827.338-2.536,1.187-2.985.972-.513,1.383.328,1.123,1.173-.195.633-.618,2.332-1.119,2.814-.788.759-1.191-.268-1.191-1.002Z" fill="#9e8f4f"/>
      <path d="m95.972,69.421c0-.717-.231-2.409.857-2.501,1.241-.105.683,1.659.676,2.283-.006.563.29,2.186-.488,2.494-1.253.496-1.032-1.767-1.032-2.276-.004,0-.008,0-.012,0Z" fill="#9e8f4f"/>
      <path d="m102.261,20.827c-.543-1.058-.434-1.434.153-2.384.295-.477.163-.456.579-.795.117-.095,1.025-.658,1.158-.679.379-.06.767.18.883.562.204.674-.354.836-.692,1.24-.539.646-1.071,2.218-2.088,2.05l.007.006Z" fill="#9e8f4f"/>
      <path d="m70.187,11.519c-.49.014-1.159-.222-1.386-.701-.347-.733.199-.714.461-1.266.302-.635-.064-.895.754-1.081.543-.123,1.56.227,1.828.714.823,1.495-1.432.658-1.512.969-.082.322.716.446.788.655.201.583-.428.705-.934.709Z" fill="#9e8f4f"/>
      <path d="m4.991,68.242c.177.558.993,2.087.512,2.62-.812.901-1.446-.85-1.702-1.327-.345-.641-1.607-1.656-.916-2.32.947-.912,1.477.789,2.113,1.035l-.006-.007Z" fill="#9e8f4f"/>
      <path d="m51.137,40.775c.046.377-.189,1.144-.616,1.264-.211.025-.397-.037-.558-.186-.216-.184-.387-.153-.512.093-.443.113-.347.626-1.005.288-.375-.193-.592-1.065-.582-1.441.01-.38.068-.691.406-.903.679-.425.728.156,1.197.333.446.168,1.79-.807,1.67.552Z" fill="#9e8f4f"/>
      <path d="m4.997,68.249c-.027-.605-.356-2.18.885-1.611.744.341,1.284,2.122,1.494,2.809.272.89.07,1.857-.912,1.048-.654-.538-.666-1.95-1.473-2.253l.006.007Z" fill="#9e8f4f"/>
      <path d="m95.533,68.769c.071.62-.022,2.244-.951,2.206-.88-.036-.751-1.735-.826-2.277-.296-2.154,1.777-2.089,1.777.071Z" fill="#9e8f4f"/>
      <path d="m81.028,35.78c.008-.062.207-.657.124-.715-.399-.275-.907,1.147-1.204,1.083-.298-.064.069-2.154.631-2.322.375-.112.557.417.898.36.479-.08.561-.689,1.106-.502,1.119.385-1.019,4.959-1.554,2.096Z" fill="#9e8f4f"/>
      <path d="m72.589,28.795c-.066.546.165,2.273-.754,2.295-.814.02-.828-1.84-.803-2.295.027-.494.147-1.742.844-1.873.971-.183.713,1.344.713,1.873Z" fill="#9e8f4f"/>
      <path d="m3.043,70.323c.013,1.692-3.126-1.078-3.042-2.066.182-2.144,2.973,1.255,3.042,2.066Z" fill="#9e8f4f"/>
      <path d="m101.177,68.708c-.028.583.013,2.201-1.016,1.916-.651-.18-.654-1.278-.691-1.814-.04-.575-.06-1.611.726-1.791,1.052-.241.981,1.03.981,1.689Z" fill="#9e8f4f"/>
      <path d="m108.758,20.105c0-.519-.228-1.814.441-2.071,1.213-.466,1.103,1.578,1.037,2.152-.057.495-.042,2.011-.855,1.883-.777-.122-.559-1.48-.624-1.964Z" fill="#9e8f4f"/>
      <path d="m102.689,68.53c.044-.624-.125-1.93.813-2.041,1.137-.135.749,1.273.7,1.889-.046.578.078,1.678-.731,1.829-.984.183-.782-1.126-.782-1.677Z" fill="#9e8f4f"/>
      <path d="m100.02,15.83c.316-.008.567.116.754.373.166.213.346.225.542.036.433.055.533-.372,1.021.061.274.243.514.807.194,1.124-.51.506-.81-.4-1.194-.229-.223.1.114.813-.457.944-.408.093-.573-.216-.826-.48-.491-.51-1.414-1.824-.035-1.83Z" fill="#9e8f4f"/>
      <path d="m28.614,36.931c.031.677-.417,1.994-.664,2.618-.442,1.116-1.159.656-1.229-.316-.046-.645.244-1.942.626-2.474.566-.787,1.11-.703,1.267.172Z" fill="#9e8f4f"/>
      <path d="m69.119,40.312c1.089-.003.456,1.235.334,1.773-.135.592.104,1.886-.613,2.119-1.286.418-1.194-3.946.279-3.892Z" fill="#9e8f4f"/>
      <path d="m119.361,70.59c-.297.694-1.504,3.514-2.071,1.421-.135-.497.16-1.765.55-2.13.593-.555,1.443-.151,1.521.709Z" fill="#9e8f4f"/>
      <path d="m42.918,67.666c0,.577.178,1.559-.604,1.663-.85.113-.918-.844-.947-1.413-.031-.595-.08-1.988.85-1.941.825.042.692,1.155.692,1.69h.01Z" fill="#9e8f4f"/>
      <path d="m39.32,25.173c-.727.044-1.112-.629-.686-1.189.394-.518,1.859-.72,2.438-.568,2.091.546-1.059,1.645-1.753,1.757Z" fill="#9e8f4f"/>
      <path d="m75.386,28.08c.141.586-.042,1.938-.828,1.823-.618-.09-.642-1.418-.683-1.903-.154-1.819,1.511-1.536,1.511.08Z" fill="#9e8f4f"/>
      <path d="m67.6,22.764c-.113-.873,2.377-3.292,2.617-1.798.081.503-.846,1.388-1.157,1.741-.257.292-1.514,1.238-1.459.057Z" fill="#9e8f4f"/>
      <path d="m99.707,31.416c1.675.105-.777,3.722-1.651,2.62-.623-.786.877-2.536,1.651-2.62Z" fill="#9e8f4f"/>
      <path d="m79.309,51.68c-.334,1.567-2.023-.596-1.949-1.534.044-.565.479-1.039,1.088-.761.569.26.863,1.777.861,2.295Z" fill="#9e8f4f"/>
      <path d="m112.653,24.717c-.013-.532.122-1.528.847-1.488.59.033.811,1.1.965,1.507.118.312.445.202.238.638-.12.252-.795.331-1.025.358-.842.101-1.026-.103-1.026-1.015Z" fill="#9e8f4f"/>
      <path d="m75.387,36.499c-.38,1.77-1.927.463-1.958-.733-.014-.517.473-1.078.986-1.049.871.049.794,1.192.972,1.782Z" fill="#9e8f4f"/>
      <path d="m83.578,26.299c-.259.574-2.461,3.225-2.476,1.313-.008-.935,2.521-2.831,2.476-1.313Z" fill="#9e8f4f"/>
      <path d="m80.839,6.522c1.006.041,2.155,2.415.753,2.413-1.064-.001-2.559-2.516-.753-2.413Z" fill="#9e8f4f"/>
      <path d="m71.263,34.964c.366-2.528,2.26-.059,1.805.994-.373.864-.438.304-.971.126-.218-.073-.363.314-.597.137-.314-.237-.235-.948-.237-1.257Z" fill="#9e8f4f"/>
      <path d="m78.837,7.413c.823.268,3.024,2.504.974,2.275-.926-.103-2.758-2.363-.974-2.275Z" fill="#9e8f4f"/>
      <path d="m77.144,36.325c.038.522-.054,1.637-.733,1.538-.532-.078-.763-1.04-.79-1.461-.113-1.733,1.43-1.87,1.524-.076Z" fill="#9e8f4f"/>
      <path d="m80.192,48.953c.769.021,1.501,2.791.414,2.867-1.174.082-1.72-2.834-.414-2.867Z" fill="#9e8f4f"/>
      <path d="m78.648,44.616c-.053.273-.151,1.742-.286,1.849-.527.417-.856-.543-.95-.893-.144-.53-.243-1.506.306-1.829.74-.435.95.247.93.874Z" fill="#9e8f4f"/>
      <path d="m116.134,33.124c.203,1.313-1.338,2.304-1.348.366-.007-1.275,1.411-1.976,1.348-.366Z" fill="#9e8f4f"/>
      <path d="m68.484,11.934c.952-.072,2.303.891.708,1.358-1.316.386-2.349-1.238-.708-1.358Z" fill="#9e8f4f"/>
      <path d="m84.714,20.395c-.01-1.241,2.236-.88,2.153.122-.074.899-2.181.858-2.153-.122Z" fill="#9e8f4f"/>
      <path d="m108.114,37.768c.106,1.528-1.887.359-1.721-.612.209-1.23,1.852-.39,1.721.612Z" fill="#9e8f4f"/>
      <path d="m114.177,33.066c.168,1.274-1.301,1.878-1.282.275.016-1.364,1.282-1.916,1.282-.275Z" fill="#9e8f4f"/>
      <path d="m84.926,13.676c.305.645.269.827-.343,1.009-.262.078-1.301-.141-1.501-.372-.337-.389-.335-.667.179-.955.584-.328,1.159.07,1.668.322l-.004-.004Z" fill="#9e8f4f"/>
      <path d="m68.448,19.873c-.037.799-1.866,2.141-1.904.747-.024-.881,1.926-1.999,1.904-.747Z" fill="#9e8f4f"/>
      <path d="m108.326,18.673c-.012,1.066-1.497,1.4-1.681.244-.182-1.142,1.695-1.551,1.681-.244Z" fill="#9e8f4f"/>
      <path d="m71.694,8.257c-.007-1.184,1.808-.487,1.893.312.134,1.256-1.926.554-1.893-.312Z" fill="#9e8f4f"/>
      <path d="m46.867,17.777c1.113.256,1.675,1.49.15,1.455-1.122-.026-1.406-1.461-.15-1.455Z" fill="#9e8f4f"/>
      <path d="m70.638,29.585c-.06.395.18,1.485-.276,1.728-.436.233-.358-.723-.383-1.022-.037-.445-.225-2.069.204-2.245.672-.275.455,1.247.455,1.538Z" fill="#9e8f4f"/>
      <path d="m48.331,12.721c.099.946-1.523.494-1.524-.345-.002-1.252,1.522-.774,1.524.345Z" fill="#9e8f4f"/>
      <path d="m107.899,35.929c.066-1.091,1.392-.778,1.482.148.031.319-.24.86-.575.95-.655.177-.761-.677-.907-1.099Z" fill="#9e8f4f"/>
      <path d="m51.983,40.748c-.098-1.152,1.191-1.336,1.285-.12.088,1.145-1.149,1.343-1.285.12Z" fill="#9e8f4f"/>
      <path d="m75.385,15.333c-.019-1.144,1.414-.712,1.46.165.056,1.066-1.444.802-1.46-.165Z" fill="#9e8f4f"/>
      <path d="m40.686,35.327c.951-.014,1.279,1.304.143,1.278-.985-.023-1.344-1.29-.143-1.278Z" fill="#9e8f4f"/>
      <path d="m37.902,19.965c.022-.787,1.805-.981,1.499.051-.253.854-1.507,1.057-1.499-.051Z" fill="#9e8f4f"/>
      <path d="m83.623,21.871c.03-.899,1.576-.734,1.48.079-.092.778-1.508.758-1.48-.079Z" fill="#9e8f4f"/>
      <path d="m78.559,35.106c.921-.026.884,1.529.217,1.666-.627.128-1.074-1.63-.217-1.666Z" fill="#9e8f4f"/>
      <path d="m38.656,18.673c-1.103,0-.769-1.342.135-1.223.953.126.754,1.224-.135,1.223Z" fill="#9e8f4f"/>
      <path d="m47.612,14.779c-.918.015-1.116-1.201-.155-1.269.805-.057,1.247,1.251.155,1.269Z" fill="#9e8f4f"/>
      <path d="m83.267,8.029c-.819-.022-1.35-1.275-.3-1.235.606.023,1.154,1.263.3,1.235Z" fill="#9e8f4f"/>
      <path d="m46.581,15.992c.02-.806,1.164-.631,1.262.049.132.916-1.246.771-1.262-.049Z" fill="#9e8f4f"/>
      <path d="m84.929,13.68c-.017-.47-.139-1.692.757-1.064.889.624-.181,1.067-.76,1.06l.004.004Z" fill="#9e8f4f"/>
      <path d="m83.391,35.4c.012-.804,1.039-.981,1.086-.138.04.719-1.098,1.048-1.086.138Z" fill="#9e8f4f"/>
      <path d="m83.954,24.085c-.894-.056-.35-1.228.397-1.047.951.23.306,1.067-.397,1.047Z" fill="#9e8f4f"/>
      <path d="m39.548,27.329c-.699-.04-.673-.997.011-1.071.81-.088.993,1.08-.011,1.071Z" fill="#9e8f4f"/>
      <path d="m48.104,35.771c-.711.031-.706-1.083.025-1.097.776-.015.794,1.076-.025,1.097Z" fill="#9e8f4f"/>
      <path d="m49.184,32.565c-.061.751-1.163.737-1.094-.025.059-.647,1.149-.654,1.094.025Z" fill="#9e8f4f"/>
      <path d="m38.988,21.497c-.012-.7,1.063-.566,1.08.066.021.751-1.039.667-1.08-.066Z" fill="#9e8f4f"/>
      <path d="m41.514,28.728c-.15.4-.538.775-.908.292-.425-.555.58-1.129.908-.292Z" fill="#9e8f4f"/>
    </g>
  </g>
</svg>