<?xml version="1.0" encoding="UTF-8"?>
<svg id="b" data-name="Layer 2" xmlns="http://www.w3.org/2000/svg" width="118.884" height="183.504" viewBox="0 0 118.884 183.504">
  <g id="c" data-name="Layer 1">
    <path d="m22.286,89.371c-5.419-1.662-8.938-4.918-10.915-9.786-.557-1.476-.988-2.997-1.289-4.546-.583-2.655-1.183-5.32-1.551-8.012-.277-2.025-.171-4.1-.295-6.149-.075-1.239-.352-2.469-.382-3.708-.056-3.143.299-6.279,1.056-9.33.282-1.099.764-2.136,1.424-3.06.68-.95,2.001-1.17,2.951-.49.195.14.365.312.503.508.493.675.873,1.426,1.124,2.223.312,1.099.517,2.225.612,3.364.226,2.533.401,5.071.524,7.613.1,2,.047,4.008.159,6.008.136,2.438.255,4.887.599,7.301.339,2.762,1.468,5.368,3.252,7.503.402.331.846.607,1.32.82,0-1.537.052-2.773-.017-4.001-.058-.989-.39-1.963-.392-2.945-.014-7.415-.277-14.847.153-22.238.286-4.898.171-9.792.483-14.679.098-2.288.318-4.569.659-6.833.562-3.247.86-6.601,2.803-9.463.79-1.164,1.415-1.554,2.555-1.353.813.144,1.474,1.096,1.83,2.121.725,2.088.595,4.233.635,6.372.199,10.656.364,21.313.604,31.967.063,2.789.337,5.575.553,8.36.169,2.181.198,4.399.651,6.524.497,2.328.197,4.718.671,6.975.956,4.546.952,9.113,1.053,13.704.095,4.291.387,8.579.651,12.865.094,2.239.31,4.471.647,6.687.622,3.86,1.519,7.671,2.684,11.404.976,2.954,2.308,5.778,3.965,8.412,1.565,2.535,3.795,4.404,6.278,5.99.872.557,1.757,1.098,2.655,1.609.356.147.726.258,1.105.332.076-1.64.068-3.282-.025-4.921-.682-6.385-.551-12.783-.547-19.183,0-.481-.219-1.236-.557-1.396-1.541-.729-2.345-2.138-3.247-3.394-2.593-3.614-5.095-7.311-6.688-11.501-.641-1.813-1.177-3.662-1.604-5.538-.533-2.113-.969-4.252-1.451-6.378-.069-.186-.128-.377-.175-.569-.243-2.225-.511-4.447-.703-6.676-.905-10.534-.737-21.09-.595-31.643.043-2.789.265-5.573.664-8.334.226-1.581.754-3.193,2.305-4.153.937-.578,1.729-.594,2.57.143.437.318.784.745,1.006,1.238.531,1.64.952,3.314,1.261,5.01,1.116,6.95.568,13.965.734,20.954.048,2.04.318,4.079.312,6.118-.008,2.39-.373,4.789-.278,7.168.099,2.476.535,4.94.874,7.402.202,1.471.443,2.943.772,4.391.604,2.916,1.961,5.624,3.935,7.854.405.333.843.623,1.308.865,0-.755.036-1.179-.007-1.596-.109-1.034-.358-2.063-.37-3.097-.071-6.262.175-12.541-.216-18.782-.307-4.893-.396-9.782-.608-14.671-.101-2.322-.586-4.628-.894-6.941-.027-.198-.04-.398-.052-.598-.272-4.485-.318-8.997-.874-13.446-.587-4.701-.4-9.388-.37-14.079.021-3.284.336-6.573.651-9.847.233-2.421.605-4.835,1.046-7.228.501-2.527,1.382-4.964,2.613-7.228.491-1.032,1.636-1.582,2.748-1.32.911.188,1.595,1.142,1.874,2.272.614,2.504.436,5.061.65,7.591,1.048,12.393.225,24.812.639,37.211.032,3.491.275,6.978.726,10.44.554,3.796.914,7.618,1.077,11.451.131,2.486.17,5.009.648,7.437.725,3.683.111,7.412.625,11.051.569,4.04.425,8.072.613,12.107.119,1.021.314,2.032.582,3.025l.341.062c.411-1.277.92-2.532,1.212-3.836.521-2.315.908-4.659,1.35-6.992,1.751-9.26,1.284-18.607,1.054-27.94-.088-3.592-.153-7.202-.582-10.761-.994-8.238-.429-16.491-.493-24.736-.005-2.046.593-4.048,1.718-5.756,1.432-2.218,4.101-2.268,5.275.251.284.462.52.951.704,1.461.534,1.96.936,3.955,1.201,5.969.375,4.176.27,8.407.856,12.544.495,3.498.201,6.99.551,10.458,1.138,11.288.386,22.603.59,33.903.059,3.247-.655,6.4-1.151,9.587-.402,2.6-1.058,5.154-1.96,7.626-.869,2.42-1.911,4.773-3.119,7.043-1.148,1.958-2.412,3.846-3.787,5.652-.411.621-.938,1.157-1.554,1.576-1.037.643-1.312,1.477-1.255,2.638.104,2.1.067,4.207.1,6.311.008.479.06.958.093,1.437l.325.208c1.917-1.663,3.785-3.386,5.764-4.971,1.761-1.518,3.26-3.315,4.436-5.32,2.257-3.609,4.076-7.474,5.42-11.514.386-1.331.664-2.691.833-4.066.361-2.1.697-4.204,1.008-6.313.26-1.772.538-3.547.671-5.331.285-3.825.853-7.626.823-11.48.035-1.738.23-3.469.581-5.172.4-2.238,1.006-4.442,1.411-6.681.119-.929.125-1.869.016-2.799-.093-.638-.22-1.272-.379-1.897-.804-4.528-.844-9.125-1.292-13.678-.744-7.555-.333-15.095-.374-22.637-.03-3.043.197-6.083.677-9.088.375-2.275.379-4.689,1.575-6.788.263-.522.592-1.009.978-1.448.853-.965,2.327-1.055,3.292-.201.216.191.395.42.527.677.98,1.789,1.609,3.749,1.852,5.775.695,4.867.579,9.775.76,14.668.085,2.29.402,4.581.355,6.861-.089,4.293-.286,8.584-.593,12.871-.224,3.075-.698,6.134-1.093,9.195-.113.88-.359,1.743-.511,2.62-.448,2.584.217,5.009.94,7.467.451,1.58.694,3.213.722,4.856.098,4.457,0,8.917.059,13.375-.032,3.24-.382,6.47-1.047,9.642-.477,2.58-.821,5.19-1.43,7.737-.562,2.352-1.349,4.654-2.126,6.948-.808,2.385-1.677,4.749-2.607,7.092-1.3,3.149-2.907,6.163-4.799,8.997-1.964,2.916-4.341,5.533-7.057,7.767-1.542,1.313-3.089,2.63-4.726,3.819-1.205.855-2.48,1.605-3.813,2.242-.823.404-1.222.855-1.207,1.808.058,3.707-.042,7.418.092,11.121.137,3.784.48,7.56.739,11.437,1.614-.095,2.957-1.081,4.372-1.792,4.368-2.196,8.574-4.757,13.065-6.663,4.465-1.872,8.695-4.26,12.606-7.114,1.874-1.377,3.915-2.7,5.146-4.956-1.197-.804-1.142-2.045-1.125-3.313.024-1.853.193-3.745-.109-5.552-.689-4.125-.352-8.281-.671-12.408-.897-11.597-.459-23.208-.413-34.812.009-2.238.729-4.476,1.172-6.706.134-.479.359-.928.661-1.324.92-1.377,2.957-1.635,3.961-.336.645.924,1.097,1.968,1.33,3.071,1.264,5.07.627,10.246.692,15.377.097,7.715-.019,15.431.045,23.147.017,2.019.367,4.035.564,6.053l.296.025c.075-.348.128-.7.159-1.054.055-1.803-.052-3.622.153-5.407,1.149-9.985.435-20,.504-29.998.037-5.287-.792-10.563-.521-15.872.077-1.5-.023-3.009.057-4.508.059-2.743.266-5.48.621-8.201.295-1.86.967-3.639,1.974-5.23,1.197-1.79,3.618-2.271,5.408-1.074.654.437,1.16,1.062,1.453,1.792.663,1.54,1.144,3.151,1.432,4.803.482,2.39.462,4.763.55,7.152.203,5.545.184,11.108.652,16.629.39,4.604.351,9.192.285,13.784-.091,6.246-.357,12.492-.595,18.739-.008,2.245-.185,4.486-.529,6.704-.447,2.334-.197,4.696-.582,6.991-.662,3.947-.899,7.989-2.357,11.779-1.889,4.91-4.18,9.563-7.635,13.632-1.746,2.149-3.753,4.072-5.974,5.726-2.273,1.661-4.732,3.05-7.328,4.138-4.902,1.968-9.89,3.779-14.954,5.262-3.417,1-6.823,2.018-10.216,3.094-1.287.364-2.598.635-3.924.81-1.295.151-2.274,1.246-2.277,2.551-.052,1.301-1.416,2.02-2.802,1.375-2.061-.96-4.112-1.956-6.111-3.035-3.563-1.926-7.051-3.991-10.639-5.867-2.446-1.278-5.017-2.321-7.523-3.487-3.075-1.434-6.263-2.655-8.688-5.212-1.595-1.7-2.742-3.77-3.339-6.024-.819-2.948-1.431-5.953-2.164-9.068-2.29.193-3.702-1.626-5.406-2.815-1.943-1.356-3.759-2.896-5.61-4.381-2.551-2.047-4.019-4.889-5.339-7.756-1.154-2.572-2.137-5.218-2.942-7.92-.491-1.595-.587-3.315-.822-4.983-.332-2.359-.677-4.717-.921-7.086-.148-1.443-.195-2.895-.138-4.345.092-2.29.225-4.585.514-6.856.209-.962.566-1.886,1.06-2.737.769-1.597,3.151-1.691,4.337-.416,1.151,1.245,1.96,2.766,2.349,4.416.833,3.415,1.55,6.858,2.299,10.293.069.395.1.796.091,1.197.067,4.135,1.26,7.989,2.781,11.793,1.208,2.928,2.931,5.616,5.088,7.937.281.312.625.565,1.191,1.071.046-.815.104-1.335.104-1.854,0-2.655-.091-5.314.004-7.964.132-3.69.383-7.377.619-11.063.115-1.788.237-3.581.49-5.353.293-2.051.664-4.097,1.13-6.116.389-1.682,1.032-3.306,1.419-4.988.14-.608-.135-1.311-.22-1.971-.146-1.13-.316-2.257-.432-3.391-.212-1.975-.38-3.953-.561-5.908Zm92.402,9.637c.072-8.95.056-17.898-.545-26.837-.208-3.08.061-6.203-1.126-9.152-.187-.354-.412-.686-.67-.992-.345.318-.898.581-.997.963-.402,1.325-.655,2.691-.753,4.073-.112,4.105-.055,8.214-.093,12.321-.147,15.907.808,31.827-.578,47.719-.164,1.881-.343,3.761-.488,5.644-.296,3.212-1.14,6.35-2.494,9.278-1.698,3.849-3.973,7.301-7.244,9.998-4.658,3.821-9.806,7.002-15.307,9.458-6.342,2.863-12.485,6.172-18.701,9.313-.342.173-.787.564-.808.879-.066,1.099-.038,2.202.082,3.296.153.313.457.525.804.559,1.472-.404,2.915-.918,4.372-1.376,2.919-.917,5.844-1.811,8.761-2.734,2.168-.685,4.336-1.372,6.486-2.109,1.869-.641,3.765-1.243,5.558-2.063,2.509-1.148,5.076-2.267,7.354-3.794,2.505-1.773,4.724-3.917,6.581-6.36,4.565-5.692,6.966-12.252,8.048-19.353.487-3.197.816-6.424,1.071-9.649.312-3.927.586-7.864.661-11.802.109-5.758.027-11.521.027-17.281ZM53.962,7.054l-.429.003c-.413,2.684-1.013,5.355-1.197,8.054-.332,4.881-.462,9.777-.573,14.67-.036,1.582.271,3.169.386,4.757.282,3.924-.225,7.867.584,11.798.497,2.412.111,4.955.661,7.428.397,1.783.376,3.661.513,5.499.22,2.935.514,5.868.603,8.807.221,7.345.26,14.691.537,22.039.352,9.283.49,18.592-.239,27.894-.256,4.139-.176,8.293.236,12.42.494,5.91.045,11.881.821,17.797.175,1.333-.011,2.711.138,4.049.264,2.365.662,4.715.996,7.073.07.495.087.998.159,1.492.364,2.498.717,4.997,1.12,7.492.112,1.132.369,2.245.765,3.311.326.948,1.226,1.578,2.228,1.558.056-.556.083-1.114.082-1.673-.187-3.588-.459-7.173-.585-10.763-.249-7.143-.372-14.291-.64-21.433-.253-6.739.186-13.478-.532-20.228-.595-5.592-.03-11.276-.802-16.892-.203-1.478-.012-3.006-.13-4.501-.265-3.376-.67-6.741-.906-10.118-.254-3.631.028-7.271-.565-10.913-.525-3.227-.048-6.551-.663-9.838-.521-2.767.021-5.664-.657-8.48-.302-1.616-.471-3.254-.505-4.897-.231-3.235-.452-6.472-.615-9.711-.087-1.749-.052-3.505-.058-5.257-.042-9.065-.052-18.13-.146-27.194-.102-1.426-.298-2.844-.586-4.245Zm5.947,172.335c.027-.261.025-.525-.006-.786-.892-2.399-2.759-3.794-5.018-4.717-1.783-.729-3.685-1.197-5.408-2.035-3.413-1.666-6.811-3.388-10.081-5.317-3.056-1.848-5.683-4.327-7.704-7.272-2.617-3.703-3.292-8.029-3.378-12.315-.242-12.055-.554-24.119.322-36.171.138-2.301.155-4.608.052-6.91-.111-1.108-.304-2.205-.577-3.284l-.355-.075c-.416.524-1.019.989-1.209,1.582-.567,1.781-.993,3.609-1.427,5.429-.125.528-.052,1.1-.135,1.643-.282,1.866-.729,3.718-.861,5.593-.243,3.479-.15,6.957-.595,10.452-.76,5.974.538,11.955.563,17.948.003.1.017.2.039.298.385,1.592.686,3.203.901,4.827.288,3.607.983,7.17,2.07,10.621.833,2.608,2.298,4.816,4.905,6.038,3.132,1.466,6.275,2.911,9.4,4.394,5.271,2.498,10.257,5.514,15.264,8.493.956.569,2.012.978,3.237,1.564Zm3.192-64.197l.274.052c.668-.837,1.403-1.63,1.993-2.519,2.01-3.008,3.611-6.269,4.761-9.699.513-1.443.938-2.915,1.273-4.409.364-1.794.564-3.623.781-5.444.343-2.863.894-5.726.908-8.592.031-6.295.31-12.587-.239-18.892-.441-5.065.117-10.182-.641-15.267-.454-3.043-.173-6.15-.565-9.248-.491-3.886-.173-7.87-.835-11.773-.208-1.217-.408-2.439-.689-3.64-.071-.305-.437-.541-.853-1.023-.283,1.785-.666,3.242-.719,4.71-.258,5.144-.143,10.299.345,15.427.432,3.956.123,7.959.61,11.956.595,4.893.04,9.869.609,14.812.272,2.885.189,5.793-.248,8.658-.481,3.64-.045,7.377-.829,11.023-.334,1.553-.446,3.154-.781,4.706-.483,2.222-1.016,4.437-1.65,6.619-.521,1.797-.906,3.755-2.415,5.016-.933.681-1.407,1.826-1.229,2.967.078.744.014,1.501.035,2.252.02.767.069,1.538.106,2.308Zm-31.751-16.561l.29-.217c.017-.342.015-.684-.005-1.026-.354-3.254-.729-6.506-1.08-9.761-.252-2.322-.481-4.647-.722-6.97-.005-.049-.021-.098-.03-.147-.511-2.881-1.075-5.754-1.514-8.645-.306-2.012-.502-4.046-.637-6.078-.269-4.082-.598-8.167-.659-12.254-.127-8.366-.094-16.734-.126-25.1v-1.568l-.476-.094c-.245.425-.434.88-.562,1.353-.243,1.822-.471,3.652-.589,5.487-.23,3.586-.548,7.178-.535,10.766.044,11.305-.833,22.618.333,33.914.276,2.672.058,5.357.573,8.051.555,2.919.532,5.946.764,8.926.037.485.083.968.139,1.61,1.963-.291,3.653.032,4.834,1.751h.003Zm32.402,40.407c.397-.072.782-.198,1.145-.373,2.174-1.61,4.414-3.147,6.466-4.902,4.241-3.665,7.576-8.261,9.745-13.429,1.309-3.036,2.498-6.126,3.622-9.236.679-1.955,1.259-3.942,1.737-5.955.362-1.438.561-2.918.812-4.383.536-3.123,1.383-6.239,1.515-9.383.248-5.898.104-11.816.056-17.723-.006-.769-.397-1.536-.61-2.303-.569,1.407-.937,2.886-1.093,4.396-.315,3.926-.507,7.86-.748,11.792-.009.149-.019.3-.04.448-.527,3.685-1.07,7.368-1.577,11.056-.277,2.014-.495,4.036-.745,6.053-.023.198-.067.394-.13.583-.709,2.105-1.44,4.204-2.134,6.314-1.23,3.737-3.227,7.075-5.368,10.337-2.394,3.653-5.752,6.35-9.134,9.002-1.027.805-2.196,1.43-3.518,2.277l-.002,5.431ZM4.061,104.161l-.398.176c-.225,1.814-.557,3.623-.65,5.445-.108,2.134.205,4.263.372,6.391.251,3.195.966,6.298,1.374,9.451.211,1.162.552,2.297,1.015,3.383.583,1.577,1.316,3.099,1.871,4.685.882,2.526,2.296,4.833,4.145,6.767,2.297,2.422,5.173,4.103,7.877,5.999.364.175.749.303,1.145.382,0-.989.141-1.767-.036-2.462-.208-.822-.483-1.887-1.093-2.301-1.963-1.331-3.701-2.968-5.146-4.849-2.242-2.895-3.965-6.157-5.092-9.642-.598-1.806-.742-3.737-1.329-5.478-1.072-3.175-.885-6.478-1.528-9.686-.481-2.579-1.124-5.125-1.926-7.622-.089-.25-.396-.428-.601-.64Zm47.514-.937c-.742-.297-1.426-.376-1.803-.757-1.449-1.464-2.997-2.89-4.139-4.581-1.671-2.473-2.521-5.327-3.153-8.266-.715-2.938-1.111-5.944-1.181-8.966.018-8.862.027-17.725-.052-26.587-.023-2.538-.33-5.076-.583-7.607-.145-.77-.359-1.525-.639-2.257-.163.129-.291.18-.296.241-.067.796-.173,1.594-.163,2.391.162,13.273-.792,26.576,1.145,39.812.316,2.604.777,5.189,1.379,7.742.438,1.669.92,3.331,1.503,4.955,1.107,3.085,2.829,5.859,4.589,8.6.753,1.171,1.62,2.269,2.588,3.613,1.157-2.948.631-5.652.806-8.334Zm.619,48.223c0-1.377-.044-2.514.011-3.644.068-1.399-.642-2.212-1.833-2.762-2.601-1.191-5.03-2.726-7.223-4.564-3.386-2.831-5.93-6.535-7.357-10.711-1.093-3.111-2.01-6.199-2.265-9.493-.151-1.478-.395-2.945-.729-4.392-.175-.615-.4-1.215-.674-1.793l-.401.065c0,5.101-.014,10.197.03,15.296,0,.346.39.725.669,1.023.525.562,1.257.989,1.623,1.63.781,1.364,1.409,2.819,2.052,4.258,3.216,7.182,8.698,11.95,16.096,15.085v.002Zm.968,8.421c.513-1.589-.085-2.855-.397-4.146-.091-.223-.276-.395-.506-.468-3.088-.871-5.788-2.514-8.459-4.216-3.765-2.394-6.874-5.688-9.047-9.584-.885-1.557-1.756-3.119-2.779-4.937-.099.331-.17.67-.212,1.012.068,4.187-.268,8.393.633,12.541.133.753.703,1.353,1.447,1.526,3.21.994,6.445,1.91,9.612,3.024,1.945.709,3.834,1.562,5.651,2.553,1.396.829,2.75,1.728,4.056,2.693v.002Zm1.244,9.81l.416-.233c-.295-1.636-.58-3.274-.897-4.905-.031-.161-.251-.287-.387-.426-2.253-2.303-4.988-4.077-8.009-5.194-3.089-1.166-6.298-2.019-9.467-2.967-.69-.125-1.39-.19-2.091-.195.222.511.478,1.007.767,1.483,1.529,2.189,3.437,4.087,5.635,5.604,3.638,2.386,7.493,4.422,11.515,6.082.825.295,1.666.546,2.518.75v.002Zm33.255-110.385l.323-.074c.365-1.581.64-3.182.824-4.794.308-4.979.673-9.966.668-14.949-.006-5.834-.382-11.668-.588-17.502-.033-.95.072-1.913-.043-2.851-.176-1.439-.489-2.863-.744-4.29-.488.545-.81,1.218-.929,1.94-.256,2.526-.452,5.058-.608,7.592-.095,1.547-.141,3.103-.102,4.653.186,7.388-.494,14.793.521,22.169.251,1.822.052,3.702.16,5.55.109.864.282,1.719.517,2.557Zm14.641,81.17l.294-.018c.041-.969.152-1.942.112-2.907-.167-4.088-.451-8.172-.553-12.261-.111-4.452-.081-8.909-.09-13.363-.015-7.057.021-14.114-.041-21.17-.101-1.302-.299-2.595-.591-3.868h-.312c-.101.304-.174.617-.219.934-.159,3.087-.39,6.174-.416,9.263-.021,2.386.299,4.772.329,7.16.097,7.707.077,15.416.213,23.122.062,3.536.351,7.07.614,10.599.141.856.362,1.697.66,2.511v-.002ZM21.91,85.371c-.192-1.301-.407-2.355-1.837-2.494-.295-.029-.579-.367-.833-.601-2.941-2.709-4.838-6.364-5.358-10.329-.476-3.243-.513-6.551-.739-9.831-.243-3.525-.466-7.051-.735-10.574-.024-.327-.319-.633-.488-.95l-.423.108c-.048.573-.099,1.142-.143,1.714-.395,5.153.607,10.246.677,15.38.006.2.031.398.077.592.521,2.369,1.097,4.728,1.557,7.109.605,3.33,2.399,6.327,5.049,8.432.873.826,1.998,1.334,3.195,1.443Z" fill="#9e8f4f"/>
  </g>
</svg>