<?xml version="1.0" encoding="UTF-8"?>
<svg id="b" data-name="Layer 2" xmlns="http://www.w3.org/2000/svg" width="136.581" height="137.183" viewBox="0 0 136.581 137.183">
  <g id="c" data-name="Layer 1">
    <g>
      <path d="m34.262,83.378c-.045-4.215.905-8.208,2.609-12.053,1.571-3.543,4.423-5.619,7.845-7.085.375-.161.749-.343,1.142-.442,1.933-.484,2.421-1.905,2.414-3.659-.008-1.779.19-3.502.734-5.23,1.379-4.378,4.39-7.155,8.496-8.795,3.275-1.308,6.721-2.046,10.219-2.586,1.911-.295,3.725-.368,5.649,0,2.52.483,4.416,1.719,5.847,3.765,1.615,2.309,2.656,4.909,3.671,7.511.215.552.409.803,1,.704,2.596-.436,5.128-.934,7.85-.463,2.717.47,5.284,1.176,7.76,2.341,1.218.573,2.48,1.507,2.895,2.523s.821,2.847.645,3.944c-.21,1.316-.732,2.653-1.761,3.627-1.99,1.884-3.902,3.877-6.059,5.551-3.011,2.338-6.174,4.487-9.348,6.605-4.433,2.959-9.162,5.362-14.133,7.307-2.406.941-4.716,2.125-7.1,3.125-3.131,1.313-6.371,2.355-9.713,2.9-2.345.383-4.778.581-7.14.413-2.817-.2-5.677-.453-8.364-1.549-1.284-.524-2.464-1.135-3.426-2.164-1.123-1.202-1.836-2.532-1.738-4.227.04-.685.007-1.375.007-2.062Zm13.658-17.925c-1.229-.103-1.987.559-2.805.963-2.419,1.196-4.615,2.672-5.91,5.172-1.041,2.009-1.653,4.16-2.076,6.364-.318,1.661-.551,3.338-.785,5.014-.409,2.935.821,5.384,3.291,6.39,2.532,1.031,5.2,1.559,7.924,1.666,1.905.075,3.8-.024,5.715-.3,2.36-.34,4.676-.772,6.928-1.528,5.755-1.931,11.179-4.653,16.689-7.151,3.914-1.775,7.518-4.148,10.95-6.756,2.606-1.98,5.237-3.928,7.839-5.914.543-.415,1.019-.922,1.502-1.411.486-.492.942-1.013,1.617-1.744-3.321,0-6.27.009-9.219-.003-2.735-.011-5.236.715-7.486,2.289-1.172.82-2.423,1.539-3.53,2.438-1.433,1.163-2.928,2.316-4.096,3.723-3.578,4.309-7.671,8.014-12.464,10.883-1.733,1.038-3.708,1.692-5.614,2.409-.606.228-1.357.18-2.025.105-.597-.067-.818-.892-.335-1.26.583-.443,1.243-.819,1.921-1.097,2.147-.878,4.294-1.726,6.148-3.184,1.069-.84,2.364-1.421,3.331-2.354,1.669-1.609,3.55-2.955,5.081-4.762,1.982-2.34,4.373-4.339,6.632-6.438,1.66-1.542,3.595-2.712,5.585-3.773.504-.269.744-.569.674-1.104-.07-.534-.113-1.084-.282-1.589-.389-1.158-.879-2.282-1.273-3.438-1.077-3.165-2.356-6.243-3.946-9.183-.542-1.003-1.095-1.983-2.082-2.725-1.445-1.087-3.051-1.446-4.764-1.549-2.13-.129-4.191.425-6.24.853-3.058.639-6.084,1.476-8.783,3.138-1.776,1.093-3.235,2.506-4.121,4.451-.97,2.131-1.446,4.391-1.542,6.695-.128,3.09-.068,6.187-.073,9.282-.003,2.123.97,3.616,2.899,4.539,1.695.812,3.553.835,5.337,1.206,1.059.221,2.151.28,3.228.414.544.068.857.357.93.92.072.561-.354.752-.718.855-.513.145-1.072.219-1.603.185-1.15-.073-2.297-.221-3.442-.361-2.31-.281-4.534-.841-6.558-2.052-.921-.551-1.562-1.268-1.797-2.355-.315-1.459-.73-2.892-.663-4.414.051-1.148.01-2.3.01-3.511Zm44.39-1.658c.685,0,1.371-.001,2.056,0,1.496.003,2.989.058,4.456-.378,1.568-.466,1.995-1.727.911-2.926-.365-.403-.751-.865-1.226-1.078-2.728-1.22-5.555-2.182-8.571-2.227-1.687-.025-3.38.241-5.068.396-.618.057-.834.382-.623.988.379,1.086.802,2.156,1.22,3.228.588,1.508,1.296,1.987,2.939,1.996,1.302.007,2.604.001,3.906.001Z" fill="#9e8f4f"/>
      <path d="m100.661,85.763c-.265,1.51-.975,3.134-2.013,4.578-2.556,3.554-5.395,6.872-8.336,10.122-2.653,2.931-5.393,5.808-7.635,9.101-.803,1.179-1.866,2.18-2.798,3.273-.664.779-1.286,1.595-1.963,2.362-1.268,1.435-2.547,2.862-3.85,4.266-2.237,2.412-4.45,4.85-6.762,7.19-1.538,1.557-3.213,2.98-4.867,4.416-.258.224-.763.335-1.099.258-.53-.121-.691-.624-.627-1.151.032-.267.075-.547.185-.789,1.296-2.855,2.599-5.699,4.27-8.37,1.446-2.312,2.836-4.669,4.082-7.093,2.591-5.041,5.324-9.997,8.246-14.852.949-1.577,1.791-3.221,2.623-4.864.729-1.44.511-2.045-.929-2.793-.601-.312-1.261-.51-1.868-.814-1.236-.619-1.303-1.317-.141-2.029,2.15-1.318,4.331-2.587,6.514-3.851,1.948-1.128,3.898-2.257,5.885-3.314,1.021-.544,2.041-.682,3.306-.384,2.348.554,4.451,1.659,6.683,2.457.903.323,1.102,1.132,1.095,2.28Zm-35.522,39.293c-.441.772.249.548.389.233s3.832-4.095,5.643-6.231c2.25-2.652,4.357-5.426,6.585-8.097,2.406-2.885,4.863-5.728,7.332-8.56,3.144-3.608,6.347-7.165,9.476-10.786,1.633-1.89,3.13-3.889,4.056-6.43-1.874-.716-3.681-1.301-5.391-2.093-1.284-.594-2.43-.31-3.513.25-2.481,1.284-4.912,2.667-7.342,4.046-.689.391-1.307.908-2.074,1.448.634.53,1.168.929,1.648,1.386,1.181,1.124,1.327,1.953.657,3.479-.192.437-.374.882-.608,1.298-2.567,4.577-5.134,9.155-7.719,13.722-2.752,4.862-5.527,9.71-8.282,14.57-.322.568-.573,1.176-.857,1.765Z" fill="#9e8f4f"/>
      <path d="m42.009,48.691c.051-.754.344-1.13.633-1.653,1.581-2.866,3.094-5.778,4.823-8.554,3.855-6.189,7.854-12.288,11.731-18.464,1.377-2.193,2.519-4.532,3.861-6.748,1.764-2.914,3.621-5.771,5.436-8.654.581-.923,1.133-1.865,1.737-2.772.301-.453.646-.898,1.052-1.252.328-.286.792-.618,1.173-.592.513.035.846.941.675,1.662-.345,1.448-.703,2.895-1.12,4.323-1.158,3.959-2.321,7.917-3.536,11.859-1.334,4.332-2.688,8.658-4.109,12.962-1.062,3.218-2.248,6.395-3.373,9.592-.245.695-.738,1.026-1.432,1.264-1.09.374-2.122.912-3.192,1.349-3.158,1.29-5.494,3.515-7.29,6.363-.581.922-1.163,1.845-1.776,2.746-.707,1.039-.966,1.043-1.906.262-.735-.61-1.472-1.238-2.29-1.722-.77-.456-1.149-1.217-1.097-1.971Zm4.18,1.489c.589.028,1.481-1.793,2.056-2.778,1.538-2.635,3.728-4.501,6.445-5.807.739-.355,1.445-.806,2.216-1.062,1.455-.482,2.143-1.567,2.566-2.919.526-1.679,1.029-3.365,1.589-5.033,1.594-4.756,3.206-9.505,4.823-14.253,1.071-3.145,2.152-6.286,3.255-9.42.195-.555.389-1.058-.102-1.834-1.939,3.147-3.933,6.008-5.534,9.074-2.06,3.944-4.562,7.6-6.896,11.364-2.945,4.749-6.047,9.4-8.994,14.148-1.185,1.909-2.161,3.95-3.188,5.954-.453.884-.374,1.153.372,1.75.366.293.805.79,1.394.818Z" fill="#9e8f4f"/>
      <path d="m94.916,10.5c.146.569-.611,1.654-.982,2.371-.656,1.269-1.4,2.492-2.079,3.749-2.976,5.513-5.912,11.048-8.931,16.537-.815,1.482-1.672,2.975-2.967,4.133-.313.28-.667.636-1.047.266-.256-.248-.377-.687-.441-1.061-.04-.235.086-.54.224-.758,2.447-3.868,4.325-8.036,6.406-12.098,1.646-3.213,3.275-6.438,5.027-9.592.851-1.533,1.548-3.218,3.007-4.335.225-.172.694-.307.879-.19.371.235.758.409.905.978Z" fill="#9e8f4f"/>
      <path d="m34.333,126.236c-1.372-.073-1.244-1.562-.725-2.876.325-.822.723-1.628,1.185-2.382,1.422-2.324,2.928-4.597,4.333-6.93,1.791-2.977,3.494-6.007,5.285-8.984.45-.748,1.04-1.433,1.661-2.051.577-.575,1.382-.572,1.837-.127.48.47.355.967.068,1.496-1.075,1.976-2.1,3.98-3.202,5.941-1.535,2.733-3.135,5.429-4.683,8.155-1.279,2.252-2.512,4.53-3.798,6.778-.213.372-.588,1.053-1.96.98Z" fill="#9e8f4f"/>
      <path d="m136.581,50.936c-.128.626-.581,1.054-1.306,1.269-1.816.539-3.629,1.09-5.433,1.666-1.227.392-2.449.804-3.652,1.263-3.232,1.233-6.549,2.159-9.912,2.957-.658.156-1.05.005-1.443-.345-.447-.397-.405-1.048.106-1.383.503-.329,1.064-.599,1.635-.791,1.602-.537,3.233-.991,4.834-1.532,2.31-.78,4.593-1.638,6.906-2.406,2.184-.725,4.387-1.396,6.594-2.048.837-.247,1.682.417,1.671,1.348Z" fill="#9e8f4f"/>
      <path d="m3.989,70.205c.791-.046,4.285.291,6.844.567.612.066,1.235.017,1.849.067,1.692.138,3.383.286,5.071.465.396.042.784.208,1.165.348.871.321,1.388,1.02,1.238,1.64-.16.659-.855,1.226-1.702,1.179-1.762-.099-3.523-.254-5.275-.461-1.674-.198-3.334-.516-5.007-.736-2.349-.309-4.705-.569-7.056-.866-.802-.101-1.108-.454-1.116-1.189-.009-.742.314-1.137,1.092-1.194.682-.05,2.106.227,2.897.181Z" fill="#9e8f4f"/>
      <path d="m12.34,105.215c-.508-.063-.859-.487-1.035-.843-.132-.266.101-1.059.644-1.557s7.614-7.878,11.424-11.814c.334-.345.655-.714,1.039-.994.481-.351,1.309-.249,1.709.133.481.459.623,1.291.238,1.821-.319.439-.711.829-1.095,1.217-1.735,1.757-3.497,3.488-5.211,5.265-1.042,1.08-1.966,2.276-3.032,3.33-.968.957-2.034,1.821-3.105,2.665-.411.324-1.069.841-1.576.778Z" fill="#9e8f4f"/>
      <path d="m108.045,76.603c.574.13,1.52.267,2.415.558,4.31,1.401,8.628,2.767,13.084,3.648.262.052.499.215.755.307,1.018.368,1.3.766,1.121,1.599-.164.764-.81,1.113-1.888.912-1.663-.31-3.349-.561-4.964-1.045-3.761-1.126-7.488-2.364-11.219-3.587-.545-.179-1.222-.292-1.28-1.106-.067-.939.365-1.297,1.975-1.285Z" fill="#9e8f4f"/>
      <path d="m116.77,21.583c.075.494-.259.759-.451,1.026-1.589,2.209-3.151,4.439-4.815,6.591-1.707,2.209-3.518,4.338-5.289,6.497-.217.264-.471.498-.706.747-.35.371-.786.69-1.249.345-.446-.333-.655-.824-.264-1.412.601-.904,1.097-1.883,1.737-2.757,2.572-3.512,5.18-6.999,7.783-10.489.365-.49.717-1.021,1.186-1.391.258-.203.819-.259,1.116-.116.388.187.876.464.951.958Z" fill="#9e8f4f"/>
      <path d="m23.636,48.664c-.548-.245-1.153-.409-1.634-.749-2.998-2.116-5.978-4.26-8.941-6.425-.548-.401-.996-.939-1.493-1.41-.391-.371-.517-.811-.28-1.297.292-.598.847-.659,1.409-.544.324.066.651.217.927.402,3.605,2.429,7.211,4.856,10.79,7.322.787.543.847,1.009.54,1.76-.235.574-.615.881-1.318.941Z" fill="#9e8f4f"/>
      <path d="m92.514,135.616c.043.851-.336.778-.618,1.124-.473.581-.889.6-1.344,0-.4-.528-.758-1.141-.941-1.772-1.228-4.221-2.4-8.459-3.606-12.687-.145-.508-.153-.954.27-1.311.545-.46,1.371-.315,1.68.379.522,1.176,1.015,2.374,1.401,3.6.976,3.1,1.888,6.22,2.82,9.333.116.387.295.482.339,1.334Z" fill="#9e8f4f"/>
      <path d="m114.676,114.78c.072.719-1.018,1.48-1.523,1.228-.48-.24-.965-.53-1.343-.904-3.37-3.328-6.724-6.672-10.067-10.028-.761-.764-.716-1.266.153-1.783.225-.134.659-.117.897.013.534.292,1.051.65,1.494,1.067,3.092,2.912,6.177,5.832,9.227,8.787.518.502,1.091.9,1.163,1.62Z" fill="#9e8f4f"/>
      <path d="m36.572,15.915c.145.068.504.141.724.357.634.623,1.302,1.244,1.796,1.974,1.564,2.31,3.062,4.664,4.567,7.013.293.457.513.963.748,1.456.229.48.242,1.047-.238,1.273-.438.207-1.07.274-1.515.116-.386-.137-.674-.647-.926-1.042-1.534-2.41-3.058-4.826-4.557-7.258-.535-.869-1.019-1.772-1.471-2.687-.276-.558.088-1.125.871-1.2Z" fill="#9e8f4f"/>
      <path d="m40.665,58.863c-.643.49-1.414-.083-1.928-.395-2.896-1.76-5.743-3.602-8.599-5.429-.339-.217-.693-.465-.922-.784-.176-.245-.318-.703-.202-.922.163-.31.562-.647.89-.68.434-.044.95.102,1.338.328,2.93,1.705,5.845,3.434,8.744,5.191.87.527,1.322,2.202.679,2.692Z" fill="#9e8f4f"/>
      <path d="m101.538,40.69c-.052.147-.101.585-.332.883-1.122,1.452-2.287,2.87-3.451,4.289-.169.206-.396.465-.626.499-.377.057-.841.055-1.147-.127-.179-.107-.269-.691-.144-.921.549-1.006,1.154-1.986,1.81-2.926.543-.778,1.174-1.497,1.792-2.22.217-.254.483-.504.78-.643.811-.382,1.343.004,1.318,1.166Z" fill="#9e8f4f"/>
      <path d="m129.018,83c1.107-.957,3.059-.007,4.305.274.817.184,1.353,1.107,1.148,1.695-.231.66-1.058,1.161-1.812,1.038-.531-.087-1.049-.256-1.573-.387-1.537-.385-3.174-1.663-2.067-2.619Z" fill="#9e8f4f"/>
      <path d="m23.253,73.888c.003-.404.936-1.3,1.396-1.34.601-.053,1.321.775,1.336,1.536.017.835-.411,1.252-1.258,1.228-.707-.02-1.478-.764-1.473-1.423Z" fill="#9e8f4f"/>
      <path d="m57.419,60.486c-2.011-.005-3.217-1.259-3.349-3.306-.089-1.38.347-2.566,1.075-3.656.171-.256.718-.533,1.068-.352s.321.546.321.842c0,.395-.188.787-.242,1.188-.092.671-.217,1.35-.191,2.02.037.97.773,1.46,1.714,1.168.938-.291,1.753-.847,2.269-1.677.569-.915,1.042-1.897,1.483-2.883.874-1.958,1.824-3.835,3.857-4.872,1.466-.748,2.976-1.389,4.656-1.201.642.072,1.696.182,1.863.711s-.116.808-.283.829c-.94.115-1.903.111-2.825.302-2.485.516-3.963,2.154-4.915,4.441-.598,1.437-1.291,2.864-2.155,4.152-.996,1.486-2.504,2.278-4.345,2.294Z" fill="#9e8f4f"/>
    </g>
  </g>
</svg>