<?xml version="1.0" encoding="UTF-8"?>
<svg id="b" data-name="Layer 2" xmlns="http://www.w3.org/2000/svg" width="213.05" height="278.832" viewBox="0 0 213.05 278.832">
  <g id="c" data-name="Layer 1">
    <g>
      <path d="m47.933,64.366c0-2.421-.036-4.411.008-6.399.043-3.444.615-6.861,1.697-10.131,1.232-3.451,2.809-6.77,4.708-9.904,3.63-6.203,7.418-12.32,10.36-18.896.98-2.257,2.2-4.401,3.639-6.397,1.565-2.127,3.438-3.643,6.065-4.249,1.963-.501,4.003-.621,6.011-.353,2.641.38,5.235,1.054,7.865,1.336,3.438.369,6.863.284,10.096-1.541,2.883-1.627,5.777-3.24,8.557-5.026,4.22-2.711,8.694-3.492,13.518-2.189,2.571.678,5.075,1.587,7.483,2.715,3.469,1.634,6.548,3.991,9.031,6.913.792.987,1.487,2.047,2.077,3.166,3.271,5.836,6.046,11.902,8.726,18.036,2.502,5.728,4.527,11.645,7.196,17.305,1.413,2.997,2.945,5.935,4.329,8.945.323.704.633,1.004,1.594.781,4.272-.989,8.031-3.007,11.447-5.638,2.183-1.711,3.975-3.869,5.254-6.329.404-.891.657-1.843.748-2.818.745-4.562,1.58-9.101,3.064-13.481.692-2.043,1.343-4.143,3.058-5.71,2.202-2.013,4.301-1.7,5.569,1.061.64,1.392,1.206,2.834,1.221,4.43.012,1.334.473,2.612.422,3.983-.089,2.398-.459,4.746-.774,7.114-.288,2.158-.765,4.284-.992,6.452-.189,1.316-.474,2.617-.852,3.892-1.583,6.165-3.247,12.307-5.498,18.269-1.238,3.278-2.568,6.522-3.844,9.785-1.647,4.214-3.879,8.144-5.882,12.186-.452.859-.545,1.862-.258,2.789.911,3.587,1.543,7.245,2.264,10.879.601,3.028.925,6.096,1.345,9.15.389,2.834,1.329,5.564,2.235,8.288.927,2.568,2.032,5.069,3.308,7.483,2.158,4.359,4.477,8.634,6.435,13.096,2.088,4.758,4.383,9.424,6.581,14.134,1.586,3.513,2.796,7.183,3.61,10.95.595,2.587,1.362,5.168,1.607,7.794.271,2.681.211,5.385-.178,8.051-.317,2.078-.635,4.169-1.039,6.226-.597,2.975-.881,6.004-.847,9.038.052,3.494.918,6.801,2.169,10.023,1.382,3.561,3.531,6.712,5.482,9.965,2.404,3.891,4.16,8.147,5.199,12.601.517,2.332.972,4.695.858,7.098-.052,1.09.511,2.038.44,3.13-.169,2.591-.505,5.169-1.006,7.717-.346,1.785-.842,3.539-1.482,5.241-.189.524-.455,1.017-.788,1.463-.426.648-1.235.929-1.97.683-.542-.233-.862-.798-.783-1.382.037-1.353.032-2.708.038-4.062.016-3.989-.97-7.786-2.314-11.492-.705-1.943-2.044-3.554-3.37-5.092-1.898-2.2-4.15-4.084-5.914-6.416-.237-.24-.495-.459-.771-.652v2.098c-.016,7.269-.029,14.537-.038,21.806.002.845-.13,1.684-.391,2.488-.135.402-.373.762-.69,1.043-.64.61-1.371.59-1.769-.178-.713-1.379-1.255-2.857-.818-4.434.142-.546.208-1.108.196-1.672.013-8.694.165-17.391-.04-26.08-.102-4.338-.907-8.656-2.942-12.603-1.851-3.588-4.563-6.42-7.759-8.861-1.692-1.292-3.559-2.277-5.338-3.412-1.363-.87-2.965-1.254-4.496-1.756-.251-.123-.554-.019-.677.232-.042.085-.059.18-.049.274,0,1.567-.111,3.151.095,4.692.143.682.239,1.374.288,2.069-.006,2.896.511,5.742.773,8.611.153,1.682.377,3.37.603,5.031s.207,3.35.678,4.993c.277,1.232.414,2.491.409,3.753.108,2.193.599,4.337.561,6.542-.071,4.132-.079,8.267.005,12.397.059,2.913-.428,5.781-.537,8.682-.182,3.008-.611,5.996-1.281,8.934-.227,1.388-.72,2.72-1.451,3.922-.649.97-1.307.955-2.017.075-.672-.832-.994-1.844-.637-2.783.35-.923.186-1.824.337-2.719.364-2.145.253-4.343.772-6.473.08-.492.102-.993.065-1.49,0-2.994-.039-5.988.007-8.978.019-1.283-.546-2.466-.441-3.771.094-1.184-.207-2.381-.31-3.558-.215-2.458-.643-4.876-.985-7.308-.302-2.145-.759-4.269-1.128-6.404-.337-1.93-.627-3.868-.979-5.796-.515-2.818-.97-5.646-1.619-8.443-.491-2.108-.65-4.298-.97-6.449-.268-1.801-.566-3.597-.83-5.397-.061-.415-.229-.645-.661-.641-.427-.027-.855-.021-1.281.02-4.449.766-8.94.464-13.392.275-2.825-.094-5.579-.91-7.999-2.371-.809-.498-1.238-.287-1.388.633-.158.967-.271,1.94-.434,2.91-.43,2.552-1.001,5.099-1.242,7.658-.204,2.168-.751,4.323-.562,6.536.087,1.063-.225,2.12-.877,2.965-.38.512-1.343.485-1.556-.092-.337-.913-.886-1.909-.46-2.856.473-1.054.271-2.096.337-3.143.184-2.947.34-5.892.792-8.819.203-1.314.261-2.652.439-3.98.363-2.712.881-5.394,1.434-8.063.778-3.761,1.788-7.472,2.518-11.25.552-2.856,1.345-5.666,2.043-8.545-1.134.256-1.74,1.061-2.422,1.747-2.613,2.696-5.701,4.886-9.108,6.462-2.156,1.024-4.458,1.709-6.823,2.03-1.768.211-3.516.253-5.277.317-.207-.008-.409.064-.564.202-.185.262-.016.521.19.738,1.219,1.284,2.423,2.575,3.567,3.935,1.903,2.357,3.66,4.828,5.262,7.399,2.727,4.185,4.137,8.886,5.26,13.662.4,1.499.598,3.045.588,4.596-.084,2.349.139,4.718-.082,7.049-.185,1.945-.18,3.926-.685,5.842-.305,1.156-.226,2.372-.388,3.554-.229,1.661-.593,3.324-.624,5.035-.036,1.968-.447,3.919-.362,5.909.155,3.579.894,7.108,2.188,10.448.564,1.393,1.543,2.579,2.805,3.396,3.095,2.129,5.945,4.594,8.498,7.35,2.647,2.778,4.015,6.132,4.979,9.815.576,2.203-.33,4.18-.126,6.266.023.529-.381.98-.91,1.015-.59.113-1.206.063-1.489-.536-.426-.806-.748-1.663-.961-2.549-.483-2.538-1.657-4.735-3.066-6.849-.477-.615-1.077-1.123-1.762-1.491-1.967-1.291-4.011-2.193-6.462-2.304-3.645-.169-6.642-1.712-8.593-4.957-.269-.447-.721-.766-1.008-1.273.072,2.855-.491,5.685.28,8.476.046.282.055.568.027.852.019,2.746.298,5.484.833,8.178.22,1.171-.169,2.39.359,3.572.249.558-.783,2.005-1.374,2.226-.436.163-1.342-.356-1.626-1.039-.377-.977-.633-1.997-.761-3.036-.281-1.869-.389-3.757-.766-5.621-.252-1.455-.392-2.927-.418-4.404-.163-3.679-.581-7.34-.578-11.037.007-7.458-.553-14.909-.412-22.372-.702-3.731-.089-7.521-.471-11.251-.295-2.902-.094-5.821-.448-8.687-.263-2.125.031-4.283-.404-6.33-.488-2.298-.264-4.618-.684-6.922-.464-2.543-.688-5.144-1.392-7.639-1.047-3.704-2.271-7.314-4.164-10.741-2.722-4.926-6.403-8.99-10.493-12.703-2.651-2.407-5.719-4.322-8.813-6.148-4.014-2.369-8.262-4.197-12.846-5.06-4.792-.968-9.768-.364-14.189,1.723-2.088,1.037-3.948,2.48-5.472,4.244-2.966,3.322-5.591,6.899-7.442,10.984-2.547,5.624-5.119,11.234-7.155,17.078-1.454,4.164-3.167,8.237-4.662,12.388-2.942,8.165-5.923,16.315-8.658,24.556-1.1,3.314-2.372,6.582-3.376,9.935-1.068,3.621-1.92,7.302-2.552,11.023-.409,2.341-.938,4.662-1.242,7.023-.082.421-.314.797-.653,1.061-.625.599-1.319.536-1.795-.172-.698-1.1-.865-2.457-.454-3.693.483-1.586.382-3.205.649-4.789.753-4.909,1.855-9.758,3.297-14.511,1.403-4.399,2.974-8.741,4.412-13.126,1.069-3.26.719-6.511-.651-9.688-1.332-3.087-2.811-6.119-3.64-9.41-.496-1.968-1.163-3.906-1.168-5.954-.003-.807-.521-1.45-.434-2.272.41-3.918.989-7.732,3.085-11.24,2.3-3.85,5.107-7.253,8.066-10.587,4.34-4.888,8.897-9.563,13.416-14.283,1.84-1.923,3.314-4.2,4.918-6.343.494-.66.51-1.247-.032-2.09-2.116-3.409-3.667-7.137-4.592-11.042-.202-.791-.436-1.234-1.171-1.545-1.729-.731-3.424-1.538-5.338-2.406.18,1.358.119,2.504.35,3.715.358,1.751.365,3.556.02,5.309-.351,1.591-.305,3.199-.638,4.79-.444,2.266-1.128,4.478-2.04,6.6-1.786,4.071-4.104,7.888-6.893,11.35-2.649,3.263-5.619,6.195-8.456,9.267-2.699,2.889-5.049,6.086-7,9.524-1.219,2.058-2.272,4.21-3.146,6.436-.922,2.518-1.62,5.072-1.665,7.772-.007.428.015.856-.011,1.283-.222,3.707.58,7.269,1.464,10.83,1.165,4.695,2.895,9.206,4.358,13.804.831,2.612,1.642,5.251,1.434,8.034-.207,3.657-1.251,7.218-3.05,10.408-.775,1.33-2.047,2.343-3.292,3.31-1.614,1.254-3.411,2.252-4.879,3.718-1.322,1.38-2.55,2.846-3.675,4.391-.688.811-1.417,1.587-2.183,2.324-.256.267-.655.339-.988.18-.286-.116-.333-.433-.333-.724,0-.919-.027-1.832.455-2.684,1.58-2.792,3.468-5.313,6.065-7.26,1.071-.801,2.212-1.518,3.268-2.322,1.993-1.521,3.622-3.412,4.213-5.946.46-1.975.961-3.958.964-6.006.003-2.055-.548-4.022-1.158-5.959-1.177-3.737-2.484-7.435-3.598-11.191-.939-3.004-1.658-6.072-2.151-9.18-.286-2.245-.4-4.509-.341-6.771.042-5.04,1.632-9.683,4.052-14.022.954-1.711,1.973-3.408,3.063-5.06,2.001-3.086,4.332-5.944,6.953-8.524,3.872-3.732,7.316-7.885,10.267-12.382,2.468-3.683,4.186-7.816,5.054-12.164.71-3.795,1.019-7.708.187-11.587-.104-.563-.114-1.139-.03-1.705.127-1.002-.366-1.618-1.142-2.102-3.591-2.235-6.307-5.379-8.969-8.585-.545-.656-1.176-1.241-1.774-1.852-3.16-3.239-5.97-6.802-8.385-10.629-3.458-5.374-6.176-11.189-8.081-17.289-.776-2.55-1.143-5.184-1.674-7.785-.386-2.018-.494-4.079-.32-6.127.207-3.783.984-7.513,2.304-11.064,1.276-3.283,3.616-5.787,6.283-7.903,2.456-2.028,5.331-3.485,8.418-4.268,2.096-.547,4.277-.687,6.425-.415,4.754.672,8.536,3.124,12.264,5.769,1.896,1.304,3.676,2.768,5.322,4.376Zm-8.116,120.877c-1.739.517-2.687,1.994-3.739,3.265-.518.649-.886,1.406-1.076,2.214-.499,1.98-.227,3.927-.268,5.884-.009.447.317.901.528,1.454.16-.26.303-.53.428-.809,1.277-3.532,2.528-7.075,3.837-10.596.186-.453.279-.939.275-1.429.118-.067.446.005.2-.302l-.186.318ZM10.757,79.912c-.334,2.154.032,4.433.517,6.613,1.612,7.256,4.557,13.998,8.401,20.358,1.789,2.961,3.669,5.879,6.05,8.371,3.289,3.44,6.531,6.937,10.256,9.943,2.966,2.388,6.374,4.166,10.029,5.233,4.217,1.252,8.43,2.512,12.808,3.212,3.059.49,6.122.818,9.195,1.061,1.906.105,3.817.008,5.702-.29,2.154-.288,4.316-.489,6.464-.879,3.033-.548,6.119-.812,9.144-1.397,5.417-1.048,10.818-2.182,16.201-3.4,4.497-1.012,9.006-2,13.4-3.416,5.72-1.842,11.554-3.306,17.186-5.459,5.95-2.35,11.748-5.07,17.359-8.142.483-.294.925-.651,1.315-1.06,3.453-3.161,6.542-6.696,9.21-10.542,1.764-2.541,3.365-5.196,4.996-7.826,1.571-2.53,2.35-5.391,3.307-8.178,2.567-7.475,4.237-15.118,4.39-23.051-.022-.283-.002-.567.06-.843.835-2.46-.105-5.087.713-7.548.028-.084-.097-.287-.196-.331s-.337-.004-.38.072c-.766,1.437-2.136,2.242-3.36,3.182-3.396,2.644-7.302,4.557-11.474,5.616-.653.164-.875.279-.509.945.855,1.615,1.568,3.301,2.132,5.039.226.747.286,1.535.178,2.308-.113,1.259-1.532,2.038-2.491,1.364-.787-.492-1.413-1.203-1.801-2.046-1.255-3.061-2.635-6.065-4.141-9.012-1.982-3.892-3.988-7.776-5.655-11.815-1.658-4.016-3.171-8.092-4.793-12.122-1.023-2.542-2.166-5.034-3.323-7.521-2.376-5.107-4.594-10.285-7.831-14.947-.822-1.244-1.837-2.349-3.007-3.274-3.123-2.3-6.613-4.053-10.321-5.187-1.461-.484-2.971-.805-4.502-.96-2.808-.249-5.166,1.096-7.487,2.464-2.668,1.572-5.144,3.446-7.96,4.792-3.674,1.755-7.355,2.91-11.557,2.207-2.346-.393-4.681-.838-7.025-1.249-1.521-.266-3.103-.636-4.603-.47-3.59.397-6.426,2.176-7.86,5.608-2.241,5.176-4.788,10.214-7.627,15.087-2.533,4.479-5.195,8.888-7.359,13.559-1.681,3.644-2.596,7.595-2.689,11.607-.066,2.338.263,4.66.321,6.981.073,2.91.711,5.771.546,8.687-.015.142-.006.286.024.426.584,2.119.537,4.319.738,6.477.188,2.034.391,4.087.633,6.103.178,1.501.105,3.071.618,4.579.338,1.034.193,2.165-.395,3.081-.395.686-1.271.922-1.958.528-.086-.05-.167-.108-.241-.174-.387-.31-.667-.734-.801-1.211-.377-1.494-.645-3.014-.803-4.547-.24-1.672-.298-3.392-.575-5.034-.34-2.018-.417-4.054-.638-6.067-.261-2.376-.742-4.762-.548-7.183.063-.426-.184-.836-.59-.979-3.283-1.682-5.988-4.201-8.991-6.289-2.83-1.968-5.685-3.849-9.24-4.405-1.057-.165-2.118-.39-3.133-.24-2.019.266-3.977.881-5.785,1.817-4.455,2.377-7.558,5.81-8.988,10.711-.853,2.921-1.516,5.859-1.254,9.066Zm141.975,42.214c0-1.446.019-2.586-.007-3.725-.016-.713-.245-.824-.931-.454-.865.468-1.699.993-2.566,1.455-3.107,1.656-6.346,3.026-9.597,4.369-3.875,1.609-7.847,2.976-11.891,4.094-5.654,1.55-11.199,3.516-16.981,4.601-2.4.451-4.786.98-7.178,1.476-2.463.506-4.922,1.034-7.389,1.518-1.92.376-3.851.697-5.777,1.043-2.07.373-4.181.574-6.226.982-4.006.798-8.052,1.115-12.089,1.56-1.11.122-1.307.308-.851,1.268,1.094,2.297,2.274,4.509,4.127,6.357,2.417,2.411,5.029,4.562,8.17,5.843,3.405,1.323,6.697,2.919,9.844,4.773,2.703,1.651,5.435,3.299,7.807,5.378,3.158,2.768,6.249,5.648,8.732,9.083.741,1.025,1.253,2.203,2.136,3.14.19.202.284.464.609.489,1.602.129,3.192.746,4.81.282.466-.152.952-.237,1.443-.253,2.368,0,4.536-.809,6.687-1.671,4.515-1.809,7.939-5.131,11.243-8.492,2.707-2.754,4.712-6.124,6.975-9.263,1.74-2.414,3.136-5.015,4.579-7.59,1.087-1.878,2.002-3.85,2.733-5.893.961-2.864,1.492-5.854,1.578-8.873.053-1.545-.139-3.099.349-4.634.21-.689.211-1.424.005-2.114-.549-1.674-.247-3.372-.342-4.749Zm56.8,122.568c.025-.551.046-.829.049-1.109.038-2.755-.552-5.452-.766-8.178-.231-2.936-1.139-5.645-2.26-8.279-1.428-3.224-3.153-6.307-5.152-9.211-3.539-5.271-5.708-11.34-6.311-17.66-.262-2.614.226-5.203.63-7.78.326-2.075.604-4.166,1.084-6.207.328-1.395.167-2.84.52-4.179.337-1.306.406-2.666.203-3.999-.418-2.903-1.037-5.78-1.658-8.649-.59-2.732-1.195-5.479-2.285-8.058-2.022-4.789-4.113-9.548-6.272-14.279-1.784-3.91-3.666-7.777-5.58-11.626-1.076-2.165-2.174-4.319-3.284-6.536.291,3.577-.529,7.073-.447,10.602.051,2.211-.645,4.343-.494,6.548-.002.211-.059.418-.166.6-.417.787-.191,1.498.199,2.213.183.3.314.629.388.973.558,3.551,2.136,6.692,4.066,9.637,2.355,3.593,4.801,7.115,6.634,11.023,2.084,4.444,2.975,9.17,3.428,14.003.319,3.409-.439,6.778-.425,10.178.01.143,0,.286-.028.426-.601,2.186-.544,4.453-.772,6.681-.173,1.693.004,3.418-.067,5.125,0,1.338.288,2.66.846,3.876,1.054,2.519,1.808,5.153,2.244,7.849.347,2.515,1.323,4.902,2.836,6.94,1.655,2.232,3.664,4.132,5.512,6.166,2.9,3.193,5.181,6.651,6.385,10.803.192.663.284,1.38.94,2.108ZM31.061,210.468c.697-2.176,1.291-4.189,2.005-6.159.202-.559.419-1.092.253-1.637-.579-2.088-1.028-4.211-1.343-6.355-.488-2.631-.298-5.342.552-7.879.428-1.274,1.134-2.436,2.066-3.404,1.683-1.72,3.559-3.238,5.592-4.525,1.482-.981,2.706-2.171,3.373-3.937.78-2.036,1.684-4.023,2.707-5.949,1.419-2.832,3.076-5.539,4.952-8.091,2.026-2.651,4.247-5.129,6.991-7.084.548-.39.517-.871-.016-1.19-1.563-.937-2.683-2.397-4.21-3.676-1.205,3.795-3.629,6.571-6.137,9.256-3.784,4.051-7.914,7.762-11.564,11.958-3.015,3.467-6.083,6.857-8.31,10.916-1.284,2.334-2.061,4.913-2.28,7.568-.192,2.964.152,5.938,1.014,8.78,1.058,3.941,2.517,7.764,4.354,11.408Zm136.054.992c.295-1.664-.201-3.03-.2-4.385.003-3.126-.722-6.199-.511-9.33.081-1.206.013-2.422.018-3.634-.04-.426-.026-.856.042-1.278.58-2.122.485-4.323.743-6.479.175-1.465.468-2.91.638-4.374.266-2.291.859-4.547,1.078-6.841.214-2.244.6-4.47,1.01-6.66.975-5.223,1.955-10.447,2.977-15.661.73-3.729,1.054-7.495,1.524-11.241.377-3.004.137-6.072.438-9.114.128-1.903.047-3.815-.241-5.701-.332-2.723-.174-5.5-.46-8.258-.188-1.818-.414-3.653-.633-5.46-.15-1.244-.147-2.52-.401-3.763-.434-2.121-.787-4.259-1.164-6.393-.317-1.794-.615-3.591-.937-5.384-.053-.198-.256-.315-.454-.262-.069.018-.131.056-.179.109-1.349,1.974-2.67,3.967-4.031,5.932-.417.602-.369,1.088-.091,1.762.567,1.356,1.028,2.755,1.379,4.183,1.227,5.033,2.06,10.153,2.493,15.315.261,3.228.663,6.482.537,9.749-.082,1.638-.078,3.279.01,4.916.178,2.707-.281,5.372-.522,8.039-.105,1.166-.215,2.374-.435,3.545-.374,1.992-.785,3.977-1.183,5.964-.548,2.741-.997,5.497-1.607,8.227-.589,2.596-1.03,5.223-1.319,7.87-.177,1.68-.417,3.362-.604,5.037-.32,2.867-.818,5.72-.754,8.616.067,3.041-.123,6.075.337,9.127.259,1.72.385,3.509.611,5.246.451,3.458,1.207,6.875,1.888,10.582h0Zm-9.454-98.372c-1.194.661-1.513,1.663-1.515,3.012,0,1.361.482,2.621.451,3.984-.084,3.701-.028,7.406-.031,11.109,0,.498.142,1.073-.054,1.481-.69,1.434-.25,2.773.214,4.097,1.908,5.437,2.888,11.079,3.653,16.755.408,3.03-.018,6.101-.48,9.091-.434,2.811-1.43,5.532-2.121,8.307-.388,1.557-.996,3.041-1.256,4.65-.29,1.793-.561,3.6-.911,5.371-.44,2.229-.165,4.488-.68,6.696-.391,1.679.501,3.337.369,5.042-.045.58.355.689.829.687,1.211-.004,2.422.014,3.633-.008,1.041-.019,1.06-.038,1.066-1.073.017-3.276.025-6.552.024-9.828.05-1.69.233-3.373.548-5.034.397-2.485.622-4.998,1.131-7.468.409-1.986.633-4.01,1.05-5.994.616-2.811.987-5.67,1.11-8.544.053-1.497-.389-2.952-.358-4.406-.018-1.693-.212-3.38-.579-5.033-.81-4.321-1.851-8.593-2.597-12.937-.556-3.234-1.018-6.488-1.503-9.728-.342-2.281-.759-4.565-1.063-6.858-.145-1.102-.041-2.425-.928-3.375Zm-19.685,146.86c-2.193-1.979-4.512-3.801-6.87-5.583-2.627-1.982-4.778-4.474-5.642-7.762-.917-3.251-1.411-6.608-1.471-9.985.056-2.687.246-5.37.569-8.038.199-1.738.49-3.464.873-5.17.281-1.343.064-2.722.433-3.977.313-1.162.418-2.37.311-3.568-.078-1.302.464-2.482.45-3.771-.067-2.671-.416-5.327-1.042-7.924-1.284-5.709-4.094-10.731-7.356-15.522-.092-.135-.234-.383-.458-.18-.085.112-.116.255-.084.392.399,1.85.698,3.721.896,5.603.467,3.207.737,6.439.807,9.679.006.921.105,1.84.107,2.76.003.963-.304,1.997-.046,2.874.65,2.208.236,4.481.678,6.714.419,2.12.284,4.357.424,6.54.273,4.238.169,8.499.475,12.749.2,2.766.058,5.556.093,8.334-.011.635.043,1.269.16,1.892.612,2.854,1.884,5.421,3.179,8,1.327,2.646,3.505,4.081,6.334,4.269,2.467.168,4.891.733,7.178,1.674Zm49.827-55.486v-5.384c-.033-.498-.02-.998.039-1.494.504-2.409.776-4.86.813-7.32-.007-2.423-.064-4.849.02-7.267.004-1.623-.205-3.239-.623-4.807-1.089-4.799-3.089-9.344-5.892-13.388-2.042-2.937-4.183-5.837-5.408-9.261-.084-.24-.102-.612-.483-.59-.545.031-.374.499-.422.809-.064.415-.096.824-.202,1.243-.426,1.679-.407,3.289.485,4.913,1.228,2.293,2.287,4.672,3.168,7.12,1.221,3.279,2.09,6.679,2.593,10.141.386,2.649.811,5.276.787,7.964-.026,2.994-.099,5.991.057,8.975.109,2.102,0,4.4,2.446,5.594.629.352,1.119.906,1.392,1.573.271.517.703.931,1.231,1.179Zm-30.409-48.467c0-1.472.173-2.923-.036-4.316-.445-2.967-1.085-5.903-1.658-8.852-.042-.215.16-.627-.299-.581-.156.016-.363.258-.419.436-.56,1.662-1.226,3.287-1.994,4.864-.464.953-.701,2-.694,3.059.042,1.922-.008,3.847,0,5.77-.022.567.021,1.136.126,1.693.37,1.783.605,3.591.702,5.41.129,1.556.042,3.132.025,4.7.012,3.056-1.186,5.993-3.331,8.17-1.516,1.581-2.759,3.403-3.678,5.392-1.521,3.414-1.781,7.257-.732,10.844.259.847.608,1.194,1.445,1.184,1.425-.016,2.85.017,4.275-.003,1.169-.017,1.129-.039,1.161-1.202.03-1.07-.49-2.035-.432-3.127.098-1.83.188-3.654.343-5.482.142-1.687.318-3.383.599-5.031.703-3.704,1.633-7.361,2.783-10.951,1.17-3.916,2.147-7.875,1.815-11.976Zm16.872,8.183c-.597,3.133-1.002,5.968-1.508,8.78-.211,1.181-.165,2.386-.48,3.532-.837,3.045-1.042,6.196-1.502,9.297-.357,2.156-.561,4.335-.609,6.52-.005.891.16,1.291.875,1.4,2.935.446,5.327,2.115,7.882,3.416.74.377.772.422.743-.367-.184-5.018.354-10.044-.362-15.065-.286-2.006-.495-4.03-.951-6-.912-3.983-2.284-7.846-4.087-11.513h0Zm-26.046-8.079c-1.61,2.028-3.208,3.997-3.893,6.339-.644,2.201-1.317,4.41-1.862,6.648-.661,2.713-1.274,5.431-1.822,8.172-.792,3.959-1.891,7.855-2.825,11.787-.36,1.515-.146,1.904,1.303,2.612.88.43,1.781.824,2.699,1.167.452.169.617-.09.524-.566-.441-2.25-.953-4.423-.401-6.819.872-3.789,2.29-7.2,4.976-10.049,2.205-2.226,3.39-5.266,3.272-8.397-.095-3.71-.76-7.384-1.969-10.893Zm31.227-86.216c.762-2.024,1.528-3.823,2.117-5.679.992-3.124,1.949-6.264,2.779-9.434,1.255-4.793,2.461-9.59,3.12-14.528.402-3.008.892-5.992.701-9.021-.021-1.405-.335-2.789-.922-4.065-.269-.52-.684-.569-.941-.097-.875,1.605-1.82,3.209-2.257,4.98-.835,3.384-1.486,6.812-2.223,10.22-.759,3.506-.776,7.097-1.223,10.64-.264,2.089-.222,4.214-.38,6.325-.249,3.295-.396,6.593-.937,9.86.018.273.073.543.164.801h.001Zm-15.761,37.076c-1.199,1.213-2.225,2.267-3.271,3.3-.38.337-.482.89-.248,1.341.532,1.443.924,2.934,1.168,4.452.343,2.075.688,4.137.886,6.238.237,2.497.776,4.965,1.192,7.444.464,2.757.853,5.529,1.426,8.265.571,2.727,1.279,5.425,1.735,8.262.473-.954.708-2.008.686-3.072-.021-2.99.059-5.982,0-8.971-.059-2.966.06-5.922-.326-8.902-.305-2.358-.606-4.723-.886-7.09-.473-3.815-1.264-7.584-2.364-11.268h.001Zm-98.761,44.74c-.175-.363-.345-.742-.537-1.109-1.788-3.418-3.485-6.891-4.229-10.698-.282-1.445-1.24-1.855-2.287-2.019-2.42-.331-4.803-.893-7.116-1.677-.492-.178-.801.153-.64.69.68,2.205,1.54,4.35,2.572,6.414,1.831,3.758,4.684,6.637,8.213,8.855,1.141.767,2.644.722,3.737-.111.109-.104.205-.22.286-.347v.002Zm9.422-.827c-.025-.08-.06-.157-.105-.228-.24-.261-.482-.522-.735-.769-2.662-2.6-4.829-5.531-5.719-9.205-.312-1.289-.899-1.825-2.187-1.628-.44.067-.813-.173-1.218-.289-.871-.25-1.102.013-1.045.986.046.418.152.828.314,1.217.506,1.531,1.11,3.027,1.808,4.48.909,1.816,1.85,3.616,2.777,5.423,1.828.351,3.672.025,5.507.124.205-.014.407-.051.603-.112v.002Z" fill="#9e8f4f"/>
      <path d="m53.533,258.077c-.169.826-.279,1.665-.52,2.466-.172.57-1.192.81-1.777.534-.821-.388-1.213-1.166-1.54-1.901-.277-.721-.434-1.481-.467-2.253-.306-3.5-1.126-6.91-1.855-10.331-.474-2.4-1.141-4.758-1.995-7.051-.943-2.421-1.866-4.84-3.366-7.003-.759-1.008-1.381-2.111-1.85-3.281-.292-.814-.089-1.277.573-1.744.614-.433,1.065-.068,1.523.198.304.188.563.44.759.739,2.404,3.473,4.424,7.196,6.025,11.104,1.629,4.119,2.488,8.44,3.5,12.712.45,1.887.606,3.871.992,5.809Z" fill="#9e8f4f"/>
      <path d="m157.002,267.285c-.029-4.079.407-8.148,1.3-12.128.553-2.863,2.062-5.453,4.281-7.345.512-.435,1.001-.849,1.679-.342.605.452.653,1.316.052,2.069-2.231,2.795-3.031,6.082-3.492,9.541-.555,3.907-.829,7.849-.819,11.795.015,1.437-.452,2.059-1.303,2.051-1.018-.009-1.657-.736-1.691-2.009-.032-1.212-.007-2.422-.007-3.632Z" fill="#9e8f4f"/>
      <path d="m156.561,214.299c.097.799-.403,1.16-.829,1.502-1.534,1.231-3.075,2.457-4.66,3.621-3.672,2.699-7.22,5.569-11.111,7.967-.707.436-1.223,1.178-1.836,1.771-.218.282-.527.48-.875.558-.597.067-1.174.027-1.476-.571-.344-.567-.246-1.298.235-1.755.952-1.054,1.966-2.05,3.036-2.983,3.197-2.515,6.517-4.866,9.864-7.183,1.56-1.079,3.255-1.944,4.742-3.134.474-.436,1.095-.676,1.739-.67.548-.02,1.036.345,1.17.877Z" fill="#9e8f4f"/>
      <path d="m79.259,109.498c-2.518.396-5.201-.158-7.847-.468-4.051-.452-7.981-1.665-11.582-3.575-1.356-.727-2.333-1.858-3.259-3.01-.383-.476-.903-1.186-.23-1.915.497-.539,1.096-.511,2.099.14.173.125.336.263.488.413,1.722,1.537,3.817,2.253,5.98,2.946,4.433,1.421,8.962,1.654,13.565,1.696,3.769.034,7.506-.361,11.249-.583,2.513-.176,5.011-.532,7.473-1.066,2.458-.506,4.969-.796,7.43-1.359,2.793-.638,5.635-1.077,8.4-1.813,3.169-.843,6.283-1.898,9.411-2.902,6.896-2.259,13.36-5.669,19.118-10.085,2.196-1.658,4.202-3.566,6.295-5.359,1.126-.964,2.258-1.909,3.785-2.2,1.157-.221,2.069.635,1.765,1.752-.164.758-.535,1.455-1.07,2.016-3.525,3.486-7.12,6.863-11.24,9.678-4.675,3.143-9.706,5.721-14.987,7.68-4.903,1.855-9.959,3.28-15.109,4.259-2.466.476-4.886,1.233-7.366,1.58-1.455.204-2.937.404-4.385.617-1.658.243-3.344.247-4.999.658-1.371.308-2.775.454-4.18.433-3.553.01-7.061.724-10.803.468Z" fill="#9e8f4f"/>
      <path d="m110.408,13.199c.203.883-.233,1.764-.63,2.543-2.299,4.516-5.899,7.708-10.502,9.731-2.424,1.104-4.954,1.96-7.551,2.553-1.723.371-3.42.803-5.201.738-.639-.023-1.359-.157-1.902.081-.699.307-1.22-.132-1.825-.143-.746-.015-1.557-.843-1.441-1.302.173-.689.527-1.314,1.312-1.498.337-.094.684-.146,1.033-.157,4.747.059,9.145-1.417,13.391-3.289,2.035-.897,4.136-1.94,5.683-3.593,1.58-1.615,2.903-3.463,3.924-5.478.233-.516.546-.991.928-1.409.586-.619,1.223-1.041,2.058-.708.822.328.746,1.121.724,1.931Z" fill="#9e8f4f"/>
      <path d="m72.309,20.541c-.132-1.128.38-2.173.616-3.261.125-.56.432-1.063.873-1.429.287-.328.737-.464,1.158-.349.497.149.822.625.781,1.142.025.283.015.569-.029.85-.683,2.159-.033,3.957,1.407,5.588.592.628.881,1.482.792,2.34-.041.872-.781,1.545-1.653,1.503-.214-.01-.424-.064-.616-.157-.737-.279-1.362-.793-1.777-1.463-.897-1.436-1.631-2.963-1.551-4.765Z" fill="#9e8f4f"/>
      <path d="m106.367,157.84c.507.683,1.259,1.143,2.098,1.282.42.034.832.135,1.221.299.596.295,1.193.545,1.119,1.349-.06.657-.89,1.277-1.667,1.378-.895.116-1.676-.29-2.436-.59-1.398-.511-2.669-1.316-3.728-2.361-.622-.696-1.546-1.043-2.473-.928-.708.062-1.424.034-2.136.053-.851.022-1.332-.555-1.611-1.196-.311-.714.264-1.223.785-1.586.56-.44,1.251-.68,1.963-.684.782.028,1.567-.014,2.35-.018.363,0,.801.009.948-.345.685-1.666,2.327-2.066,3.711-2.541,2.582-.882,5.258-1.504,8.054-1.387.807.033,1.494.38,2.255.499.242.038.606.29.64.49.28,1.638,1.326,1.283,2.354.941,1.976-.658,4.006-.724,6.062-.653.708.029,1.394.256,1.979.655.602.423.747,1.254.324,1.856-.087.123-.194.231-.316.319-.505.395-1.122.621-1.763.643-.711-.029-1.428.058-2.136.01-2.72-.183-5.271.61-7.862,1.247-3.066.757-6.127,1.601-9.734,1.269Zm9.408-4.534c-3.107-.243-6.229.232-9.123,1.388,3.184.498,6.088-.884,9.123-1.388h0Z" fill="#9e8f4f"/>
      <path d="m105.444,145.884c-1.883.155-3.407-.605-4.842-1.483-1.567-.958-1.63-2.661-1.775-4.267-.015-.443.258-.844.675-.994.525-.257.93.021,1.324.374.428.47.763,1.017.987,1.612.468,1.064,1.522,1.75,2.685,1.745,1.403.01,2.819.231,4.217-.194.731-.223,1.526.199,1.654.774.222.639-.11,1.338-.746,1.57-1.367.56-2.77.985-4.179.863Z" fill="#9e8f4f"/>
      <path d="m113.456,139.047c.896-.074,1.673.295,2.418.639.797.368,1.101,1.162.84,1.724-.36.776-1.321,1.304-2.1,1.012-.786-.292-1.534-.678-2.229-1.149-.916-.633-.832-1.354.094-1.982.289-.188.633-.275.977-.245Z" fill="#9e8f4f"/>
    </g>
  </g>
</svg>