<?xml version="1.0" encoding="UTF-8"?>
<svg id="b" data-name="Layer 2" xmlns="http://www.w3.org/2000/svg" width="194.158" height="213.043" viewBox="0 0 194.158 213.043">
  <g id="c" data-name="Layer 1">
    <g>
      <g>
        <path d="m140.943,85.396c-.88-1.943-2.398-3.295-4.09-4.442-2.251-1.526-4.594-2.918-6.892-4.375-.972-.617-1.199-1.148-.928-2.223.228-.898.47-1.793.755-2.675.87-2.623,1.175-5.4.893-8.149-.137-1.933-1.058-3.726-2.55-4.963-2.457-1.925-5.107-3.588-7.908-4.965-2.997-1.526-6.129-2.769-9.356-3.715-3.239-.937-6.431-2.024-9.828-2.256-.292-.04-.58-.104-.861-.192-2.782-.783-5.771-.144-7.991,1.707-1.291,1.034-2.099,2.42-2.933,3.792-1.341,2.204-2.794,4.354-3.947,6.654-1.033,2.061-1.235,1.91-3.308,1.529-1.397-.256-2.775-.772-4.175-.829-3.928-.158-7.869-.277-11.704.935-2.049.647-3.432,2.312-3.341,4.434.095,2.199,1.217,4,2.605,5.608,2.228,2.579,5.217,4.179,8.031,5.988,1.349.867,2.825,1.533,4.213,2.344,1.057.617,1.176,1.029.859,2.181-.13.471-.253.947-.345,1.427-.258,1.356-.898,1.592-2.026.733-.504-.383-.959-.913-1.527-1.102-.54-.177-1.13-.114-1.621.174-.478.387-.326,1.06.131,1.573.611.686,1.192,1.4,1.785,2.101-.464.63-.982.86-1.68,1.251-1.304.728-2.561,1.537-3.763,2.423-.643.476-.843,1.265-.855,2.105-.024,1.508.605,2.716,1.494,3.873.557.727,1.307,1.523,1.396,2.35.233,2.096.637,4.169,1.209,6.199.418,1.501.766,3.028,1.289,4.491.464,1.293,1.168,2.578,2.404,3.225,2.072,1.085,4.209,2.082,6.677,1.94,1.426-.084,2.87.087,4.289-.039,2.273-.201,4.832,1.863,5.497,4.412.527,2.149.737,4.363.624,6.572-.013,2.167-.775,4.263-2.156,5.933-4.183,4.958-8.067,10.12-11.232,15.804-1.373,2.428-2.233,5.112-2.525,7.885-.403,3.871.856,7.347,2.588,10.68.838,1.613,1.679,3.232,2.014,5,.51,2.69.806,5.422,1.178,8.138.398,2.913.888,5.819,1.141,8.747.339,3.919.503,7.854.714,11.783.053.987.017,1.979.048,2.966,1.114-.11,2.231-.193,3.349-.248-.15-3.277-.343-6.552-.521-9.828-.054-.983-.038-1.973-.156-2.948-.256-2.094-.618-4.175-.863-6.27-.291-2.483-.506-4.976-.753-7.464-.01-.098-.027-.196-.04-.293-.183-1.254-.369-2.509-.544-3.764-.007-.295-.031-.59-.071-.882-.606-2.257-1.456-4.442-2.533-6.517-1.544-3.015-2.851-6.111-2.103-9.641.162-.759.176-1.574.464-2.281.603-1.487,1.301-2.939,2.035-4.367.532-1.035,1.149-1.05,1.868-.101.913,1.205,1.82,2.417,2.673,3.664.905,1.261,1.739,2.571,2.499,3.925,1.596,3.008,3.093,6.07,4.627,9.111,1.116,2.213,2.541,4.298,2.792,6.867.1,1.028.239,2.052.384,3.074.342,2.42.745,4.832,1.035,7.258.295,2.484.488,4.981.726,7.472.003.049.01.098.021.146.635,2.577.988,5.215,1.054,7.868.001.444.039.887.112,1.325.253,1.321.495,2.642.689,3.969,1.134.089,2.268.188,3.4.295-.074-.81-.159-1.618-.271-2.421-.38-2.721-.902-5.413-1.025-8.173-.081-1.802-.418-3.593-.64-5.389-.012-.098-.03-.195-.042-.293-.374-2.564-.759-5.126-1.118-7.692-.232-1.651-.412-3.309-.649-4.96-.16-1.114-.368-2.222-.57-3.331-.358-1.965-.743-3.925-1.087-5.892-.278-1.589-.412-3.211-.79-4.774-.613-2.428-.974-4.913-1.077-7.415-.028-.878-.404-1.791-.249-2.618.34-1.804.11-3.775,1.38-5.351.137-.209.189-.463.144-.709-.084-.447-.159-1.155-.422-1.251-.495-.153-1.034-.068-1.458.23-.703.599-1.257,1.353-1.62,2.202-1.195,3.542-.95,7.155-.299,10.774.122.874.166,1.757.131,2.639,0,.155-.279.374-.471.44-.12.042-.36-.114-.473-.244-.1-.169-.179-.349-.233-.538-.767-1.629-1.413-3.335-2.35-4.86-.661-1.002-.795-2.263-.359-3.381,1.595-4.296,3.357-8.509,6.287-12.139.976-1.221,2.24-2.179,3.679-2.789.999-.433,1.894.181,2.84.372,2.391.479,4.008,2.016,5.225,3.927,2.02,3.17,2.917,6.789,3.676,10.424.035.521.004,1.044-.095,1.556-1.997-.738-2.559-.372-2.745,1.582-.014.147-.013.295-.017.443-.096,3.639-.281,7.268.425,10.89.382,1.961.262,3.982.653,5.988.656,3.36.866,6.807,1.281,10.215.195,1.6.414,3.197.656,4.791.2,1.304.438,2.604.69,3.9.271,1.392.717,2.766.843,4.17.242,2.773.234,5.562-.025,8.333,1.05.003,2.102-.059,3.149-.111l.003-.028c.155-1.214.327-2.431.389-3.652.077-1.129.056-2.263-.063-3.388-.234-1.889-.633-3.758-.91-5.642-.285-1.934-.506-3.876-.762-5.815-.025-.193-.116-.376-.151-.568-.144-.817-.426-1.645-.39-2.454.185-4.175.452-8.344.694-12.515.011-.196.055-.39.081-.586.219-1.201.371-2.414.455-3.632.059-3.155.016-6.312-.005-9.467.028-.789-.019-1.578-.143-2.358-.506-2.49-1.004-4.988-1.667-7.438-.596-2.203-1.375-4.358-2.128-6.515-.609-1.746-1.349-3.447-1.942-5.197-.579-1.706-1.097-3.433-1.554-5.18-.601-2.311-1.556-4.55-1.501-7.006-.026-.343-.071-.684-.137-1.021-.145-1.067-.232-2.141-.259-3.217.007-.501.38-.996.584-1.494l.443.091c0,.453.15.979-.028,1.346-.536,1.106-.153,2.101.178,3.124.149.566.334,1.122.554,1.665,1.5,3.168,3.109,6.159,7.122,6.793,2.666.422,4.976-.356,6.439-2.599,1.412-2.148,2.048-4.713,1.804-7.272-.177-2.243-1.017-4.03-3.036-5.173-.332-.245-.637-.526-.908-.837.365-.652.668-1.258,1.03-1.827,1.039-1.632,1.795-3.361,1.787-5.332-.008-2.021-.005-4.045-.126-6.061-.074-1.265-.427-2.509-.541-3.772-.145-1.607-.042-1.576,1.579-1.645,3.186-.137,6.359.704,9.544.097,1.1-.211,2.26-.295,3.273-.724,2.518-1.062,4.31-3.5,2.884-6.648Zm-26.921,68.764v7.282l-.287.004c-.302-2.427-.156-4.862-.075-7.295l.362.01Zm-44.84-85.713c-.723-.271-1.42-.606-2.083-1.004-.928-.503-1.081-1.362-.912-2.294.169-.944,1.019-1.244,1.753-1.345,2.132-.344,4.285-.542,6.444-.595,2.16.061,4.315.254,6.452.576,1.419.173,1.78.92,1.161,2.316-.298.673-.476,1.253-.042,1.935.658,1.028,1.172,1.203,1.947.308.698-.867,1.292-1.813,1.771-2.818,2.283-4.413,4.608-8.805,7.389-12.928,1.394-2.066,3.52-2.719,5.931-2.346,1.497.231,2.982.561,4.454.921,2.462.601,4.937,1.171,7.357,1.916,4.732,1.515,9.229,3.685,13.36,6.447,1.346.876,2.717,1.793,3.225,3.446.253.826.355,1.698.573,2.794-.491,2.163-.978,4.504-1.563,6.821-.464,1.838-1.054,3.643-1.577,5.466-.215.749-.422,1.502-.605,2.26-.282,1.177-.788,1.465-1.922.986-.854-.361-1.663-.828-2.519-1.181-3.191-1.319-6.346-2.746-9.606-3.868-2.486-.856-5.111-1.304-7.67-1.948-1.32-.332-2.619-.759-3.952-1.033-2.254-.46-4.517-.894-6.794-1.22-2.232-.32-4.523-.318-6.718-.785-1.758-.373-3.521-.307-5.258-.572-2.46-.375-4.891-.937-7.331-1.446-1.103-.212-2.194-.483-3.268-.811Zm38.668,64.953c-1.714-.693-3.543-1.055-5.391-1.069-1.781.019-3.48.755-4.711,2.042-2.63,2.612-4.477,5.745-5.973,9.097-.655,1.467-1.217,2.975-1.84,4.456-.192.382-.404.754-.637,1.112-1.236-1.399-2.361-2.589-3.363-3.874-.195-.434-.165-.935.079-1.343,1.916-2.688,3.875-5.346,5.876-7.973.821-1.081,1.954-1.966,2.595-3.132.863-1.467,1.474-3.068,1.808-4.736.49-2.778.338-5.631-.442-8.342-.359-1.319-.835-2.603-1.421-3.837-1.289-2.53-3.522-3.675-6.255-4.271-2.357-.514-4.703-.318-7.052-.444-1.34-.015-2.615-.576-3.532-1.553-.961-1.073-1.349-2.488-1.501-3.901-.034-.314.456-.801.819-1.012.538-.311,1.198-.404,1.771-.663,1.16-.525,1.269-.798,1.024-2.209-.872-.536-1.809-.225-2.723-.142-1.979.179-2.454-.139-2.418-2.135.093-1.771-.561-3.499-1.803-4.765-1.164-1.227-1.012-2.122.422-2.961,1.593-.933,3.252-1.765,4.931-2.535.84-.386,1.602.116,2.309.603,1.09.751,2.193.708,3.082-.08.776-.656.873-1.817.218-2.593-.212-.25-.486-.44-.796-.548-.723-.244-1.487-.365-2.319-.563.356-1.375.684-2.638,1.031-3.975.373.003.745.047,1.109.132.911.342,1.817.705,2.696,1.123.898.413,1.611,1.146,1.999,2.056,1.966,4.559,3.925,9.123,5.875,13.69.211.49.441.973.63,1.472.225.546.166,1.168-.157,1.662-1.036,1.796-2.606,2.994-4.286,4.09-.081.054-.203.063-.262.132-.348.399-1.218.481-.886,1.299.211.522,1.499.942,2.06.729,1.598-.618,3.032-1.594,4.194-2.853.34-.406.659-.83.953-1.271.322.288.617.604.883.944,2.011,3.413,4.896,6.229,8.357,8.156.772.444,1.149.998,1.036,1.906-.145,1.169-.239,2.345-.337,3.519-.051.39-.054.785-.009,1.176.438,3.056,1.121,6.072,2.043,9.019.28.832.501,1.681.663,2.544.112.592.366,1.265-.345,1.823h-.002Zm-1.839-22.744c-3.128-1.83-5.639-4.551-7.211-7.817-2.576-5.24-5.029-10.542-7.51-15.827-.166-.353-.124-.801-.224-1.551,1.386.493,2.415.78,3.366,1.23.551.282,1.028.69,1.392,1.19,1.525,2.045,2.548,4.369,3.545,6.698,1.551,3.626,3.158,7.225,5.397,10.488,1.042,1.521,2.252,2.928,3.376,4.394.274.357.509.745.838,1.232-1.155.508-2.047.506-2.969-.037Zm10.426,12.732c-1.233-.211-1.569-1.153-2.054-1.794-1.096-1.449-1.947-3.075-1.922-4.97.022-1.612,1.085-2.582,2.877-2.592.191,1.392.361,2.694.552,3.994.169,1.158.394,2.309.534,3.47.04.63.044,1.262.011,1.893h0Zm1.927-15.729c-.225-2.24-.366-4.492-.711-6.714-.265-1.236-.638-2.446-1.114-3.616-.228-.664-.532-1.349-1.448-1.11-.509.132-.867,1.184-.721,1.934.187.76.332,1.53.433,2.306.227,2.84.439,5.683.578,8.528.065,1.323-.759,2.131-1.933,2.038-.304-.024-.786-.203-.856-.418-.633-1.932-2.167-3.242-3.358-4.747-2.259-2.855-3.968-6.005-5.634-9.201-1.192-2.286-2.396-4.565-3.573-6.859-.219-.486-.412-.984-.577-1.491l.364-.199c3.753.875,7.496,1.785,11.259,2.608,1.574.344,3.19.495,4.784.748,1.261.16,2.513.386,3.75.675.477.18.839.579.97,1.071.295,3.425.991,6.824.73,10.289-.09,1.67-.675,3.275-1.68,4.611-.223.207-.477.376-.754.502-.169-.27-.337-.538-.497-.811-.022-.034-.005-.094-.011-.143v-.002Zm3.795,12.169c-.314.809-.551,1.651-.914,2.436-.318.817-1.011,1.429-1.86,1.645-.137-.211-.295-.342-.279-.446.273-1.729-.278-3.35-.555-5.018-.168-1.163-.215-2.34-.142-3.512.038-.87.671-1.16,1.469-.722,2.116,1.164,3.231,3.169,2.283,5.619l-.002-.002Zm4.1-30.909c-.677-.109-1.358-.189-2.038-.282-2.905-.393-5.812-.776-8.715-1.184-1.405-.197-2.815-.387-4.202-.679-2.387-.502-4.757-1.088-7.137-1.623-1.188-.267-2.395-.452-3.573-.753-1.841-.471-3.677-.97-5.494-1.527-1.952-.599-3.882-1.273-5.819-1.925-3.888-1.307-7.519-3.185-11.135-5.084-1.589-.834-3.11-1.798-4.649-2.726-.247-.189-.472-.405-.67-.645l.211-.405c.583.15,1.16.325,1.75.441.626.124,1.265.182,1.894.286,1.691.279,3.376.59,5.07.846,2.654.403,5.313.774,7.972,1.157.194.032.39.055.587.068,3.007.129,5.89.897,8.783,1.65,2.07.538,4.202.852,6.25,1.459,2.707.801,5.4,1.687,8.021,2.729,3.254,1.297,6.434,2.781,9.635,4.209,1.908.851,3.806,1.729,5.683,2.643.537.262,1.181.528,1.209,1.386-1.201.232-2.437.218-3.633-.04h0Zm10.445-.95c-.472-.107-.927-.277-1.354-.504-2.452-1.069-4.911-2.125-7.347-3.231-1.554-.706-1.719-1.248-1.05-2.91.283-.703.563-1.407.914-2.284,3.191,1.823,6.093,3.494,8.629,5.707.556.479,1.014,1.061,1.349,1.715.479.98-.057,1.657-1.141,1.508h0Z" fill="#9e8f4f"/>
        <path d="m10.413,173.576c-.006.092-.014.184-.02.276.464-.039.928-.081,1.389-.118,1.135-.047,2.246.329,3.12,1.054,1.062.774,2.167,1.488,3.309,2.138,1.759.997,3.617,1.746,5.703,1.56,1.707-.152,3.408-.372,5.115-.53,2.442-.226,4.885-.158,7.34-.59,2.988-.528,6.075-.503,9.922-.774,2.541-.612,5.558,1.042,8.754,1.408,2.673.305,5.333.79,8.012.959,2.999.19,6.015.095,9.024.169.675.016,1.344.267,2.024.322,1.518.123,3.039.239,4.561.261.779.017,1.459-.524,1.617-1.287.205-.838-.386-1.402-1.081-1.71-.625-.264-1.284-.441-1.958-.525-.974-.134-1.966-.131-2.944-.244-1.166-.135-2.319-.376-3.487-.484-.98-.09-1.972-.032-2.957-.079-1.964-.095-3.93-.177-5.889-.342-2-.169-3.993-.411-5.984-.658-.623-.077-1.227-.292-1.846-.412-1.533-.295-3.064-.617-4.608-.843-.784-.094-1.576-.112-2.364-.056-3.631.166-7.262,0-10.897.57-3.435.538-6.952.56-10.433.81-.246.006-.492.029-.735.069-1.536.324-3.138.097-4.523-.643-1.212-.62-2.384-1.316-3.508-2.084-1.915-1.281-4.24-1.799-6.517-1.453-.031,1.08-.073,2.159-.139,3.236Z" fill="#9e8f4f"/>
        <path d="m10.539,155.225v.179c.241.021.479.069.709.145,1.511.471,3.102.626,4.675.455,2.923-.192,5.618.876,8.401,1.392,1.928.382,3.907.439,5.854.169,2.264-.409,4.502-.947,6.705-1.611,2.078-.559,4.094-1.292,5.774-2.709,1.518-1.282,3.022-2.582,4.535-3.871.998-.926,2.043-1.8,3.131-2.618,1.544-1.061,3.384-1.213,5.201-1.295,2.365-.107,4.751-.011,7.092-.295,3.213-.39,6.388-1.091,9.519-.967,1.317,0,2.501.027,3.685-.006,1.597-.045,2.283-.527,2.262-1.518-.019-.928-.696-1.509-2.142-1.518-3.055-.014-6.114.051-9.167.147-.873.028-1.736.374-2.609.407-3.154.118-6.315.084-9.464.272-1.51.089-3,.383-4.431.873-2.539.88-4.505,2.72-6.364,4.557-2.146,2.12-4.419,3.89-7.344,4.807-2.438.765-4.832,1.637-7.444,1.51-.441-.022-.888.063-1.33.045-1.612-.066-3.285.091-4.823-.29-2.519-.645-5.104-1-7.704-1.058-1.072-.017-2.137-.324-3.211-.368-.5-.02-1.005-.039-1.51-.046v3.214Z" fill="#9e8f4f"/>
        <path d="m121.158,147.142c.886.057,1.774.069,2.661.036,1.312-.084,2.135.564,2.695,1.645.451.867.829,1.771,1.277,2.64.73,1.599,2.299,2.65,4.056,2.716,2.651.135,5.292.197,7.928-.452,1.434-.353,2.678-.87,3.683-1.93,1.438-1.669,3.801-2.196,5.812-1.297.565.181,1.015.611,1.221,1.167.209.643.471,1.268.784,1.867.864,1.586,2.55,2.548,4.355,2.485,4.191.024,8.382.044,12.574.091,5.472.061,10.944.134,16.415.22-.029-1.311-.091-2.619-.228-3.919-1.499-.035-2.999-.054-4.498-.031-4.385.068-8.771.253-13.156.289-3.351.028-6.702-.1-10.054-.149-1.777-.026-2.312-.38-2.87-2.114-.662-2.058-2.061-3.16-4.195-3.28-1.476-.084-2.956-.069-4.435-.084-1.542-.09-3.023.612-3.93,1.863-.826,1.059-2.083,1.694-3.426,1.729-1.573.095-3.157.017-4.731.109-1.527.089-2.312-.739-2.918-1.985-.431-.925-.951-1.806-1.553-2.63-.647-.958-1.745-1.511-2.9-1.46-.639.032-1.282.005-1.923.005v.062c-.886,0-1.775-.035-2.66.011-.783.04-1.114.558-1.104,1.301-.039.568.389,1.06.957,1.099.055.004.11.003.165-.002Z" fill="#9e8f4f"/>
        <path d="m121.954,183.746c.716.318,1.476.524,2.255.61,2.734.268,5.485.069,8.23.521,2.12.349,4.291-.005,6.452-.334,1.763-.268,3.562-.47,5.021-1.416,2.412-1.564,4.968-1.858,7.719-1.692,2.06.126,4.102-.261,6.151-.436,3.216-.275,6.461-.334,9.702.319,2.488.501,5.064.565,7.6.833.241.045.479.107.711.185,1.892.476,3.771,1.017,5.68,1.41.921.19,1.848.354,2.776.51.15-1.243.326-2.483.511-3.722-.813-.126-1.624-.256-2.431-.411-1.623-.312-3.217-.768-4.84-1.085-1.488-.291-2.999-.466-4.495-.717-2.267-.38-4.499-.983-6.827-.951-1.823.024-3.65-.076-5.471-.021-4.321.131-8.639.329-12.959.485-1.227.053-2.421.406-3.479,1.029-3.251,1.848-6.94,2.784-10.679,2.71-1.331-.016-2.662-.003-3.993-.003v-.071c-2.12,0-4.239-.019-6.358.015-.483.005-.957.125-1.385.349-.314.191-.519.519-.553.886.063.414.305.779.662.998Z" fill="#9e8f4f"/>
        <path d="m57.601,74.044c1.275-.272,2.545-.573,3.828-.801.676-.132,1.365-.181,2.053-.143.793.058,1.064.541.679,1.219-.281.502-.676.931-1.154,1.252-1.018.688-2.2,1.093-3.425,1.175-.822.04-1.645.441-2.449.391-1.226-.063-2.439-.282-3.609-.652-3.723-1.233-6.643-3.55-8.36-7.096-1.028-1.968-1.488-4.182-1.33-6.396.287-2.983,1.537-5.791,3.561-8,1.812-2.07,4.233-3.513,6.916-4.122,1.783-.392,3.635-.334,5.389.169,2.339.659,4.521,1.569,6.367,3.14.951.81,1.991,1.673,1.936,3.117-.014.376-.217.966-.476,1.059-.447.101-.915.031-1.311-.198-.396-.282-.749-.619-1.05-1.001-2.252-2.36-5.378-3.687-8.64-3.669-2.668-.025-4.687,1.201-6.454,2.958-.856.863-1.595,1.834-2.199,2.889-2.06,3.567-1.364,6.969.867,10.179,1.473,2.119,3.607,3.384,6.018,4.132.869.269,1.855.154,2.79.214l.051.185Z" fill="#9e8f4f"/>
        <path d="m119.065,65.423c-.108-.605-.249-1.204-.422-1.793-.195-.548-.563-1.042-.717-1.598-.103-.361-.032-.749.191-1.051.291-.215.794-.153,1.207-.187.077-.006.162.097.245.148,1.501.91,2.476,3.695,1.855,5.305-.445,1.157-2.235,2.304-3.403,1.991-2.178-.525-4.319-1.193-6.409-2-2.235-.956-4.4-2.069-6.478-3.331-2.209-1.315-4.27-2.875-6.438-4.263-.972-.656-1.718-1.595-2.137-2.69.864-1.244,1.079-1.339,1.992-.471,2.978,2.834,6.709,4.443,10.241,6.371,1.788.976,3.644,1.835,5.504,2.668.896.384,1.829.679,2.783.881.66.071,1.325.078,1.986.021Z" fill="#9e8f4f"/>
      </g>
      <path d="m185.335,203.346H8.822v-107.457C8.822,48.363,47.488,9.699,95.015,9.699h4.127c47.527,0,86.193,38.668,86.193,86.193v107.454Zm-172.956-3.556h169.4v-103.901c0-45.566-37.071-82.637-82.637-82.637h-4.127C49.449,13.252,12.379,50.323,12.379,95.889v103.901Z" fill="#9e8f4f"/>
      <path d="m194.158,213.043H0v-118.238C0,42.53,42.529,0,94.805,0h4.548c52.276,0,94.805,42.53,94.805,94.805v118.238Zm-190.601-3.554h187.045v-114.684c0-50.315-40.934-91.249-91.249-91.249h-4.548C44.49,3.556,3.556,44.49,3.556,94.807v114.682Z" fill="#9e8f4f"/>
    </g>
  </g>
</svg>