<?xml version="1.0" encoding="UTF-8"?>
<svg id="b" data-name="Layer 2" xmlns="http://www.w3.org/2000/svg" width="165.193" height="99.24" viewBox="0 0 165.193 99.24">
  <g id="c" data-name="Layer 1">
    <g>
      <path d="m52.986,43.207c0-2.384.008-4.736-.11-7.118-.053-1.068-.064-2.137-.08-3.206-.008-.538.27-2.643-.223-2.938-.247-.148-.593.141-.821.209-.471.141-.945.095-1.428.139-.953.088-1.684.486-2.564-.062-.737-.459-1.58-.827-2.292-1.319-.658-.455-1.406-1.148-1.496-1.968-.097-.877-.154-2.136.229-2.933.417-.867.86-1.758,1.302-2.62.412-.804,1.054-1.298,1.59-2.007.597-.79,1.041-1.683,1.561-2.523.509-.822,1.052-1.56,1.358-2.488.314-.951.698-1.664,1.214-2.519.458-.759.849-1.478,1.385-2.191.59-.786,1.16-1.863,1.957-2.458.62-.463,1.255-.504,1.392-1.386.161-1.042.078-2.015.411-3.053.252-.787.565-1.751,1.546-1.791.93-.038,1.353.906,1.668,1.635.26.604.383,2.181,1.067.908.488-.907.629-2.038,1.304-2.841.392-.466,1.198-1.05,1.693-.365.448.62.187,2.253.089,2.98-.132.982-.286,1.39.746,1.665,1.12.299,2.141.88,3.254,1.213,2.113.632,4.182,1.333,6.251,2.108,1.972.739,3.85,1.553,5.554,2.806.827.608,1.723.904,2.642,1.341.993.472,1.978.933,2.99,1.364,1.937.826,3.699,1.892,5.805,2.129,1.635.184,3.893.84,4.823,2.346.402.65.412,1.223,1.195,1.599.486.234,1.739.404,2.098-.11.203-.292.18-.827.344-1.161.166-.338.388-.626.649-.896.283-.293.691-.512.901-.869.263-.447.144-.994.182-1.486.053-.676.054-1.955.517-2.484.636-.727,1.456-.123,2.123.224.722.376,1.315.938,1.591,1.718.3.846-.087,1.769.465,2.534.488.677,1.245.999,1.511,1.859.093.301.018.699.164.974.199.375.617.422.941.647.301.21.434.54.706.764.281.231.67.284,1.011.374,1.01.265,1.968.195,2.988.321.406.05.915.402,1.316.371.382-.03.635-.408.894-.648.814-.755,1.649-1.482,2.449-2.253,1.412-1.361,3.047-2.532,5.133-2.043,1.696.397,3.454,1.411,3.715,3.317.052.38-.184.904-.058,1.242.121.326.7.516.947.716.303.245.552.624.917.777.525.219.944-.037,1.446-.169,1.021-.269,2.154-.182,3.206-.272,1.204-.103,2.384-.194,3.594-.157,2.211.068,4.45.231,6.591.82.988.272,1.934.667,2.876,1.065.961.407,2.07.551,2.973,1.074.789.457.95,1.092,1.486,1.747.543.664,1.531.526,2.282.809,1.631.615,3.911,1.51,4.862,3.071,1.085,1.782,1.473,4.201,2.018,6.195.262.959.508,1.986.615,2.976.114,1.056.266,2.203.272,3.265.005.861-.129,1.74.024,2.595.175.974.406,2.016.651,2.976.549,2.154,1.122,4.308,1.601,6.483.457,2.08,1.096,4.192,1.382,6.3.304,2.246-.024,4.617.432,6.802.415,1.987.502,4.424.217,6.43-.3,2.113-1.252,4.143-2.503,5.858-.51.699-1.068,1.485-1.709,2.069-.49.446-1.834.961-1.801-.168.012-.407.381-.898.51-1.273.083-.239.364-1.106.186-1.361-.216-.31-.297-.108-.563.157-.397.396-.608.844-1.085,1.179-.433.304-1.971,1.095-1.707-.103.082-.372.52-.735.74-1.027.348-.462.617-.956.857-1.482.423-.927.593-1.846.816-2.827.139-.61.153-.824.066-1.447-.062-.445.046-1.016-.178-1.414-.355-.631-1.554-1.188-2.108-1.705-.729-.681-1.441-1.429-2.052-2.219-.544-.704-.73-1.493-1.114-2.269-.574-1.16-.752.322-.731.933.034,1.027.332,2.187.524,3.207.206,1.093.627,2.097.952,3.154.289.938.087,1.053-.732,1.375-.875.344-.157.599.402.833,1.345.562.299,3.511.031,4.565-.26,1.021-.386,1.966-.53,3.003-.129.926-.499,1.864-.74,2.767-.264.989-.689,1.926-.989,2.905-.315,1.025-.523,1.906-1.426,2.55-.694.495-1.601,1.042-2.145,1.702-.524.635-.351,1.359-1.157,1.893-.794.526-1.668.814-2.562,1.083-.409.123-.732.375-1.155.456-.61.117-1.232.121-1.846.264-.957.223-1.928.626-2.91.723-.904.089-2.473-.146-3.256-.629-1.892-1.167,1.436-3.041,2.295-3.593.781-.501,1.597-.954,2.348-1.501.94-.685,1.166-1.419,1.48-2.505.589-2.038,1.259-4.28,1.4-6.403.061-.91-.066-1.828.26-2.701.339-.911.968-1.408.783-2.446-.412-2.309-1.399-4.564-1.972-6.84-.216-.855.076-1.694-.162-2.549-.295-1.061-.959-2.045-1.391-3.059-.425-.995-.794-2.011-1.164-3.028-.392-1.077-.406-2.234-.835-3.269-.325-.785-.637-1.736-1.126-2.43-.506-.719-1.273-1.201-1.966-1.719-.807-.604-1.523-1.245-2.175-2.013-.237-.279-.549-.756-.957-.8-.475-.051-1.071.533-1.447.758-1.653.988-3.399,2.028-5.179,2.756-.793.325-1.842.568-2.409,1.236-.603.709-.981,1.463-1.731,2.061-.594.474-1.379,1.119-2.17,1.012-1.016-.137-2.27-.004-3.244-.327-.841-.279-1.155-.857-1.637-1.524-.554-.766-1.369-.582-2.217-.484-2.205.256-4.173.08-6.276-.608-.837-.274-1.98-.429-2.861-.464-.632-.026-2.215-.241-2.562.392-.186.339-.12,1.067-.169,1.439-.063.483-.099.966-.152,1.449-.047.429-.187.816-.291,1.232-.15.594-.12,1.184-.219,1.782-.342,2.064-.858,4.098-.903,6.206-.024,1.116.036,2.256-.05,3.368-.085,1.091-.46,1.706-1.112,2.49-.574.69-.297,1.526-.111,2.314.248,1.05.19,2.038.288,3.101.089.97.544,2.019.481,2.983-.029.444-.196.746-.108,1.205.095.498.318.954.368,1.466.084.872-.195,1.529-.712,2.208-.673.883-1.044,1.661-1.337,2.733-.268.983-.501,1.816-1.252,2.528-.343.326-.722.613-1.097.9-.388.297-.741.398-1.133.626-.603.351-.812,1.071-1.436,1.461-.831.52-1.842.882-2.805,1.046-1.776.302-4.1-.105-5.151-1.747-.545-.852-.041-1.572.481-2.289.286-.393.588-.795.965-1.106.339-.279.658-.312,1.031-.509.666-.351,1.605-1.087,2.041-1.702.512-.722.575-1.636.903-2.431.338-.819.651-1.602.929-2.45.263-.804-.008-1.647-.139-2.488-.157-1.011-.266-2.032-.442-3.041-.093-.534-.278-1.051-.367-1.583-.106-.632.103-1.055.222-1.657.14-.71.152-1.591-.407-2.05-.774-.637-.904-1.34-1.159-2.328-.268-1.04-.533-2.089-.65-3.159-.118-1.078.264-2.147.055-3.199-.415-2.08-1.242-4.048-1.97-6.038-.359-.98-.706-1.965-1.131-2.919-.21-.471-.507-.984-.599-1.495-.109-.601.18-.996.233-1.565.085-.911-.478-1.819-.491-2.739-.016-1.088-.37-1.268-1.128-1.992-1.395-1.331-2.146-3.504-2.769-5.276-.324-.922-.798-1.918-.969-2.88-.176-.991.157-2.021-.005-2.998-.148-.895-.902-1.537-1.504-2.152-.721-.736-1.464-1.394-2.302-1.992-.793-.567-1.372-1.227-1.917-2.027-.613-.899-1.416-1.647-2.091-2.5-1.243-1.571-2.337-3.233-3.912-4.498-.502-.403-1.46-1.642-2.182-1.502-.359.07-.679.49-.972.698-.449.319-.897.617-1.43.772-.947.276-1.941.346-2.891.637-.99.304-1.893.871-2.871,1.161-.569.169-1.521-.096-1.834.482-.157.29-.043.948-.043,1.255,0,.678-.006,1.357.02,2.035.184,4.709.251,9.386.267,14.1.015,4.374.049,8.855-.711,13.178-.342,1.945-.533,3.913-.964,5.845-.504,2.259-1.203,4.432-1.975,6.613-1.298,3.669-3.37,7.5-6.694,9.704-3.553,2.356-8.054.57-11.003-1.997-.333-.29-1.262-1.492-1.768-1.216-.214.117-.141.907-.174,1.117-.094.6-.324,1.164-.399,1.765-.135,1.084-.342,2.165-.475,3.247-.132,1.075-.034,2.214-.039,3.297-.005,1.127-.009,2.255-.011,3.382-.002,1.111.171,2.383-.014,3.476-.073.433-.249.6-.525.916-.241.275-.398.631-.643.893-.529.567-1.439.337-2.066.816-.333.254-.524.632-.858.886-.304.23-.678.354-1.027.493-.939.374-1.866.675-2.858.879-.813.167-1.852.238-2.441-.49-.702-.868.464-1.418.24-2.299-.102-.404-.409-.709-.493-1.135-.08-.405-.008-.824-.008-1.233.001-1.134-.187-2.284-.308-3.41-.233-2.161-.23-4.364-.219-6.542.011-2.286-.054-4.58.03-6.865.04-1.08.238-2.148.255-3.229.006-.423.483-1.936-.154-2.03-.479-.07-1.14,1.402-1.243,1.766-.268.943-.052,2.089-.088,3.069-.017.472-.041.735-.337,1.102-.261.324-.401.404-.461.85-.05.371.12.955-.33,1.177-.475.235-.712-.334-.914-.697-.08-.145-.302-.867-.581-.625-.188.163-.053.977-.05,1.233.007.614-.094,1.94-1.009,1.165-.367-.311-.53-1.834-.938-.963-.198.422.033,1.254-.033,1.725-.069.496-.346.604-.538,1.014-.336.716.353,2.01.534,2.731.242.967.564,1.993.689,2.975.242,1.909.633,3.627-.524,5.289-.494.71-.594,1.569-1.425,2.005-.908.477-2.079.49-3.061.743-.915.235-1.795.581-2.738.7-.669.085-2.221.184-2.61-.571-.286-.554.473-1.083.277-1.642-.115-.329-.529-.517-.737-.783-.332-.423-.335-.818-.38-1.335-.081-.932-.352-1.825-.457-2.749-.077-.681.245-1.938-.453-2.342-.59-.342-1.142.152-1.453-.66-.16-.418-.058-1.074-.064-1.523-.008-.649-.012-1.298-.014-1.947-.004-.96-.142-1.919.278-2.784.461-.951.64-1.978,1.004-2.964.726-1.964,2.123-3.551,3.28-5.262,1.166-1.725,2.131-3.495,3.49-5.086,1.43-1.674,2.649-3.461,3.793-5.339,1.148-1.883,2.424-3.707,3.405-5.688.437-.883.862-1.825,1.17-2.761.344-1.047.328-2.105.429-3.183.079-.841.403-1.781.663-2.585.123-.381.36-.65.606-.951.375-.461.311-.503.255-1.056-.101-.984-.169-1.995-.298-2.974-.129-.973-.935-1.503-1.13-2.416-.191-.895.3-1.807.543-2.649.184-.636.766-1.481-.045-1.741-.607-.195-1.343.09-1.204-.925.053-.391.428-.904.595-1.26.258-.548.456-1.105.673-1.67.312-.813.829-1.692,1.488-2.276.278-.246.585-.414.954-.476.381-.064.875.062.801-.527-.078-.622-1.657-.819-2.077-1.217-.674-.638-1.042-1.611-.92-2.477.09-.637.602-1.973.277-2.533-.192-.332-.687-.441-.995-.628-.448-.273-.878-.65-1.13-1.118-.362-.672-.182-1.517.149-2.179.488-.976,1.652-.877,2.583-.714.533.093.969.267,1.524.181.567-.088.725-.372,1.178-.701.722-.525,1.749-.924,2.604-1.163.672-.188,1.753-.295,2.311.223.617.574.746,1.382,1.525,1.87.686.43,1.551.466,2.129,1.075.556.587.921,1.715,1.035,2.496.111.758-.268,1.787-.625,2.449-.224.415-.594.71-.532,1.213.054.44.464.882.688,1.25.261.428.551.879.681,1.367.1.377.013.778.152,1.145.154.407.566.671.831,1.006.331.417.647.931.829,1.432.298.821.082,1.642.254,2.47.212,1.02,1.062,1.377,1.727,2.061.405.417,1.266,1.62.322,1.979-.695.264-1.588-.762-2.079-1.127-.642-.477-1.472-.942-1.894-1.628-.738-1.2-.739.467-.743,1.112-.012,2.047-.182,4.161-.737,6.134-.267.949-.561,1.914-.67,2.897-.059.528-.051,1.06-.08,1.589-.028.513-.211.958-.263,1.459-.105,1.004.585,1.859.996,2.717.467.973.819,2.029.933,3.108.058.552-.126.934-.171,1.451-.039.448.141.878.244,1.307.26,1.086.217,2.153.216,3.262-.001,1.099.008,2.198.003,3.297-.002.433-.032.881.057,1.308.111.529.471.953.422,1.511-.04.451-.23.814-.238,1.281-.01.52.025,1.044.029,1.565.009,1.174-.008,2.347-.004,3.521.003.941-.104,1.982.31,2.856.419.886,1.302,1.561,2.033,2.185,1.549,1.324,3.549,2.433,5.597,2.695,2.026.259,3.721-.529,5.217-1.849,3.151-2.78,4.813-7.088,5.989-11.018,1.189-3.971,1.766-7.96,2.034-12.087.279-4.295.528-8.541.528-12.852h-.036Zm83.061-18.309c-1.254.03-2.455.175-3.699.274-.977.078-1.942.132-2.876.468-.552.199-.706.522-1.108.918-.353.347-.774.571-1.204.806-.804.44-1.414.939-1.809,1.784-1.013,2.163-1.25,4.697-2.605,6.708-1.212,1.797-3.564,1.937-5.547,2.031-.955.045-2.022-.306-2.466.744-.404.957-.357,2.306-.438,3.338-.101,1.285-.13,2.574-.231,3.86-.051.644.004,1.292-.059,1.935-.057.581-.242.98-.052,1.542.382,1.13.783,2.212,1.103,3.373.293,1.063.654,1.205,1.598,1.649,1.092.513,1.811,1.653,2.917,2.123.913.389,1.78-.268,2.659-.497,1.271-.33,2.332-.771,3.477-1.425.815-.465,2.018-.934,2.513-1.777.543-.924.254-2.371.259-3.395.005-1.076.371-2.003.29-3.052-.037-.477-.059-2.779.534-2.845.655-.073.776,2.084.854,2.46.263,1.251.305,2.392.987,3.509.552.904,1.099,1.616,1.864,2.339,1.768,1.671,3.407,3.488,5.158,5.182.584.565,1.518,2.06,2.415,1.786.651-.199,1.689-1.113,2.383-.408,1.043,1.06-1.285,1.679-1.727,2.097-.701.663.151,1.653.308,2.415.238,1.149.292,2.235.665,3.369.317.965.875,2.013.957,3.032.166,2.07.965,4.113,1.501,6.148.349,1.326.458,2.678.437,4.046-.017,1.193-.303,2.341-.344,3.529-.08,2.356-.489,4.764-1.033,7.045-.266,1.113-.521,2.187-1.244,3.106-.582.739-1.392,1.24-2.017,1.947-.34.384-2.369,1.57-2.127,1.978.184.308.911.108,1.198.052.542-.107,1.019-.193,1.577-.203.532-.01.914.08,1.247-.361.259-.344.358-.94.57-1.34.475-.893.894-1.866,1.437-2.718.252-.395.717-.704.907-1.117.18-.391-.003-.957.103-1.385.284-1.153.853-2.318,1.258-3.437.83-2.294,1.721-4.528,2.285-6.905.139-.588.573-1.095.617-1.694.03-.41-.125-.792-.223-1.182-.294-1.165-.437-2.37-.666-3.55-.042-.219-.083-1.418-.193-1.475-.446-.23-.391.466-.439.733-.142.798-.432,2.108-1.476,2.027-2.249-.173-.286-4.48.136-5.508.419-1.023.513-2.203.792-3.277.318-1.223.551-2.353,1.196-3.459.584-1.003,1.054-2.047,1.731-2.996.653-.917,1.312-1.829,1.923-2.775.724-1.122,1.238-2.077,1.461-3.396.177-1.049.505-2.126.551-3.182.061-1.375.053-2.765.029-4.141-.01-.545-.054-1.08-.095-1.618-.039-.518.063-.996.051-1.528-.052-2.275-.801-4.446-1.15-6.668-.103-.655-.297-1.188-.548-1.793-.151-.363-.567-1.102-.251-1.471.362-.423,1.811.162,2.079.565.264.398.097,1.001.19,1.452.104.506.291,1.002.397,1.512.236,1.134.515,2.234.841,3.345.184.628.271,1.322.5,1.929.187.497.447.537.811.846.777.659.953,1.874,1.098,2.813.038.244.14,1.245.416,1.341.421.145.282-.636.28-.875-.005-.502-.221-1.014-.147-1.491.084-.536.222-.864.101-1.415-.535-2.431-1.096-4.891-1.907-7.253-.372-1.084-.762-2.29-1.336-3.285-.537-.931-1.766-1.216-2.757-1.408-.527-.102-.984-.26-1.478-.461-.414-.168-.904-.22-1.293-.443-.744-.428-.889-1.285-1.424-1.89-.748-.847-1.973-1.012-2.973-1.425-1-.414-1.869-.77-2.916-1.029-1.136-.282-2.345-.797-3.531-.81-.521-.006-1.027.192-1.559.206-.569.015-1.14.002-1.709.002Zm-61.541-4.773c.07-.718-.02-1.434-.106-2.146-.058-.477.015-1.262-.186-1.678-.23-.475-.62-.371-1.024-.623-.4-.25-.583-.673-.766-1.085-.278-.626-1.183-3.19-2.123-3.072-.656.082-1.505,2.25-1.782,2.851-.525,1.138-.939,2.26-1.685,3.288-.326.45-.762.813-.863,1.374-.109.606-.071,1.406-.038,2.022.037.684.32,1.029.792,1.525.235.247.895,1.139,1.217,1.23.568.16.247-.16.129-.496-.195-.556-.317-1.137-.516-1.69-.118-.327-.757-1.317-.209-1.556.424-.185.982.821,1.167,1.093.671.988,1.39,1.941,2.063,2.927,1.458,2.138,2.877,4.252,3.738,6.69.419,1.187,1.521,2.16,2.308,3.117.789.96,1.606,1.933,2.177,3.042.554,1.076,1.31,1.643,1.303,2.916-.006,1.135-.053,2.233.308,3.32.239.719.411,1.464.657,2.178.232.674.606.816,1.194,1.172.98.595,1.691,1.546,2.777,1.955.951.358,2.774.034,3.406.948.327.473.025.911-.473,1.082-.553.191-1.193-.157-1.761-.174-.97-.029-1.518-.099-1.878.841-.428,1.119.105,2.19.409,3.308.413,1.52.893,3.02,1.314,4.537.151.543.23,1.266.52,1.745.246.405.639.446.955.76.793.791,1.302,2.126,1.972,3.04.645.879,1.662,1.227,2.253,2.181.382.617,1.084,2.25-.215,2.285-.745.02-2.047-.983-2.794-.585-.745.397.054,2.394.17,3.024.114.619.253,1.235.362,1.855.083.473-.013,1.18.246,1.605.236.387.774.633,1.094.969.415.436.42.48.903-.059.363-.405,1.207-2.461,1.952-1.319.455.697-.359,2.246-1.054,2.53-.884.362-1.751-.787-1.471.881.192,1.143.315,2.295.473,3.438.162,1.171.429,2.234.18,3.411-.136.641-.04,1.492-.256,2.085-.174.477-.634.755-.803,1.265-.348,1.049-.173,2.104-.654,3.151-.512,1.113-1.195,1.992-2.035,2.876-.343.36-2.204,1.804-2.035,2.174.2.439,1.569.561,1.946.597.537.052,1.185.083,1.718-.025.95-.193,1.752-1.126,2.195-1.942.281-.518.133-1.049.275-1.599.133-.516.475-.928.609-1.444.273-1.054.719-1.42,1.57-2.069,1.076-.82.927-1.683.605-2.894-.355-1.335-.79-2.245-.193-3.522.516-1.103.199-2.629.207-3.842.01-1.424-.097-2.791-.245-4.205-.145-1.394-.199-2.845-.248-4.246-.04-1.16.324-2.352.097-3.464-.275-1.347-.325-2.923-.368-4.296-.04-1.275-.21-2.538-.229-3.811-.02-1.381-.162-2.681-.39-4.037-.099-.591.081-1.02.149-1.606.071-.619.017-1.27.019-1.893.003-1.285-.015-2.267-.905-3.265-.452-.507-1.489-1.749-.104-1.92.505-.062.877.393,1.244.05.322-.301.237-1.339.243-1.732.013-.81-.175-2.304.741-2.75,1.919-.934,1.185,5.447,1.029,6.281-.069.368-.134,1.634.363,1.806.372.129.612-.454.739-.694.445-.839,1.125-2.047.723-2.958-.163-.37-.38-.532-.44-.97-.049-.357.004-.752.011-1.111.013-.651.022-1.301.032-1.952.019-1.267.225-2.478.303-3.739.041-.658.607-2.184-.178-2.457-.415-.145-.884.056-1.309-.15-.434-.21-.5-.54-.75-.912-.631-.94-2.15-.496-3.026-1.136-1.041-.76-.261-2.174.068-3.088.468-1.299,1.02-2.549,1.531-3.83.226-.567.439-1.14.643-1.715.071-.2.586-1.194.483-1.38-.285-.515-.84.351-1.066.578-.376.378-.758.781-1.207,1.074-.952.62-2.098.899-3.062,1.524-.987.64-1.468,1.238-1.863,2.34-.2.557-1.641,2.443-2.171,1.078-.215-.554,1.229-2.159.514-2.534-.312-.164-1.917,2.277-2.178,2.53-.474.459-1.074.719-1.561,1.155-.415.371-.723.824-1.17,1.166-.418.32-.988.764-1.476.292-.482-.467-.059-.949.169-1.403.336-.666.168-.821-.294-1.317-.374-.402-.711-.805-1.139-1.152-.891-.721-1.616-1.375-2.155-2.408-.578-1.107-.968-2.42-1.368-3.605-.404-1.199-.442-2.351-.442-3.604Zm6.31,4.526s.009,0,.013,0c0,1.071,0,2.141,0,3.212,0,.38-.195,2.347.259,2.292.358-.043.649-1.508.72-1.802.232-.963.452-1.935.639-2.907.297-1.543.558-3.087.858-4.625.112-.573.527-1.362,1.135-.687.601.667.208,1.61.134,2.37-.078.806-.161,1.526-.351,2.315-.127.525-.559,1.965.308,1.457.587-.344.94-1.362,1.237-1.953.353-.703.936-1.318,1.215-2.025.348-.884.06-1.835.205-2.739.068-.419.416-1.098.926-.584.193.194.104.819.127,1.057.044.474.132.944.169,1.419.064.819-.237,1.946.374,2.61.637-.781.62-2.252.633-3.215.007-.48.235-2.009,1.06-1.121.553.595.369,2.238.241,2.948-.087.484-.861,2.853.184,2.301.747-.395,1.424-1.496,1.913-2.161.483-.657,1.109-1.383,1.196-2.223.206-1.987-2.132-2.446-3.577-2.879-1.909-.572-3.727-1.535-5.573-2.293-.934-.384-1.913-.749-2.812-1.207-.78-.397-1.366-.979-2.063-1.488-.811-.592-1.78-.966-2.66-1.442-.783-.423-1.535-.906-2.351-1.266-.873-.386-2.132-.922-3.091-.957-1.026-.038-.363.77.018,1.176.702.749,1.23,1.605,1.79,2.46.495.757.986,1.414,1.227,2.301.13.482.837,5.15.947,5.135.18-.024.486-1.607.528-1.805.128-.601.113-1.3.314-1.875.198-.566.628-.776,1.034-.2.368.522.186,1.419.186,2.024,0,1.646-.255,3.263-.282,4.897-.02,1.149.117,3.051.935,3.963.681.761.582-.28.601-.826.027-.796.042-1.591.106-2.385.132-1.634.027-3.234.066-4.867.012-.501.037-1.225.791-.969.521.177.638,1.016.677,1.502.133,1.661-.005,3.394-.005,5.061Zm-19.011-11.518c.033,1.742.13,4.093-.766,5.667-.422.741-1.052.588-1.485-.065-.495-.747-.495-1.605-.675-2.441-.129-.6-.265-.766-.901-.654-.373.065-.708.343-1.076.403-.44.072-.857-.066-1.305-.106-.826-.075-1.303-.277-1.128-1.244.151-.838.854-1.21,1.632-1.268.415-.031.87-.003,1.278.078.257.051.697.308.948.221.573-.198.343-1.214.343-1.693,0-.918.006-1.837.003-2.755-.002-.604-.007-1.085-.654-.697-.679.407-1.329,1.194-1.939,1.711-.605.512-1.222,1.007-1.874,1.459-.669.465-1.376.883-1.876,1.541-.416.547-.715,1.178-1.114,1.739-.488.687-.744,1.46-1.161,2.19-.34.595-1.175,1.458-1.325,2.117-.153.672.689.847,1.196,1.118.641.344,1.268.718,1.846,1.161.634.486,1.13,1.114,1.939,1.307.782.186,1.438-.091,2.136-.414,1.545-.715,3.05-1.551,4.584-2.295.811-.394,1.6-.86,2.367-1.332.663-.407.871-.955,1.415-1.434.496-.437,1.176-.264,1.644-.755.39-.409.613-.932.254-1.401-.218-.285-1.722-1.06-.951-1.535.548-.338,1.051.823,1.622.774.635-.055.844-1.127,1.066-1.598.336-.713.913-1.37,1.154-2.124.457-1.433-2.173-2.605-3.201-3.019-.613-.247-1.736-.922-2.346-.537-.335.211-1.024,1.439-1.407.557-.154-.355.547-1.213.036-1.395-.456-.163-.754,1.118-.778,1.411-.072.882.307,1.813.418,2.686.112.872.077,1.748.077,2.624ZM15.194,63.235c-.014,0-.027,0-.041,0,0-.534.008-1.068.002-1.602-.002-.185.122-.979-.024-1.162-.497-.624-1.278,1.149-1.439,1.418-1.055,1.761-2.111,3.56-3.366,5.188-1.119,1.452-2.222,2.841-3.233,4.375-.996,1.513-2.21,2.857-3.215,4.355-.334.497-2.383,3.863-1.091,3.753.694-.059,1.766-.972,2.364-1.333.687-.415,1.392-.754,2.173-.956,1.724-.448,3.546-.123,5.188-.843.666-.292,1.651-.655,2.129-1.228.429-.514.302-1.284.607-1.883.353-.694,1.261-1.54,1.362-2.319.086-.662-.534-1.785-.712-2.437-.242-.888-.581-1.823-.682-2.741-.093-.847-.022-1.734-.022-2.585Zm92.539-22.604c.259,1.136-.208,2.369-.467,3.465-.259,1.099-.817,1.356-1.832,1.775-.527.218-1.03.472-1.546.712-.298.139-.882.258-1.097.524-.457.566.408,1.231.657,1.735.407.826.918,2.219.99,3.13.074.936-.513.643-1.045,1.013-.659.459.313,1.009.688,1.431.571.643,1.063,1.205,1.838,1.617,1.612.856,3.467.989,5.255.878,1.213-.076.969-.57.637-1.559-.331-.986-.666-1.992-.875-3.011-.381-1.857-.066-3.677-.066-5.566,0-2.065.077-4.317.445-6.34.09-.493.066-.995.134-1.49.033-.237.29-.851.18-1.079-.262-.547-1.664-.291-2.151-.288-.743.005-1.54-.139-1.723.736-.151.722-.023,1.584-.023,2.317Zm-4.337-10.854c-.758,0-1.584-.226-2.02.488-.421.69-.461,1.79-.642,2.556-.37,1.568-.893,3.2-1.052,4.809-.17,1.716-.66,3.371-.768,5.104-.031.507-.44,1.637-.015,2.021.508.46,1.693-.038,2.29-.064,1.643-.072,2.974-.563,3.903-1.969.87-1.315.687-3.284.662-4.786-.031-1.817.281-3.614.302-5.43.008-.734.235-1.517-.267-2.166-.526-.681-1.635-.484-2.392-.563ZM20.752,88.754c.086,1.86.089,3.797.418,5.631.11.612.474,1.747,1.181,1.945.343.096.654-.201.966-.311.382-.135.787-.171,1.183-.235.472-.076.923-.18,1.383-.308.339-.094,1.032-.151,1.295-.391.548-.5-.01-1.675-.139-2.249-.373-1.666-.362-3.416-.878-5.062-.51-1.626-.349-3.819-1.335-5.237-.504-.725-1.115-1.42-1.682-2.098-.385-.46-1.144-1.589-1.742-1.76-.92-.262-.649.909-.655,1.497-.01,1.049-.003,2.097.003,3.146.005.955-.204,1.849-.084,2.799.111.873.086,1.75.086,2.632Zm-16.789,2.985c0,1.259-.023,1.93,1.38,1.98.581.021,1.214.252,1.777.191.471-.051.908-.335,1.373-.449.462-.113,1.319-.094,1.699-.416.497-.421.161-.919-.039-1.422-.503-1.268-1.1-2.477-1.654-3.723-.537-1.206-1.079-2.489-1.332-3.79-.08-.413-.293-2.18.621-1.58.402.264.461,1.118.6,1.542.183.558.396,1.107.628,1.646.476,1.104,1.062,2.146,1.597,3.221.178.358,1.039,3.059,1.588,2.428.171-.196.275-1.122.271-1.414-.007-.561-.318-1.155-.493-1.676-.44-1.309-.781-2.645-1.222-3.955-.342-1.017-.758-2.093-.812-3.175-.041-.826.864-2.715-.352-3.049-1.283-.353-.81,1.627-.898,2.252-.043.305-.038.994-.434,1.057-.47.075-.404-.738-.784-.819-.602-.128-1.16,1.44-1.561.146-.119-.383.123-1.242-.636-1.087-.404.083-.598.756-.697,1.062-.349,1.071-.405,2.239-.536,3.35-.159,1.344-.185,2.681.066,4.017.237,1.261-.186,2.391-.151,3.663Zm24.855-55.207h-.004c0-1.391.206-2.815-.524-4.063-.571-.975-1.731-1.022-2.244-2.005-.336-.644-.307-.716-1.089-.687-.616.023-1.201.266-1.813.248-.532-.015-1.156-.236-1.685-.021-.451.183-.479.53-.802.896-.496.562-1.72,1.475-1.359,2.452.192.52,1.263-.028,1.708-.159.975-.287,1.678-1.256,2.524-1.797.202-.129,1.035-.78,1.306-.517.375.364-.226.831-.424,1.063-.782.915-.646,1.883-.895,3-.092.416-.315,1.121-.249,1.515.067.399.505.787.694,1.135.127.233.273.941.662.626.182-.148.075-1.023.077-1.176.004-.532-.336-2.743.473-2.964.961-.263.942,2.145.958,2.61.045,1.298-.266,2.519-.063,3.802.204,1.289-.136,2.083-.642,3.231-.208.472-.659,1.807-.436,2.307.248.559,1.383.893,1.912.61.75-.401.863-1.816,1.056-2.547.659-2.501.857-4.987.857-7.56Zm-8.025,37.929c.087,1.287.638,2.227,1.47,3.212.411.486.93.788,1.366,1.24.39.405.677.899,1.072,1.305.845.868,1.677,1.457,2.092,2.648.392,1.127.585,2.412.77,3.588.188,1.2.399,2.338.657,3.525.097.446.13.881.143,1.336,0,.017-.023,1.106.22.751.22-.322.055-1.245.079-1.639.038-.637.113-1.269.16-1.905.084-1.163.124-2.406.032-3.568-.089-1.119-.842-2.081-1.416-3.008-.199-.321-.807-1.06-.807-1.456,0-.487.365-.619.754-.403.566.314.864,1.98,1.54,1.903,1.021-.116-.448-2.228-.63-2.53-.616-1.025-1.29-2.029-1.883-3.065-.448-.783-.132-1.675.797-1.02.473.334.75.952,1.047,1.426.17.272.543,1.167.873,1.308,1.027.437.087-1.337-.094-1.644-.631-1.069-1.279-2.128-1.871-3.22-.148-.272-.581-1.48-.873-1.605-.435-.187-.526.265-.745.573-.721,1.017-1.44,1.368-2.706,1.339-.426-.01-1.159-.336-1.562-.234-.551.141-.462.665-.483,1.141Zm137.965-21.722c0,.617.105,3.274-1.314,2.607-.376-.177-.432-.883-.741-.985-.442-.146-.557.887-.607,1.205-.104.661-.241,1.387-.297,2.051-.033.389-.147,1.097.295,1.036.542-.075.838-1.002,1.367-.139.284.464.037,1.439.029,1.944-.037,2.415.368,4.803,1.007,7.146.142.521.638,3.165,1.482,2.948.648-.166-.269-2.743-.393-3.199-.323-1.187-.751-2.336-1.106-3.51-.226-.749-.646-2.566.188-3.089,1.468-.921,2.454,4.647,2.72,5.475.113.35.737,3.279,1.153,3.21.41-.068-.185-2.419-.239-2.662-.287-1.285-.859-2.605-.59-3.94.091-.453.297-.862.252-1.338-.055-.582-.373-.788-.685-1.227-.734-1.034-.669-2.465-.827-3.687-.123-.951-.261-1.968-.47-2.912-.136-.618-.245-1.231-.33-1.857-.049-.362-.066-1.177-.394-1.446-.307-.252-.269-.091-.361.408-.119.648-.154,1.304-.138,1.962Zm-51.762-24.625c2.302.123,4.687-1.527,6.204-3.131.274-.29.882-.826.461-1.242-.238-.236-1.308-.115-1.63-.152-1.023-.115-2.21-.093-3.158-.536-.46-.215-.817-.741-1.3-.861-.444-.11-.912.181-1.289.373-1.046.534-1.878,1.248-2.502,2.248-.573.919-1.203,1.904-.094,2.616.825.53,2.329.762,3.307.685ZM26.415,63.052c-.093.63-.015,1.259.066,1.886.051.392-.021,1.188.157,1.501.233.41.056.189.554.237.379.036.559-.054.816.3.575.794.697,2.048,1.073,2.947.111.266.323.871.671.667.204-.12.064-1.186.064-1.419.001-1.961-.339-3.48-1.108-5.274-.383-.893-.688-1.808-.999-2.728-.266-.786-.744-1.646-.815-2.476-.063-.738.48-1.173,1.085-.599.489.463.817,1.545,1.069,2.171.043.107.249.97.487.515.072-.138-.223-.87-.252-1.006-.159-.763-.194-1.592-.483-2.322-.327-.825-1.105-1.336-1.599-2.057-.46-.673-.861-1.42-1.215-2.154-.171-.355-.26-1.007-.726-.918-.307.059-.406.606-.543.843-.369.639-1.118,1.077-1.422,1.722-.234.495-.42,1.745.172,1.967.721.269,1.192.062,1.714.778,1.1,1.511,1.234,3.633,1.234,5.419Zm-4.128-27.64c0-.475.275-1.935-.543-1.927-.319.003-1.259.96-1.553,1.185-.757.576-.76,1.02-.879,1.898-.114.844-.556,1.62-.684,2.466-.249,1.652,1.255,2.998,1.431,4.632.064.592-.212,4.595,1.249,3.665.261-.166.216-.562.312-.846.12-.355.467-.715.526-1.08.115-.717-.457-.313-.938-.517-.75-.318-.759-1.143-.078-1.483.603-.301,1.521.068,2.031-.295.742-.528-.197-.795-.373-1.312-.234-.686.579-1.096.369-1.825-.214-.742-.958-1.321-1.096-2.114-.069-.399.106-.727.164-1.12.064-.438.02-.887.063-1.328Zm94.586-6.083c.927.145,1.84-.699,2.686-.964.781-.244,1.626-.288,2.375-.642.707-.333.927-.871,1.247-1.55.112-.238,1.073-1.525.961-1.698-.225-.347-1.737.04-2.037.119-.784.205-1.565.527-2.294.88-.743.359-1.468.799-2.182,1.213-.433.252-1.342,1.117-1.856.756-.673-.472.428-1.153.728-1.427.761-.694.003-.715.012-1.509.006-.543.306-.935-.487-.423-.683.441-1.364,1.065-1.94,1.636-.606.602-.623.911-.819,1.665-.108.415-1.004,1.098-.866,1.484.161.452,1.736.154,2.11.158.808.01,1.556.258,2.361.301Zm.671,6.073v-.005c.871,0,2.031.196,2.744-.446.624-.562.975-1.739,1.341-2.492.174-.358,1.177-1.963.844-2.354-.378-.444-1.901.217-2.328.294-.536.097-1.059.07-1.593.127-.522.056-.671.284-1.098.577-.569.391-1.812.415-2.119,1.021-.227.449-.258,2.438-.042,2.864.36.71,1.581.413,2.25.413Zm-72.13-9.566c-.076.836.707,2.248,1.544,2.482,1.005.28,2.094-.55,2.695-1.272.692-.831.206-1.784.727-2.675.216-.369.816-.714.916-1.132.139-.583-.443-.754-.87-.999-.811-.465-2.166-1.668-2.905-.795-.229.27-.742.873-.8,1.22-.072.428.186.414.481.707.493.49.628,2.064-.453,1.87-.342-.061-.584-.62-.97-.496-.377.121-.34.797-.366,1.089Zm55.011,1.039c.742-.004.604-.634.7-1.158.11-.6.371-.963.723-1.446.335-.46.432-1.026.779-1.469.385-.491,1.001-.863,1.507-1.216.709-.494,2.9-1.109,2.122-2.165-.369-.501-.93-.777-1.362-1.204-.359-.356-.517-1.083-.878-1.371-.445-.355-.573.278-.881.698-.342.467-.71.842-1.218,1.126-.559.312-.83.324-.72,1.043.099.648.239,1.327.417,1.964.197.704.121.844-.322,1.365-.414.487-.797.979-1.165,1.511-.293.425-1.105,1.115-1.008,1.664.076.433.92.669,1.306.658Zm-2.901,7.569c.808.046.829-1.142.961-1.7.105-.445.238-.879.464-1.281.183-.325.591-.628.707-.974.271-.805-.823-1.146-1.377-1.467-.294-.17-.575-.34-.907-.411-.413-.088-.867-.26-1.268-.337-.731-.14-1.164,1.279-1.457,1.865-.305.611-1.059,1.895-.992,2.586.068.7,1.273.614,1.819.788.674.214,1.353.93,2.05.931ZM29.827,21.544c.024-.684.004-.9-.588-1.212-.804-.424-1.655-.712-2.3-1.385-.567-.592-.828-1.414-1.783-1.417-.769-.002-1.506.598-1.933,1.196-.641.895.487,1.129,1.124,1.558.875.59,1.555,1.472,2.258,2.25.456.504,1.327,1.814,2.11,1.575.875-.267,1.012-1.838,1.113-2.565Zm-10.221,44.58c-.052.411-.074,1.93.454,2.152.661.278.447-.802.461-1.151.033-.85.178-1.691.243-2.539.043-.559-.123-1.594.352-2.002.665-.572.904.534.874,1.061-.039.687-.233,1.318-.221,2.015.015.873-.836,3.402.106,3.871,1.237.616,2.123-1.934,2.082-2.791-.031-.656-.427-1.304-.63-1.916-.225-.678-.497-1.35-.684-2.04-.103-.378-.123-1.617-.587-1.723-.235-.054-1.447.695-1.609.903-.352.453-.392,1.306-.544,1.853-.211.757-.343,1.52-.297,2.309Zm130.831,21.699c0-.998-.609-.858-1.192-.261-.664.68-1.395,1.077-1.898,1.948-.234.404-.542.753-.781,1.145-.285.468-.173.757-.237,1.265-.115.912-1.001,1.695-1.392,2.522-.176.372-.585,1.113.119,1.122.306.004.863-.388,1.066-.609.329-.36.35-.849.604-1.252.245-.389.64-.726,1-1.005.776-.603,1.638-.667,1.978-1.675.356-1.054.447-2.134.734-3.199ZM54.983,25.364c.011.999,1.396-.061,1.876-.265.958-.407,1.931-.827,2.922-1.144,1.642-.526,3.232-1.011,3.804-2.82.366-1.16-1.069-.344-1.58-.134-1.063.436-2.126.871-3.187,1.311-.861.357-1.731.724-2.578,1.109-.96.436-.888,1.066-1.256,1.944Zm-32.781.269c.912,0,1.905.006,1.661,1.188-.065.317-.477.941-.383,1.23.127.388.81.297,1.143.306,1.086.031,1.469-.045,1.123-1.179-.299-.979-.985-1.718-1.732-2.393-.745-.673-1.595-1.261-2.495-1.708-.968-.481-1.181-.146-1.563.738-.204.472-1.179,1.538-.609,1.983.708.554,2.061-.344,2.855-.165Zm87.59,9.302v-.043c.586,0,1.52.182,2-.248.418-.374.428-1.206.565-1.718.183-.683.294-.971-.418-1.197-.647-.205-1.325-.153-1.983-.271-.61-.109-.988-.383-1.428.175-.321.406-.388,1.217-.497,1.719-.072.33-.261,1.184.026,1.47.296.295,1.386.113,1.734.113Zm-8.222,15.634c.049-.813.014-2.695-.851-3.114-1.197-.579-1.454.709-1.76,1.541-.161.437-.816,1.406-.698,1.849.132.495.566.403,1.016.47,1.052.159,2.293.817,2.293-.746Zm-81.906-1.211c-1.218-.018-1.297,1.466-1.443,2.375-.057.357-.156.643.164.901.13.105.871.289,1.04.242.437-.123.505-.651.726-1.004.294-.469.701-.854,1.022-1.303.893-1.25-.65-.962-1.509-1.21Zm98.644,10.931c.363.12,1.656-.351,1.213-.9-.201-.249-1.215-.161-1.526-.246-1.459-.398-2.334-1.526-3.251-2.644-.367-.448-.764-.734-.59.077.133.619.646,1.383,1.003,1.906.785,1.152,1.666,1.881,3.15,1.807Zm44.819,11.895c0-.317.157-1.954-.377-1.981-.341-.017.116,1.591.139,1.746.242,1.659-.474,3.627-.757,5.246-.051.29-.508,1.872-.137,2.006.267.096.791-1.431.846-1.609.258-.837.474-1.822.513-2.698.041-.912-.362-1.799-.226-2.709ZM29.357,55.25c-.144-1.157-.731-2.25-1.279-3.273-.156-.291-.539-1.309-.898-1.419-.598-.185-.473.529-.367.861.357,1.11.971,2.16,1.488,3.2.218.439,1.056,1.909,1.056.631ZM122.315,19.52c-.168-1.05-3.802.52-3.625,1.652.134.855,1.403-.289,1.737-.496.288-.179,1.932-.779,1.888-1.156ZM17.141,61.49c.016.308-.091,2.105.392,2.119.407.013.577-1.61.655-1.877.161-.551.365-1.784-.573-1.895-.732-.086-.474,1.198-.474,1.653Zm139.195,6.383c-.257-.958-.352-1.944-.622-2.901-.059-.21-.076-.955-.227-1.044-.22-.13-.331.36-.367.529-.192.892.026,2.05.335,2.888.225.61.746,1.726.881.528ZM23.968,49.82c.431,0,.763-.039.922-.471.14-.379-.089-1.118-.504-1.248-.429-.135-.975.501-1.113.871-.264.707.196.748.695.848Zm-2.455,9.112h.03c-.014-.19-.004-2.02-.669-1.436-.126.111-.069.515-.087.668-.044.365-.18.693-.228,1.052-.059.439-.118,1.137.486,1.119.697-.021.469-.937.469-1.403ZM97.802,22.477c-.635-.039-1.029,3.054-.962,3.055.291.007.951-1.456,1.123-1.746.262-.442.807-1.265-.16-1.31ZM22.437,53.479c.729-.013,1.577-1.381.499-1.493-1.062-.111-1.687,1.598-.499,1.493Zm-.207,18.07c.184,0-.402-.046-.466.045-.149.213.518.312.709.352.728.152,1.464.006,2.008-.529.487-.478.665-1.272-.121-.685-.65.485-1.292.847-2.131.817Zm30.252-44.174c0-.999-2.201.684-2.235,1.173-.039.576.696.088.936-.069.362-.237,1.229-.615,1.299-1.104Zm-25.659,40.619c-.473-.061-.003,1.498.079,1.673.119.253.759,1.451,1.019,1.482.366.043-.19-1.029-.261-1.208-.207-.526-.37-1.63-.838-1.947ZM58.086,3.536c-.452-.071-.846,2.237.196,2.034.916-.178.227-1.727-.196-2.034Zm42.188,50.686c-.515.048-.219.286-.077.5.122.184,1.2,1.192,1.42,1.19.721-.008.021-.599-.197-.893-.316-.427-.535-.837-1.147-.797Zm-80.691,1.081c.088-.778-.863-1.39-.829-.299.026.868.642,1.416.829.299Zm92.494-5.887c.007.128-.08,1.212.316,1.08.352-.118.028-.841-.009-1.101-.026-.18.056-.884-.189-.883-.128,0-.11.797-.117.904Zm.961,2.593c-.007-.367-.507-.559-.434-.091.04.256.434.444.434.091Z" fill="#9e8f4f"/>
      <path d="m150.263,46.091c.041.797-.358,1.776-.613,2.52-.257.75-.553,1.811-1.176,2.342-.55.469-1.35.491-1.748-.197-.405-.7.199-1.305.326-1.996.264-1.449-.077-2.884,1.143-3.997,1.174-1.071,2.099.03,2.068,1.328Z" fill="#9e8f4f"/>
      <path d="m136.853,39.66c.108.96-.893.619-1.283.228-.53-.532-.939-1.285-1.332-1.923-.417-.677-.812-1.374-1.099-2.116-.155-.4-.793-1.57-.606-1.987.361-.805.824-.048,1.034.351.325.617.795.969,1.277,1.453.502.506.783,1.164,1.103,1.789.341.666.876,1.443.906,2.206Z" fill="#9e8f4f"/>
      <path d="m87.259,40.745c.099-1.191.428-2.694.997-3.761.678-1.273,1.647-.776,1.566.507-.072,1.134-.435,2.356-.874,3.406-.455,1.09-1.689,1.206-1.689-.153Z" fill="#9e8f4f"/>
      <path d="m27.227,20.566c-.678-.137-2.251-1.837-.868-2.14.921-.202,2.378,2.297.868,2.14Z" fill="#9e8f4f"/>
    </g>
  </g>
</svg>