<?xml version="1.0" encoding="UTF-8"?>
<svg id="b" data-name="Layer 2" xmlns="http://www.w3.org/2000/svg" width="279.6" height="168.276" viewBox="0 0 279.6 168.276">
  <g id="c" data-name="Layer 1">
    <g id="d" data-name="c">
      <g id="e" data-name="d">
        <g>
          <path d="m153.713,154.557c-.436.072-.637.455-.922.717-1.2,1.105-2.455,1.494-4.109.888-1.191-.436-2.3-.988-3.43-1.531-.969-.465-1.644-1.243-2.281-2.036-.506-.63-.394-1.458-.146-2.172.709-2.042,1.145-4.07.473-6.23-.193-.621-.071-1.346-.063-2.023.025-2.083-.567-3.998-1.266-5.954-.581-1.628-1.694-2.915-2.323-4.489-.245-.613-.447-1.262-.663-1.873-.524-1.479-1.625-2.352-2.879-2.962-1.684-.818-3.448-1.491-5.256-2.029-1.198-.356-2.36-.836-3.55-1.22-.82-.265-1.688-.325-2.51-.639-1.535-.587-3.2-.742-4.741-1.329-.386-.147-.661-.035-.956.252-.36.35-.035.555.078.822.107.253.176.507.365.736,1.154,1.399,2.205,2.882,3.541,4.129,1.259,1.176,2.112,2.668,2.713,4.238.294.767.683,1.683.523,2.508-.235,1.215-.567,2.46-1.523,3.387-.626.607-1.223,1.244-1.864,1.834-.924.852-1.552,1.836-1.84,3.092-.263,1.144-.869,2.178-1.539,3.146-.461.666-1.154,1.078-1.872,1.41-1.549.715-3.108.721-4.634-.083-1.635-.861-3.338-1.349-5.218-1.247-1.667.09-3.284-.307-4.827-.908-1.479-.576-1.75-1.611-.742-2.821,1.3-1.559,2.862-2.823,4.682-3.74.489-.246,1.098-.146,1.57-.51.148-.114.388-.05.57.055.884.505,1.873.826,2.59,1.618.799.883,1.972.798,2.803-.087.919-.98,1.521-2.109,1.871-3.363.139-.496.496-.891.502-1.445.022-1.934-.818-3.409-2.34-4.522-1.948-1.424-4.248-2.218-6.303-3.436-2.255-1.336-4.621-2.486-6.623-4.275-1.381-1.234-2.816-2.406-4.091-3.755-.35-.37-.755-.553-1.266-.546-.797.011-1.596.017-2.393-.013-1.1-.041-2.233.2-3.278-.362-.096-.052-.235-.031-.355-.033-1.825-.03-3.561-.633-5.337-.86-1.602-.204-3.181-.618-4.807-.658-.78-.019-1.253.264-1.543,1.01-.358.922-.818,1.759-1.881,2.135-.603.213-1.189.312-1.723.072-.456-.205-.914-.223-1.369-.336-2.234-.558-4.544-.861-6.543-2.176-1.07-.704-1.424-.577-2.253.416-.275.33-.518.664-.578,1.144-.078.626-.371,1.223-.822,1.669-1.015,1.003-1.694,2.286-2.747,3.247-.911.832-.819,1.824-.516,2.846.064.218.23.417.234.662.025,1.795.757,3.445,1.094,5.178.211,1.085.877,2.095,1.411,3.101.939,1.768,1.8,3.599,2.942,5.23,1.01,1.441,2.062,2.895,3.399,4.09.379.338.699.721.948,1.198.244.468.668.851,1.185,1.106.654.322,1.123.871,1.486,1.488.371.63.846,1.134,1.492,1.475.105.056.239.083.315.164,1.296,1.392,3.056,2.263,4.258,3.75.769.951,1.533,1.903,2.314,2.844.769.927.328,2.348-.787,2.844-1.156.514-2.381.808-3.637.872-1.353.069-2.713-.004-4.067.05-1.659.065-2.846-1.07-2.732-2.793.067-1.015.125-2.059-.462-3.009-.197-.32-.424-.676-.721-.744-.659-.151-1.244-.575-1.907-.599-1.174-.043-2.071-.734-3.051-1.208-.432-.209-.801-.648-1.005-1.145-.399-.976-1.063-1.841-1.078-2.978-.005-.4-.244-.854-.503-1.183-1.065-1.346-1.861-2.931-3.524-3.75-.582-.286-1.04-.849-1.508-1.331-.381-.392-.834-.542-1.297-.358-.519.207-.736.683-.698,1.261.052.782-.156,1.598.336,2.321.06.089.064.235.054.35-.117,1.254.507,2.379.612,3.611.087,1.027.595,2.019.93,3.022.134.402.435.431.759.245.169-.097.295-.264.451-.388.675-.537,1.422-.387,1.502.429.146,1.479.433,3.007-.376,4.426-.127.224-.224.41-.512.405-.305-.006-.382-.23-.474-.457-.177-.434-.44-.812-.5-1.317-.089-.748-.555-1.068-1.216-1.016-.674.054-1.074.446-1.136,1.143-.028.317-.009.638-.02.956-.012.328-.04.66-.463.717-.419.057-.722-.011-.965-.469-.43-.81-.545-1.716-.911-2.54-.079-.177-.029-.427-.136-.571-.23-.31-.467-.703-.941-.609-.489.098-.407.536-.398.876.015.508-.06,1.031.291,1.493.203.266.273.639-.111.811-.37.166-.853.211-1.04-.246-.436-1.068-1.224-1.923-1.7-2.966-.684-1.502-1.576-2.894-2.41-4.316-.06-.102-.155-.187-.195-.295-.157-.416.097-.665.378-.914.339-.3.506.035.696.187.309.247.564.564.881.799.37.275.73.127.768-.32.033-.392.101-.865-.074-1.174-.34-.6-.341-1.222-.351-1.849-.016-1.043-.389-2.023-.656-2.99-.247-.895-.33-1.837-.738-2.718-.54-1.164-.867-2.43-1.236-3.667-.437-1.468-.422-2.93.014-4.423.514-1.758,1.514-3.28,2.253-4.925.477-1.063.571-2.159.274-3.128-.502-1.636-.99-3.291-1.67-4.876-.887-2.068-2.237-3.762-3.84-5.325-1.512-1.475-3.305-2.526-5.002-3.729-.8-.567-1.694-.994-2.41-1.692-.647-.631-1.481-1.023-2.146-1.657-1.78-1.697-2.992-3.777-3.881-6.005-.943-2.363-1.3-4.875-1.032-7.441.029-.276-.009-.569.174-.804.301-.386.19-.837.225-1.267.038-.455-.165-.81-.546-.977-.363-.159-.587.234-.744.45-.79,1.083-1.556,2.196-1.562,3.619-.004,1.036,0,2.074.041,3.109.031.747.584,1.389.464,2.181-.041.273.001.557-.01.836-.008.201-.045.409-.242.514-.269.143-.661.141-.697.554-.052.595-.168,1.237.125,1.763.271.487.38.98.326,1.483-.074.685.447,1.18.465,1.825.041,1.544.138,3.09-.479,4.566-.078.188-.166.35-.305.5-.224.241-.437.484-.811.346-.339-.125-.308-.439-.311-.707-.01-.797-.048-1.599.016-2.392.1-1.249-.171-2.429-.52-3.606-.034-.115-.064-.24-.216-.223-.139.015-.203.141-.188.253.16,1.215-.591,2.292-.526,3.494.017.318-.102.6-.259.896-.589,1.111-1.119,2.254-1.679,3.381-.086.174-.202.337-.323.489-.607.758-1.192,1.057-1.285.751-.135-.446.263-.842.409-1.269.265-.772.677-1.501.722-2.335.016-.301-.03-.521-.492-.324-.72.307-1.258.816-1.794,1.337-.767.746-1.505,1.521-2.256,2.285-.931.948-2.042,1.416-3.39,1.435-1.524.021-2.975-.054-4.334-.917-.987-.626-2.145-1.015-3.243-1.362-1.094-.346-2.253-.739-3.474-.634-.398.034-.919.114-1.077-.489-.138-.526.114-1.065.719-1.355,1.336-.639,2.688-.706,4.135-.278,1.464.433,3.058.524,4.485.072,1.669-.529,2.812-1.889,3.513-3.491.597-1.366,1.009-2.806.997-4.33-.012-1.555-.008-3.111-.021-4.666-.004-.471.069-.959-.257-1.38-.127-.164-.159-.404-.059-.571.554-.929.326-1.951.315-2.923-.018-1.636.496-3.102,1.221-4.508.429-.832.741-1.748,1.483-2.394,1.219-1.062,2.504-1.945,4.075-2.505,1.37-.488,2.804-.722,4.153-1.251.247-.097.552-.063.83-.066,1.436-.015,2.876-.095,4.306-.011,1.061.063,1.75-.46,2.066-1.28.933-2.423,2.72-4.147,4.578-5.799,1.174-1.043,2.589-1.773,3.997-2.478,2.075-1.038,4.226-1.865,6.458-2.512,1.089-.316,2.133-.748,3.271-.941.594-.101,1.152-.427,1.569-1.093.834-1.329,1.608-2.696,2.464-4.011.347-.534.256-.992.055-1.559-.458-1.296-.51-2.617.058-3.924.347-.798.687-1.592,1.269-2.255.102-.116.246-.262.243-.392-.026-1.122.53-2.144.533-3.26.003-1.117.016-2.233.045-3.35.016-.628-.079-1.282.35-1.84.065-.084.083-.234.067-.346-.196-1.377.318-2.677.598-3.961.418-1.921.901-3.828,1.989-5.602,1.139-1.858,2.593-3.359,4.048-4.909.56-.597.9-1.384,1.57-1.9,2.896-2.227,5.224-5.06,7.958-7.454,1.23-1.077,2.555-2.094,4.104-2.729.181-.074.377-.122.571-.157.758-.138,1.394-.519,1.994-.977,1.127-.859,2.423-1.291,3.816-1.38,1.153-.074,2.313-.047,3.47-.048.501,0,.927-.114,1.285-.498.591-.633,1.167-1.258,2.026-1.6.61-.243.56-.803-.032-1.155-.337-.2-.693-.393-1.067-.503-1.048-.309-1.886-.98-2.747-1.588-1.33-.938-2.279-3.898-1.694-5.383.64-1.623,1.804-2.727,3.557-3.176.803-.206,1.574-.496,2.427-.434.541.039.824-.407,1.166-.732.68-.646,1.203-1.444,2.162-1.812C94.612.15,95.038,0,95.514,0c1.994.002,3.989.035,5.983.016.785-.007,1.415.468,2.163.586.286.045.565.392.719.745.408.933,1.032,1.785.988,2.877-.028.677.961,1.225,2.089,1.459.346.072.718.06,1.074.033.953-.071,1.787.259,2.58.728,1.838,1.087,1.564,2.244.719,3.504-.216.323-.516.626-.844.832-1.293.813-2.426,1.89-3.872,2.448-.921.355-1.186,1.107-1.268,1.945-.162,1.639-.614,3.143-1.652,4.461-.361.459-.64.986-.986,1.467-.398.552-.339,1.199-.061,1.812.616,1.36,1.659,2.283,3.013,2.858.773.328,1.254.892,1.632,1.625.669,1.3,1.088,2.664,1.467,4.077.497,1.852,1.074,3.677,1.476,5.56.325,1.523.812,3.021,1.335,4.49.446,1.251.815,2.527,1.34,3.756.462,1.082,1.349,1.359,2.316,1.575.382.086.796.064,1.193.049,2.11-.081,4.157.346,6.208.742.52.1.732-.273.815-.654.1-.462.187-1.01-.084-1.403-.612-.889.011-1.592.259-2.345.079-.241.332-.516.614-.493.324.026.568.318.646.619.129.496.201.988.496,1.444.373.577.341.617.774.178.304-.309.593-.625.746-1.059.148-.419.436-.793.912-.837.524-.049.796.371.924.784.149.476.25.476.724.288.925-.367,1.873-.334,2.621.506.237.266.5.51.764.75.5.456.901.365,1.128-.252.04-.11.058-.236.052-.353-.075-1.332.315-2.698-.338-3.993-.131-.26-.055-.627-.064-.945-.014-.501.292-.857.679-1.041.441-.21.889-.138,1.316.234.797.695,1.345,1.547,1.762,2.491.335.757.948,1.265,1.527,1.794.379.346.755.171.852-.33.038-.194.025-.398.043-.596.028-.315.012-.671.414-.772.404-.102.77-.071,1.083.287.215.247.342.522.493.801.213.394.57.377.829.01.022-.032.027-.076.047-.109.795-1.281,1.218-1.351,2.017-.139.49.742,1.029,1.321,1.778,1.81.607.397,1.18.948,1.49,1.661.109.251.304.335.517.452.998.547,1.013.56,1.833-.226.658-.631,1.295-1.285,1.943-1.926.169-.167.336-.338.52-.489.488-.398,1.061-.368,1.581-.16.448.179.348.681.348,1.061-.002,1.356-.065,2.711-.051,4.067.008.726-.426,1.263-.662,1.882-.339.888-1.092,1.522-1.489,2.395-.279.613-.872.731-1.539.4-1.118-.556-2.143-.424-3.282.059-1.94.823-3.639,2.024-5.366,3.176-1.704,1.138-1.836,2.201-1.243,4.323.27.966.673,1.944.663,2.987-.008.854.436,1.59.642,2.387.342,1.321.785,2.626,1.31,3.886.604,1.449,1.3,2.866,2.045,4.248.351.651,1.127.892,1.799,1.042,1.013.226,1.849.675,2.518,1.44.532.608,1.195,1.042,1.899,1.383,1.368.664,2.542,1.572,3.596,2.649.308.314.591.634.563,1.134-.078,1.395.966,1.865,1.98,2.344.954.451,1.726-.082,2.383-.607,1.41-1.128,2.134-2.641,2.397-4.455.149-1.028-.014-1.998-.08-2.991-.067-1.022-.674-1.871-1.204-2.66-.62-.923-.997-1.976-1.662-2.847-.724-.947-1.073-2.081-1.634-3.103-.512-.933-.905-1.986-1.258-3.029-.456-1.347-.501-2.778-.965-4.114-.44-1.264-1.089-2.413-1.856-3.511-.582-.833-1.243-1.621-1.655-2.567-.061-.141-.215-.271-.082-.412.157-.167.377-.115.553-.019.136.074.247.199.359.312.947.962,1.959,1.87,2.814,2.909.64.778,1.064,1.719,1.366,2.714.51,1.683,1.089,3.345,1.671,5.005,1.227,3.501,3.305,6.604,4.714,10.014.614,1.485,1.09,3.139.655,4.73-.414,1.514-.824,3.041-1.898,4.372-1.026,1.271-2.394,1.721-3.734,2.255-.762.304-1.563-.381-2.355-.587-1.525-.397-3.025-.882-4.639-.718-.565.058-1.025.378-1.562.52-1.444.381-2.947.541-4.347,1.004-.898.296-1.904.179-2.715.751-.088.062-.231.056-.35.062-1.543.083-3.011.526-4.49.919-.265.07-.554.048-.832.071-.665.055-1.342-.038-1.968.359-.238.151-.622.086-.939.093-1.356.03-2.713.032-4.068.078-1.352.046-1.741.743-1.139,1.956.77,1.55,1.562,3.091,2.275,4.667.435.96.802,1.947.835,3.045.039,1.295.711,2.57.363,3.864-.432,1.604-.287,3.267-.74,4.882-.335,1.193-.486,2.501.568,3.699.89,1.012,1.496,2.293,2.131,3.516.504.972,1.122,1.874,1.86,2.709,1.555,1.76,3.456,3.117,5.188,4.671,1.185,1.063,2.252,2.22,2.754,3.785.047.148.207.286.198.42-.077,1.171.603,2.221.547,3.376-.05,1.027.369,1.938.681,2.857.874,2.573,2.332,4.881,3.46,7.34.519,1.132.894,2.325,1.223,3.547.399,1.486.309,3.051.898,4.49.341.833.742,1.637,1.05,2.491.31.862.371,1.687.381,2.552.007.557-.02,1.115-.032,1.673l.025-.028h0Zm-79.398,3.83c1.224.197,2.429-.541,3.755-.519.65.011.782-.494.563-1.16-.158-.479-.455-.826-.783-1.168-1.616-1.684-3.431-3.126-5.352-4.444-.255-.175-.517-.391-.617-.71-.151-.482-.526-.775-.862-1.112-2.227-2.237-4.436-4.478-6.203-7.13-1.199-1.799-2.357-3.625-3.389-5.514-.878-1.608-1.65-3.285-2.111-5.1-.287-1.132-.637-2.257-.929-3.393-.098-.381-.426-.664-.415-1.1.024-.963-.458-1.826-.652-2.749-.142-.677-.18-1.426-.476-2.052-.429-.91-.56-1.91-.703-2.84-.186-1.205-.76-2.35-.632-3.605.008-.075-.011-.167-.05-.231-.605-1.018-.498-2.217-.749-3.315-.348-1.523-.662-3.058-1.023-4.585-.484-2.046-1.452-3.89-2.318-5.765-.821-1.777-1.87-3.449-2.771-5.194-.474-.918-.72-1.904-1.105-2.846-.12-.294-.156-.747.266-.937.34-.153.707-.131,1.01.127.15.128.34.265.398.437.199.586.698.962.985,1.466.848,1.493,2.23,2.54,3.187,3.945.335.492,1.002.746,1.471,1.162,1.539,1.363,3.05,2.764,5.257,2.918,1.477.778,2.876.23,4.175-.402,2.075-1.01,3.362-2.96,4.982-4.51.4-.383.356-.978-.049-1.409-.67-.713-1.079-1.522-1.241-2.497-.101-.608-.575-.838-1.14-.709-.778.177-1.088.01-1.18-.721-.064-.512-.024-1.036-.058-1.553-.068-1.056-.671-2.021-1.405-2.124-.819-.115-1.622-.28-2.43-.443-1.574-.317-3.148-.624-4.72-.962-1.519-.327-2.941-.818-4.313-1.512-1.681-.85-2.586-2.807-1.819-4.491.552-1.212.95-2.489,1.597-3.663.466-.845,1.041-1.738.303-2.753-.081-.111-.035-.311-.056-.469-.141-1.064.151-2.025.64-2.96.404-.772.107-1.315-.743-1.411-.313-.036-.706-.103-.943.041-1.024.625-2.224.359-3.322.781-1.639.63-3.285,1.256-4.931,1.875-1.147.431-2.174,1.109-3.299,1.578-1.571.656-2.767,1.868-3.92,2.993-1.42,1.385-2.355,3.228-3.119,5.094-.949,2.317-2.124,4.559-2.749,6.985-.279,1.081-.653,2.172-.636,3.356.015,1.087.339,2.098.441,3.147.098,1.006.499,1.89.81,2.815.38,1.133,1.064,2.117,1.745,3.062.852,1.183,1.902,2.234,3.096,3.09,1.114.799,2.34,1.444,3.437,2.264,1.738,1.3,3.392,2.702,4.889,4.292.714.758,1.318,1.607,1.781,2.484,1.186,2.249,2.342,4.506,3.092,6.982.612,2.02,1.192,4.057,1.68,6.097.35,1.462.778,2.991.547,4.563-.057.389.028.797.013,1.194-.054,1.387.549,2.323,1.852,2.825,1.244.48,2.382,1.179,3.68,1.576,1.325.405,2.286,1.508,3.375,2.337,1.551,1.182,2.674,2.799,3.819,4.343.678.914,1.242,1.99,1.207,3.274-.041,1.49.049,1.513,1.495,1.937.149.044.279.172.428.193,1.228.174,2.223.957,3.42,1.256,1.621.404,2.243,1.486,1.682,2.923-.306.784-.306,1.537-.356,2.32-.13,2.071.287,2.448,2.485,2.322h0Zm12.849-59.573h.022c0,1.116-.029,2.234.01,3.349.028.784.552,1.637.916,1.642.421.006,1.223-.826,1.41-1.47.033-.114.014-.245.059-.353.333-.802.657-1.609,1.388-2.16.629-.474,1.114-.359,1.514.327.246.422.419.836.395,1.34-.104,2.113.35,4.136.911,6.163.381,1.375.881,2.682,1.522,3.942.46.905,1.122,1.527,2.26,1.338.312-.052.637-.037.956-.028.985.029,1.787.68,2.029,1.654.067.269.135.52.259.779.851,1.776,2.292,3.08,3.828,4.134,1.372.941,2.839,1.835,4.397,2.496.381.162.691.389.99.639,1.567,1.313,3.153,2.604,4.991,3.522.733.366,1.333.85,1.824,1.473.584.741,1.152,1.498,1.71,2.254.452.611.725,1.376.706,2.221-.041,1.861.65,3.669.453,5.549-.012.115.014.242.051.353.204.626.492.716,1.134.42,1.081-.498,1.913-1.343,2.522-2.279.858-1.32,1.111-2.794.229-4.306-.638-1.094-1.339-2.123-2.22-3.033-.875-.905-1.747-1.792-2.47-2.856-1.326-1.952-2.501-3.984-3.66-6.033-.464-.819-.742-1.737-1.361-2.475-1.005-1.197-2.294-2.054-3.565-2.909-.388-.261-.861-.638-1.402-.579-.913.099-1.693-.345-2.533-.538-.663-.152-1.561-1.155-1.49-1.813.07-.643.356-1.218,1.02-1.613.554-.329,1.09-.443,1.689-.443,1.197,0,2.394-.012,3.59.02,1.145.031,2.073-.361,2.808-1.245.329-.395.715-.742,1.053-1.129.45-.515,1.028-.571,1.636-.47.794.131,1.107.735.768,1.469-.296.643-.637,1.265-.932,1.909-.378.823-.349,1.735.517,2.454.354.294.562.264.903-.017,1.326-1.094,2.147-2.505,2.64-4.115.212-.692.511-1.317.973-1.864,1.061-1.254,2.407-2.128,3.824-2.924.483-.271.794-.202,1.151.159.346.349.273.642.081,1.06-.447.975-1.293,1.582-1.975,2.342-.394.439-.92.804-1.083,1.391-.252.909-.538,1.799-.914,2.665-.172.396-.026.724.453.762.595.047,1.204.095,1.745-.232.87-.525,1.796-.804,2.819-.723.079.006.159-.004.239-.011,1.536-.13,2.184-.78,2.303-2.305.025-.315.026-.629.151-.937.462-1.137.563-2.369.73-3.555.232-1.65.127-3.343.046-5.017-.019-.391-.136-.767-.223-1.147-.267-1.163-.935-2.156-1.252-3.298-.228-.821-.673-1.593-1.096-2.344-.286-.508-.662-.49-1.022-.034-.119.151-.183.345-.268.52-.791,1.625-1.578,3.252-2.371,4.876-.453.928-.98,1.793-1.847,2.416-.39.28-.695.309-1.054-.015-.706-.637-1.435-1.259-1.851-2.135-.492-1.035-1.203-1.928-1.801-2.895-1.014-1.641-1.895-3.34-2.559-5.156-.323-.883-.951-1.67-1.862-1.848-1.074-.21-2.174-.354-3.26-.504-1.175-.162-2.271-.734-3.488-.63-.139.012-.287-.117-.434-.172-.85-.323-1.369.013-1.422.938-.028.477.015.959-.03,1.434-.065.697-.671.991-1.284.638-.168-.097-.3-.257-.444-.394-.692-.664-1.19-1.458-1.624-2.308-.512-1.003-1.148-1.812-2.397-2.086-.621-.136-1.322-.265-1.891-.615-.56-.344-.955-.089-1.221.316-.297.452-.599.981-.644,1.499-.071.826-.422,1.52-.761,2.223-.144.298-.244.579-.264.897-.057.91-.568,1.712-.594,2.646-.011.398-.283.826-.531,1.173-.922,1.289-2.65,1.946-4.183,1.265-1.207-.536-2.464-.287-2.355,1.475.059.953.011,1.913.011,2.87h0Zm38.726-16.19c0,.239,0,.478,0,.717,0,.08-.002.16.009.239.081.598.375.794.896.488.537-.314,1.091-.593,1.553-1.06.594-.601.971-1.334,1.464-1.994.426-.569.737-1.184.936-1.883.355-1.242.718-2.486,1.088-3.717.33-1.099.474-2.234.692-3.327.258-1.295.769-2.589.632-3.96-.011-.115,0-.259.059-.35.565-.852.431-1.896.796-2.825.398-1.014.766-2,1.629-2.672.743-.579,1.027-1.369,1.273-2.2.078-.264.151-.516.273-.772.585-1.228,1.494-2.23,2.368-3.22,1.524-1.726,3.525-2.863,5.53-3.958.481-.263,1.009-.455,1.453-.768.744-.524.663-1.201-.111-1.65-1.34-.778-2.825-.635-4.18-.353-1.121.234-1.77-.102-2.457-.799-.783-.794-1.312-1.763-1.888-2.697-.234-.379-.504-.704-.822-1-.11-.102-.206-.268-.39-.216-.252.07-.224.309-.232.492-.029.637-.025,1.275-.053,1.912-.069,1.591.5,2.709,2.118,3.247.932.31,1.763.872,2.359,1.714.423.597.429,1.112-.218,1.361-.901.346-1.866.928-2.838.57-.945-.348-1.871-.279-2.813-.309-1.39-.045-2.636.479-3.764,1.195-1.402.89-2.835,1.66-4.426,2.166-.556.177-1.167.303-1.657.59-1.26.739-2.484,1.596-3.306,2.816-.62.92-1.482,1.59-2.34,2.091-1.453.849-2.899,1.733-4.399,2.498-1.036.529-1.825,1.308-2.438,2.198-.94,1.366-2.035,2.595-3.087,3.861-1.37,1.647-3.234,2.761-4.762,4.249-.524.51-1.204.882-1.858,1.231-1.282.684-2.584,1.332-3.899,1.951-.902.424-1.139,1.252-1.374,2.081-.14.493.166.916.553,1.091.635.287,1.231.741,2.001.662.435-.044.877-.014,1.314-.043.659-.042,1.261.01,1.731.577.391.472,1.001.736,1.543.808,1.759.233,3.39,1.053,5.186,1.08.154.002.339.032.454.121.491.382,1.064.295,1.611.294.845-.001,1.168-.472.751-1.223-.23-.415-.38-.862-.614-1.276-.424-.752-.169-1.801.398-2.152.534-.331,1.15-.143,1.854.609.916.979,1.61,2.127,2.387,3.21.862,1.202,1.919,1.974,3.475,1.819.272-.027.608.012.718-.31.166-.482.558-.859.56-1.423.004-1.07.375-2.1.606-3.119.315-1.393.701-2.796,1.194-4.165.649-1.805,1.201-3.64,2.028-5.38,1.235-2.596,2.706-5.048,4.431-7.341.259-.344.783-.5,1.202-.708.129-.064.327-.022.429.127.097.142.09.304-.02.44-.378.471-.459,1.079-.712,1.609-.384.807-.854,1.574-1.081,2.479-.304,1.21-.697,2.404-1.041,3.607-.462,1.616-.672,3.308-1.327,4.858-.387.916-.479,1.894-.78,2.826-.307.952-.833,1.908-.67,2.985h0Zm-39.445-63.415c-1.34-.285-2.549.201-3.793.393-.703.108-.982.669-.622,1.286.118.202.294.378.47.537.912.823,1.276,1.953,1.279,3.07.006,2.403.368,4.819-.376,7.215-.323,1.042-.574,2.105-1.011,3.113-.981,2.259-2.526,3.76-5.121,3.924-.604.038-1.055.46-1.086,1.068-.056,1.073-.672,2.037-.561,3.135.015.147-.053.314-.116.457-.483,1.092-.354,2.316-.756,3.436-.193.537-.105,1.143-.386,1.715-.362.738.094,1.561.829,1.655.71.091,1.498.178,2.127-.125.876-.422,1.892-.239,2.71-.776,1.71.047,3.339-.706,5.065-.51.235.027.478,0,.717-.017,1.737-.119,2.745-1.169,2.787-2.879.014-.556-.066-1.162.126-1.655.374-.958.373-2.017.837-2.93.403-.795.345-1.701.677-2.496.432-1.036.484-1.989-.323-2.86-.167-.18-.267-.381-.369-.6-.482-1.033-.935-2.085-1.501-3.071-.604-1.054-1.294-2.063-2.006-3.048-.295-.408-.4-.806-.202-1.214.211-.435.689-.29,1.074-.314.549-.035.865.358,1.199.685.793.776,1.562,1.575,2.342,2.363.329.332.486.167.519-.204.105-1.165-.012-2.263-.703-3.288-.567-.842-.381-1.67.372-2.322.327-.283.68-.482,1.146-.569,1.158-.216,1.369-.885.588-1.72-.568-.608-1.242-1.127-1.748-1.78-1.094-1.409-2.407-2.162-4.184-1.671h0Zm-14.175,70.195h.023c0,.638-.015,1.276.004,1.913.021.727.392,1.434.711,1.334.543-.171.909-.617,1.137-1.131.11-.247.076-.555.165-.815.092-.268.325-.496.578-.563.305-.081.551.233.633.445.239.617.69,1.167.625,1.895-.028.313-.04.669.079.946.621,1.45.649,3.062,1.278,4.511.17.392.148.875-.023,1.291-.151.365-.543.259-.841.326-.205.046-.433.127-.428.346.012.627-.5,1.092-.503,1.695-.006,1.012-.51,1.801-1.082,2.565-.611.816-.534,1.494.339,1.958.426.227.789.517,1.184.774.82.534,1.66,1.039,2.503,1.537.361.214.679.19.853-.274.178-.476.407-.909.434-1.459.095-1.883-.386-3.819.462-5.642.03-.063.028-.184-.013-.231-.526-.594-.235-1.414-.545-2.035-.58-1.161-1.093-2.338-1.541-3.558-.305-.831-.249-1.639-.2-2.461.025-.422.362-.705.76-.828.43-.133.642.243.883.487.132.134.172.353.28.516.296.448.581.426.872-.041.387-.621.564-1.274.538-2.022-.056-1.633-.049-3.269-.051-4.903,0-.355-.035-.771.127-1.055.825-1.445.856-3,.826-4.596-.013-.701-.203-1.311-.446-1.94-.332-.863-2.323-1.993-3.117-1.866-.331.053-.63.075-.715.481-.323,1.532-.667,3.059-.979,4.593-.134.658-.513,1.233-.584,1.916-.02.194-.267.392-.45.536-.34.266-.767.126-.799-.294-.069-.91-.244-1.877.125-2.716.295-.671.239-1.312.275-1.976.008-.153-.004-.33-.161-.416-.189-.103-.289.073-.396.175-.459.439-.909.887-1.366,1.329-.267.258-.588.301-.854.057-.183-.168-.507-.332-.366-.678.381-.94.611-1.941,1.267-2.766.487-.612.968-1.257.977-2.101.009-.855-.422-1.211-1.199-.913-.438.169-.835.563-1.325.334-.632-.294-.256-.914-.336-1.386-.058-.344.03-.753-.418-.898-.499-.162-.969-.106-1.258.378-.28.469-.573.95-.739,1.464-.502,1.563-.972,3.139-1.395,4.725-.126.471-.345,1.198.175,1.424.702.305.873.9,1.112,1.433.23.513.49.906,1.021,1.064.384.115.478.381.484.723.007.399.007.797.007,1.196,0,.401.008.776.338,1.097.847.824,1.181,1.841,1.06,3.019-.036.355-.006.717-.006,1.076h0Zm15.892-11.472c.531.058.772-.109,1.044-.306.649-.47.943-1.179,1.246-1.843,1.17-2.569,2.64-4.991,3.599-7.668.552-1.542,1.492-2.93,2.353-4.332.127-.207.308-.576.622-.435.29.13.15.492.136.759-.011.206-.159.356-.244.531-.24.493-.461.999-.644,1.515-.47,1.323-.834,2.681-1.381,3.981-.225.534-.436,1.092-.628,1.645-.446,1.29-.767,2.632-1.39,3.86-.391.771-.773,1.547-1.155,2.323-.429.872-.323,1.043.471,1.588.436.299.928.436,1.378.675.804.428,1.412.12,1.906-.69.58-.95.744-2.065,1.264-3.032.668-1.242,1.074-2.654,2.075-3.681,1.052-1.078,1.855-2.346,2.864-3.458,1.045-1.151.958-1.491-.122-2.55-.396-.388-.782-.786-1.178-1.174-.451-.442-.987-.832-1.211-1.437-.161-.434-.442-.744-.742-1.057-.764-.795-.751-.819.083-1.531.345-.295.673-.441,1.062-.16.28.203.582.235.904.235.329,0,.576-.147.545-.484-.074-.816.018-1.617-.222-2.459-.408-1.428-.735-2.958.499-4.258.207-.218.254-.58.433-.834.173-.246.176-.42-.05-.609-.176-.147-.297-.299-.607-.223-1.102.268-2.18.625-3.309.801-1.393.217-1.665.724-1.191,1.998.174.468.19.958.064,1.411-.371,1.335-1.004,2.561-1.912,3.6-1.25,1.432-2.715,2.616-4.389,3.548-.571.318-1.246.753-1.231,1.493.029,1.363-.555,2.635-.484,3.989.058,1.1-.368,2.092-.764,3.064-.219.536-.122,1.195-.655,1.625-.629.507-.488,1.394-.905,2.027-.125.19.003.446.193.638.519.524,1.173.762,1.673.915h0Zm-18.32-20.983c.678,0,1.355-.005,2.033.001.675.006,1.085-.354,1.403-.916.317-.56.346-1.236.626-1.761.525-.985.279-1.615-.51-2.259-.417-.341-.964-.686-1.024-1.265-.145-1.386-.271-2.816.119-4.153.331-1.135.411-2.304.727-3.441.375-1.348.462-2.776.893-4.123.129-.404-.061-.676-.323-.952-.263-.278-.545-.288-.865-.155-1.012.421-2.045.792-3.011,1.321-.78.428-1.438,1.004-1.861,1.77-.55.995-1.026,2.035-1.486,3.076-.839,1.897-1.475,3.878-2.395,5.743-.188.382-.389.751-.507,1.187-.327,1.204-.757,2.382-1.202,3.55-.371.973-.153,2.116.656,2.951.677.699,1.553.504,2.236.232,1.461-.583,2.922-.935,4.492-.805h0Zm10.849.457c-1.141-.142-2.398.242-3.6.933-.432.248-.767.513-.974.977-.592,1.327-.972,2.728-1.384,4.112-.155.522-.553.974-.475,1.575.114.878-.303,1.632-.709,2.344-.198.348-.246.756-.509,1.063-.152.177-.135.343.019.527.359.428.695.916,1.324.903.551-.012.906.284,1.208.655,1.491,1.836,3.53,2.852,5.623,3.789.58.26.978.096,1.124-.503.344-1.407.661-2.822.941-4.244.121-.614.228-1.23.361-1.838.2-.919.577-1.805.633-2.756.03-.515.167-.988.339-1.484.217-.622.456-1.258.59-1.909.254-1.239-.338-2.188-1.063-3.132-.721-.936-1.616-1.201-2.716-1.044-.157.022-.318.016-.73.034h0Zm-22.726-6c0,.48-.025.762.005,1.038.079.735.567,1.175,1.293,1.081,1.069-.139,2.7-1.119,2.549-2.374-.027-.227-.004-.51.111-.697.372-.603.399-1.167.039-1.79-.205-.355-.214-.807-.002-1.15.3-.485.242-.995.253-1.504.022-1.036.045-2.073.028-3.108-.02-1.174.359-2.238.822-3.286.7-1.582,1.537-3.077,2.463-4.548,1.354-2.153,3.214-3.309,5.696-3.443.867-.046,1.619-.325,2.377-.647.613-.261,1.204-.578,1.792-.893,1.339-.718,2.472-1.641,3.254-2.993.49-.847,1.195-1.498,2.326-1.281.155.03.318.03.477.027.775-.011.924-.117.876-.91-.067-1.112-.505-2.127-.995-3.113-.047-.095-.159-.172-.259-.222-1.094-.548-2.857-.582-3.828.107-1.053.748-2.224,1.378-3.008,2.461-.111.154-.355.261-.303.477.076.312.378.213.598.24.157.019.32-.008.478.011.56.066.756.33.664.877-.09.536-.496.772-.928.996-.835.434-1.692.834-2.489,1.331-1.497.933-2.93,1.973-4.449,2.867-.519.305-1.007.608-1.428,1.028-1.458,1.456-2.922,2.906-4.373,4.368-.304.306-.547.65-.764,1.042-1.349,2.44-2.225,5.012-2.375,7.812-.009.158.008.354-.076.466-.476.637-.312,1.373-.36,2.076-.051.753.134,1.559-.159,2.248-.231.542-.293,1.057-.305,1.409h0Zm25.838,34.63h-.021c0,.996-.025,1.993.007,2.988.03.954.312,1.237,1.225,1.457.763.184,1.575.302,2.277.57.943.361,1.9.722,2.832,1.13.815.357,1.828.196,2.146-.43.277-.547.699-1.068.64-1.758-.092-1.088.356-2.108.623-3.109.24-.902.306-1.779.384-2.677.06-.686-.274-1.138-.893-1.385-.836-.334-1.658-.75-2.528-.938-.59-.127-1.054-.564-1.675-.549-.996.025-1.998-.025-2.986.075-1.5.153-2.024.81-2.032,2.355-.004.757,0,1.514,0,2.271h0Zm59.881,42.916c.059-2.093-.749-3.669-2.109-4.981-.848-.818-1.765-1.556-2.701-2.283-1.465-1.137-2.726-2.526-3.971-3.911-.104-.116-.209-.237-.289-.37-.73-1.208-1.432-2.429-2.088-3.682-.407-.777-.991-1.581-1.995-1.711-.667-.086-1.358-.082-2.028-.019-1.366.129-2.052.886-2.107,2.234-.02.477-.009.956-.016,1.434-.011.752.36,1.204,1.002,1.603,1.296.807,2.678,1.538,3.758,2.616,1.145,1.142,2.548,1.674,4.007,2.122,2.14.656,3.805,1.893,4.669,3.958.575,1.376,1.3,2.585,2.443,3.527.406.334.753,1.126,1.236.887.436-.216.153-1.027.189-1.423h0ZM11.613,112.472c1.505.311,2.498-.675,3.472-1.483,1.727-1.433,2.4-3.465,2.637-5.618.121-1.101.008-2.229-.012-3.344-.006-.315.046-.667-.153-.93-.319-.421-.294-.899-.305-1.371-.025-1.116-.062-2.232-.034-3.347.026-1.021.113-2.009.443-3.025.598-1.84,1.559-3.422,2.788-4.859.744-.869,1.608-1.636,2.415-2.451.558-.563,1.115-1.126,1.665-1.696.103-.106.274-.202.218-.387-.077-.25-.317-.18-.499-.221-.956-.214-1.787.28-2.639.533-1.704.506-3.181,1.492-4.18,2.948-1.334,1.947-1.959,4.212-2.034,6.551-.105,3.265-.027,6.536-.039,9.805-.002.476.053,1.005-.127,1.419-.995,2.294-2.11,4.509-4.516,5.705-.307.152-.523.48-.795.711-.293.25-.2.43.024.685.479.546,1.108.318,1.669.375h0Zm125.132-29.653v-.071c.835,0,1.675.051,2.505-.017.616-.05,1.157-.486,1.826-.408,1.407.163,2.685-.649,4.084-.575.038.002.08-.011.116-.025,1.135-.449,2.327-.662,3.524-.856.562-.091.989-.37,1.065-.949.077-.592-.021-1.13-.444-1.657-.667-.833-1.656-.896-2.519-1.153-.772-.23-1.663-.144-2.492-.078-.869.07-1.561-.556-2.422-.483-.466.04-.908-.095-1.367-.297-1.305-.574-2.515-.232-3.522.798-.611.625-1.02,1.396-1.578,2.05-.673.788-1.201,1.642-1.612,2.589-.4.92-.335,1.079.687,1.124.715.032,1.433.006,2.149.006h0Zm-70.688,3.064c.05-.349-.129-.641-.405-.898-.898-.837-1.45-1.825-1.524-3.09-.039-.681-.515-1.01-1.227-1.007-.392.002-.795-.022-1.146.236-.314.231-.705.236-1.033.125-1.29-.44-2.675-.611-3.856-1.366-.462-.295-.938-.574-1.43-.815-.599-.294-1.03-.142-1.351.451-.317.586-.615,1.182-.909,1.779-.905,1.841-.331,1.92.788,2.977.239.225.51.333.827.424.785.226,1.541.556,2.328.774.904.251,1.819.51,2.746.615,1.561.177,3.092.449,4.593.913.83.257,1.574-.255,1.599-1.118h0Zm44.989-39.88c-.044-.471.078-.955-.13-1.414-.602-1.326-.822-2.769-1.23-4.153-.154-.524-.511-.968-.511-1.564,0-.949-.376-1.855-.622-2.746-.448-1.617-.752-3.272-1.289-4.865-.362-1.075-.658-2.174-1.065-3.232-.143-.372-.451-.829-.983-.69-.443.116-.728.465-.775.952-.019.198-.021.398-.03.596-.021.517.087,1.084-.089,1.542-.357.933-.169,1.77-.055,2.719.183,1.522.735,2.904,1.212,4.295.798,2.327,1.846,4.57,2.833,6.828.392.897.931,1.728,1.347,2.616.221.472.561.515.975.451.434-.067.409-.418.413-.739.002-.199,0-.398,0-.598h0Zm-8.134-18.941c0-.199.006-.398,0-.597-.018-.541-.333-.922-.805-1.053-.523-.146-.761.342-.982.701-.465.757-.667,1.585-.628,2.486.045,1.034.032,2.07.029,3.105-.001.356.065.78-.099,1.053-.359.599-.357,1.235-.294,1.851.135,1.344-.365,2.585-.668,3.825-.173.708-.216,1.471-.514,2.167-.307.715-.499,1.478-.775,2.208-.307.812-.385,1.696-.692,2.486-.243.627-.252,1.229-.307,1.853-.046.524.308.963.685.997,1.073.095,2.007.744,3.097.698.159-.007.318-.018.475-.041.315-.048.514-.228.513-.555-.003-.675.161-1.429-.084-2.008-.362-.858-.382-1.715-.333-2.564.056-.949-.479-1.748-.471-2.668.017-1.951-.005-3.902,0-5.852,0-.316-.038-.688.107-.937.51-.874.391-1.906.808-2.817.37-.806.623-1.701.56-2.634-.01-.148.04-.336.132-.448.314-.38.243-.824.248-1.256h0Zm45.051,120.304c-.01,1.475-.753,2.452-2.276,2.89-.416.12-.589.332-.638.735-.103.845.38,1.591,1.413,2.106,1.02.508,2.032.98,3.204,1.141,1.127.155,2.01-.384,2.101-1.516.085-1.071-.285-2.049-.741-2.937-.704-1.372-.861-2.868-1.068-4.314-.193-1.346-.472-2.624-1.033-3.84-.626-1.355-1.303-2.688-1.978-4.019-.305-.601-.796-.89-1.094-.672-.398.291-.325.771-.162,1.086.562,1.082.341,2.312.758,3.441.306.826.592,1.7.773,2.582.228,1.11.706,2.165.742,3.317h0ZM96.424,11.996c-.357,0-.719-.034-1.072.007-.749.086-.887.442-.628,1.19.15.435.397.776.698,1.081.393.397.683.838.962,1.327.793,1.395,1.624,2.767,2.807,3.902.996.955,2.279.8,3.115-.43.313-.461.13-.797-.461-.881-.235-.034-.479-.009-.713-.048-.589-.1-1.096-.571-1-.985.113-.49.431-.844.976-.894.316-.029.635-.024.953-.04.913-.045.994-.152.623-.945-.104-.223-.199-.437-.186-.675.035-.617-.181-1.146-.461-1.684-.518-.995-.984-1.209-1.969-.707-.578.295-1.216.396-1.703.081-.641-.415-1.272-.359-1.94-.299h0Zm40.521,54.834c-.14.936.011,2.279.521,3.529.332.813.471,1.703,1.153,2.411.901.935,2.029,1.295,3.179,1.667.477.154,1.044-.495.794-.964-.688-1.287-1.103-2.67-1.556-4.042-.551-1.669-1.187-3.324-1.222-5.108-.012-.623-.255-1.14-.455-1.694-.211-.582-.663-.461-1.087-.45-.42.011-.694.129-.881.607-.464,1.183-.417,2.4-.446,4.044h0Zm-75.767,12.162c.565-.111,1.074.067,1.492-.249.698-.528,1.365-1.116,1.844-1.839.532-.802.783-1.729.61-2.717-.047-.27-.138-.412-.479-.268-1.324.557-2.708.755-4.149.814-1.535.063-2.819-.248-3.755-1.54-.115-.159-.261-.299-.407-.432-.516-.474-.861-.427-1.205.156-.392.666-.265,2.031.271,2.729.436.567.974,1.037,1.486,1.534,1.228,1.192,2.791,1.52,4.292,1.812h0Zm14.996,34.515c0,.121-.016,0,.003-.117.251-1.541-.44-2.482-1.853-3.022-1.058-.404-2.14-.79-3.111-1.356-.603-.352-.949-.018-1.4.128-.276.09-.352.307-.301.566.045.233.239.307.446.318.478.023.957.058,1.435.039.624-.024,1.117.209,1.36.765.263.599-.086,1.055-.509,1.464-.756.73-1.745,1.062-2.647,1.531-.461.24-.695.474-.66.979.035.52.411.849.814.917.893.153,1.685.731,2.643.598.27-.037.569-.013.807.158.537.387,1.15.238,1.737.261.34.013.545-.144.751-.457.522-.795.424-1.67.487-2.773h0Zm6.186-10.999c-.082.579.327,1.192.388,1.827.126,1.318.622,2.499.981,3.74.662,2.291,2.146,4.071,3.427,5.984.197.294.455.557.786.702.336.147.664-.122.59-.475-.031-.148-.141-.277-.198-.422-.387-.983-.965-1.868-1.258-2.912-.326-1.164-.753-2.292-1.018-3.488-.33-1.49-.845-2.955-.817-4.49.03-1.602-.787-2.67-1.903-3.629-.288-.248-.416-.132-.472.168-.08.427.109.923-.154,1.285-.363.5-.351,1.037-.351,1.709h0ZM98.075,1.933v-.038c-.996,0-1.993-.028-2.987.01-.632.025-1.116.446-1.223.939-.118.542.105,1.076.722,1.353.446.2.794.512,1.198.75.709.418,1.441.801,2.188,1.145.344.158.642.002.653-.425.013-.517-.01-1.034-.021-1.552-.013-.595.332-.992.817-1.201.456-.197.942-.13,1.289.318.356.461.716.947.519,1.56-.193.6-.45,1.2-1.149,1.404-.4.117-.44.307-.128.566.768.639,1.686,1.005,2.619,1.286.607.183.872-.071.899-.751.031-.794-.005-1.592-.037-2.388-.074-1.843-1.179-2.976-3.086-2.978-.757,0-1.513,0-2.27,0h0Zm-5.616,33.892h-.042c0,1.194-.022,2.389.009,3.582.016.643.225.806.785.772,1.379-.082,2.376-1.621,1.822-2.883-.225-.513-.31-1.085-.104-1.499.359-.721.331-1.453.402-2.195.018-.19.077-.399.185-.553.489-.696.268-1.269-.275-1.794-.458-.443-.882-.871-.957-1.58-.053-.501-.485-.61-.859-.272-.2.18-.447.361-.467.669-.08,1.252-.722,2.416-.517,3.724.104.66.018,1.351.018,2.028h0Zm-24.068,23.024c-1.294-.169-2.523.6-3.882.573-.387-.008-.807.297-1.167.529-.667.428-.781,1.21-.29,1.845.679.876,1.467,1.509,2.694,1.415.507-.039,1.093-.2,1.554.298.153.165.437.016.668-.069,1.637-.603,1.963-2.134,2.388-3.518.249-.811-.05-1.023-.941-1.07-.317-.017-.635-.003-1.025-.003h0Zm23.062-1.873c.273,0,.472-.011.67.002.703.047,1.236-.139,1.439-.908.307-1.165.824-2.28.806-3.519-.001-.079,0-.16-.012-.238-.056-.36-.818-1.043-1.181-.965-.455.098-.775.444-.737.933.069.895-.274,1.69-.478,2.527-.167.686-.634,1.084-1.104,1.49-.329.284-.736.111-.783-.324-.082-.749-.105-1.507.104-2.246.188-.666-.021-1.041-.691-1.106-.432-.042-.874-.008-1.309.018-1.085.064-1.271.462-.808,1.437.416.877,1.198,1.535,1.354,2.585.09.606.736.816,1.3.496.506-.287,1.003-.148,1.432-.183h0Zm-1.142-51.749c-.528,0-1.01-.044-1.481.008-1.563.173-2.397,1.26-2.169,2.78.13.87.66,1.112,1.513.83.886-.292,1.805-.606,2.722-.652,1.043-.051,2.003-.368,3.001-.56.39-.075.666-.329.738-.678.06-.291-.27-.499-.489-.609-1.223-.616-2.407-1.399-3.836-1.12h0Zm-28.626,59.856c-1.388-.025-2.383.65-3.308,1.366-.751.58-.646,1.71.149,2.237.458.304.938.572,1.371.92.416.335.964.366,1.321.03.78-.736,1.732-1.236,2.516-1.95.694-.632.684-1.374-.095-1.872-.614-.393-1.248-.877-1.953-.731h0Zm46.031,78.958v.034c.636,0,1.272.019,1.907-.005.913-.034,1.03-.173.981-1.067-.053-.988-.694-1.743-1.106-2.574-.155-.314-.764-.687-1.215-.471-1.16.555-2.394.989-3.373,1.879-.454.413-.723.899-.473,1.471.216.494.675.749,1.253.736.675-.014,1.35-.003,2.025-.003h0Zm12.412-94.305c-.811,0-1.487-.009-2.163.006-.183.004-.432-.02-.484.235-.048.237.182.366.328.444.793.424,1.574.901,2.418,1.19,1.11.38,2.226.732,3.29,1.231.419.197,1.571-.067,1.794-.422.11-.175.129-.407.002-.566-.492-.615-.958-1.293-1.729-1.574-1.153-.42-2.338-.732-3.456-.543h0Zm-16.192-.77c.014.93-.195,1.881.439,2.733.434.584,1.437,1.047,1.887.7.864-.667,1.366-1.096.746-2.235-.432-.793-1.074-1.438-1.44-2.27-.12-.272-.424-.459-.627-.699-.196-.231-.414-.369-.721-.25-.279.107-.273.366-.279.597-.013.474-.004.949-.004,1.424h0Zm-22.024-17.887c-.028-.495-.037-.772-.065-1.049-.007-.069-.057-.162-.114-.19-.132-.066-.21.027-.266.141-.33.668-.6,1.376-1.005,1.995-.631.964-1.047,2.096-2.238,2.642-.505.231-.849.809-1.272,1.223-.301.295-.362.612-.081.944.293.347.614.657,1.115.344.529-.331,1.086-.584,1.582-1.004.957-.81,1.493-1.857,1.761-2.989.179-.756.737-1.432.583-2.056h0Zm-25.895,28.786c0-.085-.024.116.004.31.097.652.594,1.092,1.198,1.082.572-.009.713-.164.706-1.091-.005-.757.178-1.357.776-1.88.45-.394.924-.378,1.434-.382.336-.003.657-.049.69-.473.028-.352.045-.686-.332-.934-1.19-.781-2.739-.454-3.448.793-.156.275-.284.564-.516.779-.446.415-.548.94-.512,1.795h0Zm49.203-.519c.039,0,.158.009.276-.002.268-.023.585.043.736-.26.172-.345-.019-.591-.268-.824-.316-.295-.615-.609-.914-.922-.842-.883-.864-1.22-.068-2.2.207-.254.309-.399.036-.68-.301-.31-.507-.267-.778.017-.407.428-.836.836-1.262,1.246-.633.61-.624,1.331-.326,2.07.446,1.11,1.3,1.613,2.569,1.554h0Zm11.137,84.415c.006.119.007.239.02.357.036.343-.049.76.436.864.41.088.782.029,1.074-.328.15-.184.277-.374.405-.572.397-.61.4-1.354.741-1.973.144-.261.25-.533.04-.77-.24-.272-.601-.226-.896-.126-1.112.379-1.95,1.255-1.82,2.548h0Zm-7.976-134.72v.008c.355,0,.714.032,1.065-.007.667-.073.965-.758.542-1.289-.211-.265-.472-.546-.872-.553-.71-.011-1.422-.053-2.13-.017-.549.028-.741.322-.688.871.046.474.464.906,1.019.978.349.046.709.009,1.064.009h0Zm-51.662,55.057c-.688-.025-1.06.078-1.221.613-.075.248-.28.479-.478.663-.422.394-.518.964-.808,1.429-.179.287-.192.751.133.985.363.262.663-.034.918-.297.741-.764,1.222-1.708,1.786-2.594.084-.133.173-.265.237-.408.085-.189-.022-.302-.196-.34-.192-.042-.39-.056-.371-.053h0Zm78.128,21.112v-.023h-.837c-.558,0-1.116-.013-1.673.005-.285.009-.571.079-.595.449-.03.465.32.477.64.514.079.009.159.009.239.007,1.196-.023,2.391-.052,3.587-.069.333-.005.626-.085.87-.322.133-.128.439-.118.41-.357-.033-.261-.307-.197-.488-.199-.717-.012-1.435-.005-2.153-.005h0Zm-28.78-19.196c.28,0,.542-.029.757-.251.382-.394.777-.775,1.173-1.156.192-.185.242-.402.161-.643-.114-.338-.421-.301-.689-.321-.563-.042-.902.311-1.073.759-.147.385-.379.674-.636.969-.12.138-.357.264-.229.484.106.182.343.148.536.159h0Zm46.673-17.494c0-.265.018-.425-.003-.58-.075-.556-.455-.697-.911-.339-.124.097-.245.206-.339.331-.242.326-.29,1.302-.089,1.596.128.187.318.225.522.181.439-.095.795-.662.82-1.189h0Zm-23.933,1.169c.005.078.005.354.048.622.055.344.296.445.606.35.287-.087.287-.332.251-.574-.046-.318-.366-.491-.416-.826-.039-.265.096-.767-.305-.719-.298.036-.144.538-.184.833-.005.038,0,.078,0,.313h0Zm-37.355-32.445c-.2.012-.404.088-.437.384-.041.37.426.931.843.987.316.042.54-.082.552-.434.013-.381-.495-.897-.958-.937h0Zm26.094,37.797c-.213.048-.607-.055-.653.385-.052.496.329.548.695.555.32.007.653-.017.667-.451.015-.436-.306-.475-.71-.49h0Z" fill="#9e8f4f"/>
          <path d="m180.517,129.174c.758,0,1.565.17,2.263-.035,1.44-.424,2.972-.109,4.332-.523,1.101-.335,2.301-.125,3.326-.749.241-.147.625-.053.943-.081.979-.085,1.945-.041,2.931-.356.777-.248,1.73-.277,2.561.156.334.174.702.123,1.057.132,1.156.029,2.313.039,3.469.074.628.019,1.235.173,1.848.289,1.265.24,2.606.385,3.873-.112.352-.138.696-.18,1.048-.164.736.034,1.394-.167,2.05-.485.458-.223.758-.511.951-.989.374-.924,1.037-1.482,2.099-1.404,1.174.086,2.329.022,3.527.291,1.326.297,2.8.54,4.19-.212.579-.313,1.339-.222,1.987.029,1.796.698,3.643.965,5.566.815.651-.051,1.171-.428,1.802-.551.831-.161,1.611-.591,2.406-.923.608-.254.919-.697.889-1.39-.038-.876.025-1.758-.043-2.63-.089-1.143.317-2.18.589-3.245.123-.482.554-.756.92-1.06.194-.161.345-.092.516.057.421.367.76.743.934,1.326.383,1.284.936,2.506,1.918,3.472.652.64.736.634,1.414-.049.279-.281.568-.554.824-.855.334-.394.762-.452,1.192-.298.474.17.788.538.813,1.07.032.677.035,1.355.057,2.032.035,1.124.898,2.288,1.972,2.518.929.199,1.68.65,2.333,1.306.476.477.951.955,1.42,1.438.616.635,1.241,1.153,2.231,1.185.829.027,1.514.623,2.256.981.207.1.258.292.295.488.317,1.659-.324,3.319-1.936,4.22-1.511.845-3.184,1.307-4.77,1.973-1.296.544-2.594,1.119-3.762,1.952-.872.622-1.675,1.235-2.238,2.202-.525.904-1.501.824-2.179-.055-.138-.179-.324-.355-.473-.259-.545.352-1.032.048-1.548-.04-.383-.066-.626.091-.826.492-.664,1.324-.669,2.582.579,3.747.812.758,1.628,1.147,2.753,1.074,1.31-.085,2.535.385,3.753.828.758.276,1.296.845,1.662,1.469.78,1.329,1.984,2.243,2.988,3.35.316.349.673.648.737,1.18.178,1.491-.658,2.527-2.188,2.622-.431.027-.828-.044-1.255-.247-.934-.444-1.841-.893-2.558-1.662-.36-.386-.73-.523-1.253-.172-.519.349-1.216.282-1.784.603-.201.113-.555.033-.813-.046-.86-.264-1.723-.527-2.555-.866-.868-.354-1.495-1.029-1.943-1.833-.495-.889-1.206-1.575-1.98-2.184-.722-.567-2.897-.393-3.569.251-.345.332-.699.496-1.166.47-.358-.021-.718-.009-1.076-.027-.515-.026-.793.133-.86.719-.074.648-.387.85-.948.686-.637-.186-1.079-.664-1.351-1.246-.174-.373.227-.987.766-1.013.825-.039,1.054-.412,1.138-1.162.05-.44.358-.87.617-1.26.192-.289.45-.576.867-.555.821.041,1.618-.022,2.451.294.786.298,1.632.539,2.47.749,1.249.313,2.611.628,3.234,2.092.236.554.639,1.107,1.04,1.563.795.907,1.886,1.28,3.11,1.081.506-.082.757-.74.358-1.232-.526-.648-.826-1.44-1.406-2.039-.579-.598-1.203-1.157-1.742-1.788-.492-.577-1.159-.863-1.813-1.067-.666-.208-1.372-.366-2.053-.498-1.095-.214-2.118-.551-3.139-.966-.316-.128-.714-.125-1.064-.086-1.196.134-2.113-.537-3.103-1.008-.151-.072-.312-.173-.298-.337.078-.945-.685-1.168-1.299-1.441-.534-.238-1.077-.466-1.144-1.075-.093-.847-.315-1.745.378-2.496.665-.72,1.385-1.385,1.852-2.282.387-.743,1.217-.976,1.918-1.321.275-.135.652-.153.905.091.236.228.149.513-.039.754-.143.183-.171.374.026.518.727.527.65,1.295.667,2.055.016.695.052.7.735.404.47-.203.951-.388,1.4-.632.771-.418.998-.995.557-1.79-.408-.737-.241-1.3.266-1.824.517-.533,1.004-1.088,1.859-1.175.613-.062,1.142-.571,1.314-1.108.262-.816.947-1,1.528-1.118.884-.181,1.824-.097,2.74-.103.236-.002.487.062.56.35.063.251-.026.447-.204.643-.253.279-.583.381-.905.537-.857.416-.95.845-.31,1.537.416.449.599.93.514,1.512-.111.759.238,1.271.784,1.75.469.411.938.821,1.199,1.45.243.585.814.369,1.243.195.618-.251,1.307-.464,1.786-.894,1.073-.962,2.447-1.224,3.676-1.816,1.059-.511,2.245-.719,3.236-1.393.191-.129.426-.183.6-.366.346-.364.951-.626.815-1.212-.149-.641-.682-1.071-1.308-1.264-.413-.128-.821-.209-1.221-.419-.601-.315-1.161-.098-1.566.451-.342.463-.591.196-.843-.096-.293-.34.057-.492.212-.687.673-.849.646-1.478-.126-2.547-.42-.581-1.258-.776-2.05-.478-1.267.478-1.784.304-2.506-.882-.159-.261-.159-.658-.59-.64-.473.019-.632.426-.837.754-.059.095-.067.23-.072.348-.021.525-.25.926-.75,1.092-.234.078-1.019-.747-1.1-1.155-.069-.349-.028-.719-.094-1.069-.138-.734-.702-1.006-1.41-.743-2.346.873-4.692,1.748-7.051,2.587-.362.129-.79.103-1.187.101-3.151-.011-6.302-.034-9.453-.054-.159,0-.347.037-.474-.031-1.599-.855-3.055-.148-4.53.388-.111.04-.235.096-.344.081-1.532-.202-2.957.428-4.443.588-.843.091-1.691.363-2.503.617-.545.17-1.063.25-1.611.293-1.096.085-2.184-.034-3.291.345-.767.263-1.73.28-2.558-.157-.259-.136-.541-.125-.818-.126-1.675-.008-3.386-.226-5.016.042-1.656.272-3.307.263-4.954.438-.748.079-1.478.411-1.94,1.031-.62.832-1.448,1.333-2.367,1.705-.786.317-1.261.883-1.638,1.609-.788,1.517-1.353,3.074-1.429,4.818-.033.758-.346,1.531-.656,2.242-.47,1.08-.933,2.156-1.241,3.295-.2.738-.711,1.345-1.147,1.907-.787,1.014-1.666,1.99-2.901,2.571-.882.416-1.692.993-2.509,1.536-.588.39-.859,1.773-.504,2.399.224.394.654.398.95.251.84-.418,1.833-.644,2.463-1.353,1.254-1.413,2.963-2.051,4.564-2.876.281-.145.546-.312.822-.461,1.168-.632,1.626-1.575,1.012-2.731-.576-1.083-.084-1.853.435-2.608.511-.744,1.225-1.344,1.985-1.854.75-.502.912-.941.703-1.795-.192-.78-.163-1.58-.107-2.38.031-.447.324-.727.585-1.008,1.206-1.302,2.383-2.634,4.159-3.226.549-.183,1.072-.505,1.499-.928.292-.289.649-.264,1.007-.242.367.023.568.309.711.577.137.256-.168.419-.311.584-.205.237-.45.452-.712.624-.815.537-.887.688-.417,1.587.486.93.857,1.869.67,2.943-.04.233-.059.477-.143.695-.619,1.615-.008,2.698,1.693,2.946.987.144,1.859-.319,2.711-.673.645-.268.622-.775.167-1.359-.383-.491-.879-.857-1.181-1.46-.329-.658.037-1.056.246-1.508.161-.349,1.406-.606,1.807-.414.384.183.779.13,1.17.175.429.05.851.027,1.258.287.565.361,1.115.238,1.617-.237.531-.502.984-1.111.553-1.763-.489-.741-.011-1.208.238-1.738.25-.532.826-.369,1.28-.402.946-.067,1.711.152,2.068,1.194.173.505.635.765,1.227.774.586.009,1.193-.069,1.729.323.233.17.534.103.787-.068.54-.365,1.156-.216,1.744-.246.286-.015.539.073.751.295,1.365,1.435,3.334,2.113,4.602,3.673.303.372.664.433,1.034.109.228-.199.484-.272.769-.261.189.007.42-.023.501.214.064.186-.111.286-.217.387-.432.412-.755,1.144-1.551.56-.268-.197-.424.08-.632.152-.7.244-1.319.739-2.13.652-.401-.043-.674.256-.886.533-.268.349-.001.631.179.957.392.713.23,1.424-.365,2.047-.109.115-.243.206-.351.322-.534.578-.571.906.092,1.174.655.265.9.79,1.122,1.29.29.653.613,1.105,1.312,1.407.891.384,1.012,1.759.319,2.436-.431.422-.731.398-.985-.143-.121-.259-.253-.482-.448-.687-.259-.272-.587-.369-.848-.138-.346.305-.804.325-1.163.592-.416.311-.909.295-1.342.006-.634-.423-1.271-.342-1.925-.085-.596.234-1.574.049-1.854-.5-.428-.84-1.165-1.038-1.947-1.069-1.091-.043-2.064-.334-3.063-.78-.764-.342-1.592-.642-2.47-.757-.808-.106-1.577-.411-2.416-.494-1.864-.184-3.507.289-5.077,1.242-2.228,1.352-4.291,2.888-6.203,4.68-1.595,1.495-3.285,2.928-5.259,3.958-.604.315-1.109.338-1.608-.184-.241-.252-.503-.558-.912-.486-.827.145-1.446-.338-2.096-.689-1.155-.623-2.092-.207-1.961,1.068.089.874-.235,1.676-.108,2.516.108.716-.212,1.315-.533,1.906-.247.456-.557.488-.939.129-.511-.48-.473-1.007-.235-1.629.384-1,.489-2.008-.385-2.859-.548-.533-1.081-.377-1.243.394-.073.346-.037.715-.057,1.073-.018.314-.013.619-.237.9-.466.585-.894.647-1.345.044-.394-.528-.79-1.09-.795-1.805,0-.08.012-.164-.008-.238-.065-.237.132-.687-.269-.648-.301.029-.164.466-.185.726-.019.238.004.479-.007.717-.013.278-.011.581-.363.672-.317.082-.547-.087-.712-.324-.585-.842-1.027-1.754-1.342-2.732-.395-1.227-.795-2.454-1.231-3.667-.224-.625-.188-1.251-.157-1.885.018-.364.301-.609.576-.704.353-.123.594.244.708.495.388.855.719,1.737,1.042,2.619.1.273.223.499.442.688.213.184.405.297.525-.066.627-1.909,2.233-3.02,3.566-4.344.584-.58,1.33-1.001,2.03-1.406,1.662-.96,2.488-2.454,3.07-4.165.252-.74.583-1.467.722-2.228.192-1.046.688-2.013.73-3.093.03-.772.049-1.52-.64-2.067-.117-.093-.268-.257-.26-.379.078-1.209-.569-2.294-.567-3.49.001-1.303,1.02-2.394,2.394-2.371.797.014,1.596.003,2.393.003v-.049h0Zm65.121,23.663c.039-.274-.177-.529-.436-.803-.805-.851-1.711-1.603-2.276-2.683-.251-.48-.66-1.004-1.359-1.022-.588-.015-.883.312-.611.8.32.574.552,1.207,1.093,1.66.417.35.897.754,1.072,1.235.319.877,1.1,1.089,1.749,1.481.423.255.754-.025.768-.668h0Zm-67.397-20.982c.169.251.331.599.662.537.218-.04.54-.275.502-.568-.04-.308-.299-.596-.633-.545-.24.037-.457.274-.531.576h0Zm20.438,12.45c.045.272.026.613.466.644.348.025.509-.158.489-.487-.026-.402-.33-.656-.652-.716-.299-.056-.242.315-.303.559h0Z" fill="#9e8f4f"/>
          <path d="m221.186,158.833c.007-.363-.096-.675-.271-1.009-.306-.584-.044-.906.609-.861.594.041,1.483.839,1.581,1.569.081.611.396,1.013.812,1.391.635.576,1.093.583,1.751.027.814-.687.828-.704,1.667-.017.255.208.571.29.804.478.407.327.652.214.992-.097.766-.699,1.523-.7,2.305-.036.361.306.691.65,1.019.993.344.361.393.85.145,1.211-.288.418-.814.317-1.192.09-.536-.322-1.105-.588-1.591-1.009-.529-.458-.825-.354-.926.357-.089.621-.389.809-.945.802-.398-.005-.759.068-1.13.281-.497.286-1.11.284-1.616.044-.849-.403-1.812-.528-2.591-1.091-.391-.283-.736-.197-1.05.147-.591.647-1.2.724-2.002.264-.427-.245-.896-.485-1.373-.676-.404-.162-.744-.466-.779-.965-.02-.277-.065-.595.191-.772.254-.176.518-.083.76.119.146.122.348.178.525.263,1.55.744,2.315.245,2.306-1.501h0Z" fill="#9e8f4f"/>
          <path d="m154.623,73.763c.009.733-.761,1.267-1.399,1.128-1.369-.298-2.215-1.182-2.967-2.316-.589-.889-1.158-1.777-1.573-2.753-.367-.864-.659-1.756-1.082-2.602-.237-.475.371-1.235.88-1.122.487.108,1.069.294,1.284.748.432.913,1.187,1.577,1.766,2.356.698.938,1.305,1.969,2.147,2.809.51.508.765,1.175.943,1.752h0Z" fill="#9e8f4f"/>
          <path d="m25.89,159.347c-.006.811-.106.907-.699.574-1.471-.828-3.184-1.115-4.596-2.042-.979-.643-2.067-1.151-2.836-2.081-.14-.169-.455-.333-.296-.577.141-.217.467-.16.639.012.301.302.757.251,1.056.523.33.301.737.25,1.129.266.46.018.704-.144.789-.66.14-.853.769-1.106,1.387-.532.743.691,1.556,1.329,2.039,2.278.208.409.573.75.906,1.082.367.366.516.786.481,1.158h0Z" fill="#9e8f4f"/>
          <path d="m107.522,154.117c-.422-.041-.873-.039-1.311-.334-.476-.321-1.167-.4-1.591-.069-1.042.813-1.82.103-2.571-.366-.839-.524-1.432-1.341-1.844-2.26-.246-.549-.158-1.154.208-1.256.505-.141.894-.054,1.143.523.287.663.894,1.098,1.428,1.56.454.394.649.314.959-.268.6-1.125,1.186-1.236,2.117-.388.638.582,1.18,1.281,2.043,1.578.136.047.226.217.345.322.201.176.263.392.181.64-.093.283-.353.286-.585.314-.157.019-.318.004-.523.004h0Z" fill="#9e8f4f"/>
          <path d="m83.182,155.519c-1.143.072-1.985-.524-2.236-1.614-.072-.311-.142-.598-.317-.88-.261-.423-.227-.93-.143-1.395.127-.702.636-.865,1.16-.41.119.103.217.23.33.339.778.751.799.776,1.624.087.347-.29.569-.326.896-.01.376.363.757.701.764,1.28.002.157.011.333.082.465.208.384.501.736.113,1.183-.392.451-.748.935-1.442.914-.277-.009-.556.025-.834.04h0Z" fill="#9e8f4f"/>
          <path d="m184.375,163.936c.017-.295.103-.503.203-.725.287-.637.722-1.221.743-1.964.004-.141.101-.306.204-.413.686-.709,1.385-1.404,2.079-2.104.324-.327.666-.415,1.032-.071.336.315.499.61.286,1.138-.316.781-.865,1.399-1.302,2.084-.584.915-1.086,1.924-1.959,2.625-.215.173-.39.596-.772.368-.353-.21-.593-.531-.513-.936h0Z" fill="#9e8f4f"/>
          <path d="m217.458,131.121c.531-.027,1.119.066,1.705.393.857.479,1.161.805,1.078,1.48-.065.53-.829,1.346-1.425,1.423-1.367.176-2.55-.161-3.469-1.277-.388-.471-.335-.806.034-1.234.628-.729.722-.789,2.078-.785h0Z" fill="#9e8f4f"/>
          <path d="m153.687,154.585c.926-1.046,1.869-2.083,2.413-3.397.223-.539.637-.908,1.067-1.248.336-.266.743-.088.788.337.05.471.151,1.019-.029,1.416-.662,1.457-1.16,3.02-2.366,4.172-.029.028-.054.061-.086.082-.318.207-.562.658-1.024.443-.45-.21-.758-.568-.742-1.116.007-.239.003-.477.004-.716l-.025.028h0Z" fill="#9e8f4f"/>
          <path d="m123.495,163.277c-.05.48-.724.964-1.152.736-1.453-.775-3.029-1.322-4.358-2.321-.255-.192-.496-.377-.798-.497-.337-.134-.596-.404-.745-.729-.133-.292-.18-.648.047-.907.26-.295.547-.129.851.027,1.501.773,3.025,1.502,4.521,2.282.485.253.818.75,1.371.921.226.07.248.286.262.489h0Z" fill="#9e8f4f"/>
          <path d="m150.338,61.175c.013.731-.532,1.615-1.141,1.847-.661.252-1.153-.261-1.626-.524-.526-.293-.935-.846-1.309-1.35-.472-.637-.175-1.543.583-1.721,1.127-.264,2.184-.053,3.089.735.336.293.42.655.403,1.012Z" fill="#9e8f4f"/>
          <path d="m46.445,153.63c-.029.436.019.703-.246.83-.236.113-.465.062-.653-.127-.446-.449-.995-.837-1.316-1.363-.844-1.384-2.003-2.509-2.963-3.794-.024-.032-.048-.063-.073-.094-.238-.303-.623-.577-.326-1.027.194-.294.912-.276,1.292.095.896.875,1.86,1.67,2.517,2.799.406.698.855,1.407,1.378,2.044.206.251.411.488.39.637h0Z" fill="#9e8f4f"/>
          <path d="m159.939,79.795c0,.216-.005.375,0,.534.023.665-.24,1.209-.874,1.398-.559.166-1.158.219-1.674-.275-.528-.505-.492-1.141-.268-1.653.26-.593.456-1.155.472-1.804.011-.433.333-.725.707-.876.479-.194.8.202.969.51.372.682.833,1.367.668,2.165h0Z" fill="#9e8f4f"/>
          <path d="m70.443,165.06c-.017.36-.005.88-.075,1.388-.068.496-.476.691-.848.394-.425-.339-.937-.69-.974-1.287-.055-.87-.186-1.708-.475-2.533-.1-.284-.035-.629-.03-.946.005-.319.002-.665.402-.766.397-.1.787-.118,1.075.267.428.571.776,1.18.849,1.902.048.473.047.951.075,1.581h0Z" fill="#9e8f4f"/>
          <path d="m231.315,155.907c-.047-.692.274-1.043.73-1.229.472-.192.777.222.96.525.668,1.105,1.087,2.33,1.513,3.542.159.451-.234.753-.539.969-.339.24-.873.271-1.094-.064-.78-1.179-1.204-2.524-1.57-3.744h0Z" fill="#9e8f4f"/>
          <path d="m141.78,155.091c.403.052.61.38.783.666.179.296.392.641.448.945.169.923.776,1.735.66,2.726-.042.357.065.69.28,1.005.197.287.122.585-.103.87-.277.351-.531.474-.836.054-.37-.51-.697-1.069-.758-1.688-.102-1.031-.494-1.955-.868-2.895-.166-.417-.143-.855-.098-1.289.029-.282.211-.409.493-.394h0Z" fill="#9e8f4f"/>
          <path d="m198.72,158.174c.019-.223-.013-.489.249-.61.235-.108.464-.061.652.131.774.79,1.606,1.533,2.294,2.392.283.353.49.803.818,1.141.286.294.317.628.265.989-.062.43-.439.576-.694.368-1.436-1.168-2.864-2.36-3.564-4.163-.027-.071-.014-.157-.02-.247h0Z" fill="#9e8f4f"/>
          <path d="m39.032,151.732c.489-.102.793.306,1.191.462.923.363,1.775.856,2.421,1.643.417.507.31.966-.309,1.132-.222.06-.513.091-.704-.003-1.123-.557-2.366-.932-3.215-1.929-.179-.21-.598-.401-.374-.775.206-.343.513-.621.989-.531h0Z" fill="#9e8f4f"/>
          <path d="m74.234,164.379c0-.633-.011-1.265.005-1.897.007-.273.034-.569.375-.665.317-.089.536.083.717.303.779.951.954,2.063.677,3.21-.097.403-.315.789-.366,1.226-.045.388-.35.729-.66.736-.388.009-.712-.342-.733-.779-.033-.71-.009-1.422-.009-2.134h-.007,0Z" fill="#9e8f4f"/>
          <path d="m89.023,152.448c.101.763-.032,1.477-.442,2.144-.304.493-.56.535-1.016.152-.297-.249-.435-.55-.434-.928.003-.95.002-1.899.007-2.849.002-.33.117-.6.373-.834.492-.449.742-.402,1.086.155.417.675.49,1.398.426,2.16h0Z" fill="#9e8f4f"/>
          <path d="m60.825,156.448c-.007-1.256.572-2.34,1.034-3.454.171-.413.569-.37.926-.321.349.048.416.325.436.615.104,1.513-.521,2.826-1.178,4.116-.145.284-.439.603-.876.446-.393-.141-.313-.505-.338-.808-.016-.197-.003-.396-.003-.595h0Z" fill="#9e8f4f"/>
          <path d="m207.319,161.454c-.024.656-.302.85-.791.652-1.147-.465-1.941-1.298-2.456-2.409-.165-.356-.351-.706-.474-1.076-.174-.526.202-.843.571-1.052.396-.225.573.084.804.42.619.902,1.105,1.907,1.926,2.66.281.258.467.538.421.805h0Z" fill="#9e8f4f"/>
          <path d="m157.51,157.066c.025-.196-.033-.511.098-.656.955-1.063,1.461-2.547,2.916-3.142.536-.219.85.002.809.593-.013.192-.033.451-.155.558-1.025.892-1.464,2.258-2.546,3.102-.257.2-.462.461-.827.309-.328-.138-.261-.452-.295-.763h0Z" fill="#9e8f4f"/>
          <path d="m80.443,165.202c-.263.854-.318,2.051-1.309,2.898-.373.318-.518.156-.762-.092-.432-.439-.361-1.01-.22-1.459.202-.643.412-1.265.428-1.944.008-.309.259-.478.437-.685.275-.32.633-.29.988-.212.403.089.415.429.436.75.01.158.002.317.002.744h0Z" fill="#9e8f4f"/>
          <path d="m58.453,165.6c-.033.286.083.656-.277.83-.358.173-.623-.051-.806-.324-.745-1.109-1.378-2.286-1.783-3.557-.123-.386-.271-1.049.359-1.213.562-.147.809.392,1.029.809.439.833.838,1.687,1.282,2.516.16.299.175.604.196.937h0Z" fill="#9e8f4f"/>
          <path d="m255.48,161.721c-1.344-.026-2.786-1.47-2.695-2.665.015-.192.046-.403.138-.565.273-.478.615-.541,1.039-.147.721.668,1.424,1.357,2.094,2.076.184.197.59.4.362.773-.209.342-.519.606-.938.529h0Z" fill="#9e8f4f"/>
          <path d="m86.682,144.526c-.329.911-.334,2.136-1.318,2.985-.352.304-.518.171-.78-.07-.272-.249-.276-.552-.286-.87-.027-.891.425-1.656.692-2.463.101-.304.446-.549.722-.767.524-.413.886-.255.965.401.024.196.004.396.004.785h0Z" fill="#9e8f4f"/>
          <path d="m135.537,159.131c.011,1.129-.594,1.531-1.253,1.064-.96-.68-1.648-1.601-1.64-2.858.005-.773.761-1.2,1.283-.667.756.772,1.417,1.669,1.609,2.46h0Z" fill="#9e8f4f"/>
          <path d="m105.543,159.821c.301.023.541.107.749.433.452.712.496,1.563.888,2.296.232.434-.219.729-.512.969-.27.221-.594.177-.856-.093-.408-.422-.916-.776-.946-1.449-.012-.28-.139-.52-.255-.777-.324-.722.137-1.385.932-1.379h0Z" fill="#9e8f4f"/>
          <path d="m214.506,162.465c-.029.593-.321.797-.805.577-.641-.292-1.281-.598-1.878-.968-.593-.368-.809-1.048-1.084-1.644-.184-.398.209-.642.476-.864.276-.228.45.057.583.211.65.754,1.62,1.101,2.286,1.839.255.283.448.544.422.849h0Z" fill="#9e8f4f"/>
          <path d="m137.428,156.879c.027-.296-.107-.764.457-.861.467-.08.823.021,1.015.553.263.724.863,1.322.87,2.142.004.4.177.909-.425,1.086-.483.142-1.126-.07-1.251-.615-.175-.762-.692-1.415-.666-2.305h0Z" fill="#9e8f4f"/>
          <path d="m241.265,160.87c.045.732-.249,1.103-.719,1.289-.481.191-.86-.239-.939-.54-.208-.794-.74-1.499-.68-2.363.022-.311-.032-.674.363-.801.392-.126.785-.158,1.096.205.078.091.204.16.239.264.241.701.465,1.409.639,1.947h0Z" fill="#9e8f4f"/>
          <path d="m65.614,165.231c-.023.244.058.565-.244.722-.345.179-.588-.027-.834-.262-.801-.765-1.367-1.633-1.311-2.793.011-.233.015-.493.296-.595.244-.089.446-.023.658.138.676.514,1.439,1.956,1.435,2.791h0Z" fill="#9e8f4f"/>
          <path d="m116.404,152.792c-.016.346,0,.788-.065,1.217-.085.565-.49.689-.924.297-.171-.155-.378-.301-.427-.557-.126-.653-.101-1.32-.436-1.951-.204-.385.376-1.008.864-1.071.571-.073.857.155.926.782.043.394.04.794.062,1.282h0Z" fill="#9e8f4f"/>
          <path d="m250.389,148.511c.019-.272.012-.475.051-.668.084-.426.394-.509.716-.329.268.149.506.391.61.707.279.855.528,1.721.832,2.567.139.387-.162.498-.335.676-.193.198-.345.003-.497-.125-.897-.76-1.335-1.733-1.377-2.827h0Z" fill="#9e8f4f"/>
          <path d="m146.466,162.147c.035-.473.04-.994.124-1.502.053-.322.34-.638.617-.646.344-.009.663.292.725.667.143.87.097,1.747-.015,2.619-.04.309-.293.478-.498.648-.381.317-.8.173-.874-.311-.072-.47-.055-.953-.078-1.475Z" fill="#9e8f4f"/>
          <path d="m97.9,153.629c-.591-.002-1.029-.406-1.48-.676-.525-.314-.91-.862-1.361-1.304-.222-.217-.238-.494-.229-.771.018-.504.421-.758.796-.442.995.839,1.927,1.75,2.792,2.725.087.098.117.233.039.318-.143.157-.357.145-.557.15h0Z" fill="#9e8f4f"/>
          <path d="m119.235,153.993c.018-.3-.027-.676.077-1.004.131-.412.384-.828.908-.788.494.037.728.435.849.861.061.217.082.517-.022.696-.267.458-.339.954-.459,1.45-.074.303-.332.636-.626.621-.345-.017-.621-.326-.67-.713-.044-.352-.038-.71-.056-1.122h0Z" fill="#9e8f4f"/>
          <path d="m237.501,160.026c-.01.504.093,1.036-.428,1.402-.243.171-.356.215-.533-.089-.438-.755-.539-1.63-.918-2.408-.13-.267-.08-.625.101-.917.3-.485.573-.494,1.038-.134.729.563.788,1.329.74,2.146h0Z" fill="#9e8f4f"/>
          <path d="m131.682,160.595c.004.521-.297.76-.759.552-.907-.408-1.677-1-2.319-1.771-.228-.274-.285-.557-.259-.876.039-.489.422-.692.829-.403.351.249.653.57.964.871.338.327.612.733,1.089.883.376.118.444.41.455.743h0Z" fill="#9e8f4f"/>
          <path d="m177.095,158.953c-.295.596-.655,1.376-1.07,2.125-.12.215-.444.217-.639.052-.294-.248-.733-.538-.513-.964.243-.471.307-.968.469-1.445.123-.363.404-.677.827-.781.637-.156,1.001.157.926,1.014h0Z" fill="#9e8f4f"/>
          <path d="m11.748,156.021c.085.013.29-.018.391.07.773.673,1.795,1,2.474,1.806.205.243.325.492.146.747-.192.274-.489.206-.75.059-.954-.537-2.037-.875-2.747-1.792-.165-.213-.22-.429-.106-.66.1-.202.318-.209.592-.228h0Z" fill="#9e8f4f"/>
          <path d="m81.413,146.013c0,.157.015.317-.003.472-.038.335.054.75-.438.847-.436.086-.672-.258-.849-.526-.253-.383-.44-.831-.562-1.277-.18-.659.287-1.419.831-1.461.454-.035.927.477,1.001,1.118.031.272.005.55.005.826h.014,0Z" fill="#9e8f4f"/>
          <path d="m88.611,146.238c.164-.934.668-1.732,1.164-2.522.116-.185.469-.164.642.031.167.187.536.318.384.66-.317.713-.402,1.513-.826,2.183-.186.294-.394.713-.764.593-.349-.114-.669-.446-.6-.945h0Z" fill="#9e8f4f"/>
          <path d="m110.58,151.266c.21.002.36.108.524.236.613.481.937,1.166,1.292,1.82.245.452.006.756-.532.776-.862.033-1.207-.671-1.661-1.197-.145-.168-.173-.438-.255-.661-.166-.458.163-.964.632-.974h0Z" fill="#9e8f4f"/>
          <path d="m255.968,148.492c.445.292.902.64,1.068,1.182.138.45.232.901.449,1.335.195.389-.063.656-.525.7-.569.055-.935-.289-1.134-.712-.23-.488-.269-1.052-.54-1.551-.175-.322.335-.982.683-.954h0Z" fill="#9e8f4f"/>
          <path d="m29.238,156.492c-.015.825-.058.788-.809.548-.934-.297-1.142-1.124-1.513-1.827-.208-.394.163-.646.43-.873.333-.283.518.075.679.231.58.561,1.348,1.029,1.214,1.921Z" fill="#9e8f4f"/>
          <path d="m210.369,132.582c-.091-.006-.409-.014-.723-.053-.216-.027-.358-.166-.36-.398-.003-.213.073-.399.298-.456,1.097-.277,2.152-.814,3.337-.566.149.031.352.068.418.172.138.219-.097.356-.225.482-.484.479-1.513.802-2.744.818h0Z" fill="#9e8f4f"/>
          <path d="m152.183,161.898c-.31.621-.628,1.387-1.068,2.075-.196.307-.672.249-.988.046-.282-.181-.251-.511-.065-.74.277-.342.22-.753.333-1.126.199-.657.766-1.004,1.358-.873.261.057.436.183.43.617h0Z" fill="#9e8f4f"/>
          <path d="m260.009,157.925c-1.089-.023-1.671-.764-1.463-1.822.095-.486.457-.686.848-.399.406.299.755.68,1.109,1.044.244.25.543.521.323.92-.185.335-.547.233-.817.258h0Z" fill="#9e8f4f"/>
          <path d="m217.848,158.632c-.006.043-.008.205-.053.355-.049.168-.18.297-.346.149-.658-.587-1.55-.937-1.873-1.866-.171-.492.004-.773.528-.796.822-.036,1.764,1.067,1.743,2.158h0Z" fill="#9e8f4f"/>
          <path d="m131.722,151.223c-.03.235-.017.488-.099.704-.229.6-.698.687-1.175.247-.424-.391-.759-.826-.636-1.45.09-.46.358-.822.817-.914.525-.105.778.331.987.706.107.194.075.465.106.706h0Z" fill="#9e8f4f"/>
          <path d="m218.796,151.71c-.031.438.027.749-.302.877-.348.135-.812.183-.968-.146-.213-.45-.575-.839-.615-1.38-.04-.551.231-.91.649-1.164.251-.152.63-.128.677.205.089.63.415,1.171.56,1.609h0Z" fill="#9e8f4f"/>
          <path d="m245.148,161.314c-.03.3.07.667-.329.809-.311.111-.502-.104-.729-.279-.655-.501-.99-1.122-.851-1.957.072-.433.447-.664.759-.405.572.474,1.223.935,1.15,1.832h0Z" fill="#9e8f4f"/>
          <path d="m227.399,155.114c.212-.02.373.07.535.203.432.354.804.761,1.161,1.187.17.203.232.417.136.658-.108.271-.367.276-.602.283-.757.023-1.747-1.092-1.646-1.844.045-.335.156-.465.416-.487Z" fill="#9e8f4f"/>
          <path d="m216.414,144.563c-.061-.521.131-.932.534-1.249.383-.301.839-.373,1.193-.064.322.281.265.748.06,1.1-.153.264-.423.463-.65.681-.226.217-.449.482-.817.343-.391-.148-.284-.515-.32-.81h0Z" fill="#9e8f4f"/>
          <path d="m275.736,155.162c-.013.352-.02.575-.17.789-.337.48-.672.527-.999.038-.256-.383-.462-.817-.602-1.257-.165-.517.238-.837.61-1.025.403-.204.657.077.75.488.086.379.542.62.41.967h0Z" fill="#9e8f4f"/>
          <path d="m92.85,159.38c-.003.163-.046.309-.166.428-.417.415-.831.834-1.25,1.248-.187.184-.416.222-.654.127-.272-.109-.266-.367-.268-.599-.006-.761,1.063-1.759,1.8-1.692.306.028.539.129.537.49h0Z" fill="#9e8f4f"/>
          <path d="m127.364,161.393c-.059.268-.04.56-.246.665-.097.049-.32-.224-.492-.234-.808-.043-1.385-.465-1.898-1.037-.215-.24-.278-.493-.092-.741.162-.216.424-.185.646-.077.558.272,1.096.586,1.666.83.314.135.394.346.416.592h0Z" fill="#9e8f4f"/>
          <path d="m220.219,150.645c.006-.059.006-.221.043-.374.065-.269.198-.466.479-.203.433.405.867.812,1.262,1.253.223.249.195.596.13.913-.073.357-.338.425-.638.34-.6-.17-1.283-1.168-1.276-1.93h0Z" fill="#9e8f4f"/>
          <path d="m83.312,165.575c.089.591-.187,1.015-.647,1.312-.25.162-.587.158-.696-.178-.162-.497-.214-1.046.086-1.499.179-.271.426-.625.864-.516.486.122.352.55.393.88h0Z" fill="#9e8f4f"/>
          <path d="m85.753,160.278c-.34.016-.58-.342-.401-.668.283-.515.749-.898,1.001-1.46.151-.338.625-.262.98-.157.056.017.117.111.125.176.072.545-1.179,2.084-1.705,2.108Z" fill="#9e8f4f"/>
          <path d="m134.999,152.112c-.408-.025-.904-.608-.85-1.001.051-.373.564-.833.906-.812.399.025.904.616.855,1-.048.372-.565.833-.911.813Z" fill="#9e8f4f"/>
          <path d="m90.49,153.681c-.013-.798.145-1.025.687-1.035.475-.008.733.194.744.698.012.597-.421,1.206-.903,1.179-.585-.032-.484-.511-.528-.843h0Z" fill="#9e8f4f"/>
          <path d="m279.597,155.179c-.035.305.037.72-.473.767-.478.044-.959-.536-.962-1.121-.003-.466.168-.748.685-.735.593.015.776.263.75,1.089h0Z" fill="#9e8f4f"/>
          <path d="m212.099,157.024c.438-.006,1.422,1.008,1.381,1.426-.016.166-.085.305-.257.354-.31.089-.695.165-.89-.085-.279-.357-.468-.8-.621-1.233-.087-.247.089-.447.387-.463h0Z" fill="#9e8f4f"/>
          <path d="m77.111,147.309c-.022.064-.03.261-.132.347-.21.176-.352-.043-.483-.173-.393-.391-.794-.778-1.157-1.195-.162-.186-.179-.461.012-.654.191-.194.435-.148.656-.02.51.295,1.095,1.149,1.105,1.696Z" fill="#9e8f4f"/>
          <path d="m161.574,159.821c-.311-.007-.672-.041-.616-.491.057-.467.377-.786.837-.877.346-.069.485.177.51.502.045.582-.164.844-.731.866h0Z" fill="#9e8f4f"/>
          <path d="m124.446,154.128c-.052.426-.455.747-.587,1.196-.022.074-.208.037-.3-.051-.226-.216-.503-.422-.417-.783.094-.397.341-.712.738-.831.312-.093.525.064.566.47h0Z" fill="#9e8f4f"/>
          <path d="m261.445,150.213c-.068.308.099.784-.305.797-.307.01-.614-.32-.668-.715-.021-.154-.018-.315,0-.471.029-.254.135-.452.434-.462.283-.009.44.139.489.405.029.154.036.312.05.445h0Z" fill="#9e8f4f"/>
          <path d="m93.324,148.87c-.031.414-.559.907-.941.873-.293-.025-.402-.216-.389-.479.02-.416.553-.904.934-.871.293.025.394.21.395.477h0Z" fill="#9e8f4f"/>
          <path d="m155.743,165.076c-.455-.053-.557-.25-.529-.514.043-.395.338-.655.667-.708.237-.038.482.245.53.527.044.261-.536.709-.667.695h0Z" fill="#9e8f4f"/>
          <path d="m218.812,145.211c.038-.217-.007-.599.292-.513.304.087.603.368.592.784-.007.285-.17.433-.445.417-.449-.026-.414-.381-.439-.688h0Z" fill="#9e8f4f"/>
          <path d="m184.778,160.34c-.016.313-.193.431-.463.421-.282-.01-.42-.172-.403-.451.017-.28.179-.415.457-.407.296.008.402.19.409.438Z" fill="#9e8f4f"/>
          <path d="m109.182,163.04c-.047.173.02.414-.244.467-.197.039-.662-.455-.566-.624.11-.192.314-.454.487-.461.406-.018.27.373.324.619h0Z" fill="#9e8f4f"/>
          <path d="m235.627,162.757c.295.023.401.209.389.474-.013.285-.185.412-.461.389-.281-.023-.406-.19-.393-.467.014-.299.203-.391.466-.396h0Z" fill="#9e8f4f"/>
          <path d="m248.933,160.32c-.03.151-.079.38-.253.294-.302-.149-.617-.347-.629-.757-.004-.152.002-.329.2-.357.248-.035.664.479.681.82h0Z" fill="#9e8f4f"/>
          <path d="m36.386,92.846c0-1.645.013-2.799-.005-3.952-.01-.663.178-1.214.598-1.747.508-.645.903-1.374,1.515-1.946.448-.419.947-.654,1.505-.38.536.264.712.769.716,1.39.004.52-.357.879-.418,1.342-.107.818-.172,1.625-.431,2.435-.188.589-.217,1.335.184,1.962.203.317.148.694.157,1.048.03,1.153.045,2.307.076,3.46.011.431-.01.854.241,1.265.235.385.22.859-.01,1.256-.169.292-.194.594-.258.904-.132.643-.522,1.021-1.073,1.098-.729.102-1.029-.054-1.428-.71-.473-.778-.674-1.643-.952-2.499-.587-1.802-.279-3.617-.417-4.926h0Z" fill="#9e8f4f"/>
          <path d="m53.166,118.786c0,.357.019.717-.005,1.073-.049.731-.444,1.188-1.033,1.231-.622.045-1.158-.302-1.304-.979-.412-1.905-1.294-3.625-2.254-5.268-1.124-1.924-1.975-4.005-3.325-5.797-.047-.063-.1-.125-.133-.195-.22-.473-.148-1.399.12-1.586.344-.239,1.004-.094,1.492.393.834.832,1.724,1.588,2.648,2.324,1.434,1.144,2.384,2.657,2.899,4.458.41,1.431.976,2.817.895,4.345h0Z" fill="#9e8f4f"/>
          <path d="m55.833,134.48c-.387-.04-.598-.105-.783-.288-.917-.91-1.916-1.716-2.524-2.932-.429-.859-.352-1.685-.299-2.538.029-.468.408-.765.851-.878.426-.109.662.265.858.529.253.341.512.751.557,1.155.092.821.6,1.347,1.089,1.914.465.54.816,1.147,1.028,1.831.074.238.378.409.102.735-.284.334-.589.514-.879.472h0Z" fill="#9e8f4f"/>
          <path d="m105.417,104.345c-.331-.036-.704.007-.983-.285-.955-1-2.327-1.525-3.144-2.663-.831-1.157-1.939-2.004-2.975-2.94-.587-.53-.767-1.2-.505-1.562.21-.292,1.165-.385,1.697-.09,1.028.571,2.032,1.188,2.917,1.97.414.365.763.806,1.191,1.152,1.133.915,1.922,2.058,2.455,3.407.307.776.19,1.009-.654,1.011h0Z" fill="#9e8f4f"/>
        </g>
      </g>
    </g>
  </g>
</svg>