<?xml version="1.0" encoding="UTF-8"?>
<svg id="b" data-name="Layer 2" xmlns="http://www.w3.org/2000/svg" width="252.578" height="341.434" viewBox="0 0 252.578 341.434">
  <g id="c" data-name="Layer 1">
    <g>
      <path d="m252.341,173.691c.003-4.395.08-8.793-.468-13.17-.242-1.927.356-3.796.402-5.7.059-2.409.148-4.824.044-7.229-.112-2.599.571-5.148.078-7.796-.578-3.107-2.039-5.124-5.032-6.291-4.216-1.643-8.642-1.839-13.036-2.289-2.369-.243-4.785.196-7.146-.478-1.049-.299-2.338.381-3.234-.388s-.295-2.17-.875-3.158c-.072-.142-.114-.296-.125-.455-.528-4.229-1.359-8.414-2.488-12.524-1.212-4.588-3.237-8.778-6.685-12.171-2.282-2.246-4.626-4.416-7.02-6.546-4.85-4.319-8.76-9.486-12.755-14.577-4.663-5.932-8.765-12.284-12.253-18.976-.954-1.831-1.94-3.647-2.993-5.424-2.219-3.674-4.244-7.461-6.066-11.347-.46-1.003-.929-1.992-.927-3.158.004-3.269.083-6.523-.345-9.803-.379-2.817-1.182-5.56-2.381-8.136-.955-2.091-2.407-3.98-3.18-6.123-1.119-3.103-2.222-6.247-2.723-9.539-.369-2.441-1.384-4.739-2.94-6.655-.844-1.089-2.139-1.733-3.517-1.749-1.593-.057-3.185.157-4.707.631-1.992.59-3.478,1.961-3.818,4.139-.38,2.437-.769,4.892-.527,7.373.226,2.317-.622,4.371-1.486,6.422-.339.806-.827,1.547-1.188,2.345-.951,2.103-1.787,4.218-1.628,6.622.125,1.891-.998,3.109-2.594,3.928-.967.555-2.059.857-3.174.877-1.134-.016-2.221.458-2.982,1.299-.565.571-1.107,1.169-1.707,1.7-1.667,1.474-2.02,3.539-2.523,5.53-.172.563.06,1.171.564,1.476.551.372,1.281.337,1.795-.084.502-.402.961-.856,1.368-1.354,1.167-1.395,2.741-2.154,4.335-2.909.942-.487,2.074-.421,2.952.173.202.125.436.168.447.463.011.309-.205.381-.44.457-1.578.512-3.182.935-4.704,1.629-2.456,1.117-3.233,3.429-2.967,5.949-.01.332.235.616.565.655.316.062.644-.022.891-.229.414-.336.389-.842.556-1.282.493-1.296,1.234-2.445,2.624-2.932,1.479-.52,2.905-1.24,4.513-1.328-.168.676-.764,1.012-1.223,1.417-2.628,2.315-3.199,5.592-4.034,8.706-.391,1.456.303,2.086,1.877,1.93,1.328-.132,2.628-.517,3.947-.753.898-.161,1.808-.259,2.712-.386.175.943.152,1.912-.066,2.846-.71,2.508-.205,4.869.736,7.183.209.513.623.942.202,1.564-1.095-1.539-2.035-3.16-3.666-4.246-2.899-1.931-5.983-3.263-9.505-3.351-.725-.018-1.17-.352-1.661-.794-3.42-3.081-7.873-3.328-11.799-.744-.935.616-1.743,1.321-1.947,2.295-.346,1.655-1.354,2.608-2.683,3.402-.476.284-.929.609-1.386.923-3.579,2.466-4.672,6.531-2.857,10.409.791,1.691,1.7,3.375,3.267,4.347,2.145,1.331,1.58,3.191,1.418,5.028-.077.469-.214.925-.407,1.359-.751,2.047-.748,4.064.399,6.115-.851-.027-1.696-.149-2.52-.364-2.921-.803-5.576-2.236-8.38-3.308-2.365-.904-4.623-2.083-6.988-2.985-2.521-.88-4.419-2.985-5.036-5.583-.602-2.205-1.083-4.441-1.441-6.699-.453-2.961-.801-5.94-1.398-8.881-.116-.387-.12-.798-.012-1.187.742-1.704.301-3.48.405-5.219.08-1.223-.478-2.4-1.475-3.112-.451-.3-.841-.682-1.149-1.127-1.626-2.65-3.429-5.16-5.733-7.297-.712-.661-1.583-1.068-2.263-1.756-2.264-2.292-5.027-3.873-7.835-5.38-2.52-1.353-5.227-2.288-7.818-3.478-5.566-2.558-11.495-3.392-17.501-3.886-1.666-.137-3.318.176-4.98.36-2.449.272-4.809.904-7.22,1.311-3.46.584-6.661,1.978-9.867,3.291-3.259,1.301-6.269,3.152-8.899,5.474-2.649,2.325-5.097,4.87-7.318,7.608-2.494,3.095-4.601,6.483-6.273,10.088-1.091,2.387-2.049,4.884-2.249,7.443-.339,4.35-.501,8.735,1.313,12.951,1.227,2.941,3.019,5.612,5.275,7.862.97.907,1.778,1.972,2.391,3.15.357.71.667,1.446,1.044,2.146,3.201,5.938,8.355,9.153,14.774,10.655,3.486.816,7.007.393,10.514.462.32.01.64-.021.952-.094,3.749-.926,7.535-1.694,11.105-3.267,4.748-2.092,9.224-4.583,13.275-7.868,1.66-1.346,3.058-2.979,4.825-4.188-.859,2.356-1.681,4.727-2.602,7.059-.226.595-.32,1.233-.277,1.868-.011.588.424,1.09,1.008,1.162.493.11.997-.139,1.209-.598.485-.908.904-1.85,1.253-2.818,1.787-5.262,4.128-10.32,6.983-15.088,1.461-2.468,3.106-4.791,4.738-7.139,1.855-2.666,3.721-5.344,5.151-8.285.168-.346.397-.734.876-.701.41.056.75.345.871.741.587,1.437.599,2.954.503,4.473-.028.439-.415.637-.711.908-1.781,1.632-2.333,3.851-1.957,6.02.471,2.723.888,5.451,1.305,8.183.253,1.876.65,3.729,1.188,5.544.795,2.513,2.789,3.994,5.059,5.134,3.059,1.537,6.123,3.066,9.176,4.614,4.894,2.484,9.901,4.762,14.62,7.581,1.29.77,2.668,1.4,3.828,2.395,1.895,1.626,2.745,3.87,3.697,6.057,1.175,2.696,1.229,5.705,2.338,8.429.195.478.279,1.221-.234,1.58-1.052.736-1.096,1.881-1.387,2.932-1.952,7.073-1.837,9.754-1.658,15.896.097,3.32,1.537,6.297,3.235,9.079.541.887.734,1.471.17,2.341-1.546,2.388-2.197,5.272-4.154,7.45-.393.436-.586,1.097-.755,1.729-.384,1.444-.847,2.867-1.387,4.261-.324.833-.592,1.637-.527,2.54.094,1.263-.125,2.535.418,3.783.27.623.073,1.198-.7,1.765-2.385,1.747-4.511,3.818-6.615,5.909-4.854,4.827-8.067,10.636-10.156,17.056-1.796,5.521-2.369,11.285-2.696,17.064-.073,1.042-.076,2.088-.009,3.131.086,1.11-.378,1.795-1.287,2.355-2.374,1.461-4.544,3.139-6.277,5.391-1.015,1.319-2.089,2.613-3.199,3.871-1.711,1.941-3.693,2.647-6.191,2.338-1.372-.169-1.83-.447-2.191-1.748-.191-.688-.106-1.4-.306-2.115-.563-2.014-1.657-3.743-2.562-5.588-1.473-3.003-3.695-5.279-6.151-7.411-.272-.298-.649-.48-1.052-.508-.391.004-.84-.085-1.041.361-.152.335.103.598.323.833.821.876,1.667,1.728,2.457,2.63,1.636,1.87,2.517,4.217,3.877,6.262.58.846,1.029,1.776,1.33,2.757.601,2.067.501,4.29,1.753,6.617-1.599-.961-2.79-1.596-3.782-2.546-2.583-2.399-4.98-4.991-7.168-7.755-1.798-2.342-4.152-3.902-6.754-5.106-1.851-.855-3.772-.884-5.794-.242-2.322.737-4.342,2.019-6.192,3.432-2.973,2.271-5.702,4.871-8.453,7.419-2.227,2.064-4.014,4.533-5.985,6.833-3.614,4.245-6.567,9.01-8.76,14.135-.847,1.949-1.428,4.015-2.113,6.033-.099.302-.145.618-.137.935.023.952.577,1.247,1.578,1.019.897-.205,1.715-.553,2.178-1.331.665-1.117,1.642-1.955,2.415-2.967,2.605-3.414,5.629-6.144,9.933-7.383,4.495-1.295,8.549-.308,12.21,2.114,2.371,1.568,4.302,3.806,6.403,5.775.659.617.589.937-.194,1.494-.904.643-1.834,1.25-2.736,1.895-3.217,2.299-3.924,6.016-5.279,9.368-.025.077-.036.157-.034.238.005.408.222.783.574.99.405.303.753.15,1.06-.152.628-.621,1.237-1.262,1.864-1.884,2.551-2.522,5.487-4.623,8.697-6.222,1.366-.626,2.775-1.153,4.217-1.575.425-.14,1.045-.269,1.343.177.315.472-.224.892-.43,1.278-.41.766-1.016,1.425-1.451,2.18-.512.89-.927,1.839-.886,2.906.009.499.36.927.849,1.032.451.118.742-.266.94-.604.321-.548.534-1.16.864-1.701,1.49-2.437,2.825-4.993,5.479-6.469,1.328-.708,2.715-1.297,4.146-1.761,2.463-.85,4.979-1.542,7.385-2.57,1.834-.784,2.65-2.313,2.961-4.06.233-1.313.584-2.616.609-3.996.031-1.109.318-2.196.838-3.176,1.784-3.399,4.216-6.416,7.158-8.882.719-.606,1.482-1.202,2.261-1.751.547-.386,1.093-.101,1.168.561.027.238-.018.489.031.721.247,1.187-.168,1.961-1.337,2.366-1.746.604-2.831,2.055-4.039,3.317-.671.701-.869,1.629-.942,2.635-.159,2.21.564,4.275,1.174,6.279.748,2.458-.134,4.425-1.217,6.315-1.159,2.023-3.11,2.961-5.52,3.205-2.917.293-5.754,1.031-8.204,2.818-1.278.933-2.644,1.752-3.912,2.698-1.164.868-2,2.057-2.794,3.258-.299.487-.33,1.093-.084,1.609.281.717,1.125.91,1.496.278,1.751-2.979,4.795-4.333,7.532-6.054,2.261-1.422,4.851-1.846,7.458-2.194,1.084-.145,2.266-.277,3.186-.799,3.138-1.779,4.734-4.54,4.896-8.194.077-2.465-.325-4.921-1.185-7.232-.308-.875-.597-1.827-.044-2.514.941-1.168,1.917-2.36,3.323-3.074.488-.249.674-.206.799.317.073.304.312.58.338.88.287,3.156.946,6.253,1.506,9.363.721,4.283,1.89,8.479,3.485,12.518,1.222,2.998,2.433,5.998,3.426,9.091.611,1.902,1.179,3.909,1.055,5.767-.249,3.386-.917,6.728-1.989,9.949-1.39,4.258-1.641,8.697-2.045,13.093-.156,1.683.274,3.469.677,5.15,1.032,4.29,2.271,8.538,2.976,12.894.302,1.827.305,3.692.007,5.52-.508,2.943-1.393,5.82-2.106,8.729-.372,1.315-.372,2.707,0,4.021.755,2.345,2.28,4.224,4.218,5.697.795.604,1.724,1.194,2.8,1.245,2.317.11,4.627.094,6.897-.506,1.828-.482,2.812-2.001,3.651-3.407.66-1.106-.627-2.182-1.084-3.256-.089-.211-.327-.354-.458-.554-1.47-2.172-2.793-4.439-3.959-6.788-.592-1.241-1.082-2.595-1.029-3.858.156-3.569-.699-7.087-.191-10.688.398-2.822.029-5.724.543-8.583.49-2.723.551-5.527,1.081-8.24,1.073-5.489,2.576-10.882,3.984-16.295.932-3.581,2.036-7.149,2.567-10.794.501-3.442,1.21-6.85,1.691-10.298.578-4.139,1.258-8.27,1.81-12.418.095-.713.338-.85.912-.473,2.095,1.376,3.697,3.297,5.516,4.979,2.825,2.6,5.068,5.77,6.58,9.299,1.134,2.625,1.845,5.23,1.476,8.191-.37,3.147-1.277,6.207-2.681,9.048-1.631,3.278-3.28,6.548-4.947,9.808-1.049,2.056-.925,3.888.583,5.753,1.108,1.37,2.405,2.58,3.429,3.994,1.951,2.695,3.696,5.54,5.63,8.249,2.177,3.039,3.892,6.384,5.088,9.925.932,2.762,1.574,5.622,2.5,8.386.85,2.54,2.304,4.775,4.782,5.964,2.743,1.316,4.367,3.537,5.197,6.243.703,2.291,2.232,3.304,4.244,4.055,1.879.702,3.806.353,5.705.352,2.443-.002,4.227-1.133,5.211-3.478.277-.659.363-1.133-.017-1.761-.821-1.358-1.559-2.766-2.347-4.146-1.508-2.704-3.186-5.309-5.024-7.8-4.541-6.024-9.137-12.008-13.079-18.452-1.534-2.508-2.854-5.167-3.539-8.03-.381-1.592-.909-3.252-.589-4.941.619-3.422,1.676-6.749,3.145-9.9,1.813-3.815,4.113-7.345,6.292-10.939,2.768-4.564,5.321-9.196,6.609-14.417.358-1.45.787-2.899.791-4.421.004-1.285-.306-2.698.125-3.823.526-1.372-.263-2.471-.147-3.721.218-2.325-.477-4.551-1.147-6.75-.575-1.888-1.15-3.781-1.856-5.622-.546-1.516-.638-3.159-.263-4.727.54-2.562,1.51-5.014,2.868-7.252.545-.892,1.109-1.792,2.111-2.49,4.102-2.86,8.21-5.751,11.386-9.721,1.096-1.37,2.384-2.593,3.42-4.004,4.995-6.799,9.55-13.872,12.614-21.78.935-2.413,1.835-4.855,2.278-7.459.521-3.059,1.403-6.019,4.36-7.797.572-.343,1.057-.775,1.813-.913,0,.496-.009.814,0,1.132.076,2.244-.405,4.412-.813,6.598-.291,1.552-.693,3.16-.544,4.695.124,1.817.577,3.596,1.335,5.251.717,1.46.512,2.429-.811,3.264-1.046.66-1.802,1.578-2.677,2.388-1.378,1.278-1.599,2.795-1.041,4.584.562,1.812,1.235,3.587,2.015,5.316,1.056,2.332,2.412,4.509,4.346,6.218,1.94,1.715,4.15,2.914,6.858,2.831,1.94-.06,2.771-.767,3.499-2.601.244-.67.38-1.375.403-2.089.399-5.53-.427-10.99-1.101-16.44-.187-1.501-.175-3.015-.431-4.497-.433-2.499-.873-4.997-.882-7.54-.016-4.82.035-9.64-.019-14.46-.03-1.196.291-2.375.924-3.39,1.261-2.065,2.539-4.068,5.159-4.614.378-.128.737-.303,1.07-.523,3.039-1.556,6.259-2.692,9.43-3.928,1.265-.477,2.605-.729,3.957-.746,1.546-.031,2.571.727,2.963,1.967.926,2.93,1.733,5.913,2.006,8.995.363,4.111-.374,8.052-1.742,11.934-1.26,3.575-1.683,7.224-.414,10.947.606,1.778.143,3.14-1.451,4.15-1.981,1.254-2.722,3.012-2.687,5.237.013.883.037,1.768.002,2.65-.055,1.403.416,2.676,1.046,3.863.708,1.332,1.508,2.613,2.393,3.834,1.576,2.177,3.566,3.827,6.228,4.564,2.05.568,3.213.156,4.131-1.695,1.029-2.075,1.752-4.255,1.689-6.609-.066-2.466-.022-4.918-.347-7.397-.305-2.331-.089-4.744.247-7.147.38-2.681.143-5.45.145-8.182ZM8.973,61.822c-.868,2.157-1.157,4.415-1.634,6.644-.779,3.635-.452,7.319-.458,10.988,0,.307.121.645-.218.991-1.859-2.512-2.906-5.335-3.627-8.321-1.175-4.869.184-9.396,1.818-13.882,1.375-3.775,3.705-6.962,6.193-10.078,1.557-1.95,3.338-3.657,5.047-5.447,3.26-3.416,7.339-5.558,11.601-7.367,2.61-1.107,5.28-2.107,8.077-2.674,2.388-.537,4.802-.952,7.232-1.243.94-.094,1.909-.526,2.799-.384,3.735.595,7.516.657,11.226,1.712,5.292,1.504,10.256,3.697,15.19,6.029.337.116.558.441.54.798-1.884-.639-3.694-1.376-5.569-1.86-3.433-.915-6.92-1.613-10.441-2.089-3.092-.355-6.206-.48-9.316-.374-9.609.195-18.361,2.913-26.084,8.828-3.751,2.875-6.562,6.456-8.91,10.464-1.332,2.333-2.49,4.762-3.466,7.266Zm44.572,30.15c-3.042,1.891-6.318,3.295-9.664,4.542-5.126,1.912-10.426,2.971-15.883,2.307s-10.202-2.94-13.766-7.292c-.527-.643-.941-1.378-1.649-2.432,1.899.884,3.842,1.672,5.82,2.361,3.163,1.026,6.455,1.597,9.779,1.695,1.445.045,2.892-.015,4.337.024,5.362.144,10.568-.82,15.726-2.151,3.992-.998,7.857-2.445,11.523-4.313.329-.202.705-.314,1.091-.324-2.067,2.346-4.698,3.957-7.313,5.583Zm17.947-18.475c-3.906,4.631-8.801,8.074-14.09,10.917-3.91,2.101-8.167,3.367-12.499,4.329-2.307.512-4.634.932-6.958,1.36-.555.08-1.115.11-1.675.09-2.892.011-5.785.067-8.675,0-5.962-.137-11.275-2.269-16.238-5.428-1.346-.856-1.203-2.346-1.515-3.601-.6-2.415-.606-4.904-.493-7.374.201-4.369.89-8.663,2.761-12.654,1.447-3.086,2.85-6.187,5-8.922,2.482-3.23,5.506-6.006,8.937-8.203,4.268-2.687,8.938-4.291,13.849-5.393,4.452-.963,9.026-1.231,13.56-.796,6.297.548,12.503,1.817,18.367,4.353.869.376,1.739.753,2.598,1.15.131.06.208.237.363.424-2.207-.259-4.353-.714-6.501-.723-5.835-.051-11.532,1.768-16.258,5.19-2.428,1.724-4.618,3.653-5.946,6.422-1.208,2.521-.776,4.775.842,6.915.144.19.341.34.504.517,1.122,1.217,1.153,1.241.238,2.56-1.469,2.073-2.488,4.43-2.993,6.921-.544,2.75-.065,5.221,2.05,7.216,1.621,1.529,3.656,2.016,5.742,1.768,3.462-.386,6.834-1.353,9.974-2.861,3.588-1.752,6.998-3.797,9.803-6.702.591-.642,1.323-1.139,2.137-1.453-.445,1.694-1.838,2.739-2.883,3.978h0Zm4.449-26.409c-4.667.926-9.073,1.539-13.055,3.6-2.613,1.35-5.051,3.015-7.258,4.96-1.612,1.42-3.364,2.664-4.598,4.486-.488.72-1.17.603-1.748-.1-1.517-1.845-1.519-3.866.111-5.741,2.264-2.688,5.137-4.796,8.38-6.148,1.464-.596,2.848-1.417,4.411-1.729,4.509-.902,8.989-.874,13.757.672h0Zm-7.386,23.572c-2.77,2.388-5.948,4.257-9.381,5.52-2.209.844-4.5,1.456-6.836,1.826-1.401.198-3.122-.118-4.157-1.326-.991-1.157-1.59-2.65-1.19-4.232.692-2.525,1.713-4.948,3.038-7.206.219-.337.506-.624.844-.842.512-.368.877.171,1.308.296,3.436.981,7.045,1.207,10.577.661,2.575-.394,5.121-.96,7.62-1.696,2.192-.612,4.251-1.7,6.374-2.561.645-.262,1.185-.811,1.953-.743-3.179,3.638-6.478,7.168-10.15,10.304h0Zm13.346-19.582c-.682,1.595-1.487,3.143-1.791,4.876-.112.639-.623.831-1.132,1.107-4.336,2.357-8.935,3.981-13.706,5.215-2.173.561-4.393.536-6.578.819-1.749.226-3.59-.329-5.344-.836-.674-.195-.779-.52-.335-.979,1.73-1.783,3.402-3.627,5.327-5.211,4.417-3.635,9.744-5.135,15.182-6.19,1.596-.31,3.263-.742,4.98-.57.942-.113,1.844.137,2.777.385.941.25.909.708.619,1.384h0Zm1.693,6.314c-.354.046-.556-.228-.745-.46-.237-.309-.297-.719-.159-1.083.062-.211.148-.201.337-.077.495.327.499.935.825,1.353-.088.095-.163.253-.257.266h0Zm-32.181,165.351c.727-.323,1.436-.685,2.124-1.085,2.047-1.205,4.004-.733,5.822.428,2.307,1.474,4.175,3.44,5.88,5.58,2.082,2.615,4.115,5.275,6.944,7.201,2.208,1.502,4.376,2.953,7.295,2.519-2.057,1.369-3.98,2.787-6.172,3.748-1.627.714-1.959.673-3.097-.63-.357-.425-.672-.884-.94-1.37-.797-1.485-2.022-2.696-3.515-3.477-1.444-.719-2.282-1.956-3.107-3.214-.694-1.06-1.309-2.174-1.905-3.293-1.062-1.992-2.7-3.221-4.783-4.047-1.408-.559-2.899-.774-4.295-1.321-.388-.152-1.053.268-1.146-.359-.049-.343.524-.512.897-.68Zm-15.337,13.575c2.949-2.942,5.837-5.949,8.865-8.807,1.541-1.455,3.323-2.063,5.654-1.507,2.345.561,4.52,1.293,6.52,2.601.607.38,1.095.922,1.412,1.565.598,1.202,1.362,2.321,1.975,3.517.874,1.624,2.144,3.001,3.692,4.002,1.075.692,2.006,1.585,2.741,2.632.628.955,1.475,1.668,2.16,2.538,1.209,1.538,2.758,1.484,4.313.873,1.242-.488,2.52-.984,3.502-1.986.597-.646,1.416-1.044,2.293-1.113-.9,2.892-3.126,4.549-5.709,5.653-1.04.444-2.063,1.129-3.361,1.083-3.374-.119-5.904-1.629-7.793-4.344-1.448-2.081-2.905-4.155-4.323-6.257-.41-.58-.917-1.085-1.5-1.492-1.549-1.153-3.304-1.925-5.032-2.709-2.437-1.108-4.95-.659-7.432.069-3.022.886-5.611,2.498-7.955,4.557-.239.189-.491.362-.753.519-.065-.623.339-1.003.733-1.395h-.001Zm20.955,22.632c-.948,1.625-2.803,2.083-4.064,3.304,1.077-1.458,2.048-3.051,4.059-3.31.842-1.516,2.2-1.985,3.826-1.917-1.109.925-2.416,1.583-3.82,1.923h-.001Zm37.547-28.929c-4.258,2.774-7.258,6.633-9.58,11.069-.635,1.196-.989,2.52-1.037,3.873-.04,1.187-.221,2.365-.536,3.51-.255,1.114-1.06,2.022-2.137,2.407-5.002,1.797-9.966,3.785-15.448,3.245-1.652-.163-3.282-.496-4.951-.613-.96-.067-1.93-.705-2.716-1.412-1.661-1.496-3.376-2.937-4.961-4.509-1.992-1.966-4.562-3.243-7.332-3.644-1.091-.182-2.147-.494-3.283-.501-5.183-.031-9.633,1.683-13.325,5.352-.834.829-1.534,1.814-2.594,2.403.947-3.301,2.984-6.184,5.778-8.181,2.12-1.541,4.157-3.207,6.117-4.945,2.089-1.852,4.585-2.875,7.186-3.54,1.66-.425,3.481-.452,5.105.59.818.493,1.676.918,2.564,1.268,1.113.476,2.065,1.262,2.743,2.265,1.073,1.57,2.307,3.026,3.224,4.713,1.667,3.059,4.1,5.224,7.565,6.095,2.129.535,4.222.678,6.293-.261,1.367-.619,2.747-1.153,4.032-1.993,2.302-1.506,3.643-3.71,4.985-5.97.768-1.295,1.596-2.555,2.408-3.823.122-.209.285-.391.479-.536,2.768-1.85,4.241-4.903,6.616-7.118.544-.508.708-1.218.927-1.902.646-2.018,2.134-3.303,3.876-4.352.616-.372.869-.113.883.53.004.161,0,.321.006.482.117,3.517.128,3.534-2.886,5.499h-.001Zm50.442-189.75c.051.054,0,.307-.084.37-.616.468-1.26.887-2.075.9.249-.883,1.175-.925,1.763-1.384.067-.053.309.025.395.114Zm-2.206-4.293c-2.035-1.206-4.134-.697-6.229-.213-.098.369-.362.672-.714.82-.19.112-.448.14-.565-.106-.031-.062.158-.235.253-.352.259-.284.643-.42,1.023-.364.117-.577.649-.973,1.235-.919,1.999.088,3.692-.79,5.39-1.655.279-.142.583-.43.828-.15.178.204.171.589.199.898.062.681-.351,1.212-.645,1.764-.089.273-.382.423-.656.334-.043-.014-.084-.033-.122-.058h.002Zm4.419,33.531c.108-.315.226-.652.541-.741.482-.136.388.382.489.597.918,1.947,2.299,3.571,3.741,5.34-2.196.468-4.096,1.531-6.289,1.575-.894.045-1.743-.392-2.226-1.146-.528-.733-.466-1.107.363-1.528,1.731-.878,2.766-2.314,3.38-4.098Zm2.974,85.61c.214.333.507.732.942.59.516-.2,1.007-.457,1.465-.768,1.476-.896,1.51-.897,3.108.546-.615.436-1.192.906-1.826,1.278-.648.382-.572.956-.403,1.467.24.724.933.52,1.439.419.463-.121.896-.334,1.276-.625,1.454-1.014,1.434-1.015,2.641.041.361.258.744.484,1.144.676-1.576.87-2.621,1.692-3.972,2.057-2.019.545-3.755.392-5.252-1.2-.695-.738-1.314-1.603-2.586-1.472-.64.066-.904-.528-.953-1.151-.095-1.187.204-2.409-.267-3.559-.118-.208-.072-.471.11-.626,1.883-1.715,1.105-3.791.773-5.792-.154-.931-.501-1.836-.598-2.77-.061-1.032-.069-2.067-.024-3.1,2.125,3.644,2.217,8.251,5.65,11.438-.863.596-1.675,1.139-2.463,1.715-.285.166-.381.531-.215.816.004.006.008.013.011.019h0Zm-.387-15.629c-.998-3.597-1.832-6.872-2.832-10.096-.468-1.51-.315-2.799.558-4.056.046-.065.127-.112.156-.182,1.378-3.481,3.717-6.394,5.627-9.562.452-.748.796-1.571.645-2.492-.239-1.456.327-2.823.49-4.233.149-1.287,1.312-1.913,2.24-2.642.069-.054.321.027.405.12.099.119.135.278.097.428-.965,1.598-.041,3.092.304,4.577.608,2.615,1.465,5.165,1.254,7.924-.072.944-.308,1.868-.695,2.731-1.001,2.293-2.591,4.188-4.198,6.021-1.706,1.946-2.354,4.223-2.84,6.635-.307,1.53-.37,3.126-1.211,4.827Zm-4.24,7.828c.085.297.137.602.156.91-1.129-1.216-1.465-2.868-2.041-4.408-.888-2.382-2.089-4.617-3.16-6.897-.893-1.898-2.423-3.5-3.698-5.213-.884-1.121-1.647-2.331-2.278-3.611-.234-.503-.359-1.049-.365-1.604-.016-.641.129-.929.891-1.072,2.168-.408,2.494-.96,2.16-2.997-.121-.73.825-2.074,1.722-2.224.791-.144,1.601-.146,2.393-.007.82.162,1.33.774,1.467,1.68.235,1.559.45,3.126.828,4.652.83,3.362,1.641,6.733,2.81,10.001.321.897.399,1.569-.651,2.179-.829.482-1.066,1.504-1.086,2.527-.042,2.079.059,4.123.851,6.084Zm-20.138-4.166c-.121-5.974,2.096-11.098,5.404-15.873.422-.61.779-.416.942.192.689,2.591,2.228,4.66,3.993,6.595.251.27.357.645.283,1.006-.077.175-.168.343-.273.502-2.151,2.936-3.579,6.34-5.961,9.132-1.178,1.382-2.362,2.77-3.261,4.372-.337.601-.64.127-.879-.166-.094-.115-.205-.336-.156-.429.931-1.791-.057-3.559-.092-5.33h0Zm19.993-22.535c-.496-3.389-.609-6.642-1.878-9.656-.245-.581-.087-.878.298-1.22.686-.611.441-1.167-.214-1.528-2.582-1.416-3.384-4.081-4.595-6.457-.078-.221-.043-.466.094-.657.197-.204.386.056.547.197.059.053.115.111.166.173,1.54,1.808,3.123,3.52,5.385,4.52,1.014.449,1.614,1.519,1.897,2.644.211.839.293,1.715.551,2.536.419,1.354.444,2.8.072,4.168-.684,2.831-.553,2.863-2.322,5.279h0Zm-22.931-26.265c.281.089.628.409.478.708-.505,1.013-.336,2.12-.412,3.195l-.468-.072c0-1.091-.017-2.182.014-3.273.007-.214-.166-.733.387-.558h0Zm-1.024-3.71c-.492-.312.106-.637.229-.645,2.051-.135,4.053-.93,6.117-.631,1.066.154,2.125.536,2.897,1.468.712.86,1.579,1.59,2.33,2.422,2.018,2.234,4.357,3.375,7.399,2.307.148-.03.299-.036.449-.017-.425.655-.807,1.34-1.286,1.953-.895,1.143-2.477,1.487-3.766.819-3.271-1.569-6.522-3.18-9.822-4.686-1.682-.769-3.016-2.016-4.547-2.988h0Zm-2.487-10.045c-.105-.213-.169-.443-.187-.68-.013-2.784-.008-5.567-.008-8.421,1.177.479.863,1.59,1.34,2.307,1.044,1.58,1.593,3.435,1.577,5.328.041,2.158,1.528,3.779,3.408,4.87,1.789,1.039,3.625,1.845,5.784,1.983,2.01.078,3.896.988,5.208,2.512,1.191,1.372,2.362,2.826,4.001,3.761.444.253.294.885-.215,1.119-.657.317-1.415.353-2.1.099-1.345-.519-2.667-1.178-3.445-2.458-1.094-1.772-2.701-3.169-4.608-4.005-.884-.414-1.746-.729-2.739-.666-3.854.243-6.867-3.03-8.017-5.748h0Zm2.043,6.925c-.165.166-.396.249-.628.224-2.078-.237-2.549-.842-2.45-3.49.949,1.315,2.153,1.717,2.922,2.642.13.158.238.498.156.624h0Zm12.906-3.46c.158.347-.214.37-.382.285-1.157-.578-2.454-.53-3.674-.817-1.917-.449-1.941-.343-1.98-2.246-.066-.68-.115-.957.954-.822,1.26.159,2.611-.374,3.816-1.02.756-.405.894-.267.966.609.11,1.337-.297,2.706.3,4.014v-.002Zm-3.647-6.11c-.677.249-1.415.282-2.112.095-2.369-.658-4.279-1.89-5.385-4.226-.754-1.562-1.387-3.179-1.893-4.838-.648-2.175-.381-2.817,1.584-3.784,2.508-1.237,5.119-2.089,7.964-1.977,3.278.07,2.556-.369,3.333,2.691.551,1.977.826,4.02.817,6.072-.061,2.24-1.476,4.984-4.31,5.969l.002-.002Zm-5.352,2.334c-.037.069-.084.133-.139.189-.225-.211-.561-.384-.648-.642-.114-.338-.505-.608-.324-1.029.02-.047.125-.06.187-.088.367-.022.566.249.767.477.256.305.317.729.156,1.093Zm13.093-7.542c.018,2.737-.257,5.502,1.088,8.261-1.333-.444-1.847-1.414-1.926-2.229-.136-1.417-.791-2.731-.65-4.196.221-2.299-.475-4.538-.629-6.819-.031-.459-.062-.752.306-.961.665-.379.797.203.971.617.458,1.091.908,2.182.833,3.411-.039.636.005,1.277.008,1.916Zm-1.808,9.334c.191.121.372.256.542.405.521.523,1.223.717,1.845,1.06.98.567,2.187.571,3.171.011,1.34-.666,2.73-1.229,4.1-1.835.203-.135.472-.114.651.051.175.192.07.412.003.645-.758,2.635-1.528,5.268-2.216,7.923-.161.621-.196.619-.847.469-1.639-.322-3.123-1.184-4.214-2.448-.852-.954-1.761-1.855-2.722-2.698-.492-.45-1.273-.482-1.704-1.06.743-.604.856-1.463.975-2.329.012-.076.251-.12.417-.193Zm7.55,19.265c-.094.102-.249.278-.253.275-.381-.283-.733-.604-1.051-.957-.36-.459-1.388-1.005-.861-1.434.982-.801.66.863,1.333,1.055.465.155.792.573.832,1.061h0Zm7.726,10.599c.128,1.125-.235,2.251-.995,3.09.235-3.019-.414-5.415-1.269-7.809-.474-1.325-.902-2.506-2.276-3.123-.559-.203-.856-.812-.673-1.377.141-.566.665-.95,1.247-.915.63-.055,1.26.102,1.791.447,1.431.973,2.958,1.803,4.46,2.699-1.563,2.036-2.465,4.335-2.284,6.988h0Zm6.272-10.611c-.05,1.103-.365,1.309-1.498,1.4-.855.07-1.561-.265-2.259-.645-1.044-.568-2.192-1.032-3.069-1.801-1.496-1.312-3.14-1.375-4.825-.817-.717.237-.994.156-1.29-.428-.249-.494-.507-.985-.79-1.461-.125-.212-.732-.076-.458-.585.222-.419.474-.82.755-1.202.236-.317.402.02.579.128,1.34.822,2.587,1.811,4.14,2.267.388.114.748.279,1.149.192.5-.108.818-.6.711-1.101-.03-.138-.091-.268-.178-.379-1.055-1.319-2.485-2.287-4.102-2.774-.834-.266-1.042-.535-.761-1.314,1.104-3.036,2.04-6.131,2.806-9.27.164-.68.682-.644,1.106-.399.477.276.811.826,1.3,1.05,1.002.459,2.043.97,3.192.771,1.099-.19,1.516.27,1.768,1.295.49,1.991.86,4.003,1.278,6.007.322,1.786.476,3.599.458,5.414,0,1.405.041,2.531-.01,3.652h0Zm-3.198-30.179c.616,1.2,1.595,2.23,1.759,3.643-1.541-.762-1.617-2.218-1.758-3.644h0Zm.216,10.771c.132.334-.149.55-.53.598-1.129.132-2.255-.263-3.055-1.07-.867-.808-1.883-1.439-2.991-1.859-2.08-.779-3.823.144-5.58.982-1.014.484-.99.519-1.491-.513-.947-1.956-.744-3.996-.65-6.4.384.907.637,1.458.852,2.024,1.128,2.956,3.925,3.481,6.239,2.797,1.132-.335,2.263-.673,3.401-.987,1.2-.331,1.65-.249,2.185.741.612,1.196,1.153,2.427,1.62,3.687h0Zm-26.055-25.656l-7.857,1.554c1.968-2.395,4.151-2.822,7.858-1.556v.002Zm-12.594,17.879c-1.672-1.783-2.889-3.662-2.72-6.179.011-.883.324-1.735.888-2.415,1.139-1.337,2.499-2.469,4.021-3.346,2.94-1.565,6.164-2.523,9.482-2.817,1.021-.107,1.992-.421,3.04-.488,2.943-.187,5.708.543,8.34,1.618,2.3.94,4.181,2.497,5.274,4.934.789,1.756.459,3.2-.558,4.605-.347.48-.754,1.247-1.385,1.155-.75-.112-.61-1.044-.786-1.616-.365-1.191-.746-2.273-1.78-3.134-1.205-1.004-2.147-2.32-3.336-3.348-1.093-.945-2.527-1.231-3.917-1.602-4.734-1.264-8.831.45-12.752,2.734-1.971,1.147-2.93,3.19-3.072,5.403-.098,1.522-.813,2.916-.74,4.494v.002Zm-28.394-16.356c.079,3.578,1.289,6.712,1.095,10.024.016.473-.018.946-.103,1.412-.079.413-.456.701-.876.669-.663-.108-.297-.535-.218-.892.471-2.12.281-4.275.133-6.398-.131-1.201-.785-2.283-1.788-2.956l1.756-1.859Zm29.345,34.768c-.141.286-.26.584-.424.854-.278.456-.585.748-1.078.187-.331-.376-.727-.647-1.219-.178-.462.44-.606.933-.279,1.503.709,1.236,1.063,2.681,2.157,3.689.371.299.575.759.548,1.234-1.677-1.08-2.648-2.909-4.28-4.039-.255-.196-.488-.419-.694-.666-.405-.441-.871-.771-1.47-.482-.488.236-.479,1.322.083,1.923,1.528,1.633,3.195,3.138,4.471,4.995.119.173.361.293.17.657-1.304-.686-2.64-1.324-3.914-2.068-5.429-3.171-11.169-5.733-16.766-8.573-1.064-.54-2.101-1.141-3.19-1.623-2.549-1.126-3.852-3.125-4.246-5.811-.493-3.36-.966-6.724-1.517-10.074-.122-.742-.419-1.256.73-1.345.756-.058,1.489-.499,2.217-.806,1.169-.492,1.648-.381,1.77.779.243,2.322,1.177,4.418,1.893,6.587.229.695.33,1.27-.686,1.321-.232.046-.455.129-.661.246-.524.218-1.093.427-.9,1.172.126.569.633.971,1.216.966.481.031.963.024,1.444.051.324.018.642.071.689.491.164,1.492,1.437,1.111,1.999.805,1.064-.58,1.808-.15,2.683.23,4.575,1.984,9.134,4.006,13.751,5.888,1.468.631,3.07.884,4.661.735,1.111-.123,1.196.634.844,1.35h0Zm6.118,13.855c-1.4-2.763-2.719-5.564-4.32-8.227-.457-.76-1.411-1.247-1.468-2.114-.059-.906,1.165-1.227,1.406-2.124.111-.413.43-.771.858-1.498,0,1.158.07,1.953-.014,2.731-.2,1.85.434,3.438,1.363,4.972.218.361.369.702.85.684.662-.025.719-.488.733-1.001.006-.229.055-.649.119-.655.493-.051.262.384.338.609.523,1.62,1.777,2.9,3.386,3.455.309.137.671.019.842-.272.063-.223.012-.464-.136-.642-.763-.755-1.02-1.795-1.566-2.669-.233-.325-.402-.692-.499-1.08-.132-.777-.436-1.765.105-2.299.597-.589,1.213.388,1.861.561.228.06.432.203.657.281,1.21.415,1.812,1.152,1.59,2.522-.275,1.687.621,3.273.552,4.964-.023.511.369.945.879.975.657.023,1.01-.478,1.01-1.095,0-.871.176-1.766-.194-2.608-.402-.918-.244-1.852-.266-2.822,1.004.229,1.455.618,1.428,1.639-.031,1.255-.162,2.525.312,3.791.284.758.427,1.353,1.374,1.205.777-.214,1.234-1.018,1.019-1.795,0-.002,0-.003-.001-.005-.182-.609-.265-1.244-.246-1.879-.008-.327.065-.636.495-.669.317-.068.645.058.835.32.085.136.147.285.184.44.517,2.079,1.735,3.844,2.668,5.809-.258.055-.521.084-.785.088-3.158-.32-5.223,1.366-6.966,3.718-.756,1.021-1.639,1.951-2.453,2.924-.831.994-1.403,2.112-2.139,3.141-.152.173-.363.282-.592.305-.289.031-.36-.232-.395-.477-.411-2.894-1.338-5.674-1.882-8.533-.184-.931-.501-1.83-.941-2.67h0Zm.047,34.683c-.285-5.242-.395-10.457,1.621-15.468.273-.678.453-1.328,1.037-1.802.273-.286.49-.62.638-.986,2.259-4.023,5.074-7.708,8.36-10.946.274-.292.577-.555.904-.786,1.737-1.103,4.039-.589,5.142,1.147.145.228.265.471.357.725.253.725.711,1.448.551,2.289-.148.777.969,1.559.212,2.213-.588.509-1.533.135-2.319.175-1.029.052-2.105-.114-2.877.837-.084.104-.347.202-.428.15-1.216-.786-2.552.006-3.751-.295-.914-.229-1.185.191-1.411.793-.09.391-.117.793-.079,1.193-.011.464-.22.651-.694.771-1.698.429-2.099.688-1.611,2.169.717,2.169-.336,3.558-1.361,5.159-1.229,1.922-2.345,3.862-2.697,6.257-.317,2.147-1.13,4.237-1.595,6.404h0Zm-1.902,22.503c.196-.607.481-1.18.846-1.703,1.754-2.094,2.546-4.726,3.99-6.983,1.826-2.854,3.432-5.842,5.81-8.344,1.966-2.069,3.362-4.602,4.773-7.086.392-.69.682-1.455,1.528-1.874.394,1.182.897,2.325,1.501,3.414,2.093,4.182,3.542,8.607,4.838,13.085.075.31.11.628.105.947.011.482-.174.631-.72.623-1.475-.016-1.491.031-1.652,1.436-.024.394-.118.78-.278,1.14-.263.538-.87,1.05-.53,1.712.238.418.589.76,1.013.988.757.418,1.426-.025,2.278-1.372.07-.131.18-.237.314-.303.286-.096.421.111.508.345.027.074.02.16.042.236.066.226.138.451.211.676.699,2.184,2.111,3.339,4.477,2.99,1.085-.16,1.386.372,1.823,1.278.865,1.789.573,3.738,1.094,5.568.345,1.211-1.978,4.662-3.106,5.1-.737.287-1.832-.089-2.525-.902-2.12-2.482-4.316-4.891-6.356-7.447-2.521-3.158-4.778-2.885-7.278.386-1.446,1.891-2.712,3.936-4.458,5.599-1.96,1.87-3.227,1.785-4.392-.674-.754-1.592-1.927-2.877-2.693-4.432-.35-.71-.765-1.388-1.132-2.09-.366-.726-.377-1.579-.031-2.315h0Zm-1.473,5.295c1.259.822,1.812,2.175,2.659,3.257.739.943.553,1.492-.393,2.163-.744.528-1.822.244-1.856-.629-.062-1.572-.997-3.06-.411-4.79h0Zm129.838-15.971c-.367,3.287-.556,6.579-.23,9.797.397,3.925.336,7.827.284,11.733-.036,2.617-.218,5.265-.505,7.856-.495,4.474.226,8.892.11,13.337-.061,1.741-.385,3.462-.96,5.106-.472,1.405-.744,1.455-2.053.998-2.284-.797-3.572-2.687-4.801-4.505-1.374-2.032-2.377-4.26-2.307-6.889.046-1.715.662-3.043,1.983-3.866,2.777-1.728,2.673-4.241,2.218-6.925-.075-.307-.174-.608-.297-.899-.784-2.288-.451-4.493.327-6.731,1.247-3.585,1.952-7.309,2.502-11.056.281-1.925-.411-3.785-.558-5.689-.137-1.777-.961-3.491-1.245-5.271-.171-1.072-.687-1.939-1.058-2.892-1.128-2.894-3.866-3.692-6.675-3.117-3.044.623-5.887,1.797-8.731,2.968-2.276.935-4.483,2.033-6.712,3.079-.569.281-1.122.59-1.659.928-.509.307-.797,1.3-1.486.884-.541-.326-.184-1.197-.232-1.824-.296-3.851.552-7.564,1.26-11.311.406-2.3.426-4.652.059-6.958-.505-3.673-1.44-7.274-2.786-10.729-1.138-2.975-2.848-5.698-5.031-8.017-.325-.337-.698-.705-1.238-.315-.524.379-.72.885-.428,1.462.305.558.642,1.097,1.01,1.615,3.123,4.701,4.876,9.88,5.691,15.455.265,1.809.391,3.635.38,5.462.007.397-.041.793-.142,1.177-.057.196-.317.334-.485.499-.097-.101-.186-.21-.266-.326-.704-1.254-1.594-2.393-2.639-3.379-1.412-1.28-2.972-2.024-4.95-2.005-2.717.027-5.352.473-8.024.917-3.751.623-7.534,1.287-11.381,1.032-.241-.013-.482-.01-.723.01-.545.039-1.204-.06-1.24.764-.036.59.382,1.112.966,1.205,2.268.573,4.623.86,6.88.374,1.792-.386,3.621-.235,5.393-.771,1.575-.476,3.256-.586,4.877-.919,3.819-.783,7.391,1.081,8.83,4.79.552,1.48.922,3.021,1.101,4.59.913,7.117.117,14.245.383,21.359.04,1.065-.641,1.983-.439,3.048.592,3.128.334,6.324.785,9.482.277,1.943.631,3.919.648,5.923.019,2.134.571,4.232.781,6.35.361,3.647.884,7.298.596,10.981-.093.544-.231,1.078-.413,1.599-.337,1.334-.835,1.614-2.102,1.318-1.974-.415-3.73-1.533-4.941-3.146-2.063-2.723-3.624-5.792-4.609-9.063-.393-1.34-.043-2.184.952-2.813,1.042-.658,1.811-1.572,2.671-2.4,1.34-1.292,1.812-2.866.95-4.563-1.294-2.546-1.13-5.241-1.131-7.952,0-1.141.424-2.173.577-3.273.639-4.581.637-9.229-.007-13.81-.319-2.288-.721-4.561-1.59-6.664-1.388-3.363-3.73-4.555-7.281-3.547-2.455.697-4.705,1.87-7.055,2.807-3.157,1.261-6.128,2.987-9.477,3.765-1.823.423-3.616,1.211-5.531.35-.96-.431-1.796-.929-2.409-1.858-1.976-2.993-3.392-6.257-4.812-9.524-.348-.8-.69-1.605-1.089-2.38-.264-.519-.831-.81-1.407-.722-.553.038-.873.229-.935.842-.111,1.091.352,2.045.753,2.966,1.206,2.764,2.491,5.497,3.828,8.201.685,1.443,1.657,2.731,2.855,3.787,1.952,1.664,4.362,1.97,6.762,1.572,2.481-.411,4.968-.956,7.225-2.197.686-.378,1.392-.785,2.239-.651-.016.842-.535,1.456-.939,2.134-1.663,2.794-3.292,5.611-5.317,8.167-.326.353-.512.813-.523,1.293.004.557.249.832.754,1.07.443.209.732.172,1.03-.153.703-.766,1.485-1.477,2.083-2.319,2.165-3.039,4.076-6.25,5.716-9.601,1.366-2.806,3.614-4.023,6.29-4.91,8.225,5.818-.791,13.195-2.692,19.945-1.901,6.75-6.812,18.832-13.719,29.34-6.528,9.931-13.888,14.12-17.114,16.164s-11.002,1.902-23.461,11.86h0c-.509.38-1.01.773-1.504,1.18-.675.557-1.502.91-2.065,1.621-.3.379-.61.702-.636,1.243-.055,1.153.798,1.847,1.839,1.385.592-.245,1.133-.598,1.596-1.042,1.765-1.756,3.913-2.981,6.054-4.201,3.663-2.089,7.563-3.66,11.478-5.2,1.82-.717,3.609-1.508,5.653-2.367-.603,1.755-1.266,3.242-1.637,4.847-.789,3.262-.554,6.688.674,9.812,1.472,3.68,2.272,7.595,2.36,11.558.096,6.987-2.066,13.206-5.564,19.147-2.778,4.717-5.796,9.296-8.186,14.246-1.354,2.806-2.519,5.709-3.001,8.711-.56,3.24-.373,6.564.547,9.721,1.166,3.861,3.176,7.268,5.367,10.568,3.251,4.896,6.791,9.591,10.318,14.295,2.712,3.578,5.179,7.336,7.383,11.248.006.065.022.128.046.189.253.634-1.289,1.104-1.782,1.255-.966.287-1.975.399-2.98.328-1.528-.09-3.56-.524-4.668-1.732-.101-.236-.184-.479-.249-.726-.803-3.049-2.771-5.08-5.484-6.583-2.568-1.422-3.923-3.834-4.747-6.566-.728-2.414-1.403-4.845-2.131-7.259-1.253-4.154-3.533-7.762-5.899-11.353-2.161-3.335-4.562-6.509-7.184-9.495-2.161-2.427-2.291-2.863-.865-5.812,1.278-2.645,2.801-5.168,4.098-7.812,1.443-2.943,2.255-6.012,2.927-9.221,1.174-5.608-.77-10.334-3.481-14.885-2.439-4.095-5.943-7.277-9.639-10.237-.436-.351-.757-.915-1.242-1.129-2.74-1.211-2.329-3.512-1.922-5.698.148-.777.232-1.566.252-2.357.075-3.585.748-7.09,1.61-10.537.569-2.422,1.844-4.621,3.664-6.318,1.758-1.625,3.405-3.367,5.501-4.576.521-.301.729-.814.994-1.309.209-.391.303-.705-.014-1.077-.291-.405-.811-.575-1.285-.42-.451.163-.878.384-1.272.658-2.624,1.688-4.997,3.739-7.048,6.09-1.562,1.839-2.512,4.065-3.11,6.372-.854,3.294-1.176,6.687-1.635,10.059-.353,2.597-.103,5.217-.715,7.81-.429,1.815-.291,3.78-.55,5.681-.405,2.975-.969,5.93-1.312,8.901-.301,2.602-1.016,5.123-1.199,7.744-.12,1.718-.603,3.414-.966,5.111-1.419,6.63-3.4,13.119-4.988,19.705-.799,3.138-1.393,6.324-1.778,9.539-.347,3.233-.648,6.473-1.022,9.695-.403,3.33-.484,6.692-.242,10.038.201,2.585.125,5.216.777,7.791.619,2.447,1.859,4.535,3.142,6.63.691,1.128,1.426,2.23,2.12,3.356-1.34,1.546-3.803,1.991-5.726,1.758-2.062-.252-3.95-1.285-5.273-2.886-.369-.741-.61-1.54-.712-2.362-.109-.873.34-1.826.581-2.732,1.063-3.997,1.87-7.999,1.746-12.197-.1-3.38-1-6.56-1.733-9.793-.47-2.072-1.24-4.087-1.58-6.176-.281-1.724-.156-3.519-.163-5.282-.012-3.515.768-6.902,1.619-10.291.67-2.672,1.324-5.348,1.885-8.053,1.091-5.254-.797-9.827-2.505-14.492-.979-2.673-2.282-5.235-3.138-7.942-1.016-3.073-1.763-6.228-2.234-9.429-.449-3.357-1.265-6.665-1.723-10.022-.257-1.88-.47-3.788-.729-5.661-.64-4.639-.359-9.269-.35-13.901.006-2.93.451-5.836.826-8.748.221-2.043.575-4.07,1.06-6.067,1.468-5.558,3.547-10.832,7.242-15.345,1.157-1.413,2.168-2.96,3.426-4.271,1.434-1.494,3.052-2.813,4.621-4.172.961-.832,2.12-1.189,3.326-.699,1.365.555,2.455.433,3.406-.761.499-.625,1.072-.459,1.683-.028,1.483,1.041,2.86.827,4.394-.149,2.035-1.294,3.141-3.346,4.668-5.053.21-.235.35-.532.557-.771.696-.803.867-.779,1.728-.015.832.751,1.501,1.663,1.968,2.681.885,1.899,2.459,3.138,3.887,4.517.681.713,1.679,1.028,2.646.835,1.208-.241,2.453-.237,3.659.014,2.033.346,3.625-.542,4.716-2.192.899-1.36,2.13-2.518,2.265-4.374.068-.942.241-1.797,0-2.771-.376-1.53-.125-3.167-.671-4.698-.147-.297-.026-.657.271-.804.081-.04.171-.062.262-.063,1.571-.156,2.833-.955,4.053-1.883.41-.243.841-.45,1.286-.62,1.762-.91,1.979-2.608.472-3.99-.599-.522-1.236-.998-1.906-1.426-2.485-1.673-4.184-4.131-6.251-6.222-.754-.733-1.163-1.75-1.126-2.8.041-2.008-.094-4.029.094-6.021.17-1.796.753-3.55,1.016-5.342.463-3.14,2.199-5.459,4.26-7.776,2.581-2.902,4.251-6.356,3.799-10.443-.171-1.248-.418-2.484-.738-3.702-.343-1.456-.811-2.886-1.1-4.352-.125-.711-.101-1.44.071-2.141.763-3.203,1.13-6.465.767-9.713-.464-4.146-.845-8.325-2.162-12.339-.712-2.17-1.261-4.393-1.883-6.592-.064-.226-.235-.503-.161-.669.132-.291.352-.532.629-.69.331-.171.554.033.679.405.353,1.047.73,2.087,1.13,3.117.16.451.388.874.675,1.257.264.326.499.935,1.086.638.445-.242.65-.771.484-1.249-1.122-4.551-2.505-8.99-5.21-12.912-.831-1.205-1.913-2.146-2.915-3.176-.522-.482-.88-1.115-1.024-1.811-.675-3.317-1.571-6.589-2.272-9.901-.26-1.23-.039-2.541-.549-3.758-.448-1.067-.588-1.168-1.722-.803-.446.144-.945.103-1.327.481-1.363,1.347-3.247,1.091-4.902,1.533-.436.116-.844-.144-.623-.674.883-2.129,1.664-4.335,3.681-5.736.098-.068.257-.049.387-.07.022.149.115.343.055.44-.374.609-.779,1.199-1.185,1.789-.278.405-.168.724.156,1.048.434.433.817.357,1.25-.008,1.784-1.501,3.026-3.165,2.839-5.74-.173-2.379-.638-4.707-.865-7.066-.283-2.928-.826-5.838-.691-8.803.041-.907.493-1.665.725-2.499.187-.61.462-1.19.815-1.722,1.893-3,2.783-6.235,2.394-9.788-.006-.419.014-.838.062-1.255.507,1.372.89,2.44,1.298,3.498.257.666.731,1.064,1.484.92.686-.132,1.126-.854.932-1.702-.266-1.392-.613-2.768-1.04-4.12-.692-1.928.309-3.562.434-5.331.002-.473.387-.856.861-.854.037,0,.073.003.11.008.317-.004.631-.056.932-.156,1.476-.37,2.126-.078,3.044,1.056,1.772,2.189,2.106,4.904,2.868,7.465.742,2.492,1.295,5.056,2.24,7.467.777,1.982,2.002,3.788,3.036,5.668,1.247,2.269,1.559,4.795,1.927,7.289.162,1.095.2,2.189.491,3.285.676,2.543.664,2.576-.142,5.805-.115.515-.074,1.052.117,1.544.367,1.295.849,2.554,1.442,3.761,2.922,6.099,6.369,11.91,9.599,17.842,1.937,3.557,3.952,7.064,5.995,10.558,1.729,2.957,3.828,5.651,5.906,8.357,1.889,2.46,3.83,4.903,5.892,7.194,2.281,2.532,4.315,5.297,7.096,7.432,2.402,1.865,4.673,3.894,6.796,6.072,2.571,2.61,4.302,5.661,5.564,9.043,1.193,3.197,1.764,6.543,2.381,9.876.374,2.018.696,4.045.966,6.081.107.808.742,1.78-.696,2.289-.571.202-.269,1.337.319,1.762.712.515,1.508.485,2.305.476,2.622.002,5.235.295,7.792.872,1.004.212,2.083.113,3.126.087,3.998-.101,7.897.623,11.775,1.446,3.367.714,4.794,2.449,4.818,5.796.029,3.855.287,7.746-.139,11.557h0Z" fill="#9e8f4f"/>
      <path d="m167.758,64.761c-2.085-2.016-3.443-4.555-4.968-6.968s-2.93-4.899-4.502-7.278c-1.13-1.71-1.23-1.681.475-2.66.989-.568,1.59-1.292,1.484-2.492-.05-.559.114-1.178-.073-1.675-.674-1.79-.385-3.634-.453-5.458-.115-2.153.371-4.296,1.403-6.189.255-.462.665-.932.538-1.542.059-.715-.257-1.025-.973-1.03-.871-.006-1.174.558-1.582,1.209-2.525,4.026-2.055,8.414-1.532,12.768.239,1.995.187,2.307-1.725,2.398-.321.015-.645-.016-.963.018-1.175.125-1.749.883-1.397,1.983.236.589.542,1.149.909,1.666,1.451,2.363,2.879,4.742,4.382,7.071,1.935,2.996,3.909,5.968,5.92,8.916.593.866,1.428,1.539,2.4,1.933.532.221,1.135.392,1.582.008.541-.468.125-.989-.125-1.498-.195-.437-.467-.837-.801-1.179Z" fill="#9e8f4f"/>
      <path d="m195.297,114.651c-1.882-4.287-4.801-7.609-9.469-9.049-1.431-.441-2.841-.95-4.262-1.425s-2.832-.979-4.271-1.39c-.412-.118-1.02-.147-1.16.502-.117.542-.221,1.116.483,1.422,1.089.472,2.102,1.089,3.239,1.485,2.156.75,4.374,1.295,6.459,2.297,1.704.819,3.144,1.845,4.216,3.361,1.943,2.749,3.137,5.838,3.852,9.105.211.966.507,1.812,1.202,2.533.474.491.793.295,1.173-.086.42-.421.673-.891.635-1.163,0-.433-.035-.866-.107-1.293-.636-2.108-1.11-4.293-1.99-6.299Z" fill="#9e8f4f"/>
      <path d="m147.824,25.763c-.247.461-.127.935-.159,1.401-.116.878.069,1.769.526,2.527.591,1.041,1.641,1.049,2.289.061.841-1.31.741-3.013-.247-4.216-.835-1.052-1.774-.953-2.408.227Z" fill="#9e8f4f"/>
      <path d="m130.732,63.82c-.698.346-1.539.262-2.154.868-.755.743-.784,1.247.02,1.935.777.663,1.536.532,2.406.149.764-.337.937-.981,1.185-1.582-.042-.55-1.056-1.568-1.456-1.37Z" fill="#9e8f4f"/>
      <path d="m127.433,70.999c.015-.403-.453-.919-1.643-1.562-.405-.218-.771-.604-1.263-.16-.467.341-.613.973-.344,1.485.182.433.412.844.686,1.226.461.575,1.146.534,1.75.343.445-.14.793-.519.815-1.332Z" fill="#9e8f4f"/>
      <path d="m129.506,73.203c-.935-.438-2.385-.046-2.899.806-.271.449.046.734.323,1.016.219.229.54.33.851.265.486.025.973.022,1.459-.009.577-.048,1.034-.505,1.083-1.081.088-.628-.378-.791-.815-.997Z" fill="#9e8f4f"/>
      <path d="m124.391,67.267c-.108-.211-.274-.388-.478-.509-.255-.105-.52-.182-.792-.228-.353.012-.705.054-1.052.125-.447.136-.779,1.055-.604,1.544.239.688.991,1.052,1.679.813.079-.027.155-.062.227-.104.717-.346,1.263-1.201,1.019-1.64Z" fill="#9e8f4f"/>
    </g>
  </g>
</svg>