<?xml version="1.0" encoding="UTF-8"?>
<svg id="b" data-name="Layer 2" xmlns="http://www.w3.org/2000/svg" width="111.656" height="331.116" viewBox="0 0 111.656 331.116">
  <g id="c" data-name="Layer 1">
    <g>
      <path d="m111.021,56.032c-.351-3.007-1.105-5.953-2.24-8.759-.59-1.395-1.645-2.696-3.335-2.977-1.747-.291-3.176.613-4.159,2.41-1.268,2.346-1.933,4.97-1.936,7.637-.042,4.571.228,9.143.272,13.716.019,2.024-.298,4.051-.282,6.076.032,3.504-.717,6.97-2.193,10.148-.516,1.124-.896,2.436-2.312,3.068-.207-1.181-.53-2.245-.561-3.319-.205-7.245-.372-14.491-.501-21.738-.094-5.855-.015-11.714-.174-17.567-.086-1.893-.419-3.766-.99-5.573-.641-2.146-1.43-4.269-3.438-5.67-1.816-1.265-3.626-1.223-5.252.242-1.455,1.346-2.477,3.095-2.936,5.023-.988,3.76-1.481,7.634-1.467,11.522,0,6.607.448,13.215.433,19.821-.026,11.066-.361,22.13-.392,33.196-.03,10.385.182,20.77.253,31.155.069,10.045.542,20.086-.243,30.135-.289,3.711-.501,7.391-1.693,10.934-1.648,4.898-3.941,9.427-7.881,12.92-1.925,1.707-3.93,3.324-6.11,5.159-.324-.843-.59-1.262-.638-1.705-.386-3.653-.901-7.303-1.047-10.967-.198-4.958-.173-9.929-.121-14.893.287-27.059-.393-54.124.49-81.182.242-7.402.121-14.812-.278-22.235-.548-10.194-.422-20.426-.577-30.641-.065-4.328-.108-8.656-.169-12.984,0-.466-.031-.932-.092-1.395-.43-3.001-.778-6.017-1.347-8.992-.375-1.962-.764-4.029-1.696-5.753-1.793-3.319-4.991-4.032-7.422-.536-.801,1.177-1.42,2.468-1.839,3.828-.866,2.758-1.602,5.562-2.272,8.375-.296,1.484-.515,2.982-.655,4.489-.288,2.21-.734,4.417-.793,6.634-.115,4.325-.01,8.656.008,12.985,0,.38.013.764.048,1.144.264,2.944.743,5.885.765,8.83.082,10.863.013,21.726,0,32.59,0,.253,0,.51-.018.764-.269,3.919-.699,7.836-.777,11.758-.141,7.084-.07,14.173-.098,21.26-.003.768-.08,1.536-.122,2.303-.427-.347-.752-.803-.941-1.319-.905-2.606-1.953-5.179-2.623-7.846-.816-3.251-1.331-6.58-1.925-9.885-.275-1.533-.397-3.093-.642-4.632-.412-2.579-1.009-5.138-1.267-7.731-.334-3.363-.564-6.751-.565-10.128,0-5.589.264-11.177.334-16.767.105-8.359.166-16.719.183-25.079.004-2.735.199-5.482-.548-8.199-.457-1.661-1.166-3.061-2.53-4.07-.907-.67-1.853-.945-3.04-.342-1.354.688-1.933,1.885-2.644,3.06-1.951,3.224-1.924,6.924-2.476,10.466-.28,2.267-.427,4.549-.44,6.834-.272,7.459-.406,14.915.261,22.37.32,3.575.37,7.174.581,10.76.141,2.4.351,4.795.529,7.192.343,4.635.672,9.271,1.035,13.905.165,2.105.335,4.214.618,6.305.445,3.289.925,6.574,1.51,9.839.415,2.487.968,4.948,1.656,7.374.797,2.686,1.784,5.324,2.832,7.924,2.13,5.282,4.926,10.157,9.253,13.977.886.728,1.383,1.827,1.343,2.974-.004,1.252.015,2.505-.02,3.756-.097,3.511-.208,7.022-.333,10.532-.023.665-.38.878-1.028.672-.956-.304-1.922-.575-2.888-.848-3.302-.961-6.341-2.66-8.889-4.97-3.669-3.235-6.854-6.855-9.154-11.204-1.396-2.64-2.592-5.355-3.036-8.343-.197-1.33-.425-2.657-.59-3.989-.452-3.639-.928-7.276-1.296-10.924-.259-2.562-.361-5.14-.531-7.711-.191-2.91-.365-5.819-.576-8.724-.132-1.808-.315-3.613-.482-5.418-.319-3.451-.75-6.896-.94-10.354-.276-5.031-.388-10.072-.557-15.108-.223-6.645-.44-13.289-.649-19.934.005-.212-.012-.424-.049-.633-.823-3.427-1.495-6.9-2.536-10.26-.739-2.384-1.918-4.628-3.927-6.325-1.61-1.358-4.757-1.416-5.648.974-.653,1.721-1.118,3.508-1.385,5.33-.337,2.424-.405,4.887-.536,7.337-.22,4.14-.561,8.28-.567,12.422-.012,7.454-.415,14.913.38,22.363.358,3.359.337,6.758.506,10.138.148,3.001.32,6.001.474,9.001.19,3.718.36,7.437.563,11.154.196,3.587.393,7.175.649,10.759.114,1.555.309,3.103.582,4.638.38,2.156.843,4.298,1.307,6.438.714,3.277,1.275,6.603,2.238,9.807,1.564,5.206,4.2,9.965,7.155,14.475,2.279,3.348,4.792,6.53,7.522,9.522,3.067,3.478,6.22,6.91,10.131,9.511,3.622,2.455,7.796,3.972,12.149,4.415,1.968.197,2.024.185,2.064,2.175.129,6.354.243,12.708.427,19.06.12,4.143.37,8.282.523,12.423.066,1.78.016,3.565.051,5.347.312,16.108-.503,32.22.441,48.326.402,6.85.403,13.724.585,20.587.049,1.866.039,3.736.151,5.599.248,4.09.657,8.17.81,12.262.142,3.771-.158,7.566.105,11.325.172,2.456-.762,3.987-2.657,5.209-.186.1-.357.224-.51.369-.902,1.022-1.962,1.956-2.636,3.113-.819,1.406-.059,2.501,1.546,2.569.295.013.595-.042.889-.02,3.655.27,6.794-1.757,10.265-2.304,1.652-.26,3.305-.522,4.945-.847,1.007-.199,1.982-.555,2.985-.774.592-.17,1.21-.225,1.822-.162,1.612.295,2.485-.264,2.664-1.924.074-.718.091-1.441.049-2.162-.14-2.617-.353-5.229-.468-7.848-.208-4.734-.375-9.47-.542-14.206-.208-5.926-.389-11.853-.6-17.779-.113-3.171-.22-6.344-.405-9.511-.299-5.109-.667-10.213-.99-15.32-.195-3.078-.391-6.156-.534-9.24-.215-4.652-.46-9.305-.555-13.96-.127-6.152-.084-12.307-.191-18.459-.026-1.457.14-2.584,1.819-2.889.228-.042.426-.263.629-.414,1.81-1.344,3.693-2.603,5.411-4.057,3.281-2.776,6.62-5.512,9.656-8.542,4.358-4.315,7.724-9.527,9.867-15.273,1.078-2.77,1.968-5.61,2.663-8.5.615-2.737.81-5.573,1.109-8.375.358-3.36.748-6.724.911-10.097.281-5.795.512-11.596.548-17.398.029-4.866-.235-9.735-.405-14.602-.113-3.254-.317-6.504-.426-9.758-.099-2.926-.166-5.854-.146-8.781.068-.604.338-1.167.768-1.596,2.777-2.974,5.747-5.777,8.382-8.872,4.647-5.458,6.295-12.139,6.547-19.066.271-7.437.684-14.898-.315-22.344Zm-65.671,79.022c.122.394-.033.904-.217,1.749-.553-.465-1.05-.992-1.483-1.57-.37-.132-2.757-4.326-3.636-6.114-1.039-1.988-1.974-4.029-2.801-6.114-.641-1.687-1.131-3.432-1.66-5.159-.334-.99-.608-1.999-.821-3.021-.581-3.271-1.174-6.544-1.619-9.835-.44-3.253-.713-6.528-1.045-9.796-.46-4.534-.914-9.068-1.359-13.603-.008-.084-.018-.169-.023-.253-.204-3.5-.355-7.005-.622-10.5-.781-10.2-.616-20.416-.429-30.626.118-3.583.492-7.154,1.119-10.684.257-1.58.728-3.278,2.197-4.748.438.773.897,1.307,1.054,1.922.33,1.132.523,2.3.574,3.478.048,5.133.041,10.266-.021,15.399-.132,11.441-.36,22.881-.43,34.322,0,3.17.211,6.337.628,9.48.439,3.458,1.206,6.876,1.797,10.318.249,1.448.374,2.918.629,4.366.38,2.151.827,4.287,1.239,6.431.817,2.573,1.776,5.098,2.872,7.564,1.023,2.087,2.288,4.751,3.081,5.976.949,1.463,1.704,10.619.976,11.018h0Zm18.9,186.221c.035,1.025-.104,1.683-1.398,1.679-.853-.003-1.7.435-2.565.584-1.028.212-2.073.331-3.123.354-1.841-.024-2.079-.35-2.18-2.151-.182-3.247-.355-6.5-.608-9.744-.273-3.494-.647-6.98-.952-10.472-.184-2.104-.326-4.211-.477-6.318-.197-2.736-.387-5.473-.57-8.21-.175-2.657-.348-5.313-.495-7.97-.199-3.59-.468-7.18-.536-10.773-.164-8.602-.268-17.204-.312-25.807-.017-3.296.304-6.595.275-9.89-.084-9.834-.225-19.667-.422-29.501-.099-5.376-.288-10.753-.487-16.125-.051-1.385-.374-2.761-.413-4.145-.014-.703.176-1.395.548-1.992,1.331-1.865,2.002-4.12,1.906-6.409-.07-1.93-.239-3.855-.506-5.767-.136-1.015-1.069-1.727-2.084-1.592-.85.122-1.503,1.016-1.513,2.185-.016,1.696.071,3.396.008,5.09-.054.838-.216,1.666-.482,2.463-.504,1.279-1.829,2.036-3.187,1.819-1.881-.419-3.747-.905-5.628-1.329-2.5-.586-4.828-1.749-6.798-3.397-5.532-4.44-10.384-9.667-14.4-15.514-2.586-3.907-4.837-8.026-6.727-12.313-1.392-3.103-2.172-6.52-2.915-9.865-.745-3.357-1.025-6.815-1.654-10.202-.594-3.416-.916-6.873-.963-10.34-.103-4.016-.304-8.03-.47-12.044-.193-4.695-.185-9.41-.633-14.081-1.048-10.911-1.09-21.835-.744-32.767.179-5.666.603-11.324.956-16.983.079-.712.252-1.41.516-2.076.241-.696.985-.74,1.44.032.97,1.511,1.794,3.11,2.463,4.776,1,2.81,1.233,5.81,1.781,8.732.805,4.295.766,8.592.896,12.9.188,6.264.285,12.531.492,18.794.12,3.634.278,7.274.609,10.894.288,3.144.843,6.264,1.279,9.395.012.084.016.169.02.253.201,3.544.408,7.088.599,10.633.214,3.971.299,7.952.658,11.909.232,2.547,1.012,5.041,1.273,7.586.434,4.205,2.103,7.933,4.16,11.501,3.18,5.494,7.493,10.249,12.65,13.95,2.422,1.752,5.208,2.935,8.15,3.461,1.645.301,3.257.751,4.899,1.061,1.895.357,2.778-.382,2.85-2.311.127-3.424.358-6.848.345-10.271-.087-22.096-.304-44.195-.321-66.292-.009-11.615.377-23.23.427-34.845.02-4.649-.375-9.3-.601-13.948-.097-1.984-.422-3.974-.327-5.946.182-3.913.464-7.83.928-11.718.366-2.877.907-5.729,1.621-8.539.416-1.687,1.205-3.292,1.91-4.897.173-.395.703-.923,1.017-.89.472.144.851.499,1.026.961.631,1.638,1.12,3.328,1.462,5.05.346,2.425.567,4.866.66,7.313.241,4.609.425,9.221.578,13.834.173,5.208.287,10.418.442,16.178,0,3.992-.271,8.552.054,13.069.807,11.231.527,22.468.245,33.686-.717,28.544-.31,57.088-.337,85.631-.041,3.722.158,7.443.597,11.139,1.56,12.074.704,24.201,1.049,36.3.094,3.289.52,6.566.756,9.85.078,1.099.015,2.207.055,3.309.218,6.007.435,12.014.681,18.019.137,3.337.342,6.671.495,10.007.191,4.186.353,8.375.541,12.561.099,2.196.253,4.389.341,6.586.226,5.669.439,11.339.639,17.009.19,5.626.338,11.256.53,16.882Zm28.76-176.656c-.051,3.203-.49,6.4-.75,9.599-.021.253-.023.509-.036.762-.211,4.14-.245,8.298-.681,12.413-.486,4.589-1.016,9.224-2.581,13.594-1.938,5.411-4.433,10.507-8.443,14.819-4.389,4.715-9.198,9.019-14.367,12.861-.605.395-1.233.756-1.879,1.08-.097-.295-.17-.598-.217-.905-.127-3.214-.218-6.43-.367-9.643-.065-1.4.931-1.947,1.86-2.605,3.373-2.393,6.673-4.869,9.407-8.029,3.163-3.655,5.161-7.911,6.542-12.478,1.315-4.409,1.977-8.987,1.965-13.588.013-4.45.277-8.901.253-13.35-.042-8.354-.31-16.708-.312-25.061-.003-16.165.139-32.33.169-48.493.011-6.109-.101-12.219-.203-18.327-.04-2.407-.382-4.821-.27-7.217.154-3.28.516-6.559.985-9.81.173-1.202.816-2.37,1.398-3.472.722-1.366,1.498-1.468,2.522-.282.671.746,1.163,1.635,1.439,2.6.487,1.997.983,4.048,1.031,6.086.147,6.318.018,12.643.122,18.963.133,8.087.371,16.172.598,24.257.132,4.694.323,9.387.5,14.079.175,4.652.171,9.322.587,13.952.845,9.389.876,18.789.729,28.194h0Zm15.234-69.672c-.214,4.976-.87,9.994-2.979,14.628-1.405,3.008-3.338,5.74-5.707,8.065-1.194,1.201-2.414,2.376-3.795,3.733-.237-.411-.422-.85-.548-1.307-.232-1.845-.361-3.702-.387-5.562.03-.949.351-1.866.919-2.626,1.635-2.07,3.432-4.028,4.465-6.49.649-1.542,1.182-3.13,1.597-4.751,1.664-6.543.986-13.212.963-19.844-.007-2.121-.135-4.254.047-6.359.225-1.876.583-3.734,1.072-5.559.136-.424.473-.753.9-.878.439.077.809.368.987.777.584,1.876,1.133,3.77,1.56,5.687,1.512,6.768,1.202,13.655.907,20.486Z" fill="#9e8f4f"/>
      <path d="m51.835,104.432c-.052-6.738-.311-13.475-.289-20.212.071-21.463.23-42.923.356-64.385-.055-.42-.039-.847.05-1.262.233-.446.52-.862.854-1.239.38.384,1.012.722,1.093,1.161.311,1.575.489,3.172.533,4.777.092,8.148.092,16.296.16,24.444.089,10.471.28,20.94.297,31.411.011,7.116-.326,14.234-.285,21.349.084,14.334.291,28.667.506,43,.057,3.765.371,7.525.476,11.29-.011.876-.197,1.741-.548,2.543-.331.818-1.181.913-1.645.169-.494-.719-.8-1.551-.889-2.419-.318-9.955-.617-43.709-.671-50.626Z" fill="#9e8f4f"/>
      <path d="m10.365,121.678c.108,4.254.864,8.468,2.241,12.494,2.228,6.421,5.454,12.297,9.095,17.987,1.823,2.85,3.424,5.848,5.342,8.629,2.857,4.294,7.158,7.422,12.123,8.818.599.179,1.168.447,1.687.796.717.473,1.223,1.193.748,2.034-.443.8-1.359,1.214-2.253,1.018-4.66-.796-8.518-3.135-11.82-6.402-2.256-2.239-4.18-4.789-5.715-7.572-2.862-5.153-5.924-10.2-8.638-15.429-2.096-4.157-3.717-8.537-4.831-13.057-.367-1.519-.552-3.076-.553-4.638-.065-4.452-.061-8.905.012-13.359.069-4.017.334-8.032.388-12.049.024-1.806-.263-3.615-.388-5.424-.107-.884-.13-1.775-.068-2.663.105-.497.429-.92.881-1.151.226-.094.843.412,1.081.78.291.463.461.99.495,1.536.184,3.376-.01,21.82.172,27.653Z" fill="#9e8f4f"/>
      <path d="m53.3,259.745c.286-7.385.553-12.798.685-18.216.081-3.304-.064-6.612-.066-9.919,0-.708-.3-1.697.754-1.905,1.035-.204,1.317.744,1.604,1.469.17.475.243.979.216,1.482-.124,3.886-.348,7.769-.407,11.656-.094,6.191-.236,12.387-.067,18.573.118,4.336.717,8.659,1.106,12.988.159,1.761.295,3.526.517,5.279.399,3.134.856,6.261,1.289,9.391.023.169.053.337.062.506.207,3.629.363,7.261.63,10.885.229,3.108.603,6.205.867,9.311.111,1.181.137,2.368.075,3.553-.054.886-.571,1.744-1.498,1.748-.801.003-1.416-.669-1.558-1.568-.203-1.028-.354-2.065-.451-3.109-.239-4.517-.323-9.045-.661-13.554-.28-3.738-.843-7.455-1.265-11.183-.067-.588-.035-1.187-.066-1.779-.216-4.052-.38-8.108-.67-12.154-.369-5.136-.836-10.265-1.097-13.451Z" fill="#9e8f4f"/>
      <path d="m5.693,73.089c0-1.654-.132-3.322.027-4.961.371-3.817.92-7.615,1.319-11.43.154-1.472.05-2.969.158-4.448.038-.62.224-1.222.544-1.755.583-.906,1.595-.851,1.921.166.32.999.293,2.117.364,3.187-.048.331-.116.66-.202.983-.241,3.969-.471,7.938-.692,11.907-.122,2.235-.289,4.473-.29,6.709,0,2.151.258,4.305.268,6.458-.01,1.264-.155,2.523-.434,3.756-.104.483-.67.867-1.025,1.295-.363-.348-.941-.64-1.05-1.054-.413-1.411-.688-2.86-.821-4.324-.134-2.155-.035-4.325-.035-6.489h-.05Z" fill="#9e8f4f"/>
      <path d="m56.555,212.825c0,2.078.003,4.156,0,6.234,0,.466.11,1.006-.084,1.379-.235.45-.729,1.034-1.133,1.051-.418.018-.928-.517-1.271-.918-.18-.211-.111-.652-.116-.989-.016-1.103.018-2.207-.025-3.308-.172-4.439-.303-8.88-.572-13.313-.225-3.707-.624-7.403-.94-11.105-.175-2.057-.348-4.114-.503-6.173-.053-.701-.003-1.51.881-1.545.85-.066,1.593.565,1.666,1.414.19,1.29.383,2.584.492,3.883.402,4.798.783,9.598,1.144,14.4.224,2.991.392,5.988.585,8.982l-.124.008Z" fill="#9e8f4f"/>
      <path d="m89.55,148.304c0,1.782.053,3.567-.011,5.346-.143,3.976-.169,7.968-.571,11.919-.393,3.844-1.152,7.655-1.837,11.465-.391,2.527-.935,5.028-1.631,7.489-1.525,4.924-4.076,9.259-8.084,12.622-.262.21-.537.401-.825.573-1.02.64-1.95.621-2.495-.042-.538-.653-.422-1.694.353-2.511.862-.91,1.821-1.731,2.653-2.668,2.985-3.376,5.011-7.49,5.867-11.914.964-4.733,1.771-9.498,2.57-14.263.264-1.665.414-3.347.45-5.032.178-6.223.37-12.447.408-18.672.022-3.591-.245-7.185-.374-10.777-.063-.463-.049-.933.04-1.392.229-.724.337-1.704,1.427-1.629.907.063,1.354.746,1.572,1.57.04.208.056.421.048.633.17,5.759.34,11.518.509,17.277l-.068.004Z" fill="#9e8f4f"/>
      <path d="m88.193,79.484c.1,3.069.522,6.127.813,9.19.203,2.14.38,4.284.655,6.415.387,3.007.943,5.995,1.235,9.01.028,1.087-.189,2.165-.636,3.156-.337.864-1.174.891-1.653.088-.433-.766-.751-1.592-.943-2.451-.249-1.069-.422-2.154-.517-3.247-.248-2.604-.373-5.221-.672-7.818-.37-3.218-.936-6.415-1.28-9.635-.202-1.892-.153-3.811-.19-5.719-.158-8.303-.304-16.606-.438-24.909-.01-.711.136-1.416.425-2.066.199-.43.782-.97,1.168-.951.565.092,1.061.428,1.356.919.313.641.471,1.346.46,2.059.038,4.368.074,21.68.214,25.96Z" fill="#9e8f4f"/>
      <path d="m90.117,121.644c-.195.509-.622.895-1.148,1.038-.738.14-.84-.56-1.007-1.166-.774-2.823.042-5.619.113-8.424.018-.7.43-1.607,1.356-1.532.859.069,1.206.849,1.229,1.666.035,1.224-.223,6.863-.543,8.418Z" fill="#9e8f4f"/>
    </g>
  </g>
</svg>