<?xml version="1.0" encoding="UTF-8"?>
<svg id="b" data-name="Layer 2" xmlns="http://www.w3.org/2000/svg" width="75.325" height="221.788" viewBox="0 0 75.325 221.788">
  <g id="c" data-name="Layer 1">
    <g>
      <path d="m42.178,136.852c.973-1.034,1.969-2.047,2.913-3.106,1.903-2.135,2.581-4.847,3.385-7.48.288-1.045.47-2.116.544-3.198.241-2.572.386-5.152.627-7.724.218-2.326.511-4.644.771-6.965.009-.081.023-.161.028-.242.187-2.862.373-5.725.558-8.587.205-3.225.216-6.477.675-9.665.295-2.064.269-4.109.411-6.161.098-1.407.257-2.812.447-4.21.422-3.112-.422-5.963-1.63-8.781-.724-1.687-1.239-3.463-1.861-5.194-.542-1.509-1.16-2.994-1.642-4.522-.783-2.478-1.514-4.973-2.214-7.476-1.518-5.428-.934-10.997-1.054-16.518-.033-1.541-.059-3.089.042-4.625.105-1.808.312-3.608.622-5.392.167-.873.548-1.691,1.109-2.381,1.635-1.963,3.691-1.446,4.994.521.918,1.381,1.483,2.966,1.645,4.617.13,1.316.362,2.622.566,3.93.022.138.156.258.344.554.194-.327.422-.533.422-.741.021-3.002.288-6.039-.073-8.997-.364-2.686-.444-5.403-.238-8.106.226-2.53.735-5.088,2.845-6.94,2.68-2.351,5.371-.658,6.36,1.596.754,1.862,1.264,3.814,1.518,5.807.432,2.706.665,5.43,1.012,8.138.878,6.839.315,13.682.415,20.519.094,6.409.166,12.838-.191,19.233-.299,5.347.012,10.707-.47,16.024-.301,3.319-.253,6.628-.45,9.937-.132,2.218-.337,4.432-.484,6.649-.001.462.029.923.091,1.381l.307.028c.366-1.321.787-2.629,1.084-3.964.374-1.68.668-3.378.954-5.075.221-1.311.314-2.645.577-3.946.563-2.783,1.007-5.613,2.388-8.159.167-.368.386-.708.652-1.012.636-.62,1.326-1.301,2.319-.962.935.302,1.664,1.041,1.954,1.979.843,2.569.942,5.226.846,7.891-.059,1.654-.172,3.311-.377,4.952-.232,1.867-.696,3.708-.873,5.578-.226,2.388-.892,4.659-1.524,6.945-.904,3.413-2.443,6.626-4.537,9.469-.6.801-1.265,1.555-1.91,2.319-.875,1.124-2.071,1.956-3.43,2.384-.147,1.392-.229,2.8-.458,4.182-.353,2.142-.801,4.268-1.219,6.399-.192.982-.447,1.952-.604,2.939-.582,3.394-1.521,6.717-2.802,9.914-.676,1.921-1.55,3.766-2.61,5.504-1.734,2.802-4.081,5.175-6.864,6.938-1.023.626-2.009,1.315-3.048,1.912-.482.271-1.006.46-1.551.558-.892.164-1.139.326-1.101,1.236.038.964.247,1.922.275,2.885.092,3.163-.07,6.35.242,9.488.548,5.505,0,11.032.477,16.518.675,7.778.352,15.56.326,23.336-.009,2.678-.49,5.376-1.902,7.759-.88,1.484-1.85,2.956-3.513,3.669-1.645.702-3.364,1.096-5.172.614-.289-.115-.606-.139-.91-.07-.433.218-.947.202-1.366-.042-.97-.477-1.756.365-2.65.506-.468.074-.917.279-1.386.337-.665.149-1.335-.226-1.556-.87-.29-.622-.081-1.363.491-1.742.864-.563,1.802-1.002,2.788-1.303,1.47-.374,1.605-.398,1.583-1.894-.03-1.948.077-3.909-.114-5.841-1.057-10.686-.25-21.393-.433-32.087-.05-1.42-.017-2.842.1-4.259.822-8.132.172-16.286.436-24.424.113-.882-.339-1.741-1.13-2.147-2.875-1.723-5.187-4.13-7.6-6.407-4.313-4.072-7.303-9.056-9.893-14.337-1.711-3.441-3.163-7.005-4.347-10.661-.739-2.324-1.553-4.626-2.251-6.962-.32-1.069-.422-2.202-.659-3.299-.364-1.687-.796-3.359-1.129-5.051-.295-1.498-.558-3.008-.72-4.525-.253-2.365-.197-4.783-.664-7.099-.457-2.264-.273-4.512-.46-6.762-.208-2.491-.495-4.976-.74-7.464-.035-.363-.035-.729-.039-1.096-.064-5.44-.104-10.877-.194-16.314C.208,53.08-.017,48.952,0,44.824c-.005-3.156.169-6.309.521-9.446.246-2.076.639-4.226,2.258-5.847,1.595-1.596,3.475-1.61,5.018.073.916,1.077,1.531,2.377,1.784,3.769.937,4.033,1.142,8.13,1.093,12.262-.071,6.006-.118,12.018.019,18.02.088,3.866.525,7.725.807,11.587.176,2.418.38,4.835.526,7.255.216,3.553.334,7.113.616,10.66.142,1.792.539,3.564.848,5.341.323,1.865.613,3.739,1.038,5.581.449,1.946.952,3.89,1.59,5.782,1.009,2.994,2.081,5.971,3.255,8.905,1.492,3.731,3.413,7.226,6.272,10.123.928.94,1.863,1.874,2.825,2.779.242.151.51.257.79.312.119-.282.195-.581.225-.886-.075-1.327-.225-2.651-.298-3.979-.076-1.378-.11-2.758-.137-4.137-.169-8.551-.106-17.114-.565-25.649-.375-6.974-.013-13.949-.426-20.901-.206-3.472-.148-6.971-.562-10.407-.361-2.998-.301-5.976-.422-8.963-.116-2.867-.295-5.74-.266-8.609.042-4.128.046-8.275.436-12.378.635-6.679.219-13.367.483-20.043.048-2.503.221-5.002.519-7.487.35-2.471,1.215-4.84,2.538-6.956.239-.372.531-.706.869-.991.827-.808,2.152-.793,2.959.034.142.146.263.311.357.491.618,1.12,1.093,2.313,1.413,3.552.538,1.93.954,3.897,1.36,5.861.268,1.298.433,2.617.636,3.929.306,1.98.607,3.962.902,5.946.059.4.07.808.105,1.211.668,7.726.503,15.468.454,23.208-.01,1.542.03,3.09-.078,4.625-.685,9.722-.253,19.454-.28,29.18-.005,1.957.436,3.916.675,5.874.014.12.06.237.07.357.179,2.132.347,4.264.533,6.394.736,8.451.331,16.934.709,25.388.292,6.524.186,13.044.387,19.563.013.159.034.318.063.475l.258.166ZM32.928,4.522l-.337.057c-.332.983-.86,1.946-.959,2.952-.287,2.893-.456,5.801-.571,8.708-.211,5.3.236,10.61-.354,15.911-.318,2.85-.364,5.731-.501,8.602-.058,1.215-.045,2.435-.039,3.652.028,6.32-.324,12.643.309,18.957.278,2.773.403,5.564.52,8.349.193,4.571.307,9.146.482,13.718.277,7.205-.011,14.411.452,21.627.543,8.442-.145,16.936.644,25.388.176,1.889.261,3.788.346,5.683.18,4.006.422,8.008.471,12.014.04,3.192-.172,6.387-.259,9.581-.171,6.318-.48,12.637-.464,18.955.024,10.174-.5,20.353.249,30.523.176,2.385.134,4.786.182,7.18.013.64.068,1.279.843,1.397,1.642.25,3.088-.057,4.222-1.44,1.392-1.695,1.871-3.738,2.121-5.787.269-2.574.408-5.16.417-7.748.028-1.405-.221-2.813-.273-4.221-.195-5.302.045-10.605-.437-15.914-.483-5.315.004-10.678-.544-16.02-.525-5.112-.005-10.271-.464-15.416-.437-4.913-.395-9.871-.5-14.811-.069-3.247-.028-6.494-.032-9.741-.008-8.715-.046-17.429-.513-26.135-.119-2.215-.066-4.421-.387-6.648-.389-2.699-.2-5.473-.642-8.201-.295-1.822-.078-3.686-.385-5.549-.345-2.403-.497-4.829-.455-7.257-.01-3.357.155-6.714.256-10.07.16-5.343.376-10.684.481-16.028.079-4.016-.077-8.039.053-12.053.127-3.862-.481-7.675-.524-11.518-.003-.122-.014-.243-.03-.363-.27-2.196-.535-4.394-.812-6.59-.196-1.553-.337-3.12-.633-4.654-.394-2.05-.899-4.078-1.394-6.107-.136-.351-.319-.682-.542-.985Zm26.3,7.261c-1.017.53-1.639,1.195-1.789,2.093-.319,1.621-.504,3.266-.552,4.918,0,2.175.347,4.347.401,6.525.111,3.559.013,7.121-.293,10.668-.362,3.903-.35,7.843-.473,11.765-.233,7.451.18,14.91-.477,22.359-.358,4.06.169,8.155-.494,12.238-.431,2.652-.053,5.395-.522,8.096-.371,2.137-.351,4.343-.482,6.52-.229,3.828-.441,7.65-.928,11.465-.34,2.67-.117,5.391-.562,8.088-.412,2.5-.439,5.063-.637,7.599-.007.121-.025.242-.052.361-.431,1.712-.814,3.438-1.314,5.13-.311,1.159-.745,2.282-1.296,3.349-1.163,2.151-2.73,4.058-4.613,5.617-.681.557-1.392,1.181-2.326,1.046-.787-.115-.928.277-.942.847-.024.973-.015,1.949.024,2.921.054.259.15.507.282.735.243-.089.474-.206.69-.348,1.752-1.457,3.555-2.862,5.209-4.424.876-.827,1.759-1.729,2.078-3.017.509-2.057,1.583-3.919,2.035-6.018.402-1.871,1.139-3.669,1.687-5.509.248-.803.432-1.625.548-2.457.225-1.512.369-3.036.429-4.564.109-2.416.417-4.819.922-7.184.416-2.247.462-4.565.633-6.855.067-.888-.072-1.801.067-2.673.199-1.178.491-2.338.875-3.47.202-.322.559-.515.939-.509.395.143.72.434.906.811.101.35.109.721.024,1.075-.122,1.238-.281,2.471-.397,3.711-.072.766-.048,1.542-.141,2.304-.229,1.875-.521,3.742-.748,5.618-.107.883-.068,1.786-.199,2.665-.206,1.386-.601,2.748-.73,4.138-.169,1.813-.016,3.664-.256,5.465-.269,2.019-.811,4.003-1.256,5.997-.348,1.56-.697,3.12-1.111,4.664-.206.769-.559,1.497-.839,2.246-.389,1.042-.593,2.205-1.19,3.108-2.183,3.303-5.281,5.693-8.578,7.752-1.213.759-1.806,1.413-1.537,2.8.05.444.068.89.053,1.336.029.662.066,1.323.11,2.197,1.6-1.155,2.969-2.189,4.383-3.157,3.902-2.67,6.176-6.48,7.675-10.842.455-1.326.911-2.654,1.285-4.003.438-1.58.83-3.175,1.163-4.78.384-1.851.684-3.719,1.014-5.581.307-1.734.699-3.46.883-5.208.283-2.688.422-5.391.621-8.088.009-.121.023-.242.038-.363.247-2.04.579-4.074.722-6.121.217-3.102-.019-6.212.471-9.325.432-2.741.114-5.552.493-8.342.501-3.681.231-7.426.455-11.148.431-7.193.409-14.415.532-21.626.074-4.343.063-8.684.101-13.026.052-6.036.169-12.074-.509-18.09-.036-.322-.036-.649-.084-.97-.285-1.863-.565-3.728-.878-5.587-.167-1.11-.391-2.212-.67-3.299-.23-.577-.523-1.127-.872-1.641Zm-29.301,131.966c.06-.315.095-.634.103-.955-.147-2.052-.29-4.105-.498-6.152-.029-.283-.372-.574-.633-.785-1.175-.957-2.425-1.829-3.551-2.839-3.42-2.991-6.13-6.708-7.933-10.879-1.476-3.497-2.626-7.129-3.987-10.676-1.217-3.353-2.139-6.805-2.754-10.318-.667-3.434-1.096-6.925-1.421-10.411-.306-3.294-.006-6.62-.566-9.921-.262-1.543-.012-3.166-.141-4.74-.184-2.247-.6-4.477-.742-6.724-.169-2.671-.198-5.355-.207-8.032-.021-5.845.051-11.691-.002-17.535-.021-2.299-.243-4.6-.441-6.894-.095-.958-.272-1.906-.53-2.834-.179-.654-.445-1.281-.791-1.865-.376-.64-.793-.65-1.163-.042-.376.519-.635,1.114-.759,1.744-.253,2.653-.527,5.316-.553,7.977-.093,9.443-.176,18.889.447,28.322.215,3.265-.094,6.536.408,9.813.53,3.465.682,6.988.96,10.489.14,1.766.065,3.528.506,5.292.515,2.053.598,4.211,1.061,6.283.717,3.205,1.542,6.388,2.424,9.552,1.165,4.041,2.649,7.983,4.436,11.79,2.009,4.379,4.315,8.589,7.404,12.319,2.409,2.91,5.322,5.303,8.125,7.805.167.146.48.133.797.215Zm22.631-76.682l.309-.042c.044-.266.073-.535.089-.805.022-1.987.036-3.973.044-5.959.037-.283.014-.57-.068-.843-.964-2.005-.866-4.234-1.301-6.345s-.485-4.32-.606-6.491c-.205-3.673-.306-7.353-.506-11.026-.084-1.527-.282-3.05-.484-4.567-.121-.793-.293-1.577-.513-2.349-.128-.545-.319-1.072-.57-1.572-.234-.433-.527-.97-1.499-.476-1.223,6.721-.903,13.628-.4,20.56.511,7.03,3.166,13.419,5.506,19.915h0Zm10.552,46.562c.328-.256.638-.534.928-.832.416-.484.799-.996,1.145-1.532.98-1.552,2.164-3.029,2.835-4.709,1.108-2.776,2.186-5.592,2.586-8.602.285-2.145.658-4.277.99-6.415.037-.239.061-.48.097-.72.231-1.509.562-3.011.67-4.529.118-1.654.032-3.324.034-4.986,0-.538-.072-1.037-.806-1.329-.218.773-.396,1.5-.63,2.208-.5,1.531-.845,3.108-1.03,4.708-.179,1.504-.568,2.982-.834,4.477-.232,1.307-.301,2.653-.656,3.922-.711,2.543-1.482,5.076-2.401,7.548-.473,1.19-1.138,2.293-1.969,3.268-.489.519-.765,1.202-.774,1.914-.021,1.773-.112,3.545-.185,5.607h0Z" fill="#9e8f4f"/>
      <path d="m34.41,156.301c0-4.775,0-10.169.003-15.562-.055-.443-.018-.892.108-1.319.186-.415.533-.736.961-.889.231-.048.658.482.869.829.117.303.16.629.127.952.187,6.677.388,13.355.541,20.033.06,2.635-.087,5.278.037,7.909.135,2.858.474,5.706.724,8.56.011.121.024.242.025.364.011,5.302.755,10.575.548,15.891-.127,3.281-.05,6.571.009,9.856.018.989.309,1.971.428,2.962.089.519.091,1.049.005,1.568-.1.671-.68,1.165-1.358,1.158-.722.026-1.291-.181-1.512-.913-.186-.614-.329-1.24-.428-1.874-.985-6.404-.253-12.851-.448-19.275-.109-3.567.222-7.177-.203-10.7-.764-6.321.02-12.628-.436-19.549Z" fill="#9e8f4f"/>
      <path d="m34.097,119.13c0-2.678-.04-5.355.011-8.034.048-2.545.241-5.088.272-7.632-.038-1.168-.147-2.332-.328-3.486-.066-.588.079-1.204.663-1.214.497.093.917.422,1.127.882.333.863.527,1.774.574,2.699.205,5.823.371,11.648.5,17.474.074,3.407.051,6.816.066,10.224.019.446,0,.892-.061,1.335-.03.635-.529,1.149-1.163,1.198-.677.033-1.252-.49-1.285-1.167,0-.009,0-.018-.001-.028-.191-1.276-.313-2.562-.366-3.852-.054-2.799-.017-5.599-.017-8.399h.006Z" fill="#9e8f4f"/>
      <path d="m33.828,62.75c-1.191-.261-1.378-1.007-1.355-1.956.042-1.703-.035-3.409.018-5.111.084-2.643-.464-5.211-.764-7.812-.154-1.941-.168-3.891-.042-5.834.054-1.813.29-3.626.323-5.44.092-1.564.367-3.112.819-4.611.108-.676.149-1.361.122-2.045.022-.458-.188-1.036.515-1.174.568-.112.867.196,1.111.702.733,1.518.544,3.062.238,4.622-.114.383-.192.775-.232,1.172-.019,4.786-.269,9.589.065,14.351.258,3.68.36,7.345.388,11.024.009.989-.296,1.727-1.205,2.112Z" fill="#9e8f4f"/>
      <path d="m31.6,69.871c.121-.868.286-1.729.496-2.579.159-.301.462-.499.801-.524.337.032.871.31.934.574.308,1.283,1.113,2.584.178,3.912-.234.332-.625.816-.902.79-.444-.108-.825-.389-1.059-.781-.212-.441-.363-.909-.448-1.392Z" fill="#9e8f4f"/>
      <path d="m59.787,87.245c.027.483.023.968-.013,1.45-.019.545-.433.994-.974,1.056-.567.117-1.122-.247-1.239-.814-.004-.018-.007-.036-.01-.054-.106-.593-.116-1.2-.03-1.796.046-.519.173-1.028.376-1.507.14-.318.464-.73.744-.763.29-.034.697.283.922.555.155.277.234.589.23.906.021.322.023.645.008.967h-.014Z" fill="#9e8f4f"/>
      <path d="m58.292,75.978c.003-1.049.267-1.413,1.04-1.434.8-.009,1.455.632,1.464,1.432,0,.046-.001.092-.005.138-.009.848-.541,1.454-1.278,1.456-.807.001-1.223-.541-1.221-1.592Z" fill="#9e8f4f"/>
    </g>
  </g>
</svg>