<?xml version="1.0" encoding="UTF-8"?>
<svg id="b" data-name="Layer 2" xmlns="http://www.w3.org/2000/svg" width="313.119" height="267.227" viewBox="0 0 313.119 267.227">
  <g id="c" data-name="Layer 1">
    <g>
      <path d="m229.341,109.995c.042,4.157.252,8.381-1.135,12.346-2.126,6.078-4.001,12.437-10.409,15.703-3.135,1.598-3.759,4.641-4.636,7.603-1.918,6.481-4.241,12.821-6.775,19.088-1.298,3.21-2.634,6.424-3.607,9.739-.494,1.682-.34,3.594-.268,5.393.155,3.868-.631,7.501-2.472,10.887-1.087,2-.654,4.211-.869,6.289-.869,8.413-.977,16.871-.644,25.328.03.764.384,1.333.851,1.898,2.606,3.153,4.7,6.53,6.369,10.352,1.837,4.207,2.851,8.713,5.024,12.775.901,1.683-.2,3.636-2.088,3.579-3.158-.095-6.219,1.108-9.391.56-.824-.142-1.072.3-.862,1.042.159.561.325,1.123.546,1.661,1.344,3.275-.876,6.177-3.223,7.363-2.396,1.211-4.728,2.134-7.552,1.226-1.175-.378-2.795-.842-3.843.904-.405.675-1.484.064-2.054-.298-1.854-1.177-3.623-2.491-5.406-3.778-.223-.161-.496-.485-.478-.713.227-2.962-1.407-5.96.196-8.901.369-.677.373-1.363-.145-2.11-.99-1.427-.162-2.923.134-4.355.215-1.042.323-1.914-.491-2.788-2.114-2.269-2.808-5.192-3.281-8.1-1.086-6.682,1.132-13.295.689-19.938-.365-5.475.675-11.075-1.499-16.433-1.22-3.007-.88-6.28-.806-9.477.072-3.132.218-6.222.949-9.309.554-2.339-.77-4.582-1.096-6.897-.372-2.644-.853-5.273-1.331-7.9-.515-2.834-.603-5.73-1.326-8.537-.28-1.088.291-2.188-.124-3.403-1.176-3.443-2.247-5.072-6.174-4.227-2.272.489-4.666-.028-6.838.881-4.292,1.796-9.001,1.226-13.384,2.462-.08.023-.168.039-.25.033-5.226-.391-10.272,1.506-15.52,1.123-6.537-.477-12.908-1.549-19.1-3.79-3.485-1.261-7.018-2.395-10.48-3.731-.969-.374-1.747-.164-2.206.971-2.72,6.733-6.902,12.562-11.684,17.921-4.286,4.803-7.474,10.293-10.587,15.825-2.889,5.135-5.358,10.505-8.085,15.734-.71,1.362-.536,2.854-.771,4.245-.407,2.411-.586,4.9-.638,7.391-.051,2.455-.666,4.93-.392,7.393.698,6.278.173,12.649,1.455,18.876.495,2.403,2.492,3.805,3.958,5.529,1.727,2.03,3.678,3.814,5.978,5.267,2.954,1.865,5.297,4.416,6.869,7.582.71,1.43-.007,2.739-1.235,3.089-2.015.574-1.696,1.73-1.232,3.045,1.478,4.19-.434,6.798-4.907,7.312-2.467.283-4.907.462-7.377.449-1.911-.01-3.728-.535-5.506-1.14-2.727-.927-3.733-3.168-4.05-5.791-.476-3.936-2.782-6.158-6.473-7.167-1.49-.407-3.378-2.855-3.731-4.384-.49-2.122-.419-4.253-.434-6.388-.008-1.198-.41-2.139-1.251-3.028-1.734-1.835-2.158-3.909-1.524-6.481.525-2.132.545-4.394.19-6.702-.985-6.408-3.067-12.411-5.802-18.244-.542-1.156-.806-2.465-.775-3.792.01-.434-.12-.933-.549-1.054-.625-.175-.561.529-.712.83-.767,1.525-1.107,3.435-2.238,4.57-2.143,2.15-3.456,4.795-5.171,7.193-.259.362-.67.631-1.051.882-.279.184-.689.296-.913-.008-.095-.129.073-.553.234-.754,2.782-3.475,3.473-7.736,4.356-11.884,1.334-6.27.818-12.622.442-18.947-.111-1.872-.495-3.728-.785-5.587-.048-.306-.255-.588-.389-.881-.056.313-.159.626-.162.94-.026,2.399-.038,4.798-.045,7.197-.032,10.93-3.051,21.043-8.274,30.576-1.2,2.191-2.239,4.475-3.263,6.756-.262.583-.244,1.318-.249,1.984-.019,2.609.019,5.219.001,7.829-.005.704-.03,1.514-.947,1.678-.899.16-1.122-.652-1.361-1.231-1.68-4.077-1.332-8.301-.853-12.534.386-3.417.588-6.849,1.195-10.247.597-3.343,1.422-6.623,2.25-9.91.521-2.067,1.071-4.167,1.221-6.28.371-5.221,1.333-10.405,1.043-15.671-.303-5.497-1.071-10.91-2.857-16.143-.087-.255-.242-.488-.366-.731-.386.232-.222.61-.188.905.48,4.217.853,8.433.924,12.688.106,6.309-1.522,12.259-3.247,18.227-1.106,3.827-2.597,7.488-4.264,11.088-.505,1.091-1.145,2.108-2.252,2.719-.105-1.065.441-1.976.772-2.915,1.863-5.287,3.514-10.634,4.807-16.089,1.715-7.239,1.728-14.548.871-21.89-.029-.25-.045-.505-.105-.748-.16-.645.32-1.611-.457-1.839-.264-.077-.206,1.186-.214,1.834-.099,8.513-2.175,16.568-5.678,24.274-2.139,4.705-4.388,9.361-6.632,14.018-.18.373-.335,1.198-.964.911-.515-.236-.15-.879-.045-1.361,1.214-5.606,3.98-10.618,6.085-15.88,3.767-9.417,5.115-19.106,4.028-29.224-.447-4.165-.65-8.362-1.209-12.526-.434-3.239-1.274-6.472-.936-9.754.581-5.632-.682-11.258-.04-16.849.653-5.686.989-11.438,2.464-17.002,1.261-4.756,2.983-9.344,5.264-13.725.686-1.318,1.061-2.803,1.535-4.226,1.303-3.908,4.56-6.332,7.459-8.712,4.038-3.314,8.092-6.61,12.085-9.988,2.833-2.397,5.926-4.485,8.871-6.753,1.317-1.014,2.615-1.93,4.407-1.793,1.048.08,1.3-1.189,2.241-1.452,3.768-1.051,7.642-1.434,11.499-1.915,2.035-.254,4.091-.142,6.145-.468,2.798-.444,5.577.406,8.37.644.333.028.665.18.99.16,4.216-.257,8.376.528,12.569.73,6.687.321,13.338,1.359,20.024,1.741,5.517.315,10.872,1.662,16.436,1.853,6.134.211,12.281-.056,18.377.367,4.675.324,8.167-1.66,11.775-3.887,1.531-.945,3.009-1.645,4.974-1.658,2.35-.016,4.683-.849,7.045-1.178,3.894-.542,7.673-1.491,11.315-2.956,1.678-.675,3.224-1.456,4.642-2.764,2.178-2.009,4.997-3.172,7.934-3.766,5.266-1.065,10.744-1.594,14.778-5.731,2.715-2.785,5.378-5.589,8.791-7.568,4.658-2.7,8.445-6.69,13.3-9.1,3.207-1.593,6.362-3.377,9.726-4.542,2.767-.959,5.735-1.412,8.513-2.427,2.073-.757,4.086-1.678,6.126-2.527.559-.233,1.173-.564,1.259-1.145.377-2.566,2.286-3.71,4.316-4.647,1.118-.516,2.105-1.185,3.105-1.858,1.25-.841,2.039-.52,2.242.952.057.411-.015.931.481,1.07.59.166.713-.442.978-.777.259-.326.457-.703.73-1.016,1.431-1.641,2.642-1.541,3.724.374,1.041,1.842,1.442,3.871,1.148,5.955-.18,1.271.456,1.711,1.444,2.075,5.688,2.098,10.127,5.816,13.481,10.785,1.51,2.237,2.772,4.669,3.906,7.123.713,1.543,1.03,3.288.516,5.035-.377,1.283-.189,2.498.483,3.632,1.88,3.176,3.182,6.597,4.489,10.035.647,1.7,1.864,3.16,3.407,4.257,2.423,1.722,3.299,4.378,3.511,7.058.18,2.281.612,4.189,2.197,5.89,1.807,1.94,2.28,4.354,2.644,6.983.404,2.912,1.697,5.706,2.653,8.535.296.876.697,1.701.579,2.669-.406,3.329-.272,6.709-.954,10.014-.387,1.875-1.763,2.927-3.256,3.761-1.3.726-2.518,1.511-3.417,2.681-1.741,2.266-4.33,2.85-6.856,3.516-1.647.434-2.238,1.22-1.456,2.829,1.415,2.913,1.752,6.161,2.829,9.182.285.799-.066,1.495-.876,1.866-2.35,1.076-3.905,2.439-2.759,5.419.345.898-.422,2.06-.47,3.166-.084,1.948.419,3.796,1.234,5.429,1.163,2.329,1.914,4.803,2.769,7.213,1.102,3.104,1.335,6.456,1.243,9.777-.028,1.017.095,1.797,1.003,2.505,1.197.933.73,2.454.22,3.372-1.835,3.301-1.916,6.945-2.157,10.481-.291,4.27-.712,8.539-.726,12.838-.018,5.335-.249,10.673-.527,16.003-.203,3.897-.968,7.717-2.164,11.441-.089.277-.203.564-.207.848-.117,8.604-1.564,17.151-1.066,25.784.493,8.546.939,17.095,1.952,25.601.09.754.522,1.071,1.143,1.321,1.237.497,2.494.959,3.684,1.553,1.973.983,1.937,3.066.375,4.583-3.121,3.031-7.046,3.441-11.013,3.953-1.574.203-3.12.671-4.727.49-4.471-.505-8.945-.033-13.417-.07-3.571-.03-3.982-.494-4.753-3.926-.401-1.785-2.051-2.906-3.403-4.006-.823-.67-1.355.346-1.632,1.135-.4,1.142-.766,2.297-1.193,3.43-.11.292-.344.658-.733.58-.345-.069-.483-.403-.584-.753-.242-.836.385-2.095-.769-2.457-1.685-.529-3.394-1.344-5.242-.774-2.174.671-3.568-.277-3.584-2.563-.012-1.747.248-3.444-1.941-4.377-.936-.399-.807-1.92-1.098-2.953-.086-.306.016-.785-.44-.779-.439.006-.592.413-.614.823-.034.63-.042,1.262-.095,1.891-.037.437-.24.916-.664.956-.433.041-.693-.387-.78-.834-.016-.083-.01-.192-.061-.242-.416-.403-.039-1.503-.947-1.362-.841.131-.574,1.019-.575,1.598-.004,1.682.077,3.364.103,5.047.006.39.177.909-.397,1.056-.557.143-.859-.273-1.072-.688-.726-1.417-.686-3.009-.944-4.527-.119-.699-.205-1.195-.935-1.577-1.265-.663-1.654-1.775-1.196-3.186,2.019-6.225,4.74-12.105,8.544-17.454.967-1.36,1.84-2.816,2.979-4.017,1.91-2.015,1.658-4.66,2.299-7.029,1.058-3.905,2.99-7.421,4.59-11.086.219-.502.814-1.191.36-1.537-.462-.352-1.054.338-1.465.715-2.386,2.181-5.214,3.928-6.817,6.892-.131.242-.43.668-.793.371-.392-.321-.641-.805-.46-1.355.371-1.13,1.022-2.087,1.802-2.982,2.674-3.071,5.705-5.74,9.074-8.01,3.102-2.09,4.635-5.15,5.635-8.598,1.712-5.902,1.155-11.868.618-17.85-.229-2.548-.113-5.123-.55-7.66-1.017-5.901-1.301-11.89-2.347-17.802-1.067-6.031-1.239-12.06,3.244-17.239,1.724-1.992,2.889-4.471,4.287-6.741.26-.423.371-.938.635-1.359.781-1.243.929-2.088-.908-2.496-1.634-.363-1.454-2.071-1.876-3.276-.221-.63-.225-1.566-1-1.536-1.013.04-.458,1.052-.611,1.63-.052.198.002.422-.03.628-.064.417.154,1.093-.545,1.053-.55-.032-.365-.654-.448-1.04-.108-.506.164-1.074-.253-1.528-.385.479-.173,1.041-.192,1.562-.041,1.135-.016,2.273-.034,3.409-.005.326.033.774-.394.82-.482.052-.559-.381-.643-.771-.39-1.815-.508-3.645-.449-5.499.012-.391.293-1.236-.502-1.121-.584.085-.376.804-.316,1.307.36,2.984,1.228,5.945.434,8.981-.088.339.047.869-.437.951-.417.071-.627-.297-.789-.669-.149-.341-.468-.522-.832-.383-.662.254-.931.87-1.037,1.482-.268,1.542-.774,2.988-1.572,4.323-.509.852-1.085,2.289-2.122,1.773-1.196-.595-.122-1.808.292-2.612,2.07-4.024,1.413-8.255,1.081-12.468-.01-.123-.062-.245-.113-.36-.26-.592.171-1.351-.451-1.854-.464.669-.511,1.46-.689,2.221-.973,4.147-1.433,8.375-2.078,12.575-.21,1.366-1.245,2.392-2.257,3.234-1.4,1.165-2.608-.133-3.728-.72-2.253-1.18-3.338-3.23-3.469-5.738-.09-1.717-.305-3.435-.067-5.165.386-2.804-.396-5.395-1.55-7.905-.076-.166-.009-.48-.321-.413-.077.017-.141.286-.142.439-.011,1.886.063,3.78.07,5.653.01,2.536-.227,5.077.023,7.622.012.126-.247.397-.383.4-.598.011-1.039-.355-1.307-.835-.804-1.44-1.001-3.083-1.472-4.635-.073-.24-.013-.554-.147-.734-.45-.601-.043-1.901-.785-1.897-.833.005-.436,1.174-.618,1.821-.085.301-.159.585-.544.569-.314-.013-.39-.262-.467-.511-.405-1.306-.699-2.703-.338-3.983,1.24-4.393-.084-8.494-1.361-12.549-.965-3.064-.877-6.036-.075-9.027.505-1.882.349-3.748.306-5.631-.005-.238-.019-.579-.344-.577-.213.001-.509.144-.626.318-1.995,2.98-3.979,5.967-5.93,8.976-.187.288-.192.726-.195,1.095-.016,2.399-.008,4.798-.008,7.196ZM22.193,152.655l-.065-.191c.026.055.052.11.078.166.184.143.368.286.552.429-.135.643-.542,1.376-.363,1.914,1.496,4.481,2.345,9.064,2.607,13.779.296,5.34.203,10.655-.682,15.938-.066.393.085,1.109-.592,1.059-.681-.051-.589-.755-.582-1.218.062-3.701-.253-7.394-.288-11.084-.046-4.935-.258-9.812-1.644-14.575-.864-2.968-1.821-5.908-3.225-8.672-.156-.308-.252-.88-.795-.809-.058.008-.101.689-.027,1.031.204.938.48,1.859.716,2.79,1.09,4.293,2.301,8.56,3.23,12.888,1.097,5.111,1.221,10.326,1.198,15.542-.028,6.095-.291,12.158-2.192,18.02-1.497,4.615-1.901,9.414-2.423,14.194-.032.295-.177.754.247.866.157.041.5-.271.622-.496,5.057-9.289,7.939-19.138,8.349-29.784.354-9.181.22-18.279-1.667-27.303-.353-1.686-.792-3.251-2.517-4.054-.18-.141-.359-.282-.538-.428Zm40.886,37.667c.17-.109.4-.178.5-.332,2.876-4.428,4.492-9.492,7.078-14.071.313-.554.132-1.297-.732-1.179-1.335.183-2.808.276-3.26,1.965-.451,1.686-.884,3.377-1.325,5.066-.748,2.86-1.498,5.72-2.243,8.585l-.224.517c.031.001.089.009.09.003.042-.184.078-.37.115-.555Zm-31.34-26.533c-.03-.191-.059-.382-.094-.573,0-.004-.064.003-.097.005.066.183.132.365.199.548.276.787.523,1.586.831,2.361,2.526,6.35,4.787,12.764,4.809,19.724.007,2.223.173,4.455-.407,6.647-.078.296.044.645.073.97.481-.052.447-.539.662-.812.117-.148.081-.406.147-.604,1.303-3.945,1.039-8.21,2.487-12.132.228-.616.08-1.323-.141-1.983-1.297-3.867-3.183-7.448-5.465-10.803-.832-1.223-1.388-2.789-3.003-3.348Zm230.996-89.591c-.305,1.657-.271,3.359-1.433,4.835-.555.705.21,1.36,1.06,1.288,1.166-.098,2.708.233,2.854-1.622.336-4.278.314-4.28-2.511-4.471.292-1.353,1.559-1.739,2.472-2.465,1.921-1.528,4.088-2.866,4.109-5.747.003-.469.017-.948-.454-1.234-.505-.307-.764.163-1.082.389-.743.529-1.098.284-1.1-.557-.002-.629.094-1.258.127-1.888.029-.553-.244-1.032-.795-.821-1.114.427-1.508-.383-1.598-1.045-.232-1.719-1.092-1.375-2.205-.948-1.527.586-2.988.804-4.442-.474-.944-.831-2.298-.97-3.588-.814-.657.08-1.227.44-.916,1.16.675,1.562.97,3.273,2.035,4.688,1.305,1.734,2.491,3.573,3.111,5.677.586,1.99.621,4.421,3.799,3.783.162-.033.371.169.556.264Zm-54.678,78.38c-1.115-.183-1.571.533-1.915,1.403-.214.543-.429,1.086-.647,1.628-.432,1.073-.995,1.192-1.659.197-.742-1.112-1.369-.922-1.934.141-.558,1.049-1.491,1.791-2.543,2.058-1.433.364-2.095,1.17-2.423,2.513-.939,3.849-2.016,7.666-2.86,11.535-.43,1.97-1.289,3.74-.92,6.056.585,3.673,1.213,7.47.43,11.266-.292,1.415-.991,3.342-.364,4.221,1.105,1.547.736,2.786.385,4.209-.926,3.759-2.203,7.463-1.715,11.431.154,1.254-.181,2.468-.617,3.565-.703,1.769-.862,3.559-.939,5.418-.161,3.89.086,7.78-.014,11.662-.085,3.31,1.359,5.966,2.901,8.655.208.363.453.811.962.401,2.457-1.981,5.398-1.986,8.32-2.051,1.561-.035,2.163-.836,1.43-2.218-1.656-3.122-3.446-6.157-5.732-8.894-1.286-1.541-2.183-3.43-2.236-5.462-.213-8.238.036-16.476,1.204-24.635.283-1.975-.313-4.1.921-5.973,1.145-1.739,1.442-3.816,1.865-5.809.184-.865.531-2.012-.208-2.653-1.255-1.087-.916-2.376-.526-3.463,2.123-5.929,4.426-11.793,6.578-17.712.891-2.45,2.224-4.786,2.234-7.506.043-.014.086-.028.13-.042-.036.02-.071.04-.106.06Zm83.899-58.665l.024.025c.794-1.515,2.388-2.673,2.085-4.678-.078-.516.249-1.258-.348-1.485-.656-.249-1.028.464-1.33.919-2.337,3.529-6.162,5.01-9.597,7.024-.719.421-1.515.32-1.85-.419-.383-.844.406-1.112,1.051-1.366,2.982-1.174,5.39-3.139,7.516-5.489.258-.285.56-.561.398-.985-.175-.457-.591-.534-1.034-.574-1.135-.104-2.148.371-3.155.735-3.001,1.083-5.52,2.892-7.594,5.324-.424.497-1.048.958-1.619.44-.557-.505-.041-1.103.348-1.529.869-.952,1.803-1.844,2.675-2.793.68-.739,2.065-1.146,1.805-2.353-.273-1.262-1.588-.711-2.478-.863-.041-.007-.084-.017-.121-.035-2.075-.999-4.2-.563-6.25-.04-2.436.622-4.105,2.476-5.88,4.123-.245.227-.494.728-.932.419-.443-.312-.031-.692.095-1.002.926-2.283,2.633-3.697,4.969-4.396.543-.163,1.106-.58.433-.996-1.003-.621-2.176-1.297-3.412-.879-3.023,1.021-5.824,2.495-8.299,4.54-.475.393-.783.85-.764,1.51.127,4.201.201,8.405.38,12.603.051,1.2.96,2.096,1.563,3.085.195.32.673.345.747.142.555-1.517,2.464-2.25,2.405-4.087-.059-1.852-.085-3.694.438-5.497.068-.233.116-.472.174-.708.067.261.156.518.198.783.281,1.776-.314,3.66.477,5.344.431.917.575,1.717.488,2.733-.184,2.161-.012,4.655,1.723,5.911,3.598,2.605,7.488,4.931,12.344,3.774.612-.146,1.509-1.051,1.816-.148.235.691-1.053.696-1.642,1.014-.584.316-1.679.24-1.296,1.225.341.877,1.323.538,2.016.273,1.362-.52,2.657-1.234,4.042-1.669,1.206-.379,1.746-1.022,2.361-2.187.968-1.833,1.652,1.287,2.898.596.293-.162.796.329.529.73-1.193,1.792.261,2.947,1.191,3.878.879.88,1.817-.513,2.751-.823.456-.152.801-.611,1.247-.828,1.981-.963,2.291-2.417,1.386-4.31-.229-.479-.329-1.028-.44-1.555-.417-1.977-1.178-3.822-2.127-5.595-.496-.927-1.361-.94-2.188-.704-1.019.292-.355,1.015-.254,1.554.185.983.247,2.044.681,2.912.489.977-.085,2.392,1.247,2.993.3.135.927-.099.813.492-.068.354-.426.761-.762.935-1.211.627-1.964-.066-2.331-1.113-.608-1.73-1.185-3.485-1.571-5.273-.526-2.435-1.247-2.979-3.692-2.408-.65.152-1.3.314-1.958.417-1.109.172-1.436.76-.752,1.638.971,1.248,2.056,2.409,3.104,3.596.269.304.719.527.263,1.014-.388.415-.751.265-1.088-.049-.58-.539-1.158-1.08-1.711-1.645-.985-1.008-1.783-2.505-2.97-2.93-1.307-.468-2.459,1.119-3.752,1.66-.886.371-1.496.049-1.557-.774-.074-.993-.551-1.058-1.314-1.004-.541.038-1.095.018-1.633-.056-.412-.057-.649-.373-.659-.806-.009-.386.171-.611.569-.702,3.419-.779,6.813-1.676,10.331-1.947,4.959-.382,9.968-.46,14.75-2.062,2.055-.689,4.409-.795,5.816-2.855.841-1.231,2.079-1.974,3.349-2.73,1.558-.927,3.01-1.929,3.296-4.093.305-2.309.097-4.621.384-6.907.291-2.322-.313-4.33-1.504-6.309-1.125-1.869-2.717-3.526-2.933-5.88-.051-.552-.395-1.259-1.171-.988-1.875.654-3.811.888-5.761,1.171-1.388.201-.987,1.497-.734,2.367.139.478.046,1.551,1.139,1.229.409-.12.801-.392,1.131.025.121.154.125.516.028.703-.215.414-.623.538-1.082.434-.813-.184-.943.274-.882.924.064.688.476,1.268,1.111,1.015,1.079-.431,1.983-.016,2.928.26.54.157,1.312.255,1.404.883.109.74-.798.698-1.217,1.05-.145.122-.34.183-.512.272.15.049.297.131.45.142.54.038,1.118.177,1.096.786-.025.665-.663.746-1.225.832-.408.062-.809.2-1.199.344-.332.123-.779.134-.768.678.009.487.406.669.722.778.989.344,1.403.968,1.256,2.008-.048.337.187.598.374.889.279.431.931.881.248,1.514-.647.6-1.193.283-1.785-.111-.865-.576-1.765-1.099-2.645-1.652-.791-.497-1.605-.515-2.379-.025-.818.518-.436,1.342-.421,2.063.031,1.521.868,2.988.129,4.571-.629,1.348-1.785,1.97-3.028,2.435-1.112.417-.651-.895-1.126-1.219-.136-.093-.306-.136-.46-.202Zm-57.092-67.096c-1.687,2.225-3.358,4.462-5.066,6.67-1.769,2.286-3.527,4.765-6.509,5.413-5,1.087-10.234.706-15.163,2.495-2.538.922-5.383.627-8.002,1.439-2.709.841-5.437,1.627-8.173,2.375-1.445.395-3.148.3-4.355,1.043-5.968,3.675-12.322,6.009-19.316,6.839-3.396.403-6.778,1.122-9.699,3.357-1.467,1.123-2.663,2.752-4.923,2.972-1.221.119-2.158-.398-3.253-.389-3.154.026-6.314.109-9.461-.049-8.252-.414-16.498-.95-24.747-1.423-1.343-.077-2.696-.013-4.034-.134-4.803-.434-9.603-.907-14.402-1.391-3.293-.332-6.582-.702-9.871-1.063-5.915-.65-11.826-1.316-17.787-1.449-2.242-.05-1.114,1.846-1.765,2.704-.439.579.277.8.671,1.089.75.549,1.605,1.09.822,2.221-.353.51-.771,1.345-1.386.98-.963-.57-2.368-1.097-2.472-2.276-.122-1.388-.815-1.178-1.645-1.106-.419.036-.833.134-1.252.154-2.327.114-4.844.866-6.315-1.905-.206-.388-.669-.347-1.036-.259-2.739.653-5.452,1.332-7.736,3.153-5.307,4.229-10.786,8.241-15.874,12.747-.632.56-.936,1.822-1.026,1.796-1.492-.413-2.029.967-2.975,1.495-4.26,2.374-7.624,5.629-9.721,10.102-.729,1.555-.974,3.281-1.598,4.831-1.597,3.966-2.49,8.119-3.702,12.187-.54,1.815-.424,3.794-.861,5.509-1.299,5.097-1.229,10.014.718,14.813,2.143,5.281,5.567,9.755,9.589,13.771,4.388,4.382,8.78,8.76,13.162,13.149.271.271.531.62.921.529.363-.085.308-.515.193-.753-1.364-2.802-2.437-5.831-4.985-7.833-1.88-1.477-3.439-3.193-4.561-5.261-2.612-4.813-4.757-9.847-6.422-15.058-.808-2.53-1.706-5.108-1.476-7.847.524-6.217,2.461-12.187,3.246-18.359.05-.394.279-1.002-.147-1.146-.569-.192-.663.462-.853.867-1.409,2.996-2.31,6.155-3.139,9.351-1.328,5.121-2.63,10.225-1.404,15.573.108.472.246,1.145-.373,1.316-.678.188-.883-.464-1.045-.98-1.021-3.264-.622-6.563-.259-9.869.299-2.72,1.64-5.325,1.645-7.946.006-3.179,1.139-5.769,2.447-8.413,2.49-5.035,5.778-9.646,7.934-14.863.168-.407.552-.718,1.107-.681.607.04.739.436.84.92.434,2.08-.383,3.894-1.077,5.785-1.915,5.22-3.133,10.627-4.03,16.109-.18,1.101-.659,2.129-.408,3.326.377,1.797.599,3.629.836,5.453.422,3.241,1.123,6.404,2.352,9.446,2.768,6.847,6.7,12.764,13.166,16.694.214.13.6.35.404.661-.09.143-.563.167-.798.076-2.373-.919-4.658-1.909-6.566-3.748-3.383-3.26-5.53-7.276-7.564-11.398-.174-.353-.466-.647-.704-.969-.383.317-.16.688-.073,1.029,1.698,6.672,5.102,12.437,9.216,17.891,2.15,2.85,4.479,5.597,6.045,8.882,1.276,2.675,1.336,5.551,1.955,8.334.716,3.219.896,6.445,1.292,9.67.149,1.213-.848,2.266-.489,3.557.492,1.768.878,3.567,1.277,5.36.21.943.555,2.305-.077,2.771-1.718,1.265-1.148,2.903-1.223,4.469-.036.742.24,1.543-.293,2.198-.871,1.07-.971,2.361-1.195,3.643-.555,3.168-1.184,6.323-1.777,9.484-.572,3.047-.638,6.103.494,9.022,2.473,6.372,5.065,12.691,5.921,19.559.236,1.894.806,3.746,1.208,5.62.866,4.032,2.588,7.946,2.116,12.17-.277,2.48.546,3.912,2.843,4.835,1.209.486,2.763.846,3.17,2.405.448,1.719,1.546,2.185,3.18,2.106,2.141-.103,4.289-.08,6.434-.098.425-.004.891.031,1.036.533.143.493-.359.619-.618.842-1.706,1.473-3.763,1.202-5.773,1.099-1.205-.062-1.856.224-1.265,1.586.146.336.113.746.217,1.106.347,1.196.574,2.432,2.082,2.848,4.288,1.184,8.56,2.028,13.056,1.109,2.385-.487,3.409-2.106,2.248-4.192-.223-.401-.489-.804-.596-1.24-.945-3.872-3.886-5.65-7.224-7.134-4.431-1.97-6.687-5.992-8.897-9.971-.327-.588.162-1.572.844-1.902.738-.358,1.136.461,1.365.965.716,1.578,1.843,2.881,2.724,4.342,1.025,1.7,1.991.723,2.974.01,1.188-.861.297-1.468-.276-2.113-1.463-1.647-3.384-2.998-4.199-5.083-1.823-4.662-2.211-9.652-2.414-14.566-.306-7.395-.127-14.81-.158-22.221.09-.177.181-.354.271-.532-.057-.012-.113-.023-.17-.035-.026.199-.052.398-.078.597-.572-.019-.652.499-.82.836-2.127,4.267-2.537,8.939-2.565,13.545-.015,2.437.091,4.936.22,7.403.268,5.138,1.828,10.04,2.692,15.068.09.523.392,1.201-.294,1.43-.767.257-1.083-.411-1.322-1.022-1.561-3.996-2.177-8.218-2.999-12.394-.4-2.03-.12-4.171-.657-6.104-.656-2.362-.8-4.776-.667-7.07.23-3.969.973-7.862,3.326-11.384,2.205-3.301,3.049-7.272,4.205-11.064,1.24-4.066,2.528-8.126,4.046-12.093.652-1.703.125-3.506,1.162-5.193,3.269-5.321,6.64-10.595,9.113-16.371,1.097-2.563,2.827-4.92,3.533-7.568.796-2.981,1.76-5.908,2.624-8.862.888-3.036,2.094-5.98,3.154-8.966,1.36-3.834,2.265-7.862,4.799-11.194.386-.507.788-1.193,1.491-.753.556.348.449,1.179.133,1.617-.965,1.334-1.256,2.909-1.687,4.412-.398,1.386-1.484,2.706-1.088,4.18,1.107,4.125,2.861,7.986,5.177,11.59.446.695,1.051,1.037,1.77,1.287,2.637.918,5.335,1.689,7.9,2.775,9.102,3.855,18.606,5.659,28.45,5.855.461.009.985.097,1.376-.08,3.04-1.373,6.328-1.049,9.506-1.477,2.569-.345,5.068-.979,7.55-1.778,2.347-.755,4.496-2.024,6.851-2.638,2.454-.64,3.668-2.325,2.748-4.745-.939-2.472-1.011-4.993-.741-7.564.052-.492.278-.896.733-1.1.295-.133.651-.048.724.292.346,1.618,1.686,2.715,2.136,4.32.418,1.489.518,3.174,1.765,4.343,2.147,2.012,3.067,4.837,4.66,7.217,1.135,1.697,1.36,3.956,1.477,6.185.131,2.489.541,5.021.983,7.522.7,3.964,1.822,7.831,2.448,11.801.325,2.062,1.38,4.217.596,6.195-1.125,2.839-.702,5.71-.927,8.569-.264,3.349-.324,6.685.507,9.98.54,2.139,1.457,4.277,1.5,6.429.153,7.556.311,15.128-.815,22.651-.203,1.356-.811,2.65-.595,4.083.496,3.284,1.476,6.437,2.741,9.482.861,2.071,1.762,3.947,1.319,6.398-.273,1.508-1.059,3.25-.522,4.651.977,2.549.786,5.108.825,7.682.024,1.617.899,2.385,2.297,2.675,3.329.691,6.704.988,10.103.976,2.415-.008,4.643-1.564,5.582-3.789.156-.369.252-.662.085-1.063-1.091-2.62-2.189-5.238-3.207-7.886-.349-.907-.945-1.029-1.691-.787-3.669,1.19-7.68,1.359-10.974,3.67-.304.213-.653.296-.91-.006-.267-.314-.056-.597.169-.887,1.841-2.37,4.24-3.82,7.183-4.358,1.319-.241,2.662-.362,3.969-.652.632-.14,1.659-.194,1.482-1.183-.274-1.535-.23-3.159-1.302-4.517-.816-1.034-1.608-2.169-2.064-3.389-1.28-3.423-1.186-7.075-1.404-10.654-.483-7.933.587-15.874-.096-23.817-.264-3.072.477-6.067,1.357-8.994,1.035-3.445,2.277-6.843,1.641-10.548-.177-1.031-.125-2.118-.42-3.108-.59-1.978,1.232-3.074,1.565-4.725.363-1.802.703-3.612,1.084-5.407,1.42-6.688,2.563-13.446,4.478-20.017.901-3.091.808-6.493,2.82-9.256.267-.367.065-.866-.089-1.328-.781-2.331-1.518-4.676-2.236-7.027-.072-.236.085-.542.136-.816.214.091.566.132.62.281,1.38,3.806,4.205,7.271,2.805,11.744-.122.389-.236.858.166,1.169.368.285.689-.055,1.043-.148,3.182-.841,4.244-3.698,5.7-6.099,2.265-3.736,3.572-7.808,3.652-12.229.016-.893.212-2.005,1.31-1.933.958.063,1.048,1.124,1.077,1.995.044,1.311-.183,2.587-.371,3.878-1.001,6.904-3.97,12.487-10.394,15.82-.331.172-.642.393-.932.629-.182.148-.45.38-.432.548.042.388.467.332.72.318,1.809-.099,3.179-1.04,4.444-2.269,2.441-2.371,4.632-5.019,7.567-6.853,1.271-.794,2.706-1.296,3.851-2.317,3.392-3.023,4.801-7.235,6.727-11.133,1.147-2.322.466-4.889.814-7.332.371-2.604.164-5.291.195-7.942.003-.267.079-.675-.329-.697-.19-.01-.499.213-.576.402-1.029,2.535-2.963,4.681-3.245,7.534-.027.27-.381.591-.042.792.28.166.485-.177.72-.35,1.119-.82,2.477-.395,2.409.814-.102,1.832-.442,3.681-1.544,5.215-.856,1.191-1.94.928-2.573-.399-.465-.975-.069-2.014-.414-2.969-.874-2.414-.508-4.725.402-7.062,1.292-3.321,3.648-6.033,5.052-9.328,1.102-2.585,3.197-4.734,4.736-7.15,1.844-2.893,4.386-5.623,3.998-9.351-.565-5.429.296-10.644,2.164-15.641,2.033-5.436,5.397-9.901,11.175-11.928,3.465-1.216,3.394-1.148,2.791-4.451-1.133-6.21-.417-12.15,2.925-17.639.345-.567.623-1.421,1.427-1.089.884.366.193,1.172.152,1.783-.013.192-.175.375-.267.562-1.484,2.994-2.835,6.27-2.424,9.473.54,4.208,1.789,8.344,6.369,10.572,1.679.817,3.037.716,4.598.589.681-.056,1.369-.02,1.67.586.54,1.089,1.627,1.521,2.401,2.301,1.715,1.728,4.265,3.157,2.87,6.345-.245.561.014,1.111.634,1.308,1.724.55,3.09,1.684,4.365,2.859,2.05,1.889,4.939,2.386,6.9,4.442,1.339,1.404,2.259,3.092,3.533,4.52.299.335.763.882,1.138.514.995-.978.604-2.536,1.312-3.689.105-.172-.15-.675-.546-.72-.233-.026-.485.153-.726.146-1.16-.036-2.265-.282-2.212-1.743.036-.99.545-1.887,1.482-2.331.872-.414,1.718-.15,2.446.471,2.111,1.802,3.513,4.121,4.74,6.558.347.689-.134,1.997,1.032,2.012,1.044.013.108-1.136.591-1.726,1.136-1.386.646-2.962.271-4.543-.35-1.475-.833-2.914-.325-4.559.69-2.232,0-4.294-1.623-6.011-.696-.737-1.328-1.514-1.311-2.615.032-1.978-.162-3.993.159-5.922.267-1.606-.055-3.813,2.466-4.242.41-.07.393-.571.495-.94.823-2.987.084-5.666-1.52-8.203-.201-.318-.282-.818-.699-.796-.538.029-.282.594-.404.912-.358.926-.57,2.028-1.846,2.08-1.244.051-1.813-.783-2.213-1.848-.319-.847-.495-1.701-.407-2.587.101-1.009-.667-2.43.741-2.883,1.283-.413,1.482,1.014,2.006,1.802.237.355.589.788,1.002.519.493-.321-.075-.684-.236-.936-2.143-3.349-3.163-7.056-3.593-10.962-.069-.631-.23-1.519-.735-1.647-1.886-.479-2.975-2.135-4.647-2.9-.737-.337-1.675-.654-2.131-.122-1.435,1.675-2.86.681-4.187.112-3.769-1.615-6.593-4.503-9.451-7.324-.381-.376-.747-.992-1.301-.855-.626.155-.584.907-.794,1.445-.647,1.656-1.365,3.287-2.128,4.893-.236.496-.745.778-1.374.676-.538-.087-.897-.468-.9-.917-.019-2.422-.357-4.864.258-7.258.685-2.668,1.441-5.317,2.111-7.989.12-.478.378-1.175-.232-1.482-.533-.268-.914.303-1.25.634-2.4,2.363-2.88,5.597-3.387,8.629-.44,2.631-.298,5.439.821,8.046.224.522.445,1.34-.261,1.7-.821.418-1.172-.355-1.545-.901-.233-.342-.375-.769-.664-1.047-1.939-1.862-2.652-4.085-2.109-6.721.082-.399.238-.9-.136-1.192-.437-.341-.941-.142-1.431.042-1.287.482-2.586.929-3.886,1.376-1.477.508-2.86,1.027-3.407,2.777-.809,2.586-1.775,5.123-2.699,7.672-.211.581-.297,1.609-1.085,1.369-.775-.235-.242-1.053-.041-1.628.359-1.028.711-2.059,1.033-3.1.106-.344.314-.868-.068-1.029-.383-.161-.611.388-.752.68-.653,1.351-1.236,2.736-1.851,4.106-2.417,5.385-4.25,10.941-5.428,16.746-.542,2.669-1.525,5.287-2.919,7.692-.175.302-.38.661-.741.546-.409-.131-.272-.596-.207-.885.203-.895.473-1.775.725-2.659.1-.351.342-.693.039-1.057-.236.265-.583.492-.692.801-1.268,3.623-3.575,6.582-5.995,9.469-.352.42-.682,1.27-1.296.83-.379-.272.258-.933.535-1.372,2.228-3.534,4.498-7.036,5.467-11.195.853-3.661,1.811-7.298,2.714-10.947.601-2.428,1.616-4.744,1.956-7.243.051-.053.103-.106.154-.159-.043.062-.086.124-.129.185Zm59.093,183.177c0-.757.013-1.515-.005-2.272-.013-.529.166-1.226-.489-1.431-.622-.195-.905.478-1.238.86-.849.972-1.63,2.004-2.475,2.98-.282.326-.634.911-1.091.623-.45-.285-.146-.825.105-1.229,1.143-1.84,2.215-3.728,3.439-5.513,1.574-2.297,3.459-4.373,3.845-7.33.716-5.492.792-11.017.93-16.532.117-4.662.726-9.304.501-13.981-.068-1.414.133-2.846.283-4.262.044-.416.296-.813-.138-1.138-.442-.331-.687.126-.981.3-.393.233-.738.544-1.123.793-4.767,3.088-9.758,5.009-15.437,2.654-1.159-.481-1.391-.029-1.332.92.18,2.892.394,5.782.616,8.671.068.886.42,1.19,1.178.477.455-.428,1.072-.51,1.506-.146.677.567.325,1.412.277,2.141-.036.559-.476.849-.978.75-2.123-.416-1.447.943-1.301,1.984.261,1.865.528,3.729.768,5.597.047.369.044.821-.447.912-.262.048-.607,0-.823-.144-.375-.248-.442-1.148-1.029-.787-.289.178-.201,1.008-.236,1.546-.036.545-.001,1.094-.02,1.64-.025.75.173,1.175,1.006.74.595-.31.908.031,1.246.463.358.458.442.955.145,1.395-.288.427-.745.669-1.316.375-.862-.444-1.11-.043-1.091.79.047,2.019.059,4.039.099,6.058.015.742.187,1.288,1.159,1.269.629-.012,1.228.318,1.36,1.071.137.781-.078,1.454-.844,1.76-.635.253-1.02.624-.926,1.306.586,4.229,1.241,8.455,2.583,12.518.992,3.005,2.205,5.937,3.33,8.898.157.413.338.833-.125,1.124-.529.332-.829-.098-1.13-.444-1.369-1.572-2.026-3.53-2.881-5.374-1.24-2.674-1.614-5.612-2.43-8.416-.26-.894-.921-.901-1.593-.846-.826.068-.641.763-.626,1.27.027.882.078,1.768.201,2.641,1.01,7.175,3.284,14.104,4.186,21.302.065.516.279,1.111-.337,1.292-.533.156-.756-.443-.891-.859-.668-2.067-1.288-4.149-1.952-6.217-.092-.287.002-.872-.381-.798-.429.082-.248.654-.212.99.334,3.082.721,6.153,1.411,9.184,1.408,6.192,1.899,12.709,6.475,17.746.264.29.332.737.073,1.06-.291.362-.654.165-1.013-.014-2.043-1.02-3.132-2.833-3.95-4.828-2.075-5.066-2.812-10.48-4.032-15.769-.059-.255.104-.611-.289-.74-.068.27-.174.537-.198.812-.19,2.129.184,4.295-.402,6.397-.144.517.12,1.408-.722,1.387-.866-.021-.83-.883-.941-1.542-.056-.331.141-.763-.308-.976-.07.364-.203.728-.2,1.091.027,3.499-.203,6.956-1.481,10.268-.198.513-.302,1.167-.997,1.067-.762-.11-.575-.837-.571-1.341.013-1.64.089-3.28.117-4.92.005-.267.093-.677-.287-.743-.401-.069-.404.386-.49.618-.246.662-.44,1.347-.608,2.034-.669,2.743-1.479,5.511.783,7.962,1.377,1.492,2.641,3.475,4.795,3.501,1.679.021,3.271.273,4.807.694,4.946,1.356,11.537-.781,14.719-5.016.864-1.151,1.169-2.375.854-3.773-.285-1.263-.746-2.526-.781-3.798-.226-8.261-1.52-16.508-.527-24.785.637-5.31.063-10.672.876-15.968Zm-39.344-105.521c.128,3.173-.502,6.399.463,9.528.068.219.184.423.278.634.089-.212.255-.424.257-.637.033-4.755.833-9.463.978-14.194.144-4.687-.31-9.393-.508-14.091-.012-.293-.024-.602-.123-.871-.124-.339-.354-.925-.51-.916-.524.03-.302.576-.369.905-.664,3.278-2.299,6.269-2.839,9.586-.035.212-.073.699-.467.626-.37-.069-.223-.484-.255-.755-.289-2.428.343-4.77.791-7.105,1.05-5.479,2.201-10.933,1.805-16.568-.06-.861-.141-2.012-.744-2.304-1.373-.665-1.322-1.925-1.758-2.992-.347-.849-.657-1.714-.955-2.581-.267-.775-.784-.956-1.472-.619-.758.371-.791.874-.401,1.646,1.726,3.412,2.441,7.127,2.694,10.88.234,3.478.064,6.983.047,10.476-.003.545.191,1.399-.651,1.38-.721-.016-.885-.788-.915-1.449-.016-.336-.019-.674.006-1.009.25-3.406.227-6.82.02-10.22-.189-3.108-1.093-6.084-2.198-8.987-.328-.861-.766-1.248-1.631-.399-1.006.987-.58,1.798-.235,2.972,1.183,4.026,1.553,8.207,1.624,12.403.006.373.232,1.002-.335,1.056-.566.054-.625-.547-.7-1.018-.502-3.142-1.012-6.283-1.526-9.424-.033-.199-.146-.56-.183-.555-.369.049-.258.384-.246.593.097,1.794-.307,3.613.293,5.389.108.321.348.94-.306,1.007-.486.05-.497-.471-.537-.848-.182-1.708-.368-3.416-.541-5.124-.039-.382-.035-.782-.414-1.001-.48-.277-.7.207-.93.429-.492.476-.947.904-1.706.896-.529-.006-.733.553-.704.897.051.596.517.128.774.114,1.248-.07,1.319.653,1.231,1.62-.384,4.248-.421,8.512,1.059,12.562,1.7,4.653,2.745,9.367,2.662,14.341-.071,4.199.011,8.401.043,12.601.005.67-.055,1.405.186,1.999,1.71,4.21,2.14,8.586,1.854,13.069-.058.907.215,1.739.481,2.581.099.315.245.571.588.53.158-.019.391-.217.422-.367.668-3.27,1.687-6.488.757-9.914-1.197-4.406-.929-8.875-.449-13.375.428-4.004.54-8.021-.512-12.014-.758-2.877-2.027-5.724-1.282-8.835.056-.233.142-.662.195-.659.456.026.257.433.313.679.555,2.442.954,4.93,1.665,7.325,1.638,5.513,1.86,11.063,1.021,16.727-.331,2.237-.529,4.607.04,6.78,1.16,4.43,1.086,8.762.003,13.162-.265,1.075-.824,2.726.521,3.131,1.3.391,1.628-1.344,2.208-2.302.081-.135.097-.326.097-.49-.016-4.987.816-10.005-.136-14.955-1.267-6.592-.475-13.128.127-19.685.035-.377.071-.843.574-.835.573.009.445.548.448.876.023,2.566.013,5.132.013,7.698Zm15.664,40.146c-.264,2.096.193,4.07.986,6.002,1.75,4.261,3.967,5.873,7.422,4.943,8.867-2.385,12.182-8.635,11.198-17.358-.192-1.705-1.216-3.209-2.909-4.155-3.382-1.889-6.81-1.635-10.284-.45-2.231.761-4.453,1.607-5.286,4.145-.73,2.228-1.517,4.456-1.127,6.873Zm-4.644,57.485c.087.265.101.627.248.693.409.183.65-.229.958-.418.537-.329,1.074-1.185,1.704-.602.518.479.199,1.299-.049,2.008-1.471,4.206-2.853,8.444-4.332,12.647-1.319,3.75-2.131,7.644-2.831,11.518-.429,2.375-1.066,5.049.558,7.393.305.44.156.814-.021,1.281-.59,1.55.457,2.604,1.545,3.159,1.132.577,1.239-.799,1.481-1.493.772-2.205,1.45-4.442,2.144-6.673.067-.215-.004-.473-.011-.712-.201.111-.473.172-.592.341-.553.782-1.074,1.587-1.584,2.398-.232.369-.285,1.026-.892.829-.495-.161-.282-.735-.25-1.123.04-.494.189-.979.29-1.469.521-2.541,2.049-4.646,3.042-6.984,1.278-3.007,2.198-6.123,3.119-9.243.086-.29-.038-.641-.064-.964-.178.072-.379.112-.529.223-.349.257-.763.579-1.126.274-.402-.337-.143-.848.002-1.285,1.051-3.167,2.11-6.332,3.129-9.509.116-.361.537-1.164-.536-.846-.349.103-.656.41-1.012.027-.364-.392-.128-.745.006-1.15.861-2.616,1.692-5.241,2.522-7.867.155-.49.281-1.275-.522-.878-.696.344-1.227.242-1.869.15-1.146-.165-2.093-.17-2.061,1.503.017.87-.449,1.766-.774,2.621-.531,1.395-1.125,2.765-1.695,4.151Zm33.297-53.534c-.586-3.842-1.124-6.395-1.335-8.974-.351-4.29-3.62-6.503-6.269-9.14-.692-.688-1.722.047-2.221.589-.62.673.112,1.421.555,1.984.769.977.815-.29,1.21-.475.587-.275,1.163-.427,1.528.224.344.612.078,1.351-.525,1.449-1.783.289-.895,1.159-.601,2.015,1.047,3.044,2.255,6.067-.028,9.163-.574.779-.871,1.951.903,2.069.787.052,1.11.822,1.269,1.532.099.44-.29.732-.61.861-.736.296-.991-.357-1.351-.801-.284-.351-.566-1.113-1.106-.457-.422.513-1.436,1.116-.512,1.973.734.68.994,1.497.443,2.216-.479.624-1.269.363-1.913-.107-.459-.335-.998-.273-1.38.137-2.469,2.65-5.559,4.009-9.092,4.551-.383.059-1.322-.14-1.178.741.114.699.831.89,1.457.981,1.87.272,3.692-.028,5.433-.694,4.142-1.584,7.993-3.785,11.763-6.064,1.701-1.028,4.11-2.119,3.559-3.773Zm-28.687,36.573c.172,1.965.323,3.761.492,5.555.022.234.101.636.211.656.432.081.344-.383.459-.608,1.563-3.04,2.01-6.387,2.339-9.699.482-4.847.769-9.719.632-14.604-.043-1.541-.123-3.086.361-4.621.286-.908.278-1.942-.717-2.595-1.324-.868-2.631-1.767-3.987-2.583-.43-.259-.906-.788-1.487-.424-.567.356-.361,1.009-.296,1.511.691,5.264,1.579,10.489,3.278,15.54.134.4.428.889.04,1.146-.343.228-.61-.252-.856-.533-.21-.24-.547-.638-.72-.589-.474.134-.266.638-.24.978.042.538.15,1.076.287,1.6.559,2.142,1.157,4.273,1.694,6.42.089.355.243,1.129-.225,1.076-1.885-.216-1.18,1.091-1.266,1.772Zm-8.443,68.441c1.017.276,1.497-.381,1.732-1.116.587-1.828,1.072-3.69,1.573-5.545.084-.312.124-.694-.297-.858-.401-.156-.653.099-.828.39-.363.605-.649,1.262-1.049,1.84-.176.255-.278.829-.808.578-.395-.187-.456-.612-.365-.992.233-.973.472-1.949.78-2.9.523-1.615.051-2.413-1.66-2.507-1.864-.103-3.634-.499-5.307-1.335-.452-.226-1.093-.492-1.337.063-.341.777.505.606.893.82.553.305,1.505.53,1.262,1.288-.21.656-1.064.722-1.762.404-1.055-.481-1.408.029-1.613,1.007-.367,1.755-.789,3.501-1.274,5.226-.312,1.108.039,1.73,1.063,2.174,2.889,1.251,6.083.56,8.996,1.463ZM40.344,164.816c-.101-.241-.208-.427-.259-.628-.761-2.989-2.007-5.881-2.105-9.002-.043-1.362-.443-2.35-1.406-3.299-6.143-6.054-12.43-11.966-18.328-18.266-.253-.27-.567-.709-.898-.441-.38.308-.056.758.16,1.128,2.559,4.375,5.938,8.152,8.94,12.202,2.801,3.779,6.263,7.043,8.674,11.135,1.396,2.368,2.884,4.682,4.343,7.013.166.266.295.654.723.565.081-.017.111-.28.156-.408Zm161.065,83.173c1.351.079,2.663-.084,3.993-.363,1.651-.347,2.197-1.109,1.627-2.744-.631-1.81-1.305-3.606-1.905-5.426-.264-.801-.68-1.19-1.556-1.08-2.993.376-5.847,1.48-8.876,1.673-.172.011-.464.316-.467.489-.055,2.916,1.051,5.434,2.726,7.747.237.327.651.386.905.208,1.116-.78,2.36-.415,3.553-.504ZM242.341,17.937c-.038-.534-.304-.708-.674-.738-.789-.063-1.541-.107-2.334.233-2.468,1.058-4.397,2.856-6.438,4.503-.673.543-1.789.798-1.94,1.675-.262,1.524-1.339,2.094-2.465,2.742-4.441,2.556-8.759,5.31-12.946,8.264-.261.184-.867.253-.629.767.175.378.612.122.92.076,2.974-.445,5.439-2.057,7.901-3.598,3.776-2.363,8.205-3.769,10.977-7.652.54-.756,2.336-1.065,2.877-.446,1.038,1.186,1.187.365,1.577-.302.4-.684.863-1.355,1.124-2.093.467-1.319,1.252-2.43,2.049-3.433Zm1.646,84.437c.186-6.341-.503-11.555-2.982-16.424-.151-.296-.172-.693-.623-.651-.123.011-.335.202-.328.298.161,2.181-.717,4.17-1.065,6.241-.467,2.775.069,5.705-.637,8.502-.462,1.831-.63,3.6.022,5.427.282.792.325,1.669.918,2.338.605-.745.531-1.64.554-2.514.108-4.203.824-8.328,1.595-12.446.073-.389.16-.817.63-.805.578.015.454.552.423.875-.267,2.787-.607,5.568-.852,8.357-.308,3.502-.755,7.032,1.011,10.333.146.272.449.71.6.68.393-.079.286-.543.301-.854.169-3.438.321-6.878.433-9.356ZM11.659,125.841c.346,1.696.523,3.471,1.075,5.119,2.469,7.363,6.164,14.005,11.72,19.544.883.88,2.3,1.091,2.869,2,1.107,1.768,2.667,3.079,3.961,4.645.336.407.582,1.06,1.33.915-.229-.474-.386-1.003-.697-1.415-3.963-5.259-8.057-10.425-11.885-15.78-2.039-2.853-5.267-5.367-3.946-9.657.038-.123-.081-.314-.164-.45-1.063-1.743-2.136-3.48-3.199-5.222-.179-.294-.331-.628-.758-.478-.362.127-.278.473-.306.779Zm24.162,61.02c-.323-2.574-.534-5.474-1.085-8.308-.533-2.74-1.32-5.443-2.519-7.992-.143-.303-.259-.702-.704-.754.016.324.013.65.051.971.395,3.332.896,6.655,1.174,9.996.444,5.323.317,10.661.046,15.99-.119,2.345-.61,4.646-1.226,6.914-.086.317-.358.76-.019.913.448.202.604-.308.734-.646,2.076-5.402,3.005-11.044,3.548-17.085Zm264.489-118.156c.854-.233,2.154.03,2.262-1.249.214-2.537.509-5.055.963-7.558.119-.656-.198-1.179-.466-1.764-.613-1.339-2.293-.054-2.884-1.281-.717.445-2.345-.699-2.186,1.329.066.842-.557,1.612-1.346,1.758-1.582.293-1.69.334-.766,1.872,1.135,1.888,2.408,3.693,2.892,5.906.162.743.697,1.13,1.531.988Zm-31.958,6.668c0,.672-.041,1.348.009,2.016.088,1.173.354,1.969,1.932,1.558,1.531-.399,3.168-.503,4.47.837.167.172.541.209.807.183.085-.008.223-.443.178-.648-.428-1.957-.686-3.984-1.401-5.834-.658-1.701-2.503-2.306-4.116-2.683-1.139-.266-1.319,1.192-1.775,1.969-.467.795-.089,1.731-.103,2.602Zm16.596,88.241c1.259-.286,2.845-.43,4.248-1.012,2.431-1.009,5.27-1.516,6.507-4.36.186-.428.551-.91.125-1.239-.377-.292-.864.09-1.243.329-3.319,2.094-7.113,2.992-10.761,4.245-.985.338-2.084.341-3.025.876.895.929,2.197.668,3.261,1.105.183.075.415.032.886.057Zm-208.425,88.005c.662-.057,1.14-.006,1.401-.53.259-.52-.03-.933-.308-1.256-2.028-2.351-4.335-4.389-7.077-5.869-1.094-.59-1.865.256-2.388,1.013-.582.842.405,1.109.876,1.466,1.192.902,2.42,1.757,3.652,2.604,1.317.905,2.655,1.778,3.844,2.572Zm202.21-173.851c.346,1.532.687,2.988.997,4.451.101.475.419.745.808.877,1.151.392,2.181.985,3.217,1.614.938.57,1.925-.031,2.465-.664.627-.736-.417-1.167-.875-1.462-1.463-.945-2.549-2.199-3.582-3.571-.532-.706-1.366-1.19-2.086-1.746-.178-.137-.575-.286-.64-.216-.173.187-.22.491-.305.716Zm4.176,42.137c1.703-.516,3.41-1.019,5.107-1.556.587-.186,1.624-.284,1.158-1.167-.49-.927-.682-2.599-2.421-2.072-1.586.481-3.144,1.075-4.667,1.729-.519.223-1.545.366-1.131,1.31.342.78.675,1.804,1.955,1.755Zm-1.166,3.383c-.473,0-.733.039-.976-.006-2.075-.385-1.083,1.617-1.733,2.368-.453.524.651.906,1.183,1.075,1.188.377,2.41.662,3.636.897.704.135,1.855.714,1.945-.464.087-1.132.709-2.793-1.073-3.336-1.02-.311-2.075-.729-2.981-.535Zm-14.119-113.222c-.686.054-1.18-.098-1.372.422-.173.468.008.85.326,1.257,2.648,3.382,5.939,5.977,9.686,8.025.204.111.449.148.674.219.112-.416-.194-.577-.461-.77-1.696-1.223-3.397-2.441-5.082-3.679-.911-.669-1.662-1.341-.473-2.491.554-.536.702-1.392-.15-1.81-1.077-.528-2.255-.851-3.148-1.174Zm-12.552,227.755c.048.292.047.467.107.618.256.652,3.509,2.124,4.207,1.942.395-.103.486-.408.364-.669-.857-1.828-1.016-3.866-1.748-5.715-.222-.561-.825-1.227-1.617-1.195-.451.018-.632.566-.678.949-.169,1.403.09,2.862-.634,4.069Zm19.632-118.658c-.377.02-.755.066-1.131.052-.386-.015-.969.146-.946-.498.022-.624.606-.511.981-.451.784.126,1.38-.282,1.998-.608.489-.259,1.151-.464.812-1.29-.309-.751-.93-.854-1.563-.664-.953.286-1.872.688-2.801,1.053-.957.376-1.264,1.035-.786,1.975.699,1.373,1.542,2.564,3.37,1.976,1.304-.419,2.637-.395,3.975-.429.261-.007.657-.104.747-.282.155-.308-.107-.579-.346-.85-.589-.668-1.317-.551-1.971-.33-.774.262-1.534.399-2.339.346Zm20.091,144.989c.201-.054.481-.195.761-.195,1.44.003,2.12-1.346,3.307-1.829.962-.391,2.677-.193,2.645-1.582-.03-1.336-1.683-1.11-2.656-1.554-1.578-.72-2.09-.07-2.388,1.371-.249,1.203-.841,2.264-2.049,2.806-.341.153-.631.328-.486.728.128.352.501.2.865.255Zm-36.315-38.157c.102.533.217,1.139.332,1.745.628-.292.605-.977.708-1.465,1.066-5.059,2.428-10.028,4.212-14.882.164-.446.806-1.107.121-1.386-.595-.242-.749.657-.973,1.097-.889,1.749-1.477,3.615-1.984,5.507-.827,3.087-2.025,6.081-2.416,9.384Zm8.268-112.859c.043,2.185.989,3.321,2.676,3.047,1.215-.197,2.381-.713,3.554-1.132.183-.065.382-.366.393-.567.019-.333-.35-.267-.569-.355-1.499-.604-3.035-1.136-4.482-1.846-1.199-.589-1.742-.484-1.572.854Zm-.616,38.177c.114.374.116.782.322.988,1.175,1.179,2.745,1.653,4.27,2.115.514.156.455-.443.194-.784-1.424-1.858-2.192-4-2.727-6.245-.028-.117-.092-.225-.139-.337-.094.05-.27.099-.271.15-.016,1.579-1.328,2.665-1.649,4.113Zm9.103-20.611c.047,1.056.812.673,1.543.417,2.848-.996,5.704-1.236,8.557-.022.354.151.773.417.917-.116.125-.462-.332-.591-.727-.661-2.273-.399-4.462-1.057-6.545-2.066-1.065-.516-3.598.999-3.745,2.447Zm-5.02-122.544c.463-.081,1.133.291,1.503-.4.365-.682-.494-4.851-1.053-4.863-1.514-.032-1.518,1.51-2.082,2.396-1.42,2.234-1.113,2.723,1.631,2.867Zm4.029,5.983c-.197.103-.412.145-.451.252-.045.124.021.339.115.452.158.19.362.349.57.487,1.671,1.111,3.093,2.491,5.214,3.044,1.208.315,2.226,1.767,3.468,2.532.316.194.683.61.97.281.278-.319-.195-.681-.414-.935-1.776-2.06-4.108-3.356-6.467-4.602-.989-.522-1.997-1.006-3.005-1.512Zm17.308,108.125c0,.019,0,.038,0,.057.251,0,.504.018.754-.004.59-.05,1.399.26,1.609-.565.194-.762.203-1.63-.359-2.281-.546-.632-1.115-.123-1.688.104-1.466.58-2.949,1.118-4.435,1.646-.323.115-.705.139-.662.591.045.462.458.441.778.445,1.334.016,2.669.007,4.004.007Zm-69.883-84.447c.272-.081.469-.151.671-.199,2.999-.7,4.703-2.972,6.377-5.27.203-.279.472-.868.391-.937-.389-.329-.729.125-1.107.22-2.243.563-2.862,3.033-4.763,3.998-.657.333-1.233.823-1.851,1.234-.227.151-.431.355-.276.604.11.176.386.248.559.35Zm15.8,43.032c-.265,1.417.279,2.86.51,4.341.031.197.103.547.17.551.366.02.312-.333.331-.544.323-3.607.633-7.215.931-10.824.018-.22.102-.585-.236-.607-.132-.009-.34.322-.424.533-.822,2.064-1.479,4.164-1.283,6.551Zm22.432,177.803c.955.218,1.399-.361,1.459-1.139.067-.87-.687-.924-1.327-.929-1.751-.014-3.499.021-5.201-.529-.435-.141-.986-.107-1.105.5-.096.489.31.835.689.924,1.819.431,3.655.789,5.485,1.173Zm31.706-133.878c-.64.149-1.913-.295-1.902,1.123.009,1.173.393,2.142,2.032,2.02,1.406-.104,1.892-.593,1.859-1.987-.034-1.444-.938-1.196-1.989-1.156Zm-18.777,110.101h.009c0-1.635.028-3.272-.019-4.905-.013-.435.273-1.21-.408-1.237-.57-.023-.556.71-.612,1.212-.393,3.494.34,6.933.515,10.398.009.183.147.515.214.512.358-.015.292-.351.294-.571.014-1.803.008-3.606.008-5.409Zm2.529-27.867c.185.622.084,1.768.769,1.716.69-.053,1.718-.754,1.589-1.791-.19-1.526-.594-3.026-.916-4.536-.023-.11-.117-.205-.178-.307-.085.118-.218.226-.248.357-.344,1.502-.673,3.007-1.016,4.56Zm-19.342-132.184c.019,1.852.268,3.666.886,5.417.074.21.294.368.446.55.064-.219.239-.48.174-.65-.47-1.239-.147-2.452-.025-3.695.148-1.51-.163-2.993-.809-4.382-.073-.157-.262-.26-.397-.388-.091.17-.257.338-.262.51-.027.879-.012,1.759-.012,2.638Zm9.776,68.201c0,.462-.014.924.008,1.385.007.144.108.283.166.424.059-.097.146-.187.173-.292.564-2.263,1.127-4.527,1.672-6.794.049-.204.212-.549-.173-.605-.123-.018-.324.223-.426.385-1.052,1.68-1.358,3.561-1.419,5.497Zm-3.744-61.159c-.612.034-1.259-.015-1.862.125-.642.149-1.206.555-.981,1.346.238.838.93.521,1.473.422.487-.089.97-.242,1.429-.43.724-.297,1.47-.573,2.001-1.2-.634-.48-1.367-.111-2.06-.262Zm6.182,57.038c.077.345.135.858.201.859.4.006.297-.415.388-.651.641-1.658,1.252-3.327,1.859-4.998.113-.312.22-.685-.177-.883-.443-.22-.617.126-.893.417-1.455,1.535-.624,3.609-1.378,5.257Zm-20.242,102.586c0,.795-.011,1.589.007,2.383.005.226-.062.588.279.596.332.008.284-.35.315-.58.286-2.145.566-4.292.838-6.439.03-.235.1-.567-.237-.618-.31-.046-.497.173-.637.478-.617,1.339-.596,2.757-.566,4.179Zm5.736-9.499c-.283-.692.257-1.54-.455-1.676-.339-.065-.605.888-.676,1.471-.177,1.451-.348,2.903-.492,4.357-.025.254-.17.627.22.737.062.018.297-.349.351-.563.377-1.485.727-2.977,1.052-4.325Zm18.069-101.46c.073.478-.077.867.314.936.193.034.489-.117.635-.278.735-.811,1.113-1.822,1.466-2.836.122-.349-.032-.655-.339-.864-.408-.277-.681.054-.81.307-.483.946-.899,1.926-1.267,2.734Zm-194.493,33.044c-.182-1.378-.339-2.614-.513-3.848-.027-.19-.133-.528-.201-.528-.383.001-.277.353-.283.565-.039,1.336-.144,2.68-.042,4.007.069.896-.464,1.832.154,2.689.744-.879.621-2.005.886-2.884Zm3.586-4.716c-.096-.457-.171-.811-.245-1.165-.452.212-.198.646-.295.969-.084.281-.08.591-.501.577-1.484-.049-.885,1.088-.979,1.792-.044.327-.106.958.388.883.715-.109.935-.852,1.157-1.467.195-.539.331-1.099.475-1.589Zm7.42-13.015c0-.142-.011.193.003.526.013.314-.22.825.162.891.559.096.356-.514.471-.82.53-1.405.508-2.859.351-4.32-.02-.189-.108-.37-.164-.554-.096.169-.186.342-.288.507-.638,1.027-.447,2.179-.535,3.77Zm201.633-66.262c.295.779.387,1.783,1.418,2.094.293.088.672-.321.541-.681-.32-.881-.548-1.922-1.578-2.234-.475-.144-.29.459-.381.821Zm-208.546,73.145c-.218-1.069.265-2.168-.245-3.204-.666,1.015-.274,2.153-.332,3.229-.053.98-.24,2,.193,2.96.66-.936.153-2.006.384-2.985Zm214.116-60.546c-.009-.55-.128-1.226-.53-1.058-.877.368-.725,1.444-1.059,2.2-.101.229-.018.644.276.536.799-.292,1.156-.994,1.313-1.679Zm10.213-25.517c.37-.024.891.121.816-.478-.077-.616-.526-1.084-1.101-1.235-.473-.124-.761.271-.786.751-.038.753.55.834,1.07.963Zm-40.6,45.98c.263-1.299-.464-2.173-.501-3.183-.003-.089-.13-.173-.199-.259-.062.137-.194.284-.176.409.137.949.299,1.894.462,2.839.062.359.148.714.223,1.071.474-.284.146-.758.19-.877Zm6.795-31.849c-.309.099-.933-.051-.75.517.284.883,1.314.44,1.914.856.214.148.545-.111.413-.391-.299-.638-.845-.977-1.578-.981Zm23.003,3.935c-.267-.436-.625-.831-1.221-.857-.452-.02-.765.239-.644.699.147.559.556.95,1.167.941.406-.006.701-.254.699-.783Zm-49.394,160.567c-.109-.281.117-.861-.305-.773-.232.048-.343.764-.472,1.19-.08.264.03.595.304.57.62-.057.383-.616.474-.987Zm14.634-169.015c.382-.012.478-.259.467-.581-.014-.445-.32-.706-.693-.715-.362-.008-.372.375-.355.664.021.357.143.647.581.632Zm-181.896,87.193c-.098-.135-.163-.223-.228-.311-.06.091-.144.175-.172.274-.016.057.061.139.096.209.088-.05.176-.099.304-.172Zm-35.303,12.12c-.125-.131-.201-.212-.278-.293-.069.128-.177.251-.194.385-.01.08.12.178.188.268.089-.112.177-.225.285-.361Zm234.068-51.906c-.012.031-.023.063-.035.094.05.004.1.008.149.012-.007-.033-.003-.075-.023-.095-.017-.017-.06-.008-.092-.011ZM36.729,196.454c-.068-.021-.129-.045-.191-.053-.012-.002-.054.074-.044.088.035.053.087.095.132.141.033-.056.066-.113.103-.177Zm-8.14-33.779l-.046-.097c-.028.02-.075.035-.08.06-.006.028.026.063.041.095.028-.019.056-.039.085-.059ZM285.871,22.406c.026.067.043.112.061.158.021-.03.042-.059.063-.089-.033-.018-.065-.036-.124-.069ZM60.912,196.735l-.099-.016.032.091.067-.075Z" fill="#9e8f4f"/>
      <path d="m165.207,127.327c-.078-1.869-.044-3.101,1.81-3.165.704-.024.687-.705.745-1.264.175-1.702.994-1.556,2.567-1.564,2.221-.01,2.888,1.102,3.982,2.599.776,1.061,1.709,1.959,1.403,3.225-.625,2.59,1.526,4.297,1.815,6.562.318,2.489,1.66,4.837.874,7.491-.233.786.49,1.406,1.221,1.694,1.012.4,1.484,1.19,2.015,2.077.946,1.581,1.517,3.47,3.304,4.453.257.142.525.499.555.781.299,2.802,1.191,5.576.463,8.434-.101.396-.109.925-.698.869-.476-.045-.58-.536-.794-.886-1.698-2.791-2.96-5.85-3.917-8.892-1.143-3.633-3.556-6.46-5.093-9.81-.82-1.788-2.247-3.281-4.522-3.545-1.932-.224-4.781-3.26-5.158-5.362-.252-1.401-.438-2.813-.573-3.698Z" fill="#9e8f4f"/>
      <path d="m174.604,102.193c.956-.346,1.788.204,2.671.407,1.671.384,2.823-.133,3.536-1.747.576-1.304,1.32-2.603,3.099-1.827,1.471.642,1.904,2.647,1.095,4.247-.948,1.876-2.183,3.554-3.49,5.18-.775.964-1.736,1.087-2.541.091-1.126-1.395-2.822-1.222-3.663.459-.317.633-.606,1.281-.962,1.891-1.067,1.83-2.401,2.28-4.343,1.211-1.464-.806-.86-2.154-.453-3.342.5-1.459,1.046-2.902,1.541-4.362.573-1.689,1.602-2.633,3.51-2.209Z" fill="#9e8f4f"/>
      <path d="m193.868,105.574c-1.206-.252-3.083-.5-4.864-1.057-1.884-.59-1.854-2.295-1.44-3.771.613-2.189,1.485-4.249,4.148-4.843.878-.196,1.477-1.154,2.368-1.582.855-.412,1.732-.207,2.059.317,1.346,2.161,3.203,4.058,3.49,6.804.303,2.899-2.649,4.211-5.761,4.132Z" fill="#9e8f4f"/>
      <path d="m186.94,125.217c-.417-1.455.22-2.791.979-4.139.575-1.021,1.367-1.953,1.143-3.333-.109-.675.585-.893,1.273-.701,1.26.353,2.52.351,3.645-.374,1.311-.845,2.596-.542,3.598.305.992.839.582,2.114.153,3.164-.851,2.081-1.753,4.143-2.707,6.178-1.091,2.327-2.37,2.753-4.594,1.67-.197-.096-.491-.1-.707-.035-2.524.751-2.838.521-2.784-2.087.003-.168,0-.336,0-.648Z" fill="#9e8f4f"/>
      <path d="m36.701,92.408c1.942.701,2.467-.902,3.204-2.067.493-.779.953-1.62,2.005-1.287.979.31,1.437,1.091,1.157,2.181-.061.236-.139.595-.02.729,2.025,2.285.302,4.622.125,6.932-.067.876-.109,1.759-.251,2.625-.21,1.281-.867,1.727-2.232,1.336-2.178-.623-3.925-1.65-5.042-3.724-1.064-1.975-.944-3.931-.255-5.928.187-.542.66-.856,1.309-.797Z" fill="#9e8f4f"/>
      <path d="m285.453,30.093c.015-.725-.262-1.677.844-1.779,1.031-.095,1.072.818,1.252,1.557.698,2.876-.038,4.446-2.65,5.55-1.045.442-1.355,1.054-.791,2.162.468.919.762,1.94.75,3.018-.006.55-.109,1.032-.644,1.245-.54.215-.912-.222-1.148-.573-.457-.68-.777-.89-1.182.016-.162.363-.497.578-.908.579-1.774.006-3.105-.845-4.116-2.23-.968-1.327-1.451-2.735-.524-4.315.839-1.43,3.882-2.144,5.314-1.218.602.389,1.169.361,1.749-.042.992-.69,2.086-2.784,2.053-3.97Z" fill="#9e8f4f"/>
      <path d="m51.579,63.598c-.879.042-1.74.104-2.603.373-.913.284-1.796-.048-2.314-.848-.524-.811.23-1.314.623-1.95,1.079-1.746,2.751-2.431,4.604-2.886.947-.233,1.865-.382,2.806.105.791.409,1.617.235,2.437-.053,1.845-.648,4.271.36,5.158,2.009.587,1.092.171,1.779-.756,2.264-1.923,1.005-3.942,1.473-5.995.449-1.509-.753-2.717-.014-3.99.561l.031-.024Z" fill="#9e8f4f"/>
      <path d="m68.165,146.088c-1.367,3.165-1.731,6.973-3.107,10.463-1.889,4.793-4.016,9.491-6.403,14.062-.398.762-.914,1.73-1.983,1.162-1.095-.583-.393-1.528-.025-2.195,1.31-2.37,2.7-4.693,3.573-7.278,1.304-3.859,2.593-7.723,3.95-11.563.638-1.805,1.379-3.577,2.158-5.326.22-.494.63-1.082,1.37-.851.589.184.449.726.466,1.525Z" fill="#9e8f4f"/>
      <path d="m78.823,102.713c-.344,1.571-.676,3.153-.678,4.808,0,.612-.582,1.275-1.453.773-.902-.52-1.417-.088-2.002.596-.784.918-1.598,2.314-3.041,1.524-1.347-.737-1.305-2.113-1.118-3.638.306-2.493,1.576-4.464,2.823-6.465.708-1.136,1.831-1.46,2.965-.459.945.836,2.874.831,2.505,2.86Z" fill="#9e8f4f"/>
      <path d="m27.373,109.112c.37-1.843.322-4.017,2.949-4.56.738-.153.722-.964.93-1.52.301-.803.823-1.201,1.632-.948.745.232.833.861.819,1.611-.028,1.497.071,2.998.159,4.494.032.538.458.772.947.856.612.104,1.036.397.996,1.067-.037.624-.408,1.026-1.041,1.033-.997.011-.911.711-1.043,1.383-.171.872-.24,1.902-1.393,2.145-1.188.25-1.667-.562-1.987-1.473-.172-.489-.554-.623-.939-.736-1.658-.486-1.849-1.856-2.028-3.353Z" fill="#9e8f4f"/>
      <path d="m76.609,75.28c-1.517.141-2.569-.992-3.267-2.143-.694-1.144.146-2.194,1.152-2.975.429-.333.72-.801.737-1.397.035-1.248.837-2.045,1.852-2.449.986-.393,2.036-.306,2.83.684.261.325.754.522,1.18.649,1.778.528,2.107,1.661,1.454,3.367-1.05,2.742-2.895,4.138-5.937,4.264Z" fill="#9e8f4f"/>
      <path d="m46.178,135.667c-.136-1.08-.295-2.158-.397-3.242-.056-.587-.006-1.204.589-1.535.459-.255,1.025-.329,1.443-.005.481.373.295.952.274,1.507-.081,2.134.727,4.153,1.516,6.006,1.061,2.493.967,5.053,1.389,7.583.297,1.781.64,3.546.552,5.361-.041.845-.236,1.686-1.278,1.666-.961-.018-1.162-.87-1.214-1.626-.338-4.949-2.081-9.614-2.882-14.467-.067-.407-.093-.821-.138-1.231.049-.005.097-.011.146-.016Z" fill="#9e8f4f"/>
      <path d="m193.979,70.956c-.117-1.735-.004-3.66,1.003-5.383.506-.866,1.082-2.037,2.3-.604.178.209.603.215.918.3,1.13.302,1.843.961,1.845,2.195.002,1.509.025,3.02-.048,4.526-.063,1.307-.242,2.594-2.121,2.3-.466-.073-.697.383-1.014.648-.499.416-1.007,1.036-1.749.676-.758-.368-1.168-1.033-1.139-1.932.027-.838.006-1.677.006-2.727Z" fill="#9e8f4f"/>
      <path d="m209.212,102.402c.001.843.103,1.924-1.018,1.955-.98.027-1.028-.972-1.146-1.799-.377-2.641-2.192-4.656-3.162-7.05-1.792-4.42-3.433-8.919-6.059-12.952-.069-.106-.17-.21-.189-.326-.124-.763-.656-1.847.127-2.196.931-.415.992.817,1.332,1.412.724,1.268,1.317,2.624,2.149,3.815,3.206,4.589,4.646,10.055,7.467,14.829.43.728.442,1.518.499,2.311Z" fill="#9e8f4f"/>
      <path d="m58.348,73.251c-2.984.065-3.631-.986-2.851-2.877,1.257-3.045,3.79-4.391,6.759-5.127,1.024-.254,2.037-.016,2.646.97.601.972.039,1.824-.559,2.493-1.908,2.133-3.764,4.398-5.996,4.54Z" fill="#9e8f4f"/>
      <path d="m159.907,98.285c.219-1.57.813-2.69,2.695-2.861,1.241-.113,2.375-.734,2.586-2.225.127-.894.599-1.447,1.522-1.194.945.259,1.367,1.283.865,1.878-1.617,1.919-.487,4.138-.947,6.155-.111.486-.104,1.001-.234,1.48-.205.753-.556,1.416-1.469,1.488-.884.07-1.229-.613-1.594-1.21-.579-.949-.515-2.521-2.461-1.957-.632.183-.892-.837-.964-1.553Z" fill="#9e8f4f"/>
      <path d="m183.807,91.972c.031-1.381-.116-2.815,1.447-3.598.937-.469,1.785-1.433,2.918-.42,1.232,1.102,2.286,2.266,1.46,4.115-.271.608-.474,1.248-.681,1.882-.483,1.48-1.466,2.27-3.033,1.961-1.543-.304-2.224-1.362-2.115-2.931.023-.335.003-.673.003-1.009Z" fill="#9e8f4f"/>
      <path d="m179.763,214.378c.813,3.273-1.099,7.087-.914,11.063.027.58-.237.995-.884.963-.701-.035-.728-.564-.725-1.094.018-3.318-.248-6.67.145-9.942.301-2.508.338-4.99.419-7.489.021-.655.052-1.379.918-1.368.882.01,1.018.767,1.029,1.448.031,1.889.011,3.78.011,6.42Z" fill="#9e8f4f"/>
      <path d="m72.623,86.911c1.619.007,2.586,1.434,1.944,2.809-.997,2.136-2.822,3.49-4.789,4.615-.768.439-1.685.156-2.339-.459-.534-.502-.619-1.25-.297-1.87,1.116-2.144,2.57-3.996,4.86-5.011.22-.098.496-.07.621-.085Z" fill="#9e8f4f"/>
      <path d="m246.987,31.212c-.272,2.232-1.1,4.151-3.166,5.332-1.221.698-2.272.142-2.37-1.263-.135-1.936.501-3.693,1.333-5.391.52-1.061,1.412-1.184,2.439-.869,1.074.329,1.949.823,1.765,2.191Z" fill="#9e8f4f"/>
      <path d="m254.194,27.798c-.051,2.99-1.037,4.309-3.706,5.248-.602.212-1.051-.027-1.329-.403-1.412-1.911-.648-4.477,1.553-5.426.17-.073.32-.251.422-.415.423-.676.62-1.805,1.72-1.416,1.106.391,1.423,1.442,1.34,2.412Z" fill="#9e8f4f"/>
      <path d="m49.968,94.711c-.093,1.866-.655,3.599-1.453,5.275-.363.763-.88,1.191-1.76,1.086-.905-.109-1.226-.867-1.229-1.518-.008-1.981.051-3.982.909-5.839.486-1.052,1.312-1.551,2.444-1.252,1.165.308,1.111,1.306,1.088,2.249Z" fill="#9e8f4f"/>
      <path d="m184.544,79.685c-.238,1.685-.991,3.392-2.2,4.866-.474.579-1.163.952-2.013.644-1.075-.389-1.265-1.338-1.27-2.245-.014-2.367,1.466-3.931,3.235-5.169,1.089-.762,2.242.173,2.248,1.903Z" fill="#9e8f4f"/>
      <path d="m63.678,101.497c.526.027,1.353.685.852,1.364-1.154,1.566-.882,3.703-2.382,5.104-1.191,1.112-2.24,1.043-2.915-.459-1.368-3.042.692-6.095,4.445-6.009Z" fill="#9e8f4f"/>
      <path d="m191.389,137.416c.073.757-.189,1.777-.419,2.802-.14.623-.47,1.068-1.112,1.207-.714.155-1.418.018-1.757-.644-.771-1.504-1.244-3.106-.931-4.824.289-1.584,1.313-2.375,2.873-2.095,1.415.253,1.283,1.539,1.344,2.615.012.21.002.42.002.939Z" fill="#9e8f4f"/>
      <path d="m59.632,90.38c-.113-1.397.106-2.67,1.235-3.654.163-.142.25-.45.252-.682.008-.652.017-1.396.765-1.518.772-.125,1.272.548,1.657,1.132,1.1,1.67.139,6.068-1.561,7.143-.513.324-1.169.362-1.698.07-1.043-.575-.595-1.619-.651-2.491Z" fill="#9e8f4f"/>
      <path d="m42.757,77.879c-1.271.141-1.784-.701-1.214-1.836,1.096-2.183,2.82-3.705,5.429-3.85.534-.03,1.106-.089,1.462.482.402.646.381,1.388-.032,1.901-1.403,1.744-2.97,3.303-5.644,3.302Z" fill="#9e8f4f"/>
      <path d="m214.22,117.568c.154-1.584.263-3.345.517-5.086.143-.98.594-1.936,1.832-1.822,1.346.124,1.374,1.211,1.24,2.182-.308,2.236-.714,4.459-1.086,6.686-.111.665-.561,1.068-1.186,1.103-.725.041-1.183-.46-1.297-1.132-.097-.572-.02-1.173-.02-1.931Z" fill="#9e8f4f"/>
      <path d="m45.847,202.567c.661-2.222,1.84-4.329,3.82-5.9.435-.345,1.207-.399,1.625.122.522.651.4,1.434-.043,2.11-.706,1.079-1.48,2.115-2.178,3.199-.334.518-.667,1.052-.629,1.736.043.77-.216,1.547-1.036,1.617-.827.07-1.118-.758-1.348-1.427-.133-.388-.126-.825-.211-1.458Z" fill="#9e8f4f"/>
      <path d="m182.263,67.371c-.072-.883.16-1.684,1.045-2.067.938-.406,1.709-.022,2.298.749.553.724,1.203,1.407,1.592,2.214.517,1.072.354,2.129-.724,2.87-1.094.753-2.076.479-2.846-.47-.763-.941-1.43-1.967-1.365-3.297Z" fill="#9e8f4f"/>
      <path d="m41.859,110.484c-.084.936-.41,1.591-1.169,1.93-.681.304-1.068-.22-1.496-.615-3.269-3.019-1.824-3.871.126-6.283.412-.51.805-.357.961.082.585,1.649,1.083,3.33,1.578,4.887Z" fill="#9e8f4f"/>
      <path d="m42.948,118.947c.023-2.101,1.14-3.188,2.902-2.77.843.2,1.526.795.844,1.594-.885,1.036-.645,1.864-.043,2.82.433.687.66,1.52-.086,2.017-.673.448-1.518.354-2.199-.286-.806-.757-1.431-2.182-1.418-3.375Z" fill="#9e8f4f"/>
      <path d="m174.823,95.953c.059-1.084.409-2.236.987-3.311.423-.788,1.166-.912,1.956-.724.771.184.991.785,1.046,1.515.092,1.212-.356,2.323-.727,3.411-.286.838-.891,1.804-1.993,1.572-1.154-.242-1.226-1.325-1.27-2.464Z" fill="#9e8f4f"/>
      <path d="m180.632,124.844c-.263-.017-.39-.016-.513-.036-1.657-.269-3.217-3.928-2.226-5.284.376-.515.907-.935,1.607-.703.609.203.906.692.881,1.357-.025.67.114,1.291.845,1.503.838.243,1.623.724,1.444,1.586-.206.994-1.125,1.487-2.038,1.576Z" fill="#9e8f4f"/>
      <path d="m159.867,81.421c-.5.065-.886-.382-1.107-.952-.674-1.733,1.731-4.884,3.576-4.732.882.073,1.302.669.983,1.356-.627,1.351-1.465,2.604-2.232,3.889-.219.367-.619.395-1.22.439Z" fill="#9e8f4f"/>
      <path d="m54.067,78.685c-.266,1.658-1.262,2.922-2.394,4.062-.366.369-1.094.346-1.525-.025-.371-.32-.509-.856-.275-1.384.519-1.171,1.003-2.358,1.565-3.508.326-.666.877-1.218,1.687-.917.745.276.95.987.942,1.773Z" fill="#9e8f4f"/>
      <path d="m44.419,68.452c.015,1.109-2.741,4.213-3.843,4.258-1.212.049-1.497-.805-1.128-1.671.617-1.449,1.447-2.819,2.899-3.634,1.014-.569,2.058-.028,2.072,1.048Z" fill="#9e8f4f"/>
      <path d="m155.836,93.366c.626,0,1.324-.077,1.623.648.278.676-.238,1.101-.674,1.474-.758.648-1.42,1.258-1.005,2.431.125.353-.04.93-.623,1.071-.627.151-1.268-.183-1.386-.615-.314-1.148-.966-2.316-.657-3.513.338-1.307,1.532-1.499,2.722-1.496Z" fill="#9e8f4f"/>
      <path d="m175.776,60.861c.147,2.008-.511,3.069-2.077,3.304-1.413.212-1.769-1.007-1.719-1.947.07-1.328.295-2.878,2.071-3.114,1.679-.223,1.751,1,1.726,1.758Z" fill="#9e8f4f"/>
      <path d="m226.398,95.527c-1.063,0-1.514-.682-1.518-1.437-.009-1.683.897-2.904,2.434-3.547.736-.308,1.502-.119,1.94.66.111.198.17.558.065.725-.735,1.175-1.503,2.331-2.307,3.461-.105.147-.469.109-.613.138Z" fill="#9e8f4f"/>
      <path d="m221.767,102.689c-.043,1.484-.211,3.044-2.048,3.176-.938.067-1.666-.831-1.45-1.932.266-1.356.346-2.951,2.333-2.984,1.263-.021,1.227.86,1.165,1.741Z" fill="#9e8f4f"/>
      <path d="m29.493,92.939c1.017.116,1.864.677,1.641,1.477-.366,1.311.104,3.349-1.971,3.59-1.328.154-1.328-1.074-1.338-2.057-.014-1.357.206-2.573,1.668-3.01Z" fill="#9e8f4f"/>
      <path d="m287.352,56.978c-.088.578-.332,1.155-1.182,1.181-.915.028-2.612-2.169-2.583-3.46.017-.761.445-1.379,1.275-1.436.866-.059,2.457,2.29,2.49,3.714Z" fill="#9e8f4f"/>
      <path d="m170.58,79.864c-.286,1.017-.339,2.281-1.674,2.378-1.126.081-1.639-.895-1.586-1.852.06-1.085.202-2.413,1.675-2.545,1.404-.125,1.212,1.214,1.584,2.019Z" fill="#9e8f4f"/>
      <path d="m179.269,234.208c-.087.32.32,1.074-.231,1.198-.484.109-.499-.803-.835-1.086-1.887-1.59-.768-3.57-.749-5.391.004-.383.166-1.086.645-1.072.396.012.624.596.67,1.084.159,1.709.325,3.418.501,5.268Z" fill="#9e8f4f"/>
      <path d="m182.804,61.62c.008-1.282.399-2.037,1.438-1.96,1.784.132,1.65,1.791,1.946,2.933.167.644-.495,1.189-1.33,1.08-1.387-.181-2.001-1.031-2.054-2.053Z" fill="#9e8f4f"/>
      <path d="m51.548,63.622c.619.449,1.575.694,1.37,1.721-.247,1.238-.854,2.246-2.17,2.669-.494.159-.84-.088-1.137-.345-.365-.316-.417-.743-.252-1.252.397-1.225,1.46-1.893,2.218-2.816.001-.001-.029.023-.029.023Z" fill="#9e8f4f"/>
      <path d="m214.123,83.57c-.011-1.27.314-2.399,1.717-2.677.839-.166,1.386.7,1.186,1.253-.407,1.13-.11,2.88-1.762,3.147-1.019.165-1.117-.898-1.141-1.723Z" fill="#9e8f4f"/>
      <path d="m209.18,76.219c.066-.71-.066-1.94,1.17-1.93,1.455.012,1.281,1.396,1.374,2.395.085.912-.226,1.929-1.194,1.898-1.158-.037-1.396-1.13-1.35-2.363Z" fill="#9e8f4f"/>
      <path d="m248.615,20.511c-.329,1.43-.482,2.377-.782,3.274-.151.452-.559.946-1.135.795-.601-.158-1.073-.708-.986-1.301.15-1.018.334-2.084.999-2.926.254-.321.627-.791,1.161-.464.39.239.758.564.743.621Z" fill="#9e8f4f"/>
      <path d="m55.963,83.895c.054-1.309.635-2.072,1.993-2.092.66-.01,1.324.19,1.122.946-.294,1.098-.729,2.317-2.018,2.564-.972.186-1.056-.705-1.097-1.418Z" fill="#9e8f4f"/>
      <path d="m50.48,109.317c-.298.835-.362,1.869-1.62,1.867-1.029-.002-1.376-.69-1.339-1.576.041-.974.39-1.89,1.514-1.938.983-.042,1.214.832,1.444,1.647Z" fill="#9e8f4f"/>
      <path d="m281.564,64.154c-1.46.026-3.296-1.484-3.296-2.36,0-.62.405-.937.873-.772,1.219.428,2.707.626,3.149,2.104.191.639-.427,1.017-.725,1.028Z" fill="#9e8f4f"/>
      <path d="m185.968,114.946c-.167.965-.614,1.976-1.875,2.132-.67.083-1.22-.528-1.142-1.223.132-1.19.875-1.966,2.089-2.137.734-.103.911.433.928,1.228Z" fill="#9e8f4f"/>
      <path d="m246.565,44.201c.021,1.063-.317,2.009-1.447,2.141-.731.085-1.204-.624-1.064-1.373.188-1.001.106-2.383,1.532-2.467.985-.058.957.947.978,1.7Z" fill="#9e8f4f"/>
      <path d="m52.801,124.617c.08-1.075.598-1.767,1.542-1.724.814.038,1.728.441,1.703,1.469-.037,1.51-1.492,1.006-2.292,1.306-.747.28-.734-.676-.953-1.051Z" fill="#9e8f4f"/>
      <path d="m162.8,117.164c-.74-.401-2.08-.302-2.161-1.772-.046-.829.676-.953,1.23-.876,1.026.143,2.153.354,2.286,1.686.074.742-.49.985-1.355.962Z" fill="#9e8f4f"/>
      <path d="m81.889,82.236c-.151.987-1.151,1.059-2.115,1.143-.588.051-1.079-.206-.915-.858.256-1.019.623-2.118,1.933-2.098.837.013,1.162.701,1.097,1.813Z" fill="#9e8f4f"/>
      <path d="m196.951,110.925c.034-.777.312-1.376.945-1.218,1.14.285,1.969,1.06,2.118,2.299.079.656-.507,1.131-1.005.99-1.069-.301-1.879-1.017-2.057-2.071Z" fill="#9e8f4f"/>
      <path d="m89.739,64.115c.921.129,1.563.701,1.675,1.755.081.761-.404,1.306-1.094,1.204-.969-.144-1.858-.633-1.911-1.816-.035-.785.462-1.113,1.33-1.143Z" fill="#9e8f4f"/>
      <path d="m224.858,80.906c-.896-.004-1.574-.299-1.531-1.275.039-.892.634-1.318,1.518-1.32.835-.001,1.381.394,1.421,1.247.045.96-.569,1.316-1.408,1.348Z" fill="#9e8f4f"/>
      <path d="m177.833,174.285c.037-.958.24-1.932.954-1.856,1.087.116,1.134,1.394,1.412,2.238.166.506-.376,1.083-.964,1.014-.866-.102-1.34-.725-1.401-1.396Z" fill="#9e8f4f"/>
      <path d="m39.594,123.269c-.934-.044-1.496-.678-1.521-1.404-.025-.712.707-1.106,1.446-1.055.734.05,1.292.467,1.318,1.245.026.799-.494,1.176-1.242,1.214Z" fill="#9e8f4f"/>
      <path d="m182.675,56.663c-.797.019-1.396-.157-1.381-1.15.015-1.015.749-1.128,1.448-1.131.727-.003,1.517.266,1.519,1.129.003.938-.786,1.14-1.586,1.153Z" fill="#9e8f4f"/>
      <path d="m80.909,57.485c-.05.494-.029,1.152-.822,1.082-.922-.082-1.533-.74-1.703-1.558-.146-.703.498-.976,1.153-.988.951-.017,1.356.514,1.372,1.465Z" fill="#9e8f4f"/>
      <path d="m38.677,81.773c.899-.009,1.5.468,1.545,1.314.031.573-.51.997-1.127.934-.804-.083-1.653-.304-1.666-1.332-.01-.752.608-.913,1.248-.916Z" fill="#9e8f4f"/>
      <path d="m213.096,93.788c.046-1.127.298-1.826,1.33-1.872.714-.032,1.194.441,1.124,1.037-.098.833-.544,1.618-1.556,1.653-.664.023-.971-.401-.898-.818Z" fill="#9e8f4f"/>
      <path d="m100.975,89.137c-.148.691-.577,1.187-1.26,1.149-.605-.034-1.123-.523-1.096-1.164.029-.674.498-1.181,1.231-1.137.647.039.999.51,1.124,1.153Z" fill="#9e8f4f"/>
      <path d="m53.511,116.451c-.018-.377.213-.816.929-.756.829.069,1.458.511,1.534,1.353.065.712-.417,1.153-1.159,1.148-.96-.007-1.279-.621-1.304-1.745Z" fill="#9e8f4f"/>
      <path d="m210.037,59.17c-.65.038-.975-.365-.956-1.143.019-.786.418-1.322,1.165-1.333.807-.011,1.325.595,1.313,1.368-.012.77-.606,1.115-1.523,1.109Z" fill="#9e8f4f"/>
      <path d="m270.243,43.71c-.045-.939.219-1.37.92-1.307.869.078,1.38.711,1.472,1.467.081.659-.373,1.203-1.157,1.141-.953-.076-1.169-.792-1.236-1.301Z" fill="#9e8f4f"/>
      <path d="m159.254,105.051c-.931.047-1.569-.131-1.596-.919-.029-.842.622-1.079,1.361-1.105.725-.025,1.477.152,1.513.939.041.892-.78,1.037-1.278,1.084Z" fill="#9e8f4f"/>
      <path d="m69.949,85.4c-1.01-.052-1.676-.32-1.697-1.201-.018-.772.601-.908,1.242-.895.768.016,1.349.365,1.396,1.149.043.723-.454,1.025-.941.946Z" fill="#9e8f4f"/>
      <path d="m269.796,33.402c-1.121-.032-1.55-.341-1.549-1.064.001-.804.59-1.264,1.226-1.37.751-.126.955.614.955,1.184,0,.628-.19,1.276-.632,1.25Z" fill="#9e8f4f"/>
      <path d="m69.447,75.647c.852.023,1.459.23,1.394,1.142-.039.55-.268,1.014-.923.953-.823-.076-1.494-.582-1.59-1.338-.087-.676.69-.692,1.119-.757Z" fill="#9e8f4f"/>
      <path d="m218.811,86.369c.909-.024,1.37.329,1.326,1.01-.044.681-.433,1.325-1.155,1.428-.821.118-1.073-.656-1.086-1.223-.013-.599.318-1.208.915-1.216Z" fill="#9e8f4f"/>
      <path d="m67.117,130.751c-.16.67-.694.959-1.258.987-.731.037-1.102-.517-1.152-1.191-.052-.704.463-1.13,1.06-1.095.698.041,1.091.644,1.35,1.299Z" fill="#9e8f4f"/>
      <path d="m188.544,131.655c-.053.323.025.896-.583.84-.967-.089-1.24-.954-1.426-1.692-.114-.451.4-.913.871-.823.799.153,1.095.824,1.138,1.674Z" fill="#9e8f4f"/>
      <path d="m72.786,115.423c-.022.697-.279,1.22-1.003,1.194-.726-.026-1.085-.51-1.084-1.243,0-.629.106-1.228.896-1.224.817.004,1.136.557,1.191,1.272Z" fill="#9e8f4f"/>
      <path d="m72.806,98.505c-.031.532-.112,1.032-.75.956-.776-.093-1.306-.525-1.345-1.369-.027-.587.287-1.042.86-1.002.823.057,1.179.667,1.235,1.415Z" fill="#9e8f4f"/>
      <path d="m123.713,90.551c-.029-1.016.344-1.519.99-1.468.613.048.99.616.996,1.255.006.655-.315,1.143-1.046,1.114-.755-.03-.927-.585-.94-.901Z" fill="#9e8f4f"/>
      <path d="m182.941,199.335c-.145.676.015,1.547-.875,1.644-.811.088-.711-.653-.702-1.177.012-.698.159-1.432,1.002-1.474.657-.032.493.633.575,1.007Z" fill="#9e8f4f"/>
      <path d="m216.603,75.86c-.79-.013-1.34-.3-1.324-1.064.014-.647.457-1.032,1.141-1.04.718-.008,1.22.301,1.244,1.061.023.735-.509.964-1.061,1.043Z" fill="#9e8f4f"/>
      <path d="m58.589,94.441c-.072.599-.421.984-.971.935-.744-.066-1.34-.518-1.473-1.28-.114-.653.493-.895.964-.867.719.043,1.357.37,1.48,1.211Z" fill="#9e8f4f"/>
      <path d="m54.12,140.924c-.686-.011-1.052-.321-1.094-.974-.042-.65.219-1.037.919-1.037.632,0,1.048.266,1.083.931.033.646-.331.983-.908,1.079Z" fill="#9e8f4f"/>
      <path d="m116.13,68.15c-.643-.205-.99-.587-.989-1.276.001-.614.384-1.029.879-1.025.633.005,1.068.517,1.076,1.172.007.595-.389.966-.966,1.13Z" fill="#9e8f4f"/>
      <path d="m287.407,46.348c-.048.622-.362,1.063-.907,1.038-.696-.032-1.09-.524-1.091-1.25,0-.623.309-1.117.936-1.061.699.062.986.653,1.063,1.273Z" fill="#9e8f4f"/>
      <path d="m95.06,103.507c.741.008,1.213.437,1.267,1.112.037.456-.381.913-.883.845-.665-.091-1.33-.432-1.422-1.182-.083-.681.506-.757,1.037-.775Z" fill="#9e8f4f"/>
      <path d="m232.389,59.697c.035.835-.209,1.284-.75,1.187-.689-.123-1.155-.651-1.208-1.378-.038-.519.289-.91.825-.871.79.058,1.095.626,1.134,1.062Z" fill="#9e8f4f"/>
      <path d="m67.168,75.248c-.086.46-.424,1.01-1.159.955-.618-.046-.884-.562-.839-1.184.05-.684.479-1.144,1.104-1.115.543.025.977.447.894,1.344Z" fill="#9e8f4f"/>
      <path d="m219.705,58.942c.612.138,1.406.045,1.455.907.036.631-.507.799-1.058.795-.688-.005-1.273-.229-1.346-1-.065-.683.541-.6.948-.702Z" fill="#9e8f4f"/>
      <path d="m87.44,60.148c-.774-.012-1.137-.421-1.13-1.178.006-.615.308-.932.936-.866.716.075,1.134.465,1.158,1.205.022.662-.382.86-.964.839Z" fill="#9e8f4f"/>
      <path d="m269.8,27.327c-.626.016-1.084-.177-1.111-.896-.022-.592.265-1.039.841-1.049.629-.011,1.115.364,1.191,1.05.073.658-.319.903-.921.895Z" fill="#9e8f4f"/>
      <path d="m196.247,54.958c.796.062,1.291.358,1.301,1.148.006.437-.066.958-.622.873-.723-.11-1.323-.517-1.421-1.344-.074-.622.424-.605.741-.677Z" fill="#9e8f4f"/>
      <path d="m66.209,121.717c-.599-.095-.995-.399-1.023-1.039-.026-.597.283-.952.881-.99.635-.04,1.052.245,1.088.917.035.647-.327.985-.946,1.111Z" fill="#9e8f4f"/>
      <path d="m276.085,49.386c.654.091,1.204.389,1.263,1.208.032.444-.231.829-.633.746-.638-.132-1.298-.397-1.429-1.19-.09-.549.231-.749.799-.764Z" fill="#9e8f4f"/>
      <path d="m56.939,184.847c-.62.044-1.143-.243-1.212-.812-.064-.531.449-.726.966-.703.623.028,1.245.209,1.278.902.028.589-.562.611-1.032.612Z" fill="#9e8f4f"/>
      <path d="m33.264,77.932c.542.254,1.122.359,1.11,1.071-.008.464-.132.864-.698.78-.608-.091-1.142-.425-1.196-1.061-.036-.43.448-.619.784-.79Z" fill="#9e8f4f"/>
      <path d="m62.626,75.729c-.018.785-.321,1.063-.879,1.041-.645-.025-1.021-.438-1.044-1.019-.023-.559.369-.955.958-.903.613.053.934.473.965.881Z" fill="#9e8f4f"/>
      <path d="m69.654,65.967c-.068.532-.409.779-.95.727-.613-.059-.875-.533-.852-1.038.02-.43.412-.78.88-.72.527.068.932.372.921,1.032Z" fill="#9e8f4f"/>
      <path d="m191.287,147.093c-.6-.041-1.248-.147-1.222-.811.025-.614.624-.802,1.215-.76.586.042,1.111.27,1.102.921-.011.72-.669.572-1.095.65Z" fill="#9e8f4f"/>
      <path d="m97.521,76.347c-.591-.05-.912-.481-.947-1.049-.033-.538.279-1.02.867-.969.647.056.969.567,1.004,1.203.033.587-.342.791-.924.815Z" fill="#9e8f4f"/>
      <path d="m250.41,23.385c-.499-.044-.891-.18-.904-.804-.013-.646.291-.927.908-.915.576.011,1.023.287,1.044.865.023.638-.515.788-1.049.854Z" fill="#9e8f4f"/>
      <path d="m148.707,107.64c-.562.053-.799-.282-.821-.823-.023-.562.174-1.087.774-1.098.546-.01.878.409.874,1.014-.003.538-.19.897-.827.908Z" fill="#9e8f4f"/>
      <path d="m204.535,71.89c.49.148.895.43.83.938-.055.427-.3.921-.878.837-.473-.069-.838-.388-.84-.906-.002-.558.479-.693.888-.87Z" fill="#9e8f4f"/>
      <path d="m84.55,88.989c.571.146.921.53.951,1.119.022.418-.078.837-.66.85-.665.015-.997-.293-1.015-.959-.014-.513.154-.885.723-1.01Z" fill="#9e8f4f"/>
      <path d="m73.805,77.244c.514.017.866.216.908.788.045.615-.335.965-.842,1.03-.617.079-.892-.467-.908-.955-.014-.442.25-.875.841-.863Z" fill="#9e8f4f"/>
      <path d="m130.345,68.052c.072.623-.336.872-.819.868-.514-.004-1.057-.263-1.066-.846-.007-.446.312-.845.872-.868.599-.024.94.253,1.013.845Z" fill="#9e8f4f"/>
      <path d="m261.258,26.592c.201-.591.55-.877,1.128-.877.558,0,.861.234.845.82-.019.674-.449.808-1.013.808-.556,0-.807-.325-.96-.751Z" fill="#9e8f4f"/>
      <path d="m110.348,76.745c-.469-.107-.724-.393-.679-.88.045-.49.315-.951.788-.966.597-.019.636.541.63,1.011-.006.476-.233.779-.738.835Z" fill="#9e8f4f"/>
      <path d="m142.422,64.851c.01.657-.395.853-.963.859-.444.005-.91-.09-.924-.604-.015-.554.368-.893.938-.935.491-.036.933.036.949.679Z" fill="#9e8f4f"/>
      <path d="m209.076,50.528c-.873.033-1.133-.404-1.207-.925-.054-.375.209-.627.624-.618.592.013.932.377,1.047.901.114.518-.282.624-.464.642Z" fill="#9e8f4f"/>
      <path d="m288.394,50.843c-.025.546-.375.697-.847.687-.47-.01-.664-.287-.66-.727.005-.492.223-.801.753-.773.502.026.735.328.753.813Z" fill="#9e8f4f"/>
      <path d="m267.235,47.375c-.004.393-.165.639-.593.613-.479-.029-.81-.307-.816-.762-.005-.396.298-.68.73-.687.558-.009.665.386.679.835Z" fill="#9e8f4f"/>
      <path d="m211.17,70.903c-.026.387-.274.72-.759.72-.404,0-.7-.278-.758-.698-.077-.558.267-.738.755-.74.42-.002.747.121.762.718Z" fill="#9e8f4f"/>
      <path d="m106.526,110.475c-.43-.143-.801-.392-.865-.897-.057-.443.338-.583.642-.611.433-.041.83.108.845.671.011.426-.153.719-.621.838Z" fill="#9e8f4f"/>
      <path d="m33.825,86.221c.008.687-.171,1.065-.604,1.023-.249-.024-.601-.358-.662-.611-.095-.392.169-.709.631-.728.393-.017.646.141.634.316Z" fill="#9e8f4f"/>
      <path d="m80.96,88.923c.61-.024.859.2.865.655.005.344-.046.722-.49.721-.471-.001-.762-.366-.842-.771-.076-.384.246-.572.466-.606Z" fill="#9e8f4f"/>
      <path d="m145.008,136.601c.085-.369.346-.578.694-.586.35-.007.663.197.706.563.049.415-.358.428-.612.447-.309.023-.678.01-.789-.425Z" fill="#9e8f4f"/>
      <path d="m57.846,153.681c-.377-.054-.764-.084-.751-.622.011-.463.334-.54.682-.541.392-.002.761.065.757.598-.003.474-.372.478-.688.565Z" fill="#9e8f4f"/>
      <path d="m54.968,176.133c.004.499-.227.659-.553.615-.466-.063-.708-.427-.763-.842-.054-.4.241-.643.622-.55.426.103.659.448.694.777Z" fill="#9e8f4f"/>
      <path d="m50.457,183.831c.034.388-.197.517-.531.518-.287.001-.656.039-.71-.333-.057-.393.223-.597.609-.616.311-.015.589.041.632.43Z" fill="#9e8f4f"/>
      <path d="m68.726,97.733c-.045.346-.111.699-.571.669-.455-.03-.499-.399-.49-.741.009-.302.092-.59.493-.6.471-.011.529.317.568.672Z" fill="#9e8f4f"/>
      <path d="m138.349,87.67c.507.086.583.381.55.751-.031.352-.216.529-.57.5-.459-.038-.492-.38-.475-.726.018-.349.242-.499.495-.525Z" fill="#9e8f4f"/>
      <path d="m150.022,123.847c.424.068.495.381.477.728-.015.289-.19.454-.489.397-.389-.074-.537-.332-.48-.719.042-.286.182-.446.492-.406Z" fill="#9e8f4f"/>
      <path d="m117.104,79.251c0,.285-.11.516-.42.484-.157-.017-.383-.166-.427-.303-.079-.246.016-.503.331-.55.276-.041.497.033.515.37Z" fill="#9e8f4f"/>
      <path d="m269.892,54.306c-.167.095-.276.205-.351.186-.082-.021-.141-.159-.186-.257-.007-.015.128-.138.181-.127.1.02.189.1.355.199Z" fill="#9e8f4f"/>
      <path d="m282.439,170.406c.032.563-.249,1.062-.95,1.065-.585.003-.893-.524-.867-1.025.028-.546.147-1.19.946-1.219.763-.028.862.482.871,1.18Z" fill="#9e8f4f"/>
      <path d="m290.021,195.513c-.497-.002-.992-.116-.949-.714.039-.546.44-.869,1.029-.865.458.003.838.113.854.672.018.635-.335.897-.934.907Z" fill="#9e8f4f"/>
      <path d="m289.161,253.645c.408.203.641.565.595.986-.042.385-.153,1.019-.551.989-.522-.039-.701-.629-.699-1.154.001-.416.234-.688.655-.821Z" fill="#9e8f4f"/>
      <path d="m290.482,226.017c.005.653-.353.941-.841.977-.316.023-.673-.149-.646-.592.036-.603.506-.863.98-.968.456-.101.474.341.507.583Z" fill="#9e8f4f"/>
      <path d="m287.337,231.725c-.366-.025-.424-.287-.406-.537.032-.471.302-.792.78-.827.326-.024.603.149.481.538-.132.421-.451.691-.855.826Z" fill="#9e8f4f"/>
      <path d="m286.369,209.883c.327.043.561.213.514.558-.022.161-.193.406-.323.425-.31.045-.558-.134-.601-.475-.037-.29.109-.468.411-.509Z" fill="#9e8f4f"/>
      <path d="m285.867,239.628c.004.341-.197.566-.494.627-.413.084-.466-.262-.48-.551-.015-.311.108-.598.458-.632.369-.036.491.23.516.556Z" fill="#9e8f4f"/>
      <path d="m288.403,214.561c-.482.03-.491-.303-.507-.571-.017-.273-.044-.634.319-.698.327-.057.509.229.591.505.117.393-.196.572-.403.764Z" fill="#9e8f4f"/>
      <path d="m292.571,182.341c-.253-.033-.514-.08-.495-.413.018-.329.229-.514.549-.56.321-.046.451.138.443.428-.008.315-.106.569-.497.544Z" fill="#9e8f4f"/>
      <path d="m287.046,201.692c-.07.317-.136.607-.447.543-.129-.026-.314-.333-.282-.466.047-.194.267-.346.413-.515.114.158.229.316.317.438Z" fill="#9e8f4f"/>
      <path d="m290.46,220.885c.361-.002.428.178.433.408.006.257-.142.421-.376.39-.166-.022-.315-.18-.472-.277.149-.187.297-.375.414-.522Z" fill="#9e8f4f"/>
      <path d="m286.504,235.306c-.104.263-.118.538-.402.431-.096-.036-.161-.263-.165-.405-.008-.218.096-.429.36-.339.107.036.159.234.208.313Z" fill="#9e8f4f"/>
      <path d="m288.934,198.168c-.454.42-.597.553-.741.685-.088-.161-.24-.319-.248-.485-.012-.245.19-.334.426-.3.166.024.33.058.562.1Z" fill="#9e8f4f"/>
      <path d="m286.407,206.497c-.097.081-.195.178-.206.169-.079-.065-.154-.145-.198-.236-.011-.023.122-.157.141-.147.087.045.158.123.262.214Z" fill="#9e8f4f"/>
      <path d="m285.8,244.961c-.039.061-.078.121-.117.182-.058-.038-.117-.075-.175-.113.054-.079.108-.158.161-.237.044.054.088.108.13.168Z" fill="#9e8f4f"/>
      <path d="m290.937,176.779c-.13-.106-.207-.169-.285-.232.075-.067.142-.154.23-.191.04-.017.177.069.175.102-.006.091-.062.178-.12.322Z" fill="#9e8f4f"/>
      <path d="m291.566,178.744c.059-.044.124-.13.175-.122.054.009.093.106.139.164-.077.06-.154.12-.231.181-.028-.072-.056-.144-.083-.223Z" fill="#9e8f4f"/>
      <path d="m291.476,173.043c-.129.119-.205.189-.28.259-.067-.082-.154-.156-.19-.249-.014-.037.092-.174.129-.169.097.014.187.082.341.159Z" fill="#9e8f4f"/>
      <path d="m292.273,169.995c-.029.01-.057.021-.086.031-.01-.029-.036-.065-.027-.084.009-.02.053-.023.082-.033.01.029.021.057.031.086Z" fill="#9e8f4f"/>
      <path d="m289.25,217.877c.013.035.042.075.034.105-.007.028-.053.045-.082.067-.021-.055-.041-.11-.062-.166.037-.002.073-.005.11-.007Z" fill="#9e8f4f"/>
      <path d="m292.366,191.25c-.072.026-.154.086-.2.065-.046-.021-.091-.137-.071-.183.019-.045.136-.092.182-.072.047.02.059.12.089.191Z" fill="#9e8f4f"/>
      <path d="m303.167,75.8c-.527.05-.821-.276-.824-.714-.004-.563.343-.894.963-.857.464.027.816.16.813.707-.003.634-.372.871-.952.865Z" fill="#9e8f4f"/>
      <path d="m306.654,73.86c-.007.438-.25.743-.657.769-.403.025-.748-.292-.739-.67.008-.371.321-.654.756-.68.41-.024.62.173.64.581Z" fill="#9e8f4f"/>
      <path d="m291.955,93.914c-.02.067-.04.135-.06.202l-.096-.062c.06-.038.12-.075.181-.114,0,0-.025-.026-.025-.026Z" fill="#9e8f4f"/>
      <path d="m285.821,141.365c.992,6.033-3.121,8.807-7.362,11.482-.251.158-.679.229-.95.131-2.965-1.068-5.089-4.015-5.179-7.205-.05-1.763-.035-3.529.004-5.293.012-.538.202-1.25.826-1.213.714.043.632.79.575,1.322-.086.789-.192,1.584-.385,2.352-.85,3.397,1.093,5.732,3.044,8.057.21.25.53.708.946.417,2.138-1.498,4.767-2.214,6.553-4.294,1.351-1.573.918-3.407,1.061-5.168.051-.628-.042-1.278.081-1.888.225-1.113-.179-1.599-1.287-1.575-2.302.049-4.437-.585-6.55-1.451-.924-.379-1.984-.238-2.977.061-.314.094-.538.723-.933.244-.152-.185-.151-.565-.1-.834.093-.495.499-.595.955-.64,2.321-.226,4.483.448,6.626,1.179,1.306.445,2.664.514,3.982.39.988-.093,1.147.158,1.086,1.024-.068.963-.016,1.934-.016,2.901Z" fill="#9e8f4f"/>
      <path d="m294.27,137.387c.634-.031.817.351.802.871-.018.61-.294,1.073-.951,1.083-.617.01-.9-.479-.875-.997.028-.57.336-1.03,1.024-.957Z" fill="#9e8f4f"/>
      <path d="m295.06,142.648c-.024.469-.185.818-.738.775-.477-.038-.762-.309-.805-.786-.05-.55.296-.728.771-.739.504-.012.777.228.772.751Z" fill="#9e8f4f"/>
      <path d="m260.133,64.29c0-.637.008-.93-.002-1.223-.019-.627-.572-1.527.247-1.784.869-.274,1.178.728,1.529,1.354.301.537.593,1.118.704,1.714.133.716.261,1.503-.459,2.08-.31.248-.638.289-.919.079-.679-.507-1.316-1.064-1.114-2.063.033-.163.025-.334.013-.157Z" fill="#9e8f4f"/>
      <path d="m258.993,243.124c.862.237,1.816.449,1.956,1.48.063.461-.466.91-1.046.821-.857-.13-1.609-.529-1.795-1.452-.119-.592.447-.706.885-.849Z" fill="#9e8f4f"/>
    </g>
  </g>
</svg>