<?xml version="1.0" encoding="UTF-8"?>
<svg id="b" data-name="Layer 2" xmlns="http://www.w3.org/2000/svg" width="62.583" height="51.667" viewBox="0 0 62.583 51.667">
  <g id="c" data-name="Layer 1">
    <g>
      <path d="m19.029,41.106c-.794-.327-1.438-.572-2.065-.853-2.65-1.188-4.481-3.143-5.528-5.855-.861-2.232-1.33-4.53-1.3-6.924.004-.344-.063-.748.091-1.016.223-.388.567-.857.951-.966.509-.143.917.289,1.041.823.223.957.367,1.935.618,2.884.439,1.659.823,3.345,1.433,4.943.744,1.949,2.314,3.118,4.37,3.903.055-.396.137-.702.132-1.007-.026-1.527-.082-3.054-.112-4.582-.012-.585-.144-1-.794-1.236-2.965-1.074-4.249-3.409-4.441-6.377-.139-2.156-.041-4.328-.042-6.493,0-.245.01-.498.069-.734.179-.72.733-1.168,1.355-1.132.629.037,1.161.528,1.216,1.268.062.833-.016,1.676.024,2.512.085,1.769.135,3.544.336,5.302.159,1.394.665,1.975,2.037,2.836,0-.498.002-.921,0-1.343-.02-3.647-.044-7.293-.059-10.94-.002-.393,0-.795.08-1.177.149-.718.685-1.163,1.332-1.163.694,0,1.158.391,1.266,1.025.256,1.502.519,3.012.613,4.529.272,4.375.461,8.755.685,13.133.012.233.039.465.069.808.669-.272.85-.837.949-1.302.328-1.532.679-3.078.783-4.635.128-1.912-.002-3.841.018-5.762.008-.785.095-1.572.192-2.353.067-.538.379-.928.962-.942.6-.015.908.421.991.923.152.921.252,1.857.299,2.79.122,2.411.256,4.823.289,7.236.036,2.632-.748,5.025-2.86,6.691-1.286,1.014-1.608,2.164-1.56,3.69.087,2.757.025,5.519.015,8.278-.001.391-.021.79-.099,1.172-.121.59-.53,1.056-1.11.988-.41-.048-.982-.406-1.119-.765-.381-.994-.69-2.047-.814-3.102-.195-1.656-.216-3.334-.314-5.077Z" fill="#9e8f4f"/>
      <path d="m44.431,20.26c2.454.622,4.197,2.161,5.017,4.575.599,1.763,1.037,3.582,1.54,5.377.159.567.286,1.144.452,1.709.281.953.877,1.641,1.803,2.019.683.279,1.361.577,2.062.8,1.801.573,3.244,1.607,4.336,3.153.682.965,1.408,1.897,2.106,2.85.203.277.402.562.563.865.323.605.449,1.22-.149,1.741-.531.463-1.139.374-1.794-.37-.681-.774-1.294-1.612-1.898-2.45-1.241-1.723-2.724-3.032-4.869-3.598-2.84-.75-4.442-2.691-5.016-5.591-.361-1.825-.923-3.615-1.464-5.399-.527-1.739-1.752-2.78-3.492-3.287-1.769-.516-3.569-.661-5.399-.657-1.014.003-1.669.389-2.028,1.361-.288.782-.644,1.545-1.031,2.285-1.088,2.08-2.867,3.178-5.155,3.508-.242.035-.549.117-.725.01-.39-.237-.851-.514-1.032-.895-.237-.498.109-.96.599-1.188.397-.184.827-.322,1.256-.406,1.485-.289,2.438-1.205,3.063-2.523.274-.578.577-1.147.792-1.747.735-2.047,2.29-2.845,4.34-2.922.344-.013.689-.002,1.034-.002.011-.062,3.427.36,5.086.781Z" fill="#9e8f4f"/>
      <path d="m40.986,46.052c1.374-1.61,2.166-3.222,2.854-4.896.13-.316.186-.703.407-.931.203-.21.624-.394.872-.323.248.071.546.463.564.731.028.42-.087.889-.27,1.276-.735,1.549-1.519,3.075-2.374,4.788,1.309-.474,2.573-.833,3.737-1.397.517-.251.87-.89,1.228-1.402.22-.314.286-.731.46-1.082.278-.561.762-.785,1.352-.606.606.184.844.691.751,1.278-.316,1.984-1.312,3.485-3.228,4.257-.82.33-1.66.612-2.503.88-1.111.353-2.011.976-2.79,1.849-1.332,1.496-2.101,1.561-3.641.331-1.288-1.028-2.664-1.795-4.301-2.17-2.088-.478-3.603-1.762-4.45-3.759-.15-.353-.286-.75-.276-1.123.021-.789.825-1.215,1.48-.779.355.237.676.592.89.963.792,1.374,1.961,2.16,3.502,2.465.56.111,1.099.325,2.028.607-.879-1.665-1.594-3.032-2.325-4.391-.139-.258-.412-.46-.494-.727-.088-.285-.147-.733.008-.898.161-.171.717-.234.883-.091.622.536,1.247,1.115,1.7,1.791.617.922,1.078,1.949,1.841,2.885.091-2.144.208-4.288.255-6.433.011-.523-.214-1.05-.317-1.578-.09-.462-.084-.999.445-1.089.347-.059.981.149,1.098.41.371.835.715,1.739.783,2.638.088,1.167-.12,2.353-.163,3.533-.032.883-.006,1.769-.006,2.991Z" fill="#9e8f4f"/>
      <path d="m37.174,1.425c-.065-.7,4.172-2.707,6.869-.203,2.42,1.438,4.563,5.342,3.121,8.891-1.86,5.496-8.431,4.225-8.881,3.801s.666-.689,1.038-.934c1.617-1.066,2.742-2.484,3.426-4.308.957-2.554-.8-6.379-3.15-6.965-.782-.195-2.358.418-2.423-.282Z" fill="#9e8f4f"/>
      <path d="m1.009,37.937c-.359-.029-.699-.413-.897-.788-.283-.538-.002-1.049.509-1.385.122-.081.26-.143.399-.193,2.313-.838,4.624-1.682,6.944-2.5.611-.216,1.211-.135,1.524.511.307.632.07,1.186-.514,1.512-2.335,1.303-7.606,2.872-7.965,2.844Z" fill="#9e8f4f"/>
    </g>
  </g>
</svg>