<?xml version="1.0" encoding="UTF-8"?>
<svg id="b" data-name="Layer 2" xmlns="http://www.w3.org/2000/svg" width="225.671" height="251.945" viewBox="0 0 225.671 251.945">
  <g id="c" data-name="Layer 1">
    <g>
      <path d="m94.577,195.468c-1.687-3.715-3.4-7.433-4.452-11.356-.653-2.434-1.497-4.826-1.898-7.358-.285-1.802-.528-3.584-.633-5.402-.173-3.006,1.213-5.449,2.628-7.93.867-1.52,2.199-2.694,2.97-4.277.194-.298.34-.624.433-.967.097-.683-.071-1.255-.891-1.284-1.873-.085-3.711-.539-5.407-1.337-.336-.222-.788-.129-1.01.207-.103.157-.142.347-.109.532.044,1.421-.479,2.746-.603,4.124-.173,1.948-.809,3.755-1.316,5.617-.494,1.804-.998,3.589-1.658,5.339-.658,1.74-1.293,3.491-1.837,5.268-.477,1.49-.852,3.011-1.124,4.552-1.111,6.84-.904,13.729-.694,20.62.045,1.187.375,2.346.962,3.379.974-1.385,1.206-2.95,1.851-4.332.914-1.958,1.878-3.89,2.892-5.794.251-.47.49-.877,1.097-.681.517.167.489.658.485,1.069.005.428-.051.854-.165,1.266-.942,3.099-1.794,6.233-2.907,9.268-.747,2.038-1.092,4.185-1.919,6.189-.095.291-.14.596-.133.902-.085,2.31-.802,4.484-1.316,6.713-.738,3.213-1.815,6.356-1.81,9.752,0,1.645-.606,3.321-.625,5.027-.007.648-.576,1.051-.754,1.638-.183.603-.733.573-1.218.539-.496-.003-.896-.408-.893-.905,0-.022.001-.044.003-.065-.046-1.527-.165-3.092.228-4.556.25-.872.386-1.773.405-2.679.021-3.105.797-6.087,1.322-9.118.52-2.521.448-5.129-.21-7.618-.141-.528-.213-1.072-.216-1.618-.085-2.259.036-4.546-.274-6.774-.884-6.385-.421-12.791-.352-19.179.118-2.167.451-4.316.996-6.416.855-3.912,2.777-7.441,3.759-11.268.882-3.437,2.117-6.855,1.789-10.519-.062-.549.044-1.104.305-1.59.454-.838-.18-1.448-.717-1.85-.59-.499-1.472-.426-1.972.164,0,.001-.002.002-.003.003-1.46,1.56-3.024,3.075-3.988,4.981-.52,1.028-1.086,2.173-1.069,3.4.013.92-.57,1.57-.847,2.354-.206.585-.713.603-1.21.582-.506.014-.927-.385-.941-.891,0-.015,0-.03,0-.046-.131-2.81-.653-5.674,1.832-7.942,1.59-1.453,2.39-3.553,3.793-5.191.489-.571.082-1.028-.5-1.454-.608-.445-1.007-.591-1.494.088-.538.789-1.122,1.545-1.748,2.266-1.445,1.682-3.119,3.153-4.973,4.369-1.061.651-1.574,1.486-1.332,2.7.925,4.633.566,9.353.997,14.009.189,2.044.191,4.14.62,6.148.654,3.064.823,6.22,1.865,9.213.357,1.279.601,2.587.727,3.909.299,1.913.743,3.808,1.065,5.711.362,2.132.384,4.348,1.186,6.403.045.114.067.236.066.359-.052,2.45.951,4.767.898,7.222-.04,1.823.836,3.559.57,5.412-.064.446.189,1.011-.49,1.223-.665.208-.868-.401-1.129-.719-1.459-1.78-2.505-3.724-2.593-6.129-.101-2.784-.792-5.489-1.275-8.226-.294-1.667-.627-3.333-.987-4.98-.474-2.182-.641-4.414-1.245-6.581-.387-1.385-.47-2.852-.861-4.264-.562-2.029-.713-4.159-1.376-6.173-.037-.117-.055-.239-.055-.362-.012-2.924-.932-5.749-.833-8.7.093-2.683-.155-5.374-.11-8.061-.067-1.452-.262-2.895-.583-4.313-.12-.76-.663-.957-1.189-.681-1.842.968-3.91,1.162-5.84,1.822-1.304.446-2.711.435-4.07.862-3.655,1.053-6.911,3.176-9.349,6.095-.605.892-1.145,1.827-1.615,2.797-.564.815-1.609,1.143-2.537.795-.857-.412-1.283-1.39-1.001-2.298.625-1.63,1.13-3.295,1.645-4.957,1.842-5.913,5.813-10.352,10.145-14.512,1.241-1.131,2.576-2.152,3.992-3.053.696-.467,1.361-.978,1.99-1.531,1.342-1.181,1.444-1.503.751-3.093-.384-.885-.359-1.875-.914-2.738-.407-.634-.716-.92-1.421-.588-1.922.901-4.033,1.329-6.154,1.248-1.221-.038-2.447.048-3.665-.016-1.81-.095-3.452.497-5.083,1.14-1.327.47-2.754.589-4.14.344-.976-.129-1.152-.772-.535-1.545.643-.803,1.627-1.005,2.502-1.357,1.222-.494,2.503-.833,3.75-1.265,1.056-.32,2.168-.412,3.262-.27,2.654.23,5.168-.634,7.762-.835.713-.055,1.306-.616,2.066-.654.418-.015.744-.366.729-.784-.001-.037-.005-.073-.012-.109-.03-.792.093-1.658-.188-2.358-.311-.923-.441-1.897-.384-2.87-.026-2.2-.15-4.41.014-6.598.227-3.04-.567-5.862-1.313-8.743-.463-1.912-.477-3.906-.042-5.825.636-3.246,1.791-6.369,3.421-9.247,1.157-1.953,2.448-3.829,3.726-5.707.64-.865,1.183-1.798,1.619-2.781,1.265-3.14,3.661-5.453,6.047-7.721,2.772-2.585,6.156-4.422,9.833-5.34,2.683-.725,5.398-1.316,8.108-1.797,2.496-.444,5.116-.19,7.681-.239.548-.011,1.101.029,1.645-.014.722-.055.95-.499.71-1.148-1.22-3.31-1.33-6.762-1.305-10.225.013-1.893-.11-3.839.274-5.665.422-2.011.384-4.083,1.046-6.064.36-1.342.611-2.712.751-4.094.288-1.797.959-3.521,1.009-5.357-.025-.431.092-.858.333-1.216.206-.24.268-.571.165-.87-1.201-2.627.746-4.739,1.187-7.086.262-1.391.945-2.699,1.29-4.113.406-1.381.939-2.722,1.59-4.007,1.254-2.98,2.983-5.736,5.12-8.161.813-.877.716-1.248-.096-2.339-1.536-2.067-2.738-4.232-2.468-6.975.267-2.732,2.046-4.56,4.749-4.552,1.865.004,3.759-.263,5.551.638.428.188.807.474,1.104.835.626.812,1.156.529,1.667-.131.587-.759,1.128-1.561,1.782-2.257,1.724-1.833,3.631-2.265,6.197-1.519,4.29,1.248,7.077,4.105,9.483,7.559,1.092,1.571,1.422,3.549.9,5.389-.233.892-.064,1.426.484,1.871,2.337,1.893,3.407,4.552,3.93,7.299.636,3.01-1.289,5.966-4.299,6.603-.34.072-.685.112-1.032.119-1.886.081-3.355-.815-4.913-1.59-1.206-.598-1.309-.586-1.294.728.029,2.518-.642,4.881-1.217,7.299-.375,1.571-.932,3.169-.932,4.801.004,2.452-.713,4.808-.777,7.239-.035.795-.418,1.535-1.046,2.023-.537.466-1.114.881-1.959.419-.599-.329-1.058.288-1.243.721-.361.599-.252,1.369.262,1.843.463.468.957.904,1.481,1.303,2.489,1.581,4.463,3.565,5.58,6.369.482,1.211,1.606,1.93,2.742,2.506,1.499.759,2.315,2.093,2.894,3.538.642,1.597,0,3.2-1.536,4.468-1.791,1.481-1.729,1.755.16,3.062,1.619,1.119,3.134,2.391,4.678,3.619,1.224.972,1.503.998,2.591-.043,3.097-2.912,6.356-5.646,9.761-8.19,2.92-2.194,6.058-4.083,9.363-5.638,1.123-.536,1.669-1.206,1.617-2.495-.088-2.135-.055-4.278-.027-6.416.015-1.303.54-2.029,1.469-2.183,1.131-.19,1.579.11,2.238,1.299.242.481.446.98.609,1.492.701,1.913,1.251,3.877,2.081,5.749.256.687.901,1.151,1.634,1.175,1.305.209,2.58.575,3.798,1.09,1.553.634,2.315.151,2.674-1.552.572-2.966,2.034-5.687,4.191-7.801,1.801-1.741,3.683-1.042,4.467.545.487.979.772,2.045.837,3.136.262,5.255.196,10.508-.012,15.761.029.304-.009.611-.11.899-.762,1.367-.25,2.326.758,3.355,1.862,1.901,2.691,4.309,3.279,6.892.372,1.719.529,3.477.467,5.234.016.789.356,1.536.939,2.067.586.649.851,1.303.084,2.038-1.639,1.572-1.19,3.54-.63,5.274.863,2.671,2.152,5.2,3.148,7.833,1.108,2.725,1.424,5.707.911,8.603-.413,2.092-1.642,3.934-3.416,5.118-1.121.755-2.177,1.662-3.733,1.659-1.758.03-3.479-.504-4.91-1.525-1.808-1.265-3.455-2.746-4.904-4.41-1.277-1.469-2.707-2.867-4.631-3.466-.682-.222-1.279-.649-1.708-1.223-.916-1.139-2.513-1.316-3.423-2.704-.957,1.555-1.261,3.206-1.791,4.761-.893,2.611-1.723,5.245-2.632,7.851-.479,1.371-.463,2.538.675,3.638,1.868,1.886,4.246,3.185,6.842,3.736,1.242.258,2.498.429,3.726.705,2.621.589,3.812,2.519,2.019,5.067-1.103,1.698-2.933,2.787-4.951,2.945-.978.071-1.816.706-2.845.545-.784-.026-1.562-.144-2.318-.35-1.16-.451-2.4-.502-3.27.696-.514.708-1.375.724-2.065,1.046-1.731.807-1.859.96-1.895,2.826-.037,1.933.29,3.886-.402,5.795-.221.768.223,1.569.991,1.789.091.026.184.043.278.051,2.217.311,4.45.573,6.656.888,3.461.494,6.91.439,10.369.548.648.021,1.25.123,1.29.955.102.599-.302,1.167-.901,1.269-.101.017-.204.02-.305.009-1.832.058-3.664.133-5.496.132-2.26,0-4.522-.051-6.781-.123-1.024-.032-2.071.048-3.024-.532-.345-.125-.713-.172-1.078-.136-2.114-.11-2.127.055-2.369,2.19-.384,3.39-.366,6.811-.777,10.181-.575,4.971-2.167,9.771-4.677,14.101-1.506,2.583-2.584,5.415-4.074,8.009-1.212,1.999-2.214,4.116-2.993,6.32-.073.224-.296.461-.255.65.804,3.737.149,7.542.548,11.297.154,1.441.695,2.818.565,4.314-.183,1.739-1.161,3.295-2.649,4.213-.322-2.672-1.071-5.244-.994-7.93.064-1.178-.273-2.343-.956-3.304-1.295.577-2.055,1.94-1.865,3.345.087,1.152-.029,2.32-.042,3.481-.007.682-.323,1.042-1.011.948-.716-.099-1.715.358-1.952-.803-.133-.651-.058-1.342-.154-2.005-.196-1.356-.823-1.648-2.136-1.152-1.037.307-2.049.695-3.026,1.16-.665.378-1.404.713-.728,1.767.307.48.025,1.143-.161,1.752-.984,3.214-2.172,6.355-3.242,9.537-.611,1.818-1.038,3.698-1.536,5.555-.069.417-.266.802-.564,1.102-.479.439-.897.823-1.587.49-.758-.369-1.202-1.174-1.109-2.012.372-1.831.648-3.687,1.123-5.491.408-1.572.945-3.108,1.606-4.592.733-1.627,1.183-3.397,2.43-4.792.524-.586.231-1.004-.649-1.186-2.017-.416-2.763-1.31-2.817-3.325-.093-3.422,1.029-6.553,2.479-9.548.706-1.457,2.213-2.139,3.789-2.502,1.801-.415,2.1-.794,1.945-2.644-.221-1.919-.634-3.812-1.234-5.648-.406-1.395-.568-2.844-.877-4.255-.911-4.303-2.862-8.318-5.682-11.694-.877-1.058-1.623-2.225-2.475-3.306-1.025-1.299-1.519-1.352-3.114-.683-2.891,1.213-5.454,2.995-8.11,4.611-2.119,1.235-4.107,2.682-5.933,4.319-2.165,2.009-2.543,4.45-1.802,6.976.963,3.531,2.254,6.964,3.855,10.255,1.838,3.606,2.212,7.513,1.755,11.499-.101.888-.774,1.631-.764,2.581,0,.274-.288.342-.554.318-.384.007-.704-.295-.718-.679-.145-1.262-.369-2.514-.669-3.748-.713-2.79-1.626-5.525-2.732-8.183-1.303-3.034-2.447-6.133-3.428-9.286-.398-1.386-.645-2.813-1.074-4.197-.498-1.607.292-3.186.883-4.706,1.103-2.834,3.424-4.614,5.747-6.277,3.206-2.296,6.591-4.363,9.975-6.376,4.665-2.828,8.908-6.301,12.602-10.316,1.301-1.278,2.038-3.023,2.046-4.847-.013-1.097-.011-2.201.035-3.3.045-3.011-.493-6.002-1.583-8.809-.712-2.263-1.625-4.458-2.728-6.559-1.258-2.202-2.27-4.546-3.391-6.827-.572-1.164-1.213-2.3-1.695-3.5-.309-.807-.366-1.688-.165-2.528.089-.398.274-.668.727-.653.309-.035.598.161.679.461.819,2.478,2.437,4.393,4.216,6.252,1.437,1.498,2.2,3.488,3.118,5.325,1.109,2.159,2.051,4.4,2.817,6.703.449,1.403.684,2.949,1.097,4.347.871,2.969.682,5.93.474,8.857-.266,3.739-1.423,7.256-4.503,9.787-1.249,1.047-2.414,2.189-3.486,3.417.722.357,1.554.421,2.322.181,3.061-.777,5.893-2.032,8.133-4.339,2.057-2.102,3.733-4.546,4.951-7.223,1.059-2.23,1.819-4.591,2.261-7.019.009-.368.15-.72.398-.993.392-.354.688-.97,1.334-.723.548.211,1.131.526,1.186,1.231.206,1.7.087,3.424-.353,5.079-.789,2.837-2.098,5.502-3.861,7.86-.728.917-.69,2.225.089,3.098,2.068,2.611,3.005,5.735,3.938,8.812.448,1.784.363,3.661-.245,5.397-.553,1.84-1.079,3.682-1.676,5.513-.914,2.807-2.084,5.5-3.224,8.208-.92,2.341-2.073,4.582-3.444,6.69-1.656,2.426-3.431,4.656-6.576,5.165-.359.054-.689.231-.932.501-1.348,1.402-2.104,3.269-2.114,5.214-.022.741.477,1.085,1.067.744,2.344-1.356,5.026-1.923,7.379-3.285,1.323-.691,2.316-1.881,2.759-3.307,1.477-4.244,3.276-8.369,5.381-12.339,2.296-4.406,4.625-8.807,6.63-13.347,1.094-2.495,1.752-5.159,1.946-7.876.25-3.332.635-6.652.658-9.999.005-.733,0-1.467,0-2.2.009-.96.136-1.915.378-2.843.494-2.008.39-4.12.304-6.197-.02-.472-.342-.721-.651-1.032-1.956-1.957-3.056-4.401-3.887-6.992-.801-2.262-2.014-4.355-3.579-6.174-1.657-2.062-2.858-4.42-4.208-6.669-.599-.969-1.564-1.654-2.677-1.899-1.264-.367-2.498-.832-3.689-1.392-2.067-1.011-3.502-2.642-4.826-4.433-1.662-2.245-2.647-4.815-3.656-7.381-2.039-5.184-3.987-10.41-6.605-15.343-1.291-2.433-2.698-4.805-4.014-7.225-.983-1.81-2.79-2.337-4.497-3.046-2.96-1.171-6.003-2.121-9.103-2.842-2.493-.624-5.109-1.306-7.748-.752-3.136.658-6.315.263-9.463.522-2.284.217-4.542.658-6.74,1.316-1.097.313-2.248.364-3.296.944-.518.255-.928.687-1.156,1.218,1.214.087,2.345.219,3.478.234.737.017,1.436.333,1.935.875.611.628,1.026,1.27.507,2.391-1.015,2.194-2.468,4.106-3.568,6.227-1.547,2.985-3.047,5.978-3.468,9.419-.217,1.186-.372,2.382-.462,3.584-.138,4.129,1.264,8.163,3.934,11.316,2.443,2.943,4.845,5.943,6.541,9.426.932,1.95,1.62,4.006,2.049,6.124.404,2.272.561,4.581.467,6.886-.003.85.329,1.319,1.097,1.86,2.248,1.575,4.314,3.406,6.435,5.155,1.608,1.341,2.95,2.972,3.957,4.808,1.779,3.153,1.471,6.239-.336,9.251-1.171,1.951-2.574,3.746-3.88,5.605-2.072,2.758-2.653,6.359-1.555,9.628.381,1.206.548,2.468.854,3.7.755,3.045,1.831,5.968,2.839,8.922.523,1.536.994,3.084,1.603,4.591.33.565.138,1.291-.427,1.621-.05.029-.101.054-.154.076-.682.312-1.056,1.136-1.947,1.271Zm61.306-90.684c-.152-.541.274-1.374-.747-1.478-.014-.527-.016-1.055-.044-1.58.025-.325-.219-.609-.544-.634-.044-.003-.088-.002-.131.005.062-1.085-.09-2.172-.447-3.199-.44-1.377-.749-2.793-.921-4.229-.421-2.672-.636-5.374-1.458-7.979-.654-2.072-1.468-2.614-3.588-2.198-1.73.339-2.194,1.371-1.339,2.894.782,1.267,1.495,2.575,2.135,3.919,1.526,3.565,3.345,7.002,5.043,10.491.133.274.381.256.622.257.037.801-.274,1.716.723,2.202.128.554-.151,1.316.747,1.481-.004.178.01.355.041.53.069.25-.076.735.344.658.315-.058.194-.496.118-.765-.072-.254-.328-.312-.557-.374Zm-32.225-72.62c-1.123.229-.534,1.316-.949,1.901-.629.887-.007,1.177.723,1.601.254-1.165.313-2.363.177-3.548.168-.055.46-.078.485-.173.358-1.312.519-2.632-.098-3.946-.362,1.357-.477,2.767-.337,4.165Zm51.814,36.889c-.401.024-.758.263-.932.626-.399.926-.908,1.908-.921,2.876-.035,2.394-.658,4.846.469,7.184.164.462.21.957.132,1.441-.11,1.28-1.102,1.7-2.295,1.152-1.053-.451-1.949-1.202-2.577-2.16-.648-1.05-1.623-1.831-2.077-3.132-.36.713-.434,1.336-.147,1.763.713,1.061.494,2.233.567,3.364.031.494.173,1.2-.628,1.296-.644.077-1.288.189-1.679-.658-.78-1.485-1.251-3.113-1.385-4.785-.063-1.891-.009-3.787-.022-5.68.079-.661-.001-1.331-.235-1.953-1.5,1.34-2.467,3.175-2.726,5.17-.311,3.257,1.113,6.165,1.784,9.217.413,1.883.846,3.758,1.071,5.67.389,3.306-.427,6.534-.74,9.793-.165,1.723-.823,2.241-2.507,2.417-.995.104-1.073.274-.721,1.288.449,1.112.81,2.258,1.081,3.426.25,1.105.617,2.181,1.093,3.209.606-.397,1.017-1.032,1.129-1.748.29-2.463,1.316-4.741,1.764-7.194.455-2.49,1.681-4.852,2.677-7.225.653-1.477,1.385-2.918,2.194-4.316.511-.783,1.503-1.099,2.372-.754.849.324.685,1.077.665,1.71,0,.727-.195,1.44-.564,2.066-.761,1.379-1.12,2.943-1.038,4.515,0,1.74.848,3.287.788,5.002-.039,1.705.681,3.34,1.967,4.461,2.185,2.044,4.222,4.24,6.095,6.574,1.391,1.884,3.17,3.45,5.215,4.591,1.44.781,2.679.559,3.602-.804,1.207-1.627,1.67-3.688,1.276-5.674-.704-3.236-1.999-6.267-3.222-9.332-.756-1.773-1.306-3.626-1.638-5.525-.133-.888-.211-1.549-1.272-1.908-.769-.332-1.415-.895-1.849-1.612-.823-1.221-.579-2.084.786-2.621q2.349-.926,2.35-3.324c0-.366-.015-.733-.004-1.097.119-2.32-.727-4.585-2.336-6.26-.496-.523-.906-1.122-1.214-1.774-.473-1.015-1.211-2.122-.755-3.276.561-1.418.452-2.873.607-4.314.005-.548.053-1.095.144-1.635.763-2.761.353-5.569.395-8.359-.062-.422-.226-.822-.477-1.166-.144-.307-.055-.836-.518-.854s-.768.469-.899.787c-.768,1.828-1.645,3.644-1.669,5.687-.027,2.076-.029,4.152.007,6.228-.055.662.075,1.327.375,1.919.569.97.314,1.723-.412,2.001-.83.32-1.764-.08-2.104-.902-.338-1.074-.981-2.076-.819-3.302.101-.704.026-1.422-.219-2.089h-.001Zm-77.384-1.919c-.021.382.003.765.074,1.141.439,1.75.862,3.51,1.436,5.219.316,1.094,1.33,1.837,2.468,1.81,2.782,0,5.332,1.103,7.934,1.803,3.18.878,6.276,2.039,9.249,3.469,3.034,1.436,6.004,2.983,8.555,5.221,1.487,1.303,2.756,2.852,4.459,3.912,1.215.757,1.652.675,2.438-.57.363-.547.805-1.037,1.311-1.456.662-.579,1.091-.478,1.724.031.444.336.653.899.535,1.443-.129,1.017.066,1.664,1.293,1.624.764-.025,1.021.548,1.046,1.23.124.729-.15,1.47-.718,1.944-.523.318-.861.87-.906,1.481.037,1.696.469,3.36,1.261,4.86.446.96.935,1.097,1.712.537,1.557-1.121,3.261-2.02,5.065-2.672.781-.286.818-.751.517-1.426-.658-1.477-1.353-2.944-1.901-4.462-1.755-4.868-5.083-8.469-9.126-11.503-3.494-2.621-7.052-5.158-10.514-7.82-2.903-2.233-5.846-4.342-9.288-5.708-3.024-1.145-5.95-2.533-8.75-4.15-.721-.432-1.63-1.137-2.545-.729-1.634.729-3.46.407-5.1,1.21-1.707.831-2.277,1.389-2.227,3.566v-.003Zm-48.492,87.996c.816.264,1.694.263,2.509-.003,1.328-.588,2.783-.644,4.121-1.221,1.577-.681,3.259-1.152,4.881-1.719,2.4-.837,4.446-2.442,6.348-4.163.443-.401,1.018-.813,1.011-1.397-.029-2.39.82-4.661.877-7.034.024-1.006-.219-2.076.512-2.987.107-.221.12-.476.036-.707-.713-2.413-1.261-4.899-2.216-7.216-1.525-3.712-3.26-7.33-4.417-11.194-.656-1.875-1.044-3.833-1.152-5.816-.03-2.4.648-4.633,1.291-6.903,1.024-3.615,2.779-6.879,4.635-10.094,1.276-2.212,2.7-4.339,4.053-6.497-.238-.241-.602-.307-.909-.165-1.687.897-3.408,1.73-4.762,3.155-1.204,1.244-2.337,2.555-3.393,3.926-2.5,3.144-4.392,6.727-5.579,10.565-1.135,3.677-.969,7.632.472,11.2,1.069,2.655,2.602,5.12,3.778,7.737,1.306,2.907,2.603,5.843,2.677,9.123-.004.428.095.851.288,1.232.218.383.21.853-.02,1.228-.371.617-.248,1.305-.348,1.961-.308,2.329-1.267,4.524-2.767,6.332-1.954,2.332-4.451,3.973-6.832,5.771-1.926,1.373-3.643,3.02-5.094,4.888Zm120.282-21.275c-.647-.758-1.146-1.157-1.882-1.193-1.021-.131-2-.487-2.866-1.042-3.886-2.012-6.718-5.6-7.77-9.848-.694-2.605-1.654-5.117-2.603-7.638-.548-1.462-1.185-2.888-1.721-4.352-.779-2.327-1.724-4.595-2.829-6.786-.658-1.22-1.341-1.602-2.59-1.081-1.237.458-2.391,1.115-3.417,1.945-1.072.942-1.189,1.805-.361,2.993.406.518.771,1.069,1.089,1.645,1.147,2.437,2.158,4.936,3.03,7.484,1.111,3.114,1.967,6.3,2.975,9.44.4,1.247.489,2.636,1.285,3.741,1.312,1.82,2.66,3.636,5.261,3.521,2.577-.115,5.012.631,7.488,1.162,1.617.354,3.292.357,4.91.01Zm-28.422-16.562c2.79.116,2.902-.04,2.208-1.815-.088-.225-.126-.469-.201-.7-.693-2.293-1.762-4.456-3.163-6.399-1.298-1.724-2.499-3.391-2.842-5.696-.276-2.289-1.352-4.408-3.036-5.982-.531-.398-.949-.927-1.215-1.536-.283-.738-.836-1.341-1.547-1.685-1.442-.796-2.496-2.015-3.66-3.126-1.49-1.472-3.233-2.664-5.146-3.516-.621-.267-.581.131-.617.475-.035.329.236.534.375.797,2.918,5.363,5.529,10.887,7.821,16.546.865,2.22,1.573,4.508,2.757,6.608,2.025,3.59,4.9,5.831,8.266,6.027v.002Zm-1.581,55.135c-.216-3.335.043-6.69-.717-9.998-.329-1.442-.503-1.571-1.86-.768-1.389.823-2.614,1.914-4.156,2.492-1.792.708-3.658,1.214-5.562,1.509-1.032.142-1.221.576-.7,1.495.45.777.969,1.513,1.55,2.198,1.638,1.839,2.945,3.949,3.863,6.234,1.351,3.803,2.367,7.718,3.037,11.698.055.329-.044.819.431.888.395.055.688-.349.833-.611.522-.942.945-1.937,1.392-2.919,1.079-2.369,2.112-4.733,1.911-7.453-.116-1.582-.023-3.176-.023-4.766Zm-34.515-119.269c.237,2.248.829,4.125,2.672,5.274,2.429,1.515,4.696,3.3,7.465,4.259,1.861.645,3.627,1.561,5.447,2.327.325.198.74.163,1.027-.086.24-.297.256-.716.039-1.03-.588-.958-1.065-1.974-2.221-2.501-2.514-1.123-4.851-2.606-6.937-4.403-.668-.621-1.595-.883-2.49-.702-.928.123-2.099.614-2.659-.447-.58-1.1.326-1.881,1.104-2.604.572-.395.716-1.178.321-1.75-.05-.073-.108-.14-.173-.201-1.248-1.555-.956-2.379.973-2.921.554-.156,1.018-.258,1.196-.924.651-2.437,1.33-4.864,2.202-7.239.929-2.528,1.497-5.187,2.75-7.599.281-.485.35-1.064.19-1.601-.42-1.214-4.342-2.115-5.338-1.286-.271.236-.465.547-.559.893-.628,1.822-1.166,3.665-1.662,5.532-.446,1.682-.967,3.338-1.35,5.045-.332,1.485-.343,3.053-.823,4.445-.874,2.537-.076,5.253-1.174,7.521Zm-32.081,90.426c1.382-1.133,1.619-2.7,1.845-4.077.649-3.608.377-7.322-.793-10.797-1.367-3.897-2.992-7.707-4.023-11.718-.374-1.336-.638-2.701-.79-4.08-.16-1.946-.221-3.899-.185-5.851.026-1.992-.11-4.003.624-5.945.286-.728.233-1.546-.145-2.231-.377.345-.711.734-.994,1.159-1.289,2.712-2.546,5.489-3.021,8.439-.802,4.445-.172,9.029,1.799,13.092,1.036,1.959,1.928,3.991,2.668,6.08.319.987.448,2.104,1.169,2.996,1.035,1.325,1.604,2.955,1.616,4.637.069,2.072.037,4.147.052,6.22-.082.697-.022,1.403.177,2.076h0ZM126.039,4.355c-.056.222-.094.448-.115.676.008.332.247.508.477.724.698.658,1.38,1.335,2.014,2.052.614.696.648,2.152.128,2.7-.473.499-1.407.426-2.264-.322-1.57-1.371-3.217-2.679-4.193-4.607-.416-.823-.842-.548-1.384-.007-.571.694-1.093,1.427-1.561,2.194-1.152,1.527-1.007,2.558.524,3.662,2.285,1.746,4.343,3.77,6.128,6.025.887,1.056,1.527,1.19,2.498.219,1.655-1.655,3.177-3.345,3.69-5.813.361-1.739-.03-3.17-1.199-4.212-1.4-1.247-3.091-2.168-4.744-3.291Zm28.993,78.147c.089-1.31.564-2.498.749-3.723.156-1.033.589-1.96.772-2.961.315-1.727-.325-3.35-.597-5.011-.139-.845-.863-.689-1.276-.412-.838.562-1.693,1.113-2.523,1.693-1.909,1.339-3.594,2.947-5.453,4.344-1.546,1.126-2.962,2.42-4.223,3.858-.274.321-.7.62-.167,1.036.333.26.548.831,1.189.308,1.087-.886,2.491-1.206,3.781-1.582,2.164-.633,4.317-.415,6.064,1.273.432.55,1.018.96,1.683,1.176h0Zm-78.023,39.987c-.238.159-.363.44-.321.722.103,1.279.758,2.387,1.146,3.577.896,2.618,1.462,5.337,1.686,8.095.099,2.354-.294,4.704-1.152,6.898-.258.752-.358,1.549-.294,2.341.076,1.065,1.105,1.034,1.745,1.355.519.26.526-.488.745-.797,1.295-1.833,1.586-4.031,1.901-6.128.699-4.654-.591-8.985-2.977-12.942-.665-1.098-1.275-2.413-2.479-3.12Zm29.042-90.642c0-.42.049-.807-.219-.958-.427-.242-.6.274-.889.448-.107.056-.195.142-.253.248-.534,1.271-1.126,2.523-1.566,3.827-.653,1.933-1.21,3.894-1.731,5.872-.478,1.81-.658,3.666-1.133,5.474-.567,2.15-.707,4.409-1.183,6.588-.118.465.045.955.419,1.256.332.299.829.32,1.186.05.635-.263,1.037-.895,1.008-1.581-.216-2.455.544-4.809.818-7.211.17-1.561.436-3.11.796-4.638.59-2.445,1.403-4.836,2.015-7.277.194-.766.894-1.347.734-2.097Zm12.03,4.568c-.672,2.563-1.367,4.735-2.008,6.915-.518,2.09-1.14,4.153-1.865,6.18-.285.496-.198,1.123.211,1.523.679.548,2.932.052,3.406-.7,1.08-1.535,1.606-3.391,1.494-5.265-.146-1.695-.172-3.404-.165-5.107-.033-1.257-.404-2.482-1.074-3.547Zm-11.387-10.094c.279-.025.556-.066.831-.122.851-.212,1.358-.949,2.059-1.398,2.178-1.395,3.89-3.319,5.574-5.249.617-.706.393-1.186-.53-1.357-.595-.11-1.312.014-1.777-.28-1.042-.661-1.803-.154-2.405.497-1.926,1.956-3.458,4.263-4.514,6.797-.366.954-.26,1.115.762,1.111Zm51.682,57.049c-.509,2.084-.514,3.791-.794,5.455-.352,2.597-.415,5.224-.188,7.835.139,1.13.563,2.205,1.233,3.126.114.185.279.413.564.38.338-.039.309-.347.342-.56.018-.547.082-1.091.194-1.627.977-2.837.734-5.758.621-8.662-.077-2.005-.806-3.831-1.973-5.946Zm-22.173-60.569c.024-1.462-.48-2.883-1.419-4.003-.634-.815-1.045-.875-1.736-.205-.857.829-1.655,1.72-2.45,2.609-.409.348-.459.962-.111,1.371.023.027.047.053.073.077.83.845,1.574,1.781,2.753,2.223,1.89.709,2.896.07,2.891-2.072Zm34.174,52.536c.45-2.628.802-5.27,2.266-7.582.199-.335.09-.767-.245-.967-.112-.067-.24-.101-.37-.099-.72-.104-1.447-.154-2.174-.15-1.549.061-2.092.719-2.231,2.24-.145,1.583.509,2.95,1.091,4.304.343.799.549,1.823,1.663,2.255h0Zm-50.228-50.825c-.051-1.059-.082-2.093-.165-3.126-.027-.342-.055-.77-.508-.868-.361-.083-.734.074-.927.389-1.062,1.371-2.211,2.673-3.439,3.898-.442.444-.478,1.107.165,1.33,1.327.547,2.619,1.177,3.867,1.885.679.335.778-.014.823-.439.104-1.024.129-2.06.184-3.07Zm-7.542-10.721c.716-.038,1.145-.039,1.567-.088.457-.055,1.014.12,1.268-.476.311-.73-.394-1.011-.729-1.301-1.525-1.348-3.293-2.392-5.21-3.075-.333-.182-.747-.118-1.01.155-.246.298-.232.732.032,1.014.421.511.724,1.109.888,1.75.677,1.679,1.662,2.474,3.192,2.021h.001Zm-54.727,113.907c-.272.739-.284,1.549-.036,2.296.36.965.507,1.997.43,3.024-.045,1.499.7,2.797.899,4.223.017.293.268.516.561.499.024-.001.049-.005.073-.009.316.006.586-.226.628-.539.048-.299.059-.603.107-.902.343-2.165-.419-4.194-.932-6.211-.211-.815-.388-2.07-1.729-2.382Zm31.853,23.387c.049-.517-.291-.645-.427-.884-.837-1.476-2.236-2.41-3.4-3.565-.373-.37-.781-1.097-1.475-.748-.591.322-.997.902-1.097,1.567-.121.648-.047,1.131.758,1.375,1.128.341,2.094,1.071,3.191,1.536.672.217,1.324.493,1.946.827.457.301.475.068.504-.109Zm37.813-82.26c.917.056,1.828-.174,2.609-.658.947-.499,1.187-1.392.512-2.182-1.14-1.334-3.151-1.01-4.231.377-.465.497-.632,1.204-.439,1.856.25.78.983.548,1.548.608h0Zm-7.057-12.9c-.344-.032-.41.227-.476.45-.242.733.128,1.527.845,1.813,1.343.641,2.299,1.718,3.371,2.671.201.179.319.629.678.359.262-.197.191-.599.064-.86-.92-1.88-2.172-3.444-4.2-4.231-.102-.054-.196-.122-.281-.201Zm-19.808,1.806c-.424,0-.729.008-1.033,0-.945-.03-1.084.578-1.055,1.322.032.835.545.961,1.248.893.915-.088,1.662-.707,2.604-.746.494-.02.459-.336.216-.76-.514-.9-1.349-.638-1.98-.709Z" fill="#9e8f4f"/>
      <path d="m81.816,240.046c.685-1.835.553-4.229,1.251-6.499.439-1.426.482-2.956.893-4.428.677-2.422,1.136-4.903,2.026-7.271.401-1.067.518-2.213.859-3.317,1.645-5.334,3.29-10.661,5.982-15.586.719-1.313,1.55-2.564,2.303-3.859.174-.333.553-.505.918-.417.48.075.534.511.46.852-.29,1.35-.654,2.687-1.029,4.011-.785,2.764-1.767,5.472-2.687,8.197-.632,1.872-1.392,3.707-1.913,5.608-.332,1.216-.579,2.459-.983,3.659-1.052,3.126-1.64,6.384-2.658,9.53-.463,1.37-.796,2.781-.995,4.213-.37,2.255-.898,4.482-1.579,6.663-.139.401-.389.755-.72,1.021-.446.343-1.044.412-1.556.179-.517-.177-.534-.621-.567-1.042-.029-.362-.005-.73-.005-1.517Z" fill="#9e8f4f"/>
      <path d="m104.42,211.164c-.248.598-.466,1.225-.758,1.814-2.609,5.258-5.628,10.301-8.159,15.604-1.092,2.129-2.009,4.343-2.742,6.621-.2.631-.459,1.242-.775,1.823-.369.87-1.323,1.334-2.235,1.086-.693-.257-1.244-1.813-1.007-2.641,1.311-4.582,3.533-8.767,5.679-12.978,1.986-3.894,4.462-7.51,6.697-11.263.363-.479.787-.908,1.261-1.278.31-.326.815-.369,1.176-.101.405.315.914.649.862,1.313Z" fill="#9e8f4f"/>
      <path d="m114.062,205.766c-1.136,6.416-.523,12.893-.694,19.341,0,.183-.009.366-.028.548-.117.86-1.127,2.081-1.752,2.126-.682.049-1.8-1.21-1.819-2.226-.081-4.277-.329-8.576.105-12.824.299-2.92.887-5.837,1.371-8.75.128-.467.343-.905.634-1.291.344-.6.898-.538,1.447-.42.594.127.727.589.732,1.112.01.795.004,1.589.004,2.383Z" fill="#9e8f4f"/>
      <path d="m100.007,136.358c-1.158.183-1.831-.816-2.378-1.665-1.32-2.106-2.428-4.337-3.309-6.661-.787-1.915-1.449-3.88-1.98-5.881-.5-2.015-1.239-4.043-1.029-6.221.135-1.392.048-2.806.064-4.21.007-.628.256-1.057.946-1.097.584-.125,1.158.246,1.284.83.007.034.013.068.017.103.466,1.504.688,3.072.658,4.646-.115,1.628.658,3.047,1.034,4.552.439,1.768,1.319,3.422,1.86,5.171.869,2.523,1.987,4.952,3.339,7.252.254.467.442.971.702,1.437.706,1.266.386,1.757-1.208,1.746Z" fill="#9e8f4f"/>
      <path d="m140.627,233.575c1.974-3.42,3.245-6.97,4.748-10.409,1.657-3.792,3.555-7.449,5.349-11.165.267-.553.557-.916,1.183-.945s1.109.157,1.112.877c.046.546-.001,1.095-.14,1.624-1.374,3.759-2.591,7.576-4.233,11.237-.943,2.005-1.754,4.07-2.429,6.18-.715,2.375-2.302,3.073-5.589,2.601Z" fill="#9e8f4f"/>
      <path d="m56.072,198.259v-10.066c0-.122.004-.245-.005-.366-.076-.915.133-1.721,1.05-2.097.527-.216,1.755.998,1.914,1.886.079.543.115,1.092.106,1.641.103,6.65.079,13.298-.071,19.947-.008.365-.039.73-.077,1.093-.044.446-.398.798-.844.84-.474.165-1,.003-1.298-.401-.39-.542-.592-1.197-.574-1.865.021-3.538.009-7.074.009-10.613h-.21Z" fill="#9e8f4f"/>
      <path d="m129.582,231.28c-.08-1.411.473-2.558.858-3.655,1.639-4.5,3.784-8.799,6.394-12.814.362-.651,1.098-.999,1.831-.866.859.078,1.239.633.854,1.391-1.47,2.892-2.523,5.957-3.707,8.961-.743,1.882-1.796,3.666-2.019,5.754-.087.819-.569,1.565-.736,2.41-.188.876-1.026,1.453-1.911,1.316-.854-.162-1.493-.876-1.56-1.743-.019-.251-.02-.503-.005-.754Z" fill="#9e8f4f"/>
      <path d="m161.005,215.893c.139,1.89-.658,3.455-.963,5.108-.341,1.871-1.032,3.674-1.313,5.585-.21,1.426-.615,2.814-.716,4.273-.142.956-1.032,1.615-1.988,1.473-.786-.117-1.394-.749-1.481-1.538-.066-1.496-.384-3.034.333-4.484.117-.214.181-.453.185-.696-.072-1.429.453-2.736.871-4.045.654-2.044,1.019-4.193,2.161-6.078.273-.464.599-.895.971-1.283.268-.268.553-.948,1.152-.583.512.239.825.767.791,1.33-.032.361-.004.73-.004.94Z" fill="#9e8f4f"/>
      <path d="m38.576,190.639c.055-.695-.042-1.316.681-1.492.586-.248,1.265-.025,1.59.521.219.357.574.633.592,1.097.038.921.577,1.782.615,2.619.091,2.081.716,4.052.99,6.086.309,2.335.773,4.649.91,7.009.007.11.141.211.16.325.089.554-.501,1.942-.871,2.022-.991.214-1.028-.677-1.301-1.213-.568-1.191-.944-2.465-1.115-3.774-.196-1.248-.406-2.512-.56-3.74-.258-2.044-.858-4.027-.979-6.087.047-.792-.122-1.583-.489-2.287-.146-.343-.222-.713-.222-1.086Z" fill="#9e8f4f"/>
      <path d="m115.501,225.577c.442-4.865,1.976-9.568,4.49-13.757.287-.639,1.037-.927,1.678-.645.684.241.609.927.439,1.404-.658,1.874-1.009,3.832-1.607,5.718-.545,1.718-1.19,3.412-1.266,5.232-.052,1.238-.827,2.279-.859,3.51,0,.096-.134.192-.214.282-.47.528-.887,1.334-1.7,1.09-.842-.252-1.107-1.047-1.01-1.924.035-.301.035-.607.049-.911Z" fill="#9e8f4f"/>
      <path d="m35.693,205.212c-.033,1.346-.558,1.652-1.716,1.052-.594-.277-1.092-.724-1.433-1.284-1.751-2.879-2.961-6.008-4.422-9.018-.319-.658-.243-.994.17-1.385.538-.508,1.035-.377,1.59.097.84.682,1.535,1.526,2.043,2.481,1.11,2.194,2.19,4.4,3.357,6.56.243.464.383.974.412,1.497Z" fill="#9e8f4f"/>
      <path d="m184.992,248.519c-1.993.064-2.128-.71-1.946-2.08.007-.313.193-.595.478-.725,2.638-1.017,4.801-2.9,7.38-4.049.463-.277,1.062-.152,1.376.287.361.331.385.893.054,1.254-.017.019-.035.037-.054.054-1.597,1.604-2.999,3.42-5.015,4.577-.664.467-1.462.706-2.273.682Z" fill="#9e8f4f"/>
      <path d="m165.219,240.418c-.848-.022-1.517-.727-1.496-1.574.009-.357.143-.7.378-.97,1.75-1.951,3.107-4.294,5.412-5.738.502-.315.993-.653,1.472-.25.471.444.549,1.165.183,1.7-1.238,1.98-2.489,3.963-3.904,5.816-.474.654-1.239,1.034-2.046,1.016Z" fill="#9e8f4f"/>
      <path d="m12.93,193.121c-.05.248-.03.474-.133.599-1.401,1.704-2.281,3.832-4.155,5.148-.865.608-1.645.503-2.194-.303-.387-.507-.414-1.202-.067-1.737,1.398-1.7,2.426-3.701,4.296-5.031.846-.603,1.297-.262,1.89.219.405.324.27.769.362,1.104Z" fill="#9e8f4f"/>
      <path d="m177.281,241.856c.728,0,1.458-.022,2.185.007.538.022,1.145.005,1.305.713.169.526.037,1.102-.342,1.503-1.078,1.154-4.326,1.947-5.752,1.345-.872-.352-1.4-1.244-1.287-2.178.042-.87.426-1.359,1.341-1.351.85.008,1.7,0,2.55,0v-.039Z" fill="#9e8f4f"/>
      <path d="m211.629,193.947c-.022-.641.026-1.282.144-1.912.139-.809.83-1.406,1.65-1.426.829-.07,1.573.505,1.716,1.324.247,1.417.392,2.859-.439,4.241-.404.673-.791,1.031-1.557.941-.75-.092-1.338-.688-1.42-1.44-.079-.573-.111-1.151-.095-1.729Z" fill="#9e8f4f"/>
      <path d="m4.856,187.819c0,.408-.106.809-.31,1.163-.515.731-.936,1.524-1.253,2.361-.132.266-.305.509-.513.72-.388.663-1.227.905-1.908.552-.637-.376-.973-1.108-.843-1.837.384-1.617.944-3.193,2.533-4.156.534-.323.968-.505,1.468-.153s.968.757.828,1.35Z" fill="#9e8f4f"/>
      <path d="m15.085,199.621c0-.609-.019-1.22.007-1.828-.002-.366.054-.729.165-1.078.282-.753,1.442-1.636,1.872-1.44.836.384,1.026,1.108.973,1.962-.064,1.035-.096,2.072-.127,3.109-.059.985-.584,1.883-1.413,2.418-.345.336-.898.329-1.234-.016-.15-.154-.238-.359-.247-.574-.062-.849-.07-1.702-.024-2.552h.027Z" fill="#9e8f4f"/>
      <path d="m204.371,245.855c-.225,1.545-1.058,2.936-2.313,3.865-.804.551-1.914-.139-2.08-1.272-.206-.833-.012-1.715.525-2.384.449-.552.95-1.061,1.495-1.519.387-.41,1.011-.487,1.486-.183.488.327.997.732.887,1.492Z" fill="#9e8f4f"/>
      <path d="m208.775,249.031c-.196-.87.389-1.561.849-2.245.337-.496,1.013-.625,1.509-.288.04.027.078.057.114.089.865.788,1.284,1.953,1.12,3.111-.123.907-.67,1.701-1.474,2.139-.314.214-.519.075-.791-.124-.907-.577-1.419-1.61-1.327-2.682Z" fill="#9e8f4f"/>
      <path d="m164.703,186.64c0,.728.02,1.458-.006,2.185.044.513-.331.968-.843,1.023-.532.158-1.106-.028-1.444-.467-.519-.539-.689-1.324-.439-2.029.342-.906.513-1.868.504-2.836.062-.761.306-1.295,1.191-1.267.922.03,1.049.675,1.069,1.384.019.668.004,1.336.004,2.005l-.036.002Z" fill="#9e8f4f"/>
      <path d="m181.527,189.787c.094.672-.14,1.349-.63,1.82-.477.506-1.255.582-1.821.177-1.355-.856-1.146-3.691.258-4.501.233-.189.565-.194.803-.011.915.605,1.514,1.366,1.389,2.516Z" fill="#9e8f4f"/>
      <path d="m225.625,195.462c.197.863-.248,1.745-1.059,2.1-.577.258-1.796-.781-1.929-1.719-.085-.598-.784-1.077-.232-1.847.384-.54.501-1.217,1.378-1.178.804.047,1.487.607,1.691,1.387.106.411.157.833.152,1.257Z" fill="#9e8f4f"/>
      <path d="m204.366,194.01c-.118.84-.538,1.609-1.181,2.163-.537.449-1.327.416-1.824-.077-.661-.49-.886-1.377-.539-2.123.326-.715.868-1.309,1.549-1.7.433-.242.972-.176,1.334.162.504.355.761.967.66,1.576Z" fill="#9e8f4f"/>
      <path d="m172.057,187.038c.018,1.142-.59,1.862-1.16,2.523-.427.389-1.076.404-1.52.033-.439-.353-1.097-.837-.806-1.476.311-.683.351-1.519,1.058-2.033.451-.329.871-.782,1.426-.439.539.333,1.212.687,1.002,1.392Z" fill="#9e8f4f"/>
      <path d="m56.13,174.995c.018-.366.024-.733.055-1.097-.028-.447.288-.843.73-.915.494-.086,1.077-.157,1.311.344.376.806.963,1.536.862,2.545-.116,1.159-.348,1.51-1.343,1.556-1.066.05-1.461-.324-1.572-1.517-.028-.303-.004-.61-.004-.915h-.039Z" fill="#9e8f4f"/>
      <path d="m192.695,190.775c-.114.896-.005,1.691-.718,2.291-.623.524-1.113.555-1.671-.055-1.128-1.235-.658-3.656.851-4.312.498-.217,1.271.26,1.435.947.066.373.1.751.103,1.129Z" fill="#9e8f4f"/>
      <path d="m18.787,171.455c.041,1.242-.081,2.058-.795,2.676-.464.408-1.116.522-1.691.297-.608-.192-.52-.739-.578-1.206-.139-1.121.571-1.945,1.056-2.822.25-.453.84-.394,1.333-.28.365.095.621.422.625.798.029.178.046.357.05.537Z" fill="#9e8f4f"/>
      <path d="m114.78,182.698c-.153.978-.728,1.84-1.572,2.358-.562.219-.956-.192-1.247-.494-.444-.46-.983-1.042-.575-1.755.243-.484.601-.901,1.042-1.215.485-.317.935-.663,1.46-.268.463.345,1.028.704.892,1.373Z" fill="#9e8f4f"/>
      <path d="m52.634,175.445c-.016.247-.038.428-.037.609.038.673-.324,1.305-.924,1.613-.584.329-.978-.17-1.222-.439-.452-.5-1.037-1.074-.629-1.911.172-.315.315-.646.427-.987.108-.611.658-1.044,1.277-1.006.622.107,1.073.652,1.062,1.283-.004.304.032.605.047.838Z" fill="#9e8f4f"/>
      <path d="m26.306,140.598c1.536-.021,2.157.548,1.907,1.611-.123.528-1.431,1.332-2.004,1.079-.564-.202-1.154-.321-1.752-.353-.353-.049-.818,0-.979-.325-.233-.471.257-.8.536-1.022.699-.554,1.449-1.093,2.291-.99Z" fill="#9e8f4f"/>
      <path d="m187.163,226.25c-.477.01-1.658-1.242-1.634-1.731.072-.859.735-1.55,1.59-1.658.947.032,1.698.811,1.695,1.759-.146.84-.809,1.495-1.652,1.63Z" fill="#9e8f4f"/>
      <path d="m196.666,226.464c.827-.119,1.593.455,1.712,1.281.119.827-.455,1.593-1.281,1.712-.131.019-.265.02-.397.004-.855.003-1.755-.75-1.765-1.481s.871-1.502,1.731-1.517Z" fill="#9e8f4f"/>
      <path d="m224.048,156.178c-1.152-.02-1.531-.417-1.481-1.556.043-1.007.394-1.392,1.279-1.401.941-.03,1.728.708,1.759,1.648,0,.01,0,.02,0,.03.007.937-.432,1.298-1.558,1.279Z" fill="#9e8f4f"/>
      <path d="m12.866,145.092c-.123.716-.716,1.258-1.441,1.316-.832-.178-1.434-.904-1.455-1.755.02-.809.406-1.152,1.271-1.128.874.003,1.59.694,1.625,1.567Z" fill="#9e8f4f"/>
      <path d="m24.627,174.093c.015.834-.588,1.666-1.281,1.675-.946.012-.976-.725-1.01-1.391-.052-1.027.294-1.472,1.1-1.493.832-.021,1.174.326,1.19,1.209Z" fill="#9e8f4f"/>
      <path d="m188.479,152.652c.706.016,1.868.949,1.748,1.389-.175.641-.511,1.213-1.299,1.251-.802-.031-1.45-.664-1.499-1.464.018-.76.68-.873,1.05-1.175Z" fill="#9e8f4f"/>
      <path d="m206.455,153.094c1.143-.004,1.571.312,1.597,1.136.099.517-.24,1.016-.757,1.115-.108.021-.219.022-.327.005-.89.004-1.829-.695-1.783-1.416.056-.875.77-.772,1.271-.84Z" fill="#9e8f4f"/>
      <path d="m198.414,155.444c.023-.591.718-1.384,1.191-1.359.446.024,1.657,1.238,1.505,1.612-.243.603-.611,1.145-1.43,1.11-.892-.038-1.303-.442-1.267-1.363Z" fill="#9e8f4f"/>
      <path d="m117.791,185.498c-.626.005-.829-.494-.806-1.191.024-.728.366-1.117,1.119-1.108.533-.078,1.028.291,1.105.824.014.095.014.193,0,.288-.005.83-.395,1.219-1.418,1.187Z" fill="#9e8f4f"/>
      <path d="m122.521,185.338c.706.005,1.128.304,1.105,1.083-.021.71-.303,1.146-1.073,1.155-.758.01-1.091-.387-1.107-1.113s.288-1.153,1.074-1.125Z" fill="#9e8f4f"/>
      <path d="m213.839,154.661c.071.528-.299,1.013-.827,1.084-.038.005-.076.008-.115.008-.554-.013-1.015-.43-1.083-.979-.132-.639.338-.855.854-.896.559-.045,1.117.005,1.17.783Z" fill="#9e8f4f"/>
      <path d="m3.21,143.742c-.136.642-.69.678-1.242.682-.598.004-.899-.295-.823-.911.085-.675.606-.688,1.092-.658.5.027.984.148.972.888Z" fill="#9e8f4f"/>
      <path d="m186.597,152.502c-.015.582-.461.645-.872.647-.471,0-1.006-.03-1.042-.688s.474-.76.961-.76c.508-.002.946.163.953.801Z" fill="#9e8f4f"/>
      <path d="m179.237,225.361c-.03.352-.299.379-.531.384-.394.007-.746-.1-.702-.603.019-.227.02-.59.34-.533.423.045.777.343.893.752Z" fill="#9e8f4f"/>
      <path d="m187.006,115.052c-.911.055-1.694-.639-1.748-1.55-.006-.096-.003-.192.008-.287-.042-1.002.736-1.848,1.737-1.89,0,0,0,0,0,0,.764-.007,1.797,1.206,1.792,2.101-.134.899-.883,1.579-1.79,1.626Z" fill="#9e8f4f"/>
    </g>
  </g>
</svg>